<?xml version="1.0" encoding="utf-8"?>
<!-- Generator: Adobe Illustrator 21.0.0, SVG Export Plug-In . SVG Version: 6.00 Build 0)  -->
<svg version="1.1" id="Layer_1" xmlns="http://www.w3.org/2000/svg" xmlns:xlink="http://www.w3.org/1999/xlink" x="0px" y="0px"
	 viewBox="0 0 601 55" style="enable-background:new 0 0 601 55;" xml:space="preserve">
<style type="text/css">
	.st0{fill:#BBC3D5;}
	.st1{fill:#FFFFFF;}
</style>
<g>
	<g>
		<circle class="st0" cx="253.5" cy="12.5" r="3.5"/>
		<path class="st0" d="M583.3,21.3c-3.1-5-8.6-8.3-14.8-8.3c-5.4,0-10.3,2.5-13.5,6.4c-0.1-1.9-1.6-3.4-3.5-3.4s-3.5,1.6-3.5,3.5
			s1.6,3.5,3.5,3.5c0.5,0,0.9-0.1,1.3-0.3c-1.2,2.3-1.8,5-1.8,7.8c0,0.7,0.1,1.4,0.1,2.1c-3-2.3-6.6-3.6-10.6-3.6
			c-1.3,0-2.5,0.1-3.7,0.4c0.1-0.6,0.2-1.2,0.2-1.9c0-5.2-4.3-9.5-9.5-9.5c-4,0-7.4,2.4-8.8,5.9c-3.4-3-7.8-4.9-12.7-4.9
			c-6.1,0-11.5,2.9-15,7.3c-3.2-3.3-7.6-5.3-12.5-5.3c-5.6,0-10.6,2.7-13.8,6.8C463.2,19.9,456.3,14,448,14
			c-6.7,0-12.5,3.9-15.3,9.6c-2.6-2.2-6-3.6-9.7-3.6c-7,0-12.9,4.8-14.5,11.4c-2.1-1.5-4.7-2.4-7.5-2.4c-2.6,0-5,0.8-7,2.1
			c0,0,0,0,0-0.1c0-4.4-3.6-8-8-8c-4,0-7.4,3-7.9,6.9C376,24.1,370.5,20,364,20c-3,0-5.8,0.9-8.2,2.4C354.6,11.5,345.3,3,334,3
			c-12.2,0-22,9.8-22,22c0,0,0,0,0,0.1c-3.2-4.9-8.7-8.1-15-8.1c-8,0-14.8,5.3-17.1,12.5c-2.4-6.1-8.4-10.5-15.4-10.5
			c-4.6,0-8.7,1.9-11.7,4.8c-2.9-1.2-6-1.8-9.3-1.8c-1.2,0-2.4,0.1-3.6,0.3c0.1-0.4,0.1-0.8,0.1-1.3c0-4.4-3.6-8-8-8
			c-3.6,0-6.7,2.4-7.7,5.8c-3.2-4.1-8.2-6.8-13.8-6.8c-5.7,0-10.7,2.7-13.9,6.9c-3.8-4.8-9.6-7.9-16.1-7.9c-5.2,0-10,2-13.6,5.2
			c-3-5.5-8.7-9.2-15.4-9.2c-6.4,0-12,3.5-15.1,8.6c-2.6-1.7-5.6-2.6-8.9-2.6c-7.2,0-13.3,4.6-15.6,11c-2-1.3-4.4-2-6.9-2
			c-2.6,0-5,0.8-7,2.1c0,0,0,0,0-0.1c0-4.4-3.6-8-8-8c-2.4,0-4.5,1-5.9,2.7C80.9,15.8,76.6,14,72,14c-4.3,0-8.2,1.5-11.2,4
			C59.3,7.8,50.6,0,40,0c-8.9,0-16.5,5.5-19.5,13.3C16.7,7.7,10.3,4,3,4C2,4,1,4.1,0,4.2V37h20.2c0.9-1.3,1.7-2.8,2.3-4.3
			c1.1,1.6,2.4,3.1,3.9,4.3h27.1c0.3-0.3,0.7-0.5,1-0.8c0.1,0.3,0.2,0.6,0.2,0.8h34.5c0.5-1.6,0.7-3.3,0.7-5c0.9,0,1.7-0.1,2.5-0.4
			C92.2,32.7,92,33.8,92,35c0,0.7,0.1,1.3,0.2,2h222.7c0-0.3,0.1-0.7,0.1-1c0.2,0.3,0.4,0.7,0.6,1h63.3c0.1-0.7,0.1-1.3,0.1-2v-0.1
			c0.4,0.8,1,1.5,1.7,2.1h204c0.3-0.7,0.5-1.4,0.7-2.2c0.4,0.8,0.9,1.5,1.4,2.2H601V4.2C592.1,5.5,584.9,12.4,583.3,21.3z"/>
		<circle class="st0" cx="401" cy="15" r="6"/>
		<circle class="st0" cx="93" cy="7" r="6"/>
	</g>
	<g>
		<path class="st1" d="M580.5,23c-3.2-4.3-8.3-7-14-7c-5.4,0-10.3,2.5-13.5,6.4c-0.1-1.9-1.6-3.4-3.5-3.4s-3.5,1.6-3.5,3.5
			s1.6,3.5,3.5,3.5c0.5,0,0.9-0.1,1.3-0.3c-1.2,2.3-1.8,5-1.8,7.8c0,0.7,0.1,1.4,0.1,2.1c-3-2.3-6.6-3.6-10.6-3.6
			c-1.3,0-2.5,0.1-3.7,0.4c0.1-0.6,0.2-1.2,0.2-1.9c0-5.2-4.3-9.5-9.5-9.5c-4,0-7.4,2.4-8.8,5.9c-3.4-3-7.8-4.9-12.7-4.9
			c-6.1,0-11.5,2.9-15,7.3c-3.2-3.3-7.6-5.3-12.5-5.3c-5.6,0-10.6,2.7-13.8,6.8C461.2,22.9,454.3,17,446,17
			c-6.7,0-12.5,3.9-15.3,9.6c-2.6-2.2-6-3.6-9.7-3.6c-7,0-12.9,4.8-14.5,11.4c-2.1-1.5-4.7-2.4-7.5-2.4c-2.6,0-5,0.8-7,2.1
			c0,0,0,0,0-0.1c0-4.4-3.6-8-8-8c-4,0-7.4,3-7.9,6.9C374,27.1,368.5,23,362,23c-3,0-5.8,0.9-8.2,2.4C352.6,14.5,343.3,6,332,6
			c-12.2,0-22,9.8-22,22c0,0,0,0,0,0.1c-3.2-4.9-8.7-8.1-15-8.1c-8,0-14.8,5.3-17.1,12.5c-2.4-6.1-8.4-10.5-15.4-10.5
			c-4.6,0-8.7,1.9-11.7,4.8c-2.9-1.2-6-1.8-9.3-1.8c-1.2,0-2.4,0.1-3.6,0.3c0.1-0.4,0.1-0.8,0.1-1.3c0-4.4-3.6-8-8-8
			c-3.6,0-6.7,2.4-7.7,5.8c-3.2-4.1-8.2-6.8-13.8-6.8c-5.7,0-10.7,2.7-13.9,6.9c-3.8-4.8-9.6-7.9-16.1-7.9c-5.2,0-10,2-13.6,5.2
			c-3-5.5-8.7-9.2-15.4-9.2c-6.4,0-12,3.5-15.1,8.6c-2.6-1.7-5.6-2.6-8.9-2.6c-7.2,0-13.3,4.6-15.6,11c-2-1.3-4.4-2-6.9-2
			c-2.6,0-5,0.8-7,2.1c0,0,0,0,0-0.1c0-4.4-3.6-8-8-8c-2.4,0-4.5,1-5.9,2.7C78.9,18.8,74.6,17,70,17c-4.3,0-8.2,1.5-11.2,4
			C57.3,10.8,48.6,3,38,3c-9.2,0-16.9,5.9-19.8,14.1C14.6,10.8,7.8,6.5,0,6.5V55h601V6.5C590.9,6.5,582.5,13.6,580.5,23z"/>
		<circle class="st1" cx="251.5" cy="15.5" r="3.5"/>
		<circle class="st1" cx="399" cy="18" r="6"/>
		<circle class="st1" cx="91" cy="10" r="6"/>
	</g>
</g>
</svg>
