<?xml version="1.0" encoding="UTF-8"?>
<!DOCTYPE svg PUBLIC "-//W3C//DTD SVG 1.1//EN" "http://www.w3.org/Graphics/SVG/1.1/DTD/svg11.dtd">
<!-- Creator: CorelDRAW X8 -->
<svg xmlns="http://www.w3.org/2000/svg" xml:space="preserve" width="124.772mm" height="173.424mm" version="1.1" style="shape-rendering:geometricPrecision; text-rendering:geometricPrecision; image-rendering:optimizeQuality; fill-rule:evenodd; clip-rule:evenodd"
viewBox="0 0 12351 17167"
 xmlns:xlink="http://www.w3.org/1999/xlink">
 <defs>
  <style type="text/css">
   <![CDATA[
    .fil1 {fill:none}
    .fil0 {fill:#FEFEFE}
   ]]>
  </style>
 </defs>
 <g id="Camada_x0020_1">
  <metadata id="CorelCorpID_0Corel-Layer"/>
  <g id="_690177534864">
   <path class="fil0" d="M5733 10194c-180,-163 -334,-340 -515,-517l-1020 -1023c-89,-89 -162,-166 -251,-255 -277,-278 -392,-237 -650,21 -762,761 -888,704 -131,1406 178,165 334,337 505,508l1528 1544c385,385 498,599 900,182l2040 -2046c86,-87 170,-163 255,-251l2295 -2297c253,-254 303,-381 39,-645l-506 -506c-301,-328 -470,-117 -655,64l-1782 1779c-1,1 -1993,2008 -2052,2036z"/>
   <rect class="fil1" width="12351" height="17167"/>
  </g>
 </g>
</svg>
