<?xml version="1.0" encoding="UTF-8"?>
<!DOCTYPE svg PUBLIC "-//W3C//DTD SVG 1.1//EN" "http://www.w3.org/Graphics/SVG/1.1/DTD/svg11.dtd">
<!-- Creator: CorelDRAW X8 -->
<svg xmlns="http://www.w3.org/2000/svg" xml:space="preserve" width="40mm" height="39.9999mm" version="1.1" style="shape-rendering:geometricPrecision; text-rendering:geometricPrecision; image-rendering:optimizeQuality; fill-rule:evenodd; clip-rule:evenodd"
viewBox="0 0 3071 3071"
 xmlns:xlink="http://www.w3.org/1999/xlink">
 <defs>
  <style type="text/css">
   <![CDATA[
    .fil2 {fill:none}
    .fil0 {fill:#41B553}
    .fil1 {fill:#2F9650}
    .fil3 {fill:#FEFEFE;fill-rule:nonzero}
   ]]>
  </style>
    <clipPath id="id0">
     <path d="M1535 0c848,0 1536,687 1536,1535 0,848 -688,1536 -1536,1536 -848,0 -1535,-688 -1535,-1536 0,-848 687,-1535 1535,-1535z"/>
    </clipPath>
 </defs>
 <g id="Camada_x0020_1">
  <metadata id="CorelCorpID_0Corel-Layer"/>
  <g id="_83039188416">
   <path class="fil0" d="M1535 0c848,0 1536,687 1536,1535 0,848 -688,1536 -1536,1536 -848,0 -1535,-688 -1535,-1536 0,-848 687,-1535 1535,-1535z"/>
   <g style="clip-path:url(#id0)">
    <g>
     <polygon id="1" class="fil1" points="336,2005 1521,3413 2896,2946 3546,1951 2923,1308 2503,1111 2226,1240 2178,1450 1941,1294 1623,1104 1210,1280 1183,1402 946,1159 404,1138 404,1917 "/>
    </g>
   </g>
   <path class="fil2" d="M1535 0c848,0 1536,687 1536,1535 0,848 -688,1536 -1536,1536 -848,0 -1535,-688 -1535,-1536 0,-848 687,-1535 1535,-1535z"/>
   <path class="fil3" d="M348 2005l0 -931 628 0 0 109 -504 0 0 290 437 0 0 109 -437 0 0 423 -124 0zm1223 -365l0 -110 394 0 0 345c-60,48 -123,85 -187,109 -64,24 -130,37 -198,37 -91,0 -174,-20 -249,-59 -75,-39 -131,-96 -169,-170 -38,-74 -57,-157 -57,-248 0,-90 18,-175 56,-254 38,-78 93,-136 164,-174 71,-38 153,-57 245,-57 68,0 129,10 183,32 54,22 97,52 128,91 31,39 54,90 70,153l-111 30c-14,-47 -31,-84 -52,-112 -21,-27 -50,-48 -89,-65 -38,-16 -81,-24 -128,-24 -56,0 -105,8 -146,26 -41,17 -74,39 -99,67 -25,28 -45,59 -58,93 -24,57 -36,120 -36,187 0,83 14,153 43,209 28,56 70,98 124,125 55,27 113,40 174,40 53,0 105,-10 156,-31 51,-20 89,-42 115,-66l0 -174 -273 0zm1239 38l124 32c-26,101 -73,178 -140,231 -67,53 -148,80 -245,80 -100,0 -182,-21 -245,-62 -63,-41 -110,-100 -143,-177 -33,-78 -49,-161 -49,-249 0,-97 18,-182 55,-254 37,-72 90,-127 158,-164 69,-38 144,-56 226,-56 93,0 171,23 234,71 64,47 108,114 133,199l-121 29c-21,-68 -53,-117 -94,-148 -41,-31 -92,-46 -155,-46 -71,0 -131,17 -178,51 -48,34 -82,81 -101,138 -20,58 -30,118 -30,179 0,79 12,148 35,207 23,59 58,103 107,132 49,30 101,44 158,44 68,0 126,-20 174,-59 48,-40 80,-99 97,-178z"/>
  </g>
 </g>
</svg>
