<svg id="Layer_1" data-name="Layer 1" xmlns="http://www.w3.org/2000/svg" viewBox="0 0 500 300"><defs><style>.cls-1{fill:#00c8aa;}.cls-2{fill:#0b2674;}.cls-3{opacity:0.2;}.cls-4{fill:#fd2087;}.cls-5{fill:#3acfef;}.cls-6{fill:#425bff;}.cls-7{fill:#ffd652;}.cls-8{opacity:0.1;}.cls-18,.cls-9{fill:#fff;}.cls-10{fill:#f6e7d1;}.cls-11{fill:#fafafa;}.cls-12{opacity:0.5;}.cls-13{fill:#c18860;}.cls-14{fill:#f0f0f0;}.cls-15{fill:#0052b4;}.cls-16{fill:#d80027;}.cls-17{opacity:0.4;}.cls-18{fill-rule:evenodd;}.cls-19{fill:#ffda44;}</style></defs><title>screens for translators</title><rect class="cls-1" x="265.53" y="183.48" width="109.83" height="61.75" transform="translate(-37.46 71.04) rotate(-11.96)"/><path class="cls-2" d="M273.12,257a1,1,0,0,1-1-.83L259.3,195.75a1,1,0,0,1,.81-1.24l107.45-22.75a1,1,0,0,1,1.24.81L381.59,233a1,1,0,0,1-.81,1.24L273.34,257Zm-11.55-60.65,12.36,58.36,105.4-22.32L367,174Z"/><polygon class="cls-2" points="320.45 214.36 260.33 195.53 367.77 172.78 320.45 214.36"/><path class="cls-2" d="M320.45,215.41a1.05,1.05,0,0,1-.31,0L260,196.53a1,1,0,0,1,.1-2l107.45-22.75a1,1,0,0,1,.91,1.81l-47.33,41.58A1,1,0,0,1,320.45,215.41Zm-56-19.68,55.74,17.46,43.88-38.55Z"/><g class="cls-3"><polygon points="317.07 222.18 260.33 195.53 367.77 172.78 317.07 222.18"/></g><path class="cls-4" d="M336.07,85.72l-52.87,139a5.24,5.24,0,0,1-6.76,3l-99.88-38a5.24,5.24,0,0,1-3-6.76L226.39,44a5.22,5.22,0,0,1,6.76-3L333,79a5.22,5.22,0,0,1,3,6.76Z"/><path class="cls-2" d="M278.29,228.67a5.74,5.74,0,0,1-2-.38l-99.88-38a5.77,5.77,0,0,1-3.34-7.43L225.91,43.83a5.75,5.75,0,0,1,5.23-3.72,5.63,5.63,0,0,1,2.2.38l99.88,38a5.75,5.75,0,0,1,3.34,7.43L283.68,225A5.77,5.77,0,0,1,278.29,228.67Zm-47-187.51h-.11a4.71,4.71,0,0,0-4.28,3L174,183.25a4.72,4.72,0,0,0,2.73,6.08l99.88,38a4.72,4.72,0,0,0,6.08-2.73L335.58,85.53a4.7,4.7,0,0,0-2.73-6.08L233,41.47A4.73,4.73,0,0,0,231.28,41.16Z"/><path class="cls-5" d="M315.52,69.18l-30,145.71a5.24,5.24,0,0,1-6.19,4.07L174.67,197.41a5.24,5.24,0,0,1-4.07-6.19l30-145.71a5.22,5.22,0,0,1,6.19-4.07L311.45,63a5.22,5.22,0,0,1,4.07,6.19Z"/><path class="cls-2" d="M280.39,219.59a5.83,5.83,0,0,1-1.17-.12L174.56,197.92a5.77,5.77,0,0,1-4.48-6.81l30-145.71a5.75,5.75,0,0,1,6.81-4.48L311.55,62.48A5.74,5.74,0,0,1,316,69.28h0L286,215a5.77,5.77,0,0,1-5.63,4.6ZM205.71,41.85a4.69,4.69,0,0,0-4.6,3.77l-30,145.71a4.72,4.72,0,0,0,3.67,5.57l104.66,21.55a4.72,4.72,0,0,0,5.57-3.67L315,69.07a4.7,4.7,0,0,0-3.67-5.57L206.68,42A4.77,4.77,0,0,0,205.71,41.85Z"/><path class="cls-6" d="M251.11,118.44h-66a1,1,0,1,1,0-2.1h66a1,1,0,1,1,0,2.1Z"/><path class="cls-7" d="M286.73,66.94V215.71a5.24,5.24,0,0,1-5.24,5.24H174.64a5.24,5.24,0,0,1-5.24-5.24V66.94a5.22,5.22,0,0,1,5.24-5.24H281.49a5.22,5.22,0,0,1,5.24,5.24Z"/><path class="cls-2" d="M281.49,221.47H174.64a5.77,5.77,0,0,1-5.76-5.76V66.94a5.75,5.75,0,0,1,5.76-5.76H281.49a5.74,5.74,0,0,1,5.76,5.76V215.71A5.77,5.77,0,0,1,281.49,221.47ZM174.64,62.23a4.7,4.7,0,0,0-4.71,4.71V215.71a4.72,4.72,0,0,0,4.71,4.71H281.49a4.72,4.72,0,0,0,4.71-4.71V66.94a4.7,4.7,0,0,0-4.71-4.71Z"/><g class="cls-8"><path d="M286.73,140.27v75.44a5.24,5.24,0,0,1-5.24,5.24H216.57C249.49,209.38,275.73,179.06,286.73,140.27Z"/></g><path class="cls-2" d="M281.49,221.47H174.64a5.77,5.77,0,0,1-5.76-5.76V66.94a5.75,5.75,0,0,1,5.76-5.76H281.49a5.74,5.74,0,0,1,5.76,5.76V215.71A5.77,5.77,0,0,1,281.49,221.47ZM174.64,62.23a4.7,4.7,0,0,0-4.71,4.71V215.71a4.72,4.72,0,0,0,4.71,4.71H281.49a4.72,4.72,0,0,0,4.71-4.71V66.94a4.7,4.7,0,0,0-4.71-4.71Z"/><path class="cls-2" d="M274.16,210.73H245.88a1,1,0,0,1,0-2.1h28.29a1,1,0,1,1,0,2.1Z"/><path class="cls-6" d="M266.83,109.65H185.11a1,1,0,1,1,0-2.1h81.71a1,1,0,1,1,0,2.1Z"/><path class="cls-6" d="M266.83,121.75H185.11a1,1,0,1,1,0-2.1h81.71a1,1,0,1,1,0,2.1Z"/><path class="cls-6" d="M266.83,133.85H185.11a1,1,0,0,1,0-2.1h81.71a1,1,0,0,1,0,2.1Z"/><path class="cls-6" d="M266.83,145.94H185.11a1,1,0,0,1,0-2.1h81.71a1,1,0,0,1,0,2.1Z"/><path class="cls-6" d="M266.83,158H185.11a1,1,0,1,1,0-2.1h81.71a1,1,0,1,1,0,2.1Z"/><path class="cls-6" d="M266.83,170.14H185.11a1,1,0,1,1,0-2.1h81.71a1,1,0,1,1,0,2.1Z"/><path class="cls-6" d="M266.83,182.23H185.11a1,1,0,1,1,0-2.1h81.71a1,1,0,1,1,0,2.1Z"/><path class="cls-9" d="M266.83,98.7H185.11a2.62,2.62,0,0,1,0-5.24h81.71a2.62,2.62,0,1,1,0,5.24Z"/><circle class="cls-7" cx="194.02" cy="104.07" r="49.03" transform="translate(-9.28 188.59) rotate(-50.78)"/><path class="cls-2" d="M193.93,154.15a50.08,50.08,0,0,1-38.7-81.75h0a50.08,50.08,0,1,1,43.84,81.48A51.12,51.12,0,0,1,193.93,154.15Zm.18-98.07a48.91,48.91,0,0,0-4.92.25,47.67,47.67,0,0,0-32.34,17.4h0a48,48,0,1,0,37.26-17.65Z"/><rect class="cls-10" x="185.2" y="120.28" width="16.12" height="9.92"/><path class="cls-2" d="M201.84,130.72H184.67v-11h17.16Zm-16.12-1h15.07V120.8H185.72Z"/><path class="cls-10" d="M213.52,83.1l-36.79.32c0,5.73-2.58,4.42-2.58,10.15,0,8.29-1.07,17.69,4.71,24.45a19.68,19.68,0,0,0,34.65-12.78,19.68,19.68,0,0,0,0-3.52Z"/><path class="cls-10" d="M190.89,106.85a3,3,0,0,0,5.9,0"/><path class="cls-2" d="M193.84,110a3.33,3.33,0,0,1-3.48-3.15.52.52,0,1,1,1,0,2.45,2.45,0,0,0,4.86,0,.52.52,0,1,1,1,0A3.33,3.33,0,0,1,193.84,110Z"/><path class="cls-9" d="M220.4,135.85l-16.63-10.58a1.91,1.91,0,0,0-1.73-.16l-7.43,3a1.91,1.91,0,0,0-1.2,1.77v23.27l.66,0a46.15,46.15,0,0,0,29.86-10.91A7.63,7.63,0,0,0,220.4,135.85Z"/><path class="cls-9" d="M192.21,128.08l-7.43-3a1.91,1.91,0,0,0-1.73.16l-16.63,10.58a8.25,8.25,0,0,0-3.32,5.41,46.16,46.16,0,0,0,30.31,11.86V129.85A1.91,1.91,0,0,0,192.21,128.08Z"/><g class="cls-3"><path d="M220.41,135.84l-5-3.21a27.09,27.09,0,0,1,3.33,13c0,.16,0,.31,0,.47a46.46,46.46,0,0,0,5.26-3.84A7.64,7.64,0,0,0,220.41,135.84Z"/></g><path class="cls-2" d="M193.41,153.64h0a46.83,46.83,0,0,1-30.64-12,.52.52,0,0,1-.16-.51c.43-1.76,1.26-4.27,3.53-5.73l16.64-10.57a2.39,2.39,0,0,1,2.21-.22l7.42,3a2.45,2.45,0,0,1,1.53,2.26v23.26a.52.52,0,0,1-.52.52ZM163.7,141.08a45.78,45.78,0,0,0,29.19,11.5V129.85a1.39,1.39,0,0,0-.87-1.29h0l-7.42-3a1.35,1.35,0,0,0-1.25.12L166.7,136.29C165.25,137.22,164.32,138.7,163.7,141.08Z"/><path class="cls-2" d="M205.31,151.75c.85-.21,1.69-.44,2.52-.7h-2.52Z"/><path class="cls-2" d="M194.08,153.66h-.67a.52.52,0,0,1-.52-.52V129.85a2.42,2.42,0,0,1,1.53-2.26l7.43-3a2.44,2.44,0,0,1,2.21.21l16.63,10.58a8.12,8.12,0,0,1,3.77,6.81.52.52,0,0,1-.19.4A46.89,46.89,0,0,1,194.08,153.66Zm-.14-1h.14A45.85,45.85,0,0,0,223.4,142a7.08,7.08,0,0,0-3.28-5.69h0L203.5,125.71a1.39,1.39,0,0,0-1.26-.12l-7.43,3a1.38,1.38,0,0,0-.87,1.29Z"/><path class="cls-2" d="M193.41,153.64h0a46.82,46.82,0,0,1-30.64-12,.52.52,0,0,1-.16-.51c.43-1.77,1.26-4.28,3.54-5.73l16.63-10.58a2.43,2.43,0,0,1,2.21-.21l7.43,3a2.42,2.42,0,0,1,1.53,2.26v23.27a.52.52,0,0,1-.52.52Zm-29.72-12.56a45.77,45.77,0,0,0,29.19,11.5V129.85a1.38,1.38,0,0,0-.87-1.29h0l-7.43-3a1.39,1.39,0,0,0-1.26.12L166.7,136.29C165.25,137.21,164.31,138.7,163.69,141.08Z"/><polygon class="cls-11" points="180.41 126.94 189.6 136.19 193.41 128.56 183.87 124.74 180.41 126.94"/><path class="cls-2" d="M189.6,136.71a.52.52,0,0,1-.37-.15L180,127.31a.52.52,0,0,1,.09-.81l3.46-2.2a.53.53,0,0,1,.48,0l9.54,3.82a.52.52,0,0,1,.27.72l-3.82,7.63a.52.52,0,0,1-.39.28ZM181.24,127l8.21,8.27,3.24-6.47-8.76-3.5Z"/><polygon class="cls-11" points="193.41 128.56 197.23 136.19 206.41 126.94 202.95 124.74 193.41 128.56"/><path class="cls-2" d="M197.23,136.71h-.08a.52.52,0,0,1-.39-.28l-3.82-7.63a.52.52,0,0,1,.27-.72l9.54-3.82a.52.52,0,0,1,.48,0l3.46,2.2a.52.52,0,0,1,.09.81l-9.19,9.24A.52.52,0,0,1,197.23,136.71Zm-3.09-7.88,3.24,6.47,8.21-8.27-2.69-1.71Z"/><path class="cls-2" d="M194,125.45a20.47,20.47,0,0,1-15.37-7.09c-5.14-6-5-13.85-4.88-21.43,0-1.13,0-2.26,0-3.36,0-3,.36-3.6.72-4.17s.56-.9.56-3.61v-.52h39.14v16.46a9.61,9.61,0,0,1,0,2.34c0,.39,0,.78,0,1.18A20.23,20.23,0,0,1,194,125.45ZM176.14,86.31c0,2.56-.38,3.11-.71,3.64s-.56.9-.56,3.61c0,1.11,0,2.24,0,3.38-.12,7.38-.25,15,4.63,20.73A19.4,19.4,0,0,0,194,124.41a19.18,19.18,0,0,0,19.16-19.16c0-.42,0-.83,0-1.24a9.17,9.17,0,0,0,0-2.19V86.31Z"/><g class="cls-12"><circle class="cls-13" cx="207.51" cy="105.71" r="0.31" transform="translate(11.8 231.94) rotate(-59.82)"/></g><g class="cls-12"><circle class="cls-13" cx="205.87" cy="106.1" r="0.4" transform="matrix(0.5, -0.86, 0.86, 0.5, 10.64, 230.69)"/></g><g class="cls-12"><circle class="cls-13" cx="207" cy="107.2" r="0.31" transform="translate(10.27 232.26) rotate(-59.82)"/></g><g class="cls-12"><circle class="cls-13" cx="180.63" cy="105.93" r="0.34"/></g><g class="cls-12"><circle class="cls-13" cx="183.36" cy="107.2" r="0.67"/></g><g class="cls-12"><circle class="cls-13" cx="182.58" cy="105.54" r="0.34"/></g><path class="cls-2" d="M208.94,143.61h-8.07a1,1,0,1,1,0-2.1h8.07a1,1,0,1,1,0,2.1Z"/><circle class="cls-2" cx="185.74" cy="99.86" r="1.68"/><circle class="cls-11" cx="186.07" cy="99.52" r="0.67"/><circle class="cls-2" cx="201.21" cy="99.86" r="1.68"/><circle class="cls-11" cx="201.54" cy="99.52" r="0.67"/><path class="cls-4" d="M193.34,134.6l-2.56,4.6.82,13.86c.82,0,1.65.07,2.48.07.43,0,.85,0,1.27,0l.82-13.9Z"/><path class="cls-2" d="M194.08,153.66c-.84,0-1.68,0-2.5-.07a.52.52,0,0,1-.5-.49l-.82-13.86a.53.53,0,0,1,.06-.29l2.56-4.6a.53.53,0,0,1,.45-.27.6.6,0,0,1,.46.25l2.82,4.6a.52.52,0,0,1,.08.3l-.82,13.9a.52.52,0,0,1-.51.49H195Zm-2-1.09c.92,0,1.84.06,2.76,0l.78-13.26-2.27-3.69-2,3.68Z"/><path class="cls-4" d="M194.57,131a1.34,1.34,0,0,0-2.36,0l-1.35,2.42a1.35,1.35,0,0,0,.06,1.41l1.36,2a1.34,1.34,0,0,0,2.25,0l1.28-2a1.34,1.34,0,0,0,.05-1.35Z"/><path class="cls-2" d="M193.38,138a1.86,1.86,0,0,1-1.55-.82l-1.35-2a1.86,1.86,0,0,1-.08-2l1.35-2.42a1.84,1.84,0,0,1,1.63-1h0a1.84,1.84,0,0,1,1.63,1l1.28,2.42a1.87,1.87,0,0,1-.08,1.88l-1.28,2a1.87,1.87,0,0,1-1.55.87Zm0-7.12a.81.81,0,0,0-.72.42l-1.35,2.42a.82.82,0,0,0,0,.86l1.35,2a.83.83,0,0,0,.69.36.81.81,0,0,0,.68-.38l1.28-2a.82.82,0,0,0,0-.82l-1.28-2.42h0a.81.81,0,0,0-.72-.44Z"/><path class="cls-2" d="M181,101.06a.52.52,0,0,1-.28-.08l-5.38-3.36a.52.52,0,1,1,.55-.89l5.38,3.36a.52.52,0,0,1-.28,1Z"/><path class="cls-2" d="M206.59,101.06a.52.52,0,0,1-.29-1l6.05-4a.52.52,0,0,1,.58.87l-6.05,4A.52.52,0,0,1,206.59,101.06Z"/><path class="cls-2" d="M196.5,101.06h-5.38a.52.52,0,0,1,0-1h5.38a.52.52,0,0,1,0,1Z"/><g class="cls-3"><circle class="cls-6" cx="201.54" cy="100.19" r="5.04"/></g><path class="cls-2" d="M201.54,105.76a5.57,5.57,0,1,1,5.57-5.57A5.57,5.57,0,0,1,201.54,105.76Zm0-10.09a4.52,4.52,0,1,0,4.52,4.52A4.53,4.53,0,0,0,201.54,95.68Z"/><g class="cls-3"><circle class="cls-6" cx="186.07" cy="100.19" r="5.04"/></g><path class="cls-2" d="M186.08,105.76a5.57,5.57,0,1,1,5.57-5.57A5.57,5.57,0,0,1,186.08,105.76Zm0-10.09a4.52,4.52,0,1,0,4.52,4.52A4.53,4.53,0,0,0,186.08,95.68Z"/><path class="cls-1" d="M180.43,126.93l-14,8.91a8.27,8.27,0,0,0-3.31,5.41,46.15,46.15,0,0,0,28.35,11.8Z"/><path class="cls-2" d="M192.26,153.62l-.84,0a46.94,46.94,0,0,1-28.67-11.93l-.23-.21.07-.3c.66-2.79,1.78-4.61,3.54-5.73l14.54-9.24Zm-28.57-12.55a45.91,45.91,0,0,0,26.95,11.4l-10.45-24.77-13.49,8.58A7.46,7.46,0,0,0,163.69,141.08Z"/><path class="cls-1" d="M220.41,135.84,206.49,127,195.24,153.1a46.13,46.13,0,0,0,28.69-10.88A7.64,7.64,0,0,0,220.41,135.84Z"/><path class="cls-2" d="M194.44,153.65l11.81-27.43,14.44,9.19a8.14,8.14,0,0,1,3.77,6.81v.25l-.19.16a47,47,0,0,1-29,11Zm12.29-25.89L196,152.55A45.91,45.91,0,0,0,223.4,142a7.09,7.09,0,0,0-3.28-5.7Z"/><path class="cls-1" d="M207.93,134.3h2.69l1-4-5.11-3.25-11.28,26a46.54,46.54,0,0,0,6.86-.68l7.16-16.11Z"/><path class="cls-2" d="M195.25,153.63a.52.52,0,0,1-.48-.73l11.28-26a.52.52,0,0,1,.76-.23l5.12,3.25a.52.52,0,0,1,.23.57l-1,4a.52.52,0,0,1-.51.39h-1.71l.8,1.2a.52.52,0,0,1,0,.5l-7.16,16.11a.52.52,0,0,1-.39.3,47.18,47.18,0,0,1-6.93.69Zm11.51-25.77-10.7,24.7a46.13,46.13,0,0,0,5.68-.6l6.93-15.59-1.18-1.78a.52.52,0,0,1,.44-.81h2.28l.83-3.2Z"/><path class="cls-1" d="M175.29,130.2l1,4H179l-1.34,2,7.12,16a46.37,46.37,0,0,0,6.66.85l-11-26.11Z"/><path class="cls-2" d="M191.45,153.58h0a47,47,0,0,1-6.73-.86.52.52,0,0,1-.37-.3l-7.12-16a.52.52,0,0,1,0-.5l.8-1.2h-1.71a.52.52,0,0,1-.51-.39l-1-4a.52.52,0,0,1,.23-.57l5.12-3.25a.52.52,0,0,1,.76.24l11,26.11a.52.52,0,0,1-.48.73Zm-6.29-1.84a45.77,45.77,0,0,0,5.47.74l-10.47-24.76-4.27,2.72.83,3.2H179a.52.52,0,0,1,.44.81l-1.18,1.78Z"/><path class="cls-2" d="M194.54,120.27a7.33,7.33,0,0,1-7.18-5.68.52.52,0,0,1,.51-.64h13.34a.52.52,0,0,1,.51.64A7.33,7.33,0,0,1,194.54,120.27Zm-6-5.27a6.33,6.33,0,0,0,11.94,0Z"/><path class="cls-11" d="M194.54,119.75a6.85,6.85,0,0,0,6.67-5.28H187.87A6.85,6.85,0,0,0,194.54,119.75Z"/><path class="cls-2" d="M194.54,120.27a7.33,7.33,0,0,1-7.18-5.68.52.52,0,0,1,.51-.64h13.34a.52.52,0,0,1,.51.64A7.33,7.33,0,0,1,194.54,120.27Zm-6-5.27a6.33,6.33,0,0,0,11.94,0Z"/><g class="cls-8"><path d="M197.71,114.89c0,1.72-1.27,3.23-3.19,4.09l-.3.75h.33a6.84,6.84,0,0,0,6.66-5.28h-3.52A3,3,0,0,1,197.71,114.89Z"/></g><path class="cls-7" d="M211.24,67c-3.88,9.69-9.38,9.08-21.42,7.71S177.25,77.44,176,80.08c-2.07,4.39-1.55,18.75-1.55,18.75,6-7.82,6.41-11.8,6.41-11.8,15.92,4.48,26.21-.21,26.21-.21.39,4.27,6.8,12,6.8,12l.19-12.23C220.86,76.37,211.24,67,211.24,67Z"/><path class="cls-2" d="M174.45,99.35l-.16,0a.52.52,0,0,1-.36-.48c0-.59-.5-14.54,1.6-19,.11-.23.21-.47.32-.72,1.13-2.64,2.67-6.26,14-5C202,75.55,207,76.12,210.75,66.79a.53.53,0,0,1,.38-.32.53.53,0,0,1,.47.14c.1.1,9.77,9.73,3,20.16l-.19,12.07a.52.52,0,0,1-.93.33c-.25-.31-5.9-7.17-6.81-11.61-2.46.93-11.79,3.81-25.39.13-.33,1.41-1.61,5.24-6.4,11.46A.52.52,0,0,1,174.45,99.35Zm32.62-13.06a.52.52,0,0,1,.52.48c.28,3.11,4,8.29,5.78,10.58l.17-10.75a.52.52,0,0,1,.09-.28c5.54-8.35-.34-16.22-2.22-18.38-4,9.27-10,8.6-21.65,7.28-10.59-1.2-11.9,1.87-13,4.34-.11.26-.22.51-.33.75-1.61,3.4-1.6,13.23-1.54,17,5-6.78,5.4-10.29,5.4-10.33a.53.53,0,0,1,.66-.45c15.53,4.37,25.75-.14,25.86-.19A.52.52,0,0,1,207.07,86.29Z"/><path class="cls-2" d="M207,82.46a.52.52,0,0,1-.25-1c2.43-1.32,3.88-2.82,4.19-4.33a3,3,0,0,0-.43-2.29.52.52,0,1,1,.83-.64,4,4,0,0,1,.63,3.15c-.39,1.85-2,3.54-4.72,5A.52.52,0,0,1,207,82.46Z"/><path class="cls-10" d="M175.54,98.59a4.77,4.77,0,0,0,0,9.54"/><path class="cls-2" d="M175.54,108.65a5.29,5.29,0,0,1,0-10.59.52.52,0,0,1,0,1,4.25,4.25,0,1,0,0,8.49.52.52,0,0,1,0,1Z"/><path class="cls-10" d="M212.65,108.13a4.77,4.77,0,1,0,0-9.54"/><path class="cls-2" d="M212.65,108.65a.52.52,0,0,1,0-1,4.25,4.25,0,1,0,0-8.49.52.52,0,0,1,0-1,5.29,5.29,0,0,1,0,10.59Z"/><g class="cls-3"><path d="M223.78,140.79c-5.51,5.92-15.79,10-27.7,10.36-.57,0-1.13,0-1.71,0q-1.92,0-3.77-.13c-12-.81-22.06-5.41-26.88-11.75a7,7,0,0,1,2.7-3.46l.13-.08c4.87,4.31,12.41,7.42,21.18,8.48a54.91,54.91,0,0,0,6.64.4c1.56,0,3.1-.06,4.6-.19,9.1-.74,17.06-3.69,22.34-7.92A7.58,7.58,0,0,1,223.78,140.79Z"/></g><rect class="cls-1" x="162.18" y="152.51" width="14.2" height="8.67" transform="translate(260.65 368.76) rotate(-156.14)"/><path class="cls-2" d="M174,164.73a1,1,0,0,1-.42-.09l-13-5.74a1,1,0,0,1-.53-1.38l3.51-7.93A1,1,0,0,1,165,149l13,5.74a1,1,0,0,1,.53,1.38L175,164.1a1,1,0,0,1-1,.62Zm-11.6-7.32,11.07,4.9,2.66-6-11.07-4.9Z"/><path class="cls-1" d="M144.61,156.93h9.18a6.4,6.4,0,0,1,6.4,6.4v84.19a0,0,0,0,1,0,0h-22a0,0,0,0,1,0,0V163.33a6.4,6.4,0,0,1,6.4-6.4Z" transform="translate(203.85 447.53) rotate(-156.14)"/><g class="cls-8"><path class="cls-2" d="M127,240.72c1,1.23,6.87,3.57,8.44,4.26,5.55,2.45,7.33-1.47,9.78-7l32.21-72.82-8.55-3.78-32.21,72.82A11,11,0,0,1,127,240.72Z"/></g><path class="cls-2" d="M137.65,247.11a7.4,7.4,0,0,1-3-.64l-8.39-3.71h0a7.45,7.45,0,0,1-3.8-9.82l34.06-77a1,1,0,0,1,1.38-.53l20.1,8.89a1,1,0,0,1,.53,1.38l-34.06,77A7.46,7.46,0,0,1,137.65,247.11Zm-10.55-6.27,8.39,3.71a5.36,5.36,0,0,0,7.06-2.73l33.63-76-18.18-8-33.63,76a5.36,5.36,0,0,0,2.73,7.06Z"/><path class="cls-2" d="M194,160.12A55.69,55.69,0,1,1,216.56,53.49h0A55.72,55.72,0,0,1,194,160.12Zm.11-109.3a53.56,53.56,0,1,0,21.59,4.57h0A53.29,53.29,0,0,0,194.12,50.83ZM194,151.13a46.72,46.72,0,1,1,46.71-46.71A46.77,46.77,0,0,1,194,151.13Zm0-91.34a44.62,44.62,0,1,0,44.62,44.63A44.67,44.67,0,0,0,194,59.79Z"/><path class="cls-6" d="M216.13,54.44A54.64,54.64,0,1,0,244,126.52,54.63,54.63,0,0,0,216.13,54.44ZM194,150.08a45.67,45.67,0,1,1,45.67-45.67A45.66,45.66,0,0,1,194,150.08Z"/><path class="cls-2" d="M194,160.12A55.69,55.69,0,1,1,216.56,53.49h0A55.72,55.72,0,0,1,194,160.12Zm.11-109.3a53.56,53.56,0,1,0,21.59,4.57h0A53.29,53.29,0,0,0,194.12,50.83ZM194,151.13a46.72,46.72,0,1,1,46.71-46.71A46.77,46.77,0,0,1,194,151.13Zm0-91.34a44.62,44.62,0,1,0,44.62,44.63A44.67,44.67,0,0,0,194,59.79Z"/><g class="cls-3"><path d="M235,68.27A53,53,0,0,1,244.3,98.2c0,31.16-27.32,56.41-61,56.41a66,66,0,0,1-13.91-1.48c.85.44,1.71.85,2.58,1.24A54.64,54.64,0,0,0,235,68.27Z"/></g><path class="cls-14" d="M282,77.23A9.21,9.21,0,1,1,272.75,68,9.21,9.21,0,0,1,282,77.23Zm0,0"/><path class="cls-15" d="M265.45,71.62a9.17,9.17,0,0,0-1.59,3.2h4.79Zm0,0"/><path class="cls-15" d="M281.64,74.82a9.17,9.17,0,0,0-1.59-3.2l-3.2,3.2Zm0,0"/><path class="cls-15" d="M263.86,79.63a9.18,9.18,0,0,0,1.59,3.2l3.2-3.2Zm0,0"/><path class="cls-15" d="M278.36,69.92a9.18,9.18,0,0,0-3.2-1.59v4.79Zm0,0"/><path class="cls-15" d="M267.15,84.53a9.17,9.17,0,0,0,3.2,1.59V81.33Zm0,0"/><path class="cls-15" d="M270.35,68.34a9.18,9.18,0,0,0-3.2,1.59l3.2,3.2Zm0,0"/><path class="cls-15" d="M275.16,86.12a9.17,9.17,0,0,0,3.2-1.59l-3.2-3.2Zm0,0"/><path class="cls-15" d="M276.85,79.63l3.2,3.2a9.17,9.17,0,0,0,1.59-3.2Zm0,0"/><path class="cls-16" d="M281.88,76H274V68.1a9.29,9.29,0,0,0-2.4,0V76h-7.93a9.29,9.29,0,0,0,0,2.4h7.93v7.93a9.29,9.29,0,0,0,2.4,0V78.43h7.93a9.29,9.29,0,0,0,0-2.4Zm0,0"/><path class="cls-16" d="M275.16,79.63l4.11,4.11q.28-.28.54-.59l-3.52-3.52Zm0,0"/><path class="cls-16" d="M270.35,79.63h0l-4.11,4.11q.28.28.59.54l3.52-3.52Zm0,0"/><path class="cls-16" d="M270.35,74.82l-4.11-4.11q-.28.28-.54.59l3.52,3.52Zm0,0"/><path class="cls-16" d="M275.16,74.82l4.11-4.11q-.28-.28-.59-.54l-3.52,3.52Zm0,0"/><path class="cls-2" d="M273,87a9.75,9.75,0,1,1,9.75-9.75A9.76,9.76,0,0,1,273,87Zm0-18.46a8.71,8.71,0,1,0,8.71,8.71A8.72,8.72,0,0,0,273,68.53Z"/><g class="cls-17"><path class="cls-9" d="M317.15,192.69a1.14,1.14,0,0,1-.35.27c-.29.14-.53,0-.54-.31a2.59,2.59,0,0,1,.13-.75c.25-.86-.08-1.35-1-1.4a2.91,2.91,0,0,0-1.94.49,1,1,0,0,0,.07,1.76,5.43,5.43,0,0,0,1.09.43c.61.19,1.23.32,1.84.52a2.34,2.34,0,0,1,1.87,2.1,2.49,2.49,0,0,1-1.32,2.36,4.77,4.77,0,0,1-1.68.8,4.46,4.46,0,0,1-2.36-.18,2.1,2.1,0,0,1-1.45-1.92,1.14,1.14,0,0,1,.58-1.09c.33-.19.59-.07.64.31,0,.2,0,.4.06.61a1.18,1.18,0,0,0,1.08,1.14,3.06,3.06,0,0,0,2.77-1,1.15,1.15,0,0,0-.28-1.91,15.38,15.38,0,0,0-2-.71,13.92,13.92,0,0,1-1.68-.61,1.86,1.86,0,0,1-.56-3,3.82,3.82,0,0,1,4.6-.82A2,2,0,0,1,317.15,192.69ZM328,187a6.9,6.9,0,0,0-.5,4.18A8.23,8.23,0,0,0,328,187Zm-3.07,4.55a.92.92,0,0,0-.85,1.13,13.23,13.23,0,0,0,.32,1.67.68.68,0,0,0,1.11.41,5,5,0,0,0,.68-.52c.61-.54.53-.62.32-1.1a8.62,8.62,0,0,1-.24-1.89Zm-.74-3.22c-.07,0-.22.11-.25.19a6.64,6.64,0,0,0-.23,2.29l.11.06c.08-.1.19-.18.23-.29.14-.48.27-1,.37-1.45a1.39,1.39,0,0,0,0-.56A.36.36,0,0,0,324.17,188.35Zm-2.86,5.29c.1-.27.06-.57-.21-.65a.71.71,0,0,0-.6.26,2,2,0,0,0-.23,1.45A1.69,1.69,0,0,0,321.31,193.64Zm11.85-.78c-.85.35-1.26.08-1.94-1.35l-.29,2.11c0,.23-.05.46-.1.68s-.06.55-.39.63-.5-.13-.81-.22a10.41,10.41,0,0,1-1.24.66c-.62.24-.91-.3-1.29-.67-.3.26-.59.52-.89.76-1.13.92-1.55.9-2.49-.08a13.08,13.08,0,0,1-1.59,1.24,1.9,1.9,0,0,1-3-1.41,3.45,3.45,0,0,1,.38-2.4A1.6,1.6,0,0,1,321,192a1.2,1.2,0,0,1,1.21,1.47,2.79,2.79,0,0,1-1.19,1.78l-.4.28a.64.64,0,0,0,.87.21,4,4,0,0,0,1.62-1.32.41.41,0,0,0,0-.3c-.15-.71-.3-1.43-.47-2.19a7.55,7.55,0,0,1-1,0c-.15,0-.29-.16-.43-.25.1-.12.18-.3.31-.34a10.52,10.52,0,0,1,1.07-.24c.06-.66.08-1.3.2-1.91a5.23,5.23,0,0,1,.51-1.48.81.81,0,0,1,1.48-.05,2.17,2.17,0,0,1,.34,1.82c-.08.41-.21.81-.33,1.27l1.39-.3a7.49,7.49,0,0,1,.11-1.24,25.19,25.19,0,0,1,.75-2.47,1.79,1.79,0,0,1,.59-.71.8.8,0,0,1,1.39.47,4.14,4.14,0,0,1,.1,1.56c-.23,1.23-.56,2.44-.85,3.66-.13.54-.25,1.07-.37,1.61a.76.76,0,0,0,0,.28c.11.63.39.73.89.35a1.3,1.3,0,0,0,.58-1.3,12.93,12.93,0,0,1,0-2.1.67.67,0,0,1,.3-.46c.26-.15.49-.1.56.27s.14.69.24,1.11a3.92,3.92,0,0,1,.16-.56,4.41,4.41,0,0,1,.54-1,.8.8,0,0,1,.69-.16c.14,0,.27.34.3.55.06.37,0,.76.09,1.13s.35.58.74.34A8.71,8.71,0,0,0,334,191,1.24,1.24,0,0,1,333.16,192.86Z"/><g id="icon"><path class="cls-18" d="M304.74,198.84a4.46,4.46,0,0,1,1-2,4.6,4.6,0,0,1,2.27-.16,5.5,5.5,0,0,1,1.27,1.89,5.32,5.32,0,0,1-1,2,6.63,6.63,0,0,1-2.27.16h0l-1.15.18s.27-.52.47-.94A4,4,0,0,1,304.74,198.84ZM301,196.68a.88.88,0,1,1-.11-1.24A.88.88,0,0,1,301,196.68Zm3.4,1.29-1,1.19,0,1-.5-.42-.09.11a.79.79,0,0,1-1.11.1l-1.14-1a.79.79,0,0,1-.1-1.11l1.55-1.84a.79.79,0,0,1,1.11-.1l1.14,1A.79.79,0,0,1,304.39,198Zm.67-5.73a.89.89,0,1,1,.68-1.06A.89.89,0,0,1,305.06,192.23Zm1.13,1.3s-.24-.35-.3-.34-.11.39-.13.43-.42.11-.42.18.35.2.38.25,0,.41,0,.45.32-.26.37-.27.4.15.45.1-.15-.36-.15-.42.27-.32.24-.39S306.23,193.55,306.18,193.53Zm.89,1.61-.78.84v-.67a11.3,11.3,0,0,1-2.33.5c-.28-.11-1.5-2.54-1.31-3s3.95-.13,4.15.16a9.23,9.23,0,0,1,.71,2C307.5,195.1,307.07,195.14,307.07,195.14Zm2.09.77a.78.78,0,1,1-.36-1A.78.78,0,0,1,309.16,195.91Z"/></g></g><path class="cls-19" d="M293,75.6A7.6,7.6,0,0,0,307,78l-6.9-1.87Zm0,0"/><path d="M301.72,66.73a7.6,7.6,0,0,0-7.87,3.66l6.9,1.87,7.13.57a7.6,7.6,0,0,0-6.17-6.1Zm0,0"/><path class="cls-16" d="M293.86,70.39A7.62,7.62,0,0,0,293,75.6L307,78a7.62,7.62,0,0,0,.91-5.21Zm0,0"/><path class="cls-2" d="M300.55,82.46a8.3,8.3,0,1,1,8.3-8.3A8.31,8.31,0,0,1,300.55,82.46Zm0-15.71A7.41,7.41,0,1,0,308,74.15,7.42,7.42,0,0,0,300.55,66.74Z"/><path class="cls-14" d="M330.06,92.18a7.71,7.71,0,1,1-4.22-10.05,7.71,7.71,0,0,1,4.22,10.05Zm0,0"/><path class="cls-16" d="M330.06,92.18a7.71,7.71,0,0,0-1.92-8.59L322.67,97a7.71,7.71,0,0,0,7.39-4.79Zm0,0"/><path class="cls-15" d="M315.79,86.34a7.71,7.71,0,0,0,1.92,8.59l5.47-13.38a7.71,7.71,0,0,0-7.39,4.79Zm0,0"/><path class="cls-2" d="M322.9,97.47a8.3,8.3,0,1,1,8.3-8.3A8.31,8.31,0,0,1,322.9,97.47Zm0-15.71a7.41,7.41,0,1,0,7.41,7.41A7.42,7.42,0,0,0,322.9,81.76Z"/><g class="cls-17"><path class="cls-11" d="M155.34,104.36a1,1,0,0,1-1-1,39.48,39.48,0,0,1,39.43-39.43,1,1,0,1,1,0,2.1,37.38,37.38,0,0,0-37.34,37.34A1,1,0,0,1,155.34,104.36Z"/></g></svg>