<svg xmlns="http://www.w3.org/2000/svg" viewBox="0 0 500 300"><defs><style>.cls-1{fill:#fff;}.cls-2{fill:#00c8aa;}.cls-3{fill:#ffd652;}.cls-4{fill:#fd2087;}.cls-5{opacity:0.1;}.cls-6{fill:#425bff;}.cls-7{fill:#0b2674;}.cls-8{fill:#3acfef;}.cls-9{opacity:0.2;}.cls-10{opacity:0.3;}.cls-11{opacity:0.5;}</style></defs><title>screens for translators</title><g id="Layer_15" data-name="Layer 15"><rect class="cls-1" x="159.2" y="113.28" width="198.72" height="129.93" rx="5.42" ry="5.42"/><rect class="cls-1" x="163.39" y="130.71" width="190.33" height="107.75" rx="2.71" ry="2.71"/><circle class="cls-2" cx="185.34" cy="121.2" r="3.17"/><circle class="cls-3" cx="175.84" cy="121.2" r="3.17"/><circle class="cls-4" cx="166.33" cy="121.2" r="3.17"/><g class="cls-5"><rect x="164.33" y="145.19" width="152.51" height="8.42" rx="2.71" ry="2.71"/></g><g class="cls-5"><rect x="164.33" y="133.43" width="152.51" height="8.42" rx="2.71" ry="2.71"/></g><g class="cls-5"><rect x="165.01" y="158.76" width="36.2" height="2.93" rx="1.46" ry="1.46"/></g><g class="cls-5"><rect x="165.01" y="166.44" width="36.2" height="2.93" rx="1.46" ry="1.46"/></g><g class="cls-5"><rect x="165.01" y="174.13" width="36.2" height="2.93" rx="1.46" ry="1.46"/></g><g class="cls-5"><rect x="165.01" y="181.81" width="36.2" height="2.93" rx="1.46" ry="1.46"/></g><g class="cls-5"><rect x="165.01" y="189.5" width="36.2" height="2.93" rx="1.46" ry="1.46"/></g><g class="cls-5"><rect x="165.01" y="197.18" width="36.2" height="2.93" rx="1.46" ry="1.46"/></g><g class="cls-5"><rect x="206.7" y="219.89" width="81.69" height="2.93" rx="1.46" ry="1.46"/></g><g class="cls-5"><rect x="206.7" y="226.22" width="81.69" height="2.93" rx="1.46" ry="1.46"/></g><rect class="cls-3" x="206.4" y="161.1" width="104.32" height="53.14" rx="2.39" ry="2.39"/><polygon class="cls-1" points="267.1 186.66 254.02 179.11 254.02 194.21 267.1 186.66"/><path class="cls-3" d="M253.42,195.25V178.07l14.88,8.59Zm1.2-15.1v13l11.29-6.52Z"/><path class="cls-1" d="M258.72,198.33A11.33,11.33,0,1,1,270.05,187,11.34,11.34,0,0,1,258.72,198.33Zm0-21.47A10.13,10.13,0,1,0,268.85,187,10.15,10.15,0,0,0,258.72,176.86Z"/><path class="cls-4" d="M345,202a25.16,25.16,0,0,1-14.24,22.67h0a25.18,25.18,0,1,1-10.92-47.87,24,24,0,0,1,2.43.12,25.17,25.17,0,0,1,22.36,20.71A24.29,24.29,0,0,1,345,202Z"/><g class="cls-5"><path d="M345,202a25.16,25.16,0,0,1-14.24,22.67h0a27.91,27.91,0,0,1-8.81,1.41A28.3,28.3,0,0,1,295.15,207a25.16,25.16,0,0,1,24.67-30.16,24,24,0,0,1,2.43.12v20.71h22.36A24.29,24.29,0,0,1,345,202Z"/></g><path class="cls-4" d="M352.48,203.09a.68.68,0,0,1-.68-.68A32.4,32.4,0,0,0,319.44,170a.68.68,0,0,1,0-1.36,33.76,33.76,0,0,1,33.72,33.72A.68.68,0,0,1,352.48,203.09Z"/><path class="cls-2" d="M347.69,202.26v.12a28.32,28.32,0,1,1-28.32-28.32h.33v28.19Z"/><path class="cls-6" d="M336.93,202.26v.12a17.56,17.56,0,1,1-17.56-17.56h.33v17.43Z"/><g class="cls-5"><path d="M336.39,206.74a17.56,17.56,0,0,1-34.5-2.83c2.71,5.75,9.82,9.85,18.16,9.85C326.94,213.75,333,211,336.39,206.74Z"/></g><path class="cls-7" d="M319.37,220.62a18.24,18.24,0,0,1,0-36.47h.37a.68.68,0,0,1,.64.68v16.75h16.55a.68.68,0,0,1,.68.68v.12A18.26,18.26,0,0,1,319.37,220.62ZM319,185.51a16.88,16.88,0,1,0,17.21,17.43H319.7a.68.68,0,0,1-.68-.68Z"/><g class="cls-5"><path d="M347.7,202.27v.12a28.32,28.32,0,0,1-56.65,0,28,28,0,0,1,.23-3.55,28.32,28.32,0,0,0,55.53,3.43Z"/></g><path class="cls-7" d="M319.37,231.38a29,29,0,0,1,0-58h.37a.68.68,0,0,1,.64.68v27.52h27.31a.68.68,0,0,1,.68.68v.12A29,29,0,0,1,319.37,231.38ZM319,174.75a27.64,27.64,0,1,0,28,28.2H319.7a.68.68,0,0,1-.68-.68Z"/><g class="cls-5"><polygon class="cls-1" points="173.35 239.43 363.13 241.73 363.13 104.07 293.88 104.63 173.35 239.43"/></g><path class="cls-8" d="M370.36,106.39v129a6.2,6.2,0,0,1-6.2,6.2h-.46a6.2,6.2,0,0,1-6.2-6.2V119.25a6.2,6.2,0,0,0-6.2-6.2H164.41a6.2,6.2,0,0,0-6.2,6.2V235.43a6.2,6.2,0,0,1-6.2,6.2h-.46a6.2,6.2,0,0,1-6.2-6.2v-129a6.2,6.2,0,0,1,6.2-6.2H364.17A6.2,6.2,0,0,1,370.36,106.39Z"/><path class="cls-7" d="M358.31,235.42V119.25a6.32,6.32,0,0,0-.21-1.65,4.6,4.6,0,0,0-.29-.93h0a7.79,7.79,0,0,0-.49-1,6.88,6.88,0,0,0-1.48-1.74h0a7,7,0,0,0-4.51-1.66H164.41a7,7,0,0,0-7,7V235.42a2.06,2.06,0,0,1,0,.37H159a2.12,2.12,0,0,0,0-.37V119.25a5,5,0,0,1,.17-1.34,5.38,5.38,0,0,1,5.22-4.05H351.31a5.38,5.38,0,0,1,4.74,2.83,4.93,4.93,0,0,1,.32.69,5.36,5.36,0,0,1,.34,1.88V235h.81v.43a2.06,2.06,0,0,0,0,.37h.8A2.06,2.06,0,0,1,358.31,235.42Zm12.63-130.77a7,7,0,0,0-6.77-5.26H151.55a7,7,0,0,0-7,7v129a2.12,2.12,0,0,0,0,.37,7,7,0,0,0,7,6.64H152a7,7,0,0,0,7-6.64,2.12,2.12,0,0,0,0-.37V119.25a5,5,0,0,1,.17-1.34,5.38,5.38,0,0,1,5.22-4.05H351.31a5.38,5.38,0,0,1,4.74,2.83,4.93,4.93,0,0,1,.32.69,5.36,5.36,0,0,1,.34,1.88V235.42a2.14,2.14,0,0,0,0,.37,6.76,6.76,0,0,0,1.17,3.52h0a7,7,0,0,0,2.7,2.37,6.81,6.81,0,0,0,3.11.74h.47a7,7,0,0,0,7-6.64,2.12,2.12,0,0,0,0-.37v-129A6.52,6.52,0,0,0,370.94,104.65Zm-1.38,130.77a2.06,2.06,0,0,1,0,.37,5.39,5.39,0,0,1-5.37,5h-.47a4.83,4.83,0,0,1-.57,0,5.38,5.38,0,0,1-4.8-5,2.06,2.06,0,0,1,0-.37V119.25a6.32,6.32,0,0,0-.21-1.65,4.6,4.6,0,0,0-.29-.93h0a7.79,7.79,0,0,0-.49-1,6.88,6.88,0,0,0-1.48-1.74h0a7,7,0,0,0-4.51-1.66H164.41a7,7,0,0,0-7,7V235.42a2.06,2.06,0,0,1,0,.37,5.38,5.38,0,0,1-5.37,5h-.46a5.39,5.39,0,0,1-5.37-5,2.06,2.06,0,0,1,0-.37v-129a5.41,5.41,0,0,1,5.39-5.39H364.17a5.38,5.38,0,0,1,5.35,4.8,3.51,3.51,0,0,1,0,.59Zm-11.26,0V119.25a6.32,6.32,0,0,0-.21-1.65,4.6,4.6,0,0,0-.29-.93h0a7.79,7.79,0,0,0-.49-1,6.88,6.88,0,0,0-1.48-1.74h0a7,7,0,0,0-4.51-1.66H164.41a7,7,0,0,0-7,7V235.42a2.06,2.06,0,0,1,0,.37H159a2.12,2.12,0,0,0,0-.37V119.25a5,5,0,0,1,.17-1.34,5.38,5.38,0,0,1,5.22-4.05H351.31a5.38,5.38,0,0,1,4.74,2.83,4.93,4.93,0,0,1,.32.69,5.36,5.36,0,0,1,.34,1.88V235h.81v.43a2.06,2.06,0,0,0,0,.37h.8A2.06,2.06,0,0,1,358.31,235.42Z"/><rect class="cls-7" x="193.84" y="235.8" width="112.11" height="7.97"/><path class="cls-8" d="M379.54,248.6H132.94A13.61,13.61,0,0,1,119.34,235H230.29l3.77,2.38h44.58L282.2,235H393.14A13.61,13.61,0,0,1,379.54,248.6Z"/><path class="cls-7" d="M357.51,235.42V235h-.81v-.81h-3V235H282.2l-1.2.8-2.37,1.57H234.05l-2.5-1.57-1.27-.8H159v.43a2.12,2.12,0,0,1,0,.37h71.06l3.77,2.38h45.05l3.57-2.38h75.09A2.06,2.06,0,0,1,357.51,235.42ZM282,234.19l-2.4,1.61-1.16.78H234.28l-1.22-.78-2.54-1.61h-112V235a14.42,14.42,0,0,0,14.41,14.4h246.6a14.42,14.42,0,0,0,14.4-14.4v-.81Zm107.4,9a12.76,12.76,0,0,1-9.8,4.59H132.95a12.82,12.82,0,0,1-12.77-12H230.06l3.77,2.38h45.05l3.57-2.38H392.32A12.77,12.77,0,0,1,389.35,243.21Zm-31.84-7.79V235h-.81v-.81h-3V235H282.2l-1.2.8-2.37,1.57H234.05l-2.5-1.57-1.27-.8H159v.43a2.12,2.12,0,0,1,0,.37h71.06l3.77,2.38h45.05l3.57-2.38h75.09A2.06,2.06,0,0,1,357.51,235.42Z"/><g class="cls-9"><path d="M391.32,243.21c-.59,0-1.3.29-2.15,1.64-2.45,3.93-5.85,3.48-9.58,3.48H133.82c-5,0-9.41,0-11.75-5.13Z"/></g><path class="cls-7" d="M357.51,235.42V235h-.81v-.81h-3V235H282.2l-1.2.8-2.37,1.57H234.05l-2.5-1.57-1.27-.8H159v.43a2.12,2.12,0,0,1,0,.37h71.06l3.77,2.38h45.05l3.57-2.38h75.09A2.06,2.06,0,0,1,357.51,235.42ZM282,234.19l-2.4,1.61-1.16.78H234.28l-1.22-.78-2.54-1.61h-112V235a14.42,14.42,0,0,0,14.41,14.4h246.6a14.42,14.42,0,0,0,14.4-14.4v-.81Zm107.4,9a12.76,12.76,0,0,1-9.8,4.59H132.95a12.82,12.82,0,0,1-12.77-12H230.06l3.77,2.38h45.05l3.57-2.38H392.32A12.77,12.77,0,0,1,389.35,243.21Zm-31.84-7.79V235h-.81v-.81h-3V235H282.2l-1.2.8-2.37,1.57H234.05l-2.5-1.57-1.27-.8H159v.43a2.12,2.12,0,0,1,0,.37h71.06l3.77,2.38h45.05l3.57-2.38h75.09A2.06,2.06,0,0,1,357.51,235.42Z"/><g class="cls-5"><path d="M371.86,74.33v78l-1-.14-1-.15-8-1.15-6-.85-.49-.08-.5-.07-1-.15-3.7-.53-3.68-.53.14.5-4.46,1.23.58,2.12L349,175.24a4.53,4.53,0,0,1-3.16,5.56l-10.39,2.86a4.54,4.54,0,0,1-5.55-3.16l-.05-.19-1.08-3.93-1.89-6.89-1.08-3.95-1.9-6.89-.24-.88-.58-2.13a11.77,11.77,0,0,1-13-5.8l-1.64.45a4.84,4.84,0,0,1-5.59-2.45,4.23,4.23,0,0,1-.37-.92l-.38-1.41-.43-1.6-1.9-6.89-1.08-3.93-.91-3.31-.75-2.71a4,4,0,0,1-.15-.87,4.82,4.82,0,0,1,3.53-5.07l1.65-.46a11.75,11.75,0,0,1,8.63-11.76l15.84-4.35,7.3-2,0,.11,3.74-3,11.19-9,4.29-3.47.79-.64.79-.64.11-.08L361.88,80l7.93-6.41.91-.73.85-.69A8.1,8.1,0,0,1,371.86,74.33Z"/></g><rect class="cls-6" x="154.88" y="198.95" width="37.07" height="8.87"/><g class="cls-10"><rect class="cls-2" x="154.88" y="198.95" width="5.22" height="8.87"/></g><g class="cls-10"><rect x="186.03" y="198.95" width="5.92" height="8.87"/></g><rect class="cls-6" x="160.58" y="207.82" width="37.07" height="8.87"/><g class="cls-10"><rect class="cls-2" x="160.58" y="207.82" width="5.22" height="8.87"/></g><g class="cls-10"><rect x="191.73" y="207.82" width="5.92" height="8.87"/></g><rect class="cls-6" x="152.13" y="216.69" width="37.07" height="8.87"/><g class="cls-10"><rect class="cls-2" x="152.13" y="216.69" width="5.22" height="8.87"/></g><g class="cls-10"><rect x="183.27" y="216.69" width="5.92" height="8.87"/></g><rect class="cls-6" x="154.88" y="225.55" width="37.07" height="8.87"/><g class="cls-10"><rect class="cls-2" x="154.88" y="225.55" width="5.22" height="8.87"/></g><g class="cls-10"><rect x="186.03" y="225.55" width="5.92" height="8.87"/></g><rect class="cls-6" x="118.01" y="225.55" width="37.07" height="8.87"/><g class="cls-10"><rect class="cls-2" x="118.01" y="225.55" width="5.22" height="8.87"/></g><g class="cls-10"><rect x="149.16" y="225.55" width="5.92" height="8.87"/></g><rect class="cls-6" x="115.05" y="216.69" width="37.07" height="8.87"/><g class="cls-10"><rect class="cls-2" x="115.05" y="216.69" width="5.22" height="8.87"/></g><g class="cls-10"><rect x="146.2" y="216.69" width="5.92" height="8.87"/></g><path class="cls-7" d="M192,208.5H154.88a.68.68,0,0,1-.68-.68V199a.68.68,0,0,1,.68-.68H192a.68.68,0,0,1,.68.68v8.87A.68.68,0,0,1,192,208.5Zm-36.4-1.36h35.72v-7.51H155.56Z"/><path class="cls-7" d="M197.65,217.36H160.58a.68.68,0,0,1-.68-.68v-8.87a.68.68,0,0,1,.68-.68h37.07a.68.68,0,0,1,.68.68v8.87A.68.68,0,0,1,197.65,217.36ZM161.26,216H197V208.5H161.26Z"/><path class="cls-7" d="M189.2,226.23H152.13a.68.68,0,0,1-.68-.68v-8.87a.68.68,0,0,1,.68-.68H189.2a.68.68,0,0,1,.68.68v8.87A.68.68,0,0,1,189.2,226.23Zm-36.4-1.36h35.72v-7.51H152.8Z"/><path class="cls-7" d="M192,235.1H154.88a.68.68,0,0,1-.68-.68v-8.87a.68.68,0,0,1,.68-.68H192a.68.68,0,0,1,.68.68v8.87A.68.68,0,0,1,192,235.1Zm-36.4-1.36h35.72v-7.51H155.56Z"/><path class="cls-7" d="M155.09,235.1H118a.68.68,0,0,1-.68-.68v-8.87a.68.68,0,0,1,.68-.68h37.07a.68.68,0,0,1,.68.68v8.87A.68.68,0,0,1,155.09,235.1Zm-36.4-1.36h35.72v-7.51H118.69Z"/><path class="cls-7" d="M152.13,226.23H115.05a.68.68,0,0,1-.68-.68v-8.87a.68.68,0,0,1,.68-.68h37.07a.68.68,0,0,1,.68.68v8.87A.68.68,0,0,1,152.13,226.23Zm-36.4-1.36h35.72v-7.51H115.73Z"/><circle class="cls-6" cx="172.23" cy="178.29" r="19.59" transform="translate(-24.27 27.16) rotate(-8.43)"/><g class="cls-10"><path d="M191.72,176.24a19.59,19.59,0,0,1-33,17A19.58,19.58,0,0,0,181.91,162,19.54,19.54,0,0,1,191.72,176.24Z"/></g><path class="cls-7" d="M172.18,198.56a20.27,20.27,0,1,1,20.09-23.24h0a20.29,20.29,0,0,1-17.08,23A20.59,20.59,0,0,1,172.18,198.56Zm.06-39.18a18.91,18.91,0,1,0,18.69,16.14A19,19,0,0,0,172.24,159.38Z"/><g class="cls-11"><path class="cls-8" d="M175.58,182.48a2.61,2.61,0,0,0-.81-1.68,5.57,5.57,0,0,0-2.12-.94,17.12,17.12,0,0,1-5.33-2,5.24,5.24,0,0,1-2.15-3.84,5.36,5.36,0,0,1,1-4.24,7.12,7.12,0,0,1,4.09-2.48l-.45-3,2.28-.34.46,3.08a6.22,6.22,0,0,1,6.53,5.76l0,.08-4.75.7a3.79,3.79,0,0,0-.95-2.24,2,2,0,0,0-1.72-.53,1.8,1.8,0,0,0-1.41.85,2.58,2.58,0,0,0-.25,1.68,2.42,2.42,0,0,0,.76,1.53,5.61,5.61,0,0,0,2.14,1,18.18,18.18,0,0,1,5.31,2.11,5.22,5.22,0,0,1,2.16,3.81,5.39,5.39,0,0,1-1,4.25,7,7,0,0,1-4,2.42l.43,2.88-2.28.34-.43-2.9a7.87,7.87,0,0,1-4.91-1.26,6.2,6.2,0,0,1-2.51-4.64l0-.09,4.72-.7a3.58,3.58,0,0,0,1.15,2.45,2.73,2.73,0,0,0,2.12.48,2,2,0,0,0,1.47-.83A2.33,2.33,0,0,0,175.58,182.48Z"/></g><path class="cls-6" d="M382.17,180.91a.68.68,0,0,1-.57-.31l-2.23-3.4a.68.68,0,1,1,1.13-.75l2.23,3.4a.68.68,0,0,1-.57,1.05Zm2.46-3a.68.68,0,0,1-.54-1.09l2.47-3.24a.68.68,0,1,1,1.08.82l-2.47,3.24A.68.68,0,0,1,384.63,177.91Zm-6.92-3.8a.68.68,0,0,1-.57-.31l-2.23-3.4a.68.68,0,0,1,1.13-.75l2.23,3.4a.68.68,0,0,1-.57,1.05Zm11.86-2.67a.68.68,0,0,1-.54-1.09l2.47-3.24a.68.68,0,1,1,1.08.82l-2.47,3.24A.68.68,0,0,1,389.56,171.44Zm-16.32-4.13a.68.68,0,0,1-.57-.31l-2.23-3.4a.68.68,0,0,1,1.13-.75l2.23,3.4a.68.68,0,0,1-.57,1.05ZM394.49,165a.68.68,0,0,1-.54-1.09l2.47-3.24a.68.68,0,1,1,1.08.82L395,164.7A.68.68,0,0,1,394.49,165Zm-25.73-4.46a.68.68,0,0,1-.57-.31L366,156.8a.68.68,0,0,1,1.13-.75l2.23,3.4a.68.68,0,0,1-.57,1.05Zm30.66-2a.68.68,0,0,1-.54-1.09l2.47-3.24a.68.68,0,1,1,1.08.82L400,158.22A.68.68,0,0,1,399.42,158.49Zm-35.12-4.78a.68.68,0,0,1-.57-.31l-2.23-3.4a.68.68,0,0,1,1.13-.75l2.23,3.4a.68.68,0,0,1-.57,1.05Zm-241.4-.82a.68.68,0,0,1-.52-1.12l2.63-3.11a.68.68,0,1,1,1,.88l-2.62,3.11A.68.68,0,0,1,122.89,152.89ZM404.35,152a.68.68,0,0,1-.54-1.09l2.47-3.24a.68.68,0,1,1,1.08.82l-2.47,3.24A.68.68,0,0,1,404.35,152Zm-44.53-5.11a.68.68,0,0,1-.57-.31L357,143.2a.68.68,0,0,1,1.13-.75l2.23,3.4a.68.68,0,0,1-.57,1.05Zm-231.68-.23a.68.68,0,0,1-.52-1.12l2.62-3.11a.68.68,0,1,1,1,.88l-2.62,3.11A.68.68,0,0,1,128.14,146.67Zm281.14-1.13a.68.68,0,0,1-.54-1.09l2.47-3.24a.68.68,0,1,1,1.08.82l-2.47,3.24A.68.68,0,0,1,409.28,145.55Zm-275.89-5.09a.68.68,0,0,1-.52-1.12l2.63-3.11a.68.68,0,1,1,1,.88l-2.63,3.11A.68.68,0,0,1,133.39,140.46Zm222-.35a.68.68,0,0,1-.57-.31l-2.23-3.4a.68.68,0,0,1,1.13-.75l2.23,3.4a.68.68,0,0,1-.57,1.05ZM237.7,136a.67.67,0,0,1-.46-.18l-3-2.74a.68.68,0,0,1,.91-1l3,2.74a.68.68,0,0,1-.46,1.18Zm2.59-.77a.68.68,0,0,1-.56-1.06L242,130.8a.68.68,0,0,1,1.12.76l-2.28,3.37A.68.68,0,0,1,240.28,135.23Zm-101.64-1a.68.68,0,0,1-.52-1.12l2.63-3.11a.68.68,0,1,1,1,.88L139.16,134A.68.68,0,0,1,138.64,134.24Zm212.25-.93a.68.68,0,0,1-.57-.31l-2.23-3.4a.68.68,0,1,1,1.13-.75l2.23,3.4a.68.68,0,0,1-.57,1.05Zm-119.2-2.8a.68.68,0,0,1-.46-.18l-3-2.74a.68.68,0,0,1,.91-1l3,2.74a.68.68,0,0,1-.46,1.18Zm13.16-2a.68.68,0,0,1-.56-1.06l2.28-3.37a.68.68,0,1,1,1.12.76l-2.28,3.37A.68.68,0,0,1,244.84,128.49ZM143.89,128a.68.68,0,0,1-.52-1.12L146,123.8a.68.68,0,1,1,1,.88l-2.62,3.11A.68.68,0,0,1,143.89,128Zm202.53-1.52a.68.68,0,0,1-.57-.31l-2.23-3.4a.68.68,0,1,1,1.13-.75l2.23,3.4a.68.68,0,0,1-.57,1.05ZM225.68,125a.68.68,0,0,1-.46-.18l-3-2.74a.68.68,0,0,1,.91-1l3,2.74a.68.68,0,0,1-.46,1.18Zm-76.53-3.21a.68.68,0,0,1-.52-1.12l2.63-3.11a.68.68,0,1,1,1,.88l-2.63,3.11A.68.68,0,0,1,149.14,121.81Zm100.26-.06a.67.67,0,0,1-.38-.12.68.68,0,0,1-.18-.94l2.28-3.37a.68.68,0,0,1,1.12.76L250,121.45A.68.68,0,0,1,249.4,121.75Zm92.55-2a.68.68,0,0,1-.57-.31l-2.23-3.4a.68.68,0,1,1,1.13-.75l2.23,3.4a.68.68,0,0,1-.57,1.05Zm-122.28-.17a.68.68,0,0,1-.46-.18l-3-2.74a.68.68,0,1,1,.91-1l3,2.74a.68.68,0,0,1-.46,1.18Zm-65.27-3.94a.68.68,0,0,1-.52-1.12l2.63-3.11a.68.68,0,1,1,1,.88l-2.62,3.11A.68.68,0,0,1,154.39,115.59ZM254,115a.67.67,0,0,1-.38-.12.68.68,0,0,1-.18-.94l2.28-3.37a.68.68,0,1,1,1.12.76l-2.28,3.37A.68.68,0,0,1,254,115Zm-40.3-1a.68.68,0,0,1-.46-.18l-3-2.74a.68.68,0,1,1,.91-1l3,2.74a.68.68,0,0,1-.46,1.18Zm123.82-1.14a.68.68,0,0,1-.57-.31l-2.23-3.4a.68.68,0,1,1,1.13-.75l2.23,3.4a.68.68,0,0,1-.57,1.05Zm-177.83-3.53a.68.68,0,0,1-.52-1.12l2.63-3.11a.68.68,0,1,1,1,.88l-2.62,3.11A.68.68,0,0,1,159.65,109.38Zm48-.81a.67.67,0,0,1-.46-.18l-3-2.74a.68.68,0,1,1,.91-1l3,2.74a.68.68,0,0,1-.46,1.18Zm50.87-.3a.68.68,0,0,1-.56-1.06l2.28-3.37a.68.68,0,1,1,1.12.76L259.08,108A.68.68,0,0,1,258.52,108.27Zm74.5-2.16a.68.68,0,0,1-.57-.31l-2.23-3.4a.68.68,0,1,1,1.13-.75l2.23,3.4a.68.68,0,0,1-.57,1.05ZM164.9,103.16a.68.68,0,0,1-.52-1.12L167,98.94a.68.68,0,1,1,1,.88l-2.63,3.11A.68.68,0,0,1,164.9,103.16Zm36.74-.08a.68.68,0,0,1-.46-.18l-3-2.74a.68.68,0,0,1,.91-1l3,2.74a.68.68,0,0,1-.46,1.18Zm61.44-1.55a.68.68,0,0,1-.56-1.06l2.28-3.37a.68.68,0,1,1,1.12.76l-2.28,3.37A.68.68,0,0,1,263.08,101.53Zm65.47-2.22A.68.68,0,0,1,328,99l-2.23-3.4a.68.68,0,1,1,1.13-.75l2.23,3.4a.68.68,0,0,1-.57,1.05ZM195.63,97.59a.68.68,0,0,1-.46-.18l-3-2.74a.68.68,0,0,1,.91-1l3,2.74a.68.68,0,0,1-.46,1.18Zm-25.48-.65a.68.68,0,0,1-.52-1.12l2.63-3.11a.68.68,0,1,1,1,.88l-2.62,3.11A.68.68,0,0,1,170.15,96.94Zm97.49-2.16a.67.67,0,0,1-.38-.12.68.68,0,0,1-.18-.94l2.28-3.37a.68.68,0,1,1,1.12.76l-2.28,3.37A.68.68,0,0,1,267.63,94.79Zm56.44-2.28a.68.68,0,0,1-.57-.31l-2.23-3.4a.68.68,0,1,1,1.13-.75l2.23,3.4a.68.68,0,0,1-.57,1.05Zm-134.45-.4a.68.68,0,0,1-.46-.18l-3-2.74a.68.68,0,0,1,.91-1l3,2.74a.68.68,0,0,1-.46,1.18ZM175.4,90.73a.68.68,0,0,1-.52-1.12l2.63-3.11a.68.68,0,1,1,1,.88l-2.62,3.11A.68.68,0,0,1,175.4,90.73ZM272.19,88a.68.68,0,0,1-.56-1.06l2.28-3.37a.68.68,0,1,1,1.12.76l-2.28,3.37A.68.68,0,0,1,272.19,88Zm-88.58-1.43a.68.68,0,0,1-.46-.18l-2.2-2a.68.68,0,0,1-.83-1l.29-.34a.68.68,0,0,1,1-.06l2.68,2.44a.68.68,0,0,1-.46,1.18Zm136-.91a.68.68,0,0,1-.57-.31L316.8,82a.68.68,0,0,1,1.13-.75l2.23,3.4a.68.68,0,0,1-.57,1.05Zm-42.85-4.4a.68.68,0,0,1-.56-1.06l2.28-3.37a.68.68,0,1,1,1.12.76L277.31,81A.68.68,0,0,1,276.75,81.31Zm38.39-2.4a.68.68,0,0,1-.57-.31l-2.23-3.4a.68.68,0,0,1,1.13-.75l2.23,3.4a.68.68,0,0,1-.57,1.05Zm-33.83-4.34a.68.68,0,0,1-.56-1.06L283,70.14a.68.68,0,1,1,1.12.76l-2.28,3.37A.68.68,0,0,1,281.31,74.57Zm29.36-2.46a.68.68,0,0,1-.57-.31l-2.23-3.4a.68.68,0,0,1,1.13-.75l2.23,3.4a.68.68,0,0,1-.57,1.05Zm-24.8-4.28a.67.67,0,0,1-.38-.12.68.68,0,0,1-.18-.94l2.28-3.37a.68.68,0,1,1,1.12.76l-2.28,3.37A.68.68,0,0,1,285.87,67.83Zm20.33-2.52a.68.68,0,0,1-.57-.31l-2.23-3.4a.68.68,0,0,1,1.13-.75l2.23,3.4a.68.68,0,0,1-.19.94A.67.67,0,0,1,306.2,65.31Zm-15.77-4.22A.67.67,0,0,1,290,61a.68.68,0,0,1-.18-.94l2.28-3.37a.68.68,0,1,1,1.12.76L291,60.79A.68.68,0,0,1,290.43,61.09Zm11.3-2.58a.68.68,0,0,1-.57-.31l-2.23-3.4a.68.68,0,0,1,1.13-.75l2.23,3.4a.68.68,0,0,1-.57,1.05ZM295,54.35a.67.67,0,0,1-.38-.12.68.68,0,0,1-.18-.94l2-3A.68.68,0,0,1,297,50h0a.68.68,0,0,1,.56.31l.24.37a.68.68,0,0,1-.19.94.67.67,0,0,1-.5.1L295.55,54A.68.68,0,0,1,295,54.35Z"/><circle class="cls-3" cx="382.25" cy="178.99" r="6.1"/><path class="cls-1" d="M382.25,185.77A6.78,6.78,0,1,1,389,179,6.79,6.79,0,0,1,382.25,185.77Zm0-12.21a5.42,5.42,0,1,0,5.42,5.42A5.43,5.43,0,0,0,382.25,173.57Z"/><circle class="cls-3" cx="411.75" cy="141.21" r="6.1"/><path class="cls-1" d="M411.75,148a6.78,6.78,0,1,1,6.78-6.78A6.79,6.79,0,0,1,411.75,148Zm0-12.21a5.42,5.42,0,1,0,5.42,5.42A5.43,5.43,0,0,0,411.75,135.79Z"/><circle class="cls-3" cx="122.89" cy="152.21" r="6.1"/><path class="cls-1" d="M122.89,159a6.78,6.78,0,1,1,6.78-6.78A6.79,6.79,0,0,1,122.89,159Zm0-12.21a5.42,5.42,0,1,0,5.42,5.42A5.43,5.43,0,0,0,122.89,146.79Z"/><circle class="cls-3" cx="180.93" cy="83.5" r="6.1"/><path class="cls-1" d="M180.93,90.28a6.78,6.78,0,1,1,6.78-6.78A6.79,6.79,0,0,1,180.93,90.28Zm0-12.21a5.42,5.42,0,1,0,5.42,5.42A5.43,5.43,0,0,0,180.93,78.07Z"/><circle class="cls-3" cx="297.02" cy="50.66" r="6.1"/><path class="cls-1" d="M297,57.44a6.78,6.78,0,1,1,6.78-6.78A6.79,6.79,0,0,1,297,57.44Zm0-12.21a5.42,5.42,0,1,0,5.42,5.42A5.43,5.43,0,0,0,297,45.24Z"/><rect class="cls-6" x="312.84" y="125.53" width="19.81" height="38.27" rx="4.52" ry="4.52" transform="translate(-30.29 123.25) rotate(-20.67)"/><path class="cls-7" d="M322.87,165.44a5.21,5.21,0,0,1-4.87-3.36l-10.32-27.35a5.2,5.2,0,0,1,3-6.7l10.08-3.8a5.2,5.2,0,0,1,6.7,3l10.32,27.35a5.2,5.2,0,0,1-3,6.7h0l-10.08,3.8A5.17,5.17,0,0,1,322.87,165.44Zm-.25-40.19a3.82,3.82,0,0,0-1.35.25l-10.08,3.8a3.85,3.85,0,0,0-2.24,4.95l10.32,27.35a3.85,3.85,0,0,0,4.95,2.24l10.08-3.8a3.85,3.85,0,0,0,2.24-4.95l-10.32-27.35A3.85,3.85,0,0,0,322.62,125.24Zm11.92,35.42h0Z"/><g class="cls-5"><rect x="309.28" y="129.56" width="19.81" height="11.33" rx="4.52" ry="4.52" transform="translate(-27.19 121.39) rotate(-20.67)"/></g><path class="cls-7" d="M322.87,165.44a5.21,5.21,0,0,1-4.87-3.36l-10.32-27.35a5.2,5.2,0,0,1,3-6.7l10.08-3.8a5.2,5.2,0,0,1,6.7,3l10.32,27.35a5.2,5.2,0,0,1-3,6.7h0l-10.08,3.8A5.17,5.17,0,0,1,322.87,165.44Zm-.25-40.19a3.82,3.82,0,0,0-1.35.25l-10.08,3.8a3.85,3.85,0,0,0-2.24,4.95l10.32,27.35a3.85,3.85,0,0,0,4.95,2.24l10.08-3.8a3.85,3.85,0,0,0,2.24-4.95l-10.32-27.35A3.85,3.85,0,0,0,322.62,125.24Zm11.92,35.42h0Z"/><path class="cls-4" d="M296,100.83l10.68,28.31-12.2,4.6a4.83,4.83,0,0,1-6.23-2.82L281,111.67a4.84,4.84,0,0,1,2.82-6.23Z"/><path class="cls-2" d="M375.49,42.45l29.28,77.61A8.71,8.71,0,0,1,397,131.84a6,6,0,0,1-.86,0l-63.93-3.23L315.38,83.95l45.87-44.66a6,6,0,0,1,.65-.57A8.71,8.71,0,0,1,375.49,42.45Z"/><path class="cls-7" d="M375.49,42.45l29.28,77.61A8.71,8.71,0,0,1,397,131.84L361.89,38.72A8.71,8.71,0,0,1,375.49,42.45Z"/><path class="cls-3" d="M315.34,83.85l17.07,45.25L310,137.58l-.43.15a11.75,11.75,0,0,1-13.48-4.59,11.41,11.41,0,0,1-1.26-2.42L286,107.48a11.44,11.44,0,0,1-.66-2.66,11.76,11.76,0,0,1,7.51-12.51Z"/><path class="cls-4" d="M391.63,67.78a1.36,1.36,0,0,1-1.08-2.18l30-39.1a1.36,1.36,0,0,1,2.15,1.65l-30,39.1A1.35,1.35,0,0,1,391.63,67.78Z"/><path class="cls-4" d="M449.4,102.3l-.26,0L400.8,92.73a1.36,1.36,0,0,1,.53-2.66l48.34,9.54a1.36,1.36,0,0,1-.26,2.69Z"/><path class="cls-4" d="M397.39,79.24a1.36,1.36,0,0,1-.48-2.63l30.14-11.37a1.36,1.36,0,0,1,1,2.54L397.87,79.15A1.36,1.36,0,0,1,397.39,79.24Z"/><g class="cls-9"><path class="cls-1" d="M375.49,42.45A32.17,32.17,0,0,0,365,47c-8.88,5.42-19.24,14.7-28,23.31-6.46,6.37-12.07,12.37-15.54,16.2-1.89,2.08-3.16,3.52-3.61,4l-.18.21-2.32.52-1.88.45C300.2,95,293.61,99.33,290.36,103c-3.61,4-3.14,7.19-3.14,7.19a.86.86,0,0,0-.15.06,11.24,11.24,0,0,0-5.1,4.1l-1-2.63a4.84,4.84,0,0,1,2.82-6.23l1.6-.6a11.76,11.76,0,0,1,7.51-12.51l22.44-8.47,0,.09,45.87-44.66a6,6,0,0,1,.65-.57A8.71,8.71,0,0,1,375.49,42.45Z"/></g><g class="cls-5"><path d="M403.57,116.89l1.2,3.17A8.71,8.71,0,0,1,397,131.84a6,6,0,0,1-.86,0l-63.93-3.23.19.49L310,137.58l-.43.15a11.75,11.75,0,0,1-13.48-4.59l-1.6.6a4.83,4.83,0,0,1-6.23-2.82l-.52-1.37c2.46,1.21,5.35,2.17,7.09,1.17a17.62,17.62,0,0,0,4.52,1.19c5.68.86,16.35.51,30.06-8.84l.76,0C336.66,123.53,383.27,126.16,403.57,116.89Z"/></g><path class="cls-7" d="M292.76,134.73a5.52,5.52,0,0,1-5.15-3.57l-7.27-19.26a5.52,5.52,0,0,1,3.21-7.11l1.6-.6a.68.68,0,0,1,.91.55,10.73,10.73,0,0,0,.62,2.5l8.77,23.24a10.74,10.74,0,0,0,1.18,2.27.68.68,0,0,1-.32,1l-1.6.6A5.53,5.53,0,0,1,292.76,134.73Zm-7.91-29-.82.31a4.16,4.16,0,0,0-2.42,5.36l7.27,19.26a4.15,4.15,0,0,0,5.36,2.42l.82-.31a12.18,12.18,0,0,1-.87-1.84l-8.77-23.24A12.27,12.27,0,0,1,284.85,105.76Z"/><path class="cls-7" d="M396.58,132.54l-.47,0-63.92-3.23a.68.68,0,0,1-.6-.44L314.74,84.19a.68.68,0,0,1,.16-.73L360.77,38.8a6.61,6.61,0,0,1,.71-.62,9.39,9.39,0,0,1,14.64,4l29.28,77.61a9.39,9.39,0,0,1-8.35,12.7ZM332.71,128l63.49,3.21a5.46,5.46,0,0,0,.78,0,8,8,0,0,0,7.16-10.87L374.85,42.69a8,8,0,0,0-12.54-3.44,5.38,5.38,0,0,0-.59.52L316.17,84.13Z"/><path class="cls-7" d="M305.83,139a12.45,12.45,0,0,1-10.33-5.5,12.15,12.15,0,0,1-1.33-2.56l-8.77-23.24a12.14,12.14,0,0,1-.69-2.81,12.38,12.38,0,0,1,7.95-13.22l22.44-8.47a.68.68,0,0,1,.87.4L333,128.87a.68.68,0,0,1-.4.87l-22.44,8.47-.47.17A12.31,12.31,0,0,1,305.83,139Zm9.11-54.28L293.14,93a11,11,0,0,0-7.08,11.78,10.71,10.71,0,0,0,.62,2.5l8.77,23.24a10.74,10.74,0,0,0,1.18,2.27,11.08,11.08,0,0,0,12.7,4.33l.38-.13,21.84-8.24Z"/><g class="cls-11"><path class="cls-1" d="M317.3,146.93a.68.68,0,0,1-.23-1.31l10.62-3.88a.68.68,0,1,1,.46,1.27l-10.62,3.88A.67.67,0,0,1,317.3,146.93Z"/></g><g class="cls-11"><path class="cls-1" d="M319,151.72a.68.68,0,0,1-.23-1.31l10.62-3.88a.68.68,0,0,1,.46,1.27l-10.62,3.88A.67.67,0,0,1,319,151.72Z"/></g><g class="cls-11"><path class="cls-1" d="M320.8,156.52a.68.68,0,0,1-.23-1.31l10.62-3.88a.68.68,0,0,1,.46,1.27L321,156.47A.67.67,0,0,1,320.8,156.52Z"/></g></g></svg>