<svg id="Layer_1" data-name="Layer 1" xmlns="http://www.w3.org/2000/svg" viewBox="0 0 500 300"><defs><style>.cls-1{fill:#3acfef;}.cls-1,.cls-10,.cls-11,.cls-14,.cls-23,.cls-3,.cls-4,.cls-5,.cls-7{stroke:#0b2674;}.cls-1,.cls-16,.cls-17,.cls-18,.cls-21,.cls-3{stroke-linecap:round;stroke-linejoin:round;}.cls-1,.cls-10,.cls-11,.cls-16,.cls-17,.cls-18,.cls-21,.cls-3,.cls-4,.cls-5,.cls-7{stroke-width:1.52px;}.cls-2,.cls-22{fill:#0b2674;}.cls-19,.cls-2,.cls-9{opacity:0.1;}.cls-14,.cls-16,.cls-17,.cls-21,.cls-3,.cls-7{fill:none;}.cls-13,.cls-4{fill:#fd2087;}.cls-10,.cls-11,.cls-14,.cls-23,.cls-4,.cls-5,.cls-7{stroke-miterlimit:10;}.cls-15,.cls-19,.cls-5,.cls-8{fill:#fff;}.cls-6{fill:#00c8aa;}.cls-8{fill-rule:evenodd;}.cls-10,.cls-18,.cls-24{fill:#425bff;}.cls-11,.cls-12,.cls-20,.cls-23{fill:#ffd652;}.cls-12{opacity:0.8;}.cls-14,.cls-23{stroke-width:1.18px;}.cls-16{stroke:#3acfef;stroke-dasharray:4.57 4.57;}.cls-17,.cls-18{stroke:#425bff;}.cls-21{stroke:#fff;}.cls-21,.cls-22,.cls-24{opacity:0.2;}</style></defs><title>screens for translators</title><path class="cls-1" d="M270.92,101.22A11.35,11.35,0,0,1,259.6,89.9V88.72A11.35,11.35,0,0,1,270.92,77.4h13a21.31,21.31,0,0,1,41.68-3.27,14,14,0,1,1,5,27.09Z"/><path class="cls-2" d="M344.63,87.19a14,14,0,0,1-14,14H270.92a11.37,11.37,0,0,1-11.1-9.15,11.12,11.12,0,0,0,6.41,2h59.7a14,14,0,0,0,14-14,14.44,14.44,0,0,0-.5-3.75A14,14,0,0,1,344.63,87.19Z"/><path class="cls-3" d="M270.92,101.22A11.35,11.35,0,0,1,259.6,89.9V88.72A11.35,11.35,0,0,1,270.92,77.4h13a21.31,21.31,0,0,1,41.68-3.27,14,14,0,1,1,5,27.09Z"/><path class="cls-4" d="M338.84,122l-3.47,18.62a1.46,1.46,0,0,0,2,1.61l17.32-7.68c7-3.11,8.18-12.55,2-17.88l-.49-.41-.51-.38C349.16,111.1,340.25,114.43,338.84,122Zm4.76-1.75a7.47,7.47,0,1,1,1.23,10.5A7.48,7.48,0,0,1,343.6,120.21Z"/><ellipse class="cls-5" cx="349.46" cy="124.84" rx="7.48" ry="7.47" transform="translate(34.79 321.54) rotate(-51.67)"/><path class="cls-2" d="M338.49,123.82l-3.13,16.76a1.46,1.46,0,0,0,2,1.61l8.29-3.68a14.21,14.21,0,0,1-1.37-1A15.56,15.56,0,0,1,338.49,123.82Z"/><path class="cls-6" d="M347.82,170.83A81.78,81.78,0,0,1,266,252.62c-.7,0-1.42,0-2.12,0l-1.86-.06c-.78,0-1.55-.09-2.31-.15s-1.39-.11-2.07-.18l-1.25-.14-1.11-.14c-2.09-.27-4.14-.62-6.18-1.05-.53-.11-1.05-.23-1.57-.35-1.43-.32-2.83-.69-4.23-1.1-1.11-.3-2.21-.65-3.29-1s-2.27-.79-3.4-1.22l-1.43-.58c-1.78-.72-3.53-1.49-5.24-2.34-.81-.4-1.6-.81-2.39-1.22-.52-.29-1.05-.56-1.57-.87-1-.55-2-1.13-2.92-1.72l-1.43-.9c-.94-.61-1.87-1.25-2.8-1.9s-1.83-1.31-2.71-2l-1.32-1.05-1.25-1c-.47-.41-.93-.79-1.39-1.2-1.25-1.08-2.47-2.22-3.65-3.4-.4-.4-.79-.79-1.19-1.2s-.78-.81-1.16-1.22q-2.31-2.47-4.4-5.12l-1-1.32q-1.62-2.15-3.11-4.38c-.26-.4-.5-.78-.75-1.17-.91-1.43-1.78-2.89-2.59-4.37-.27-.49-.55-1-.81-1.49s-.47-.91-.7-1.37-.35-.72-.52-1.07-.41-.84-.59-1.26-.29-.59-.41-.9a80.54,80.54,0,0,1-3.08-8c-.18-.53-.35-1.08-.52-1.64-.38-1.26-.73-2.53-1-3.81-.11-.4-.21-.79-.29-1.2a0,0,0,0,1,0,0,81.79,81.79,0,0,1,134.13-79.63,82.41,82.41,0,0,1,9.2,9.67,83.61,83.61,0,0,1,5.88,8.27c.3.49.59,1,.88,1.46,1,1.61,1.86,3.27,2.71,5,.2.4.4.79.58,1.19a80.11,80.11,0,0,1,3.82,9.38c.33,1,.64,1.95.91,2.92.21.69.41,1.37.58,2.06.11.4.21.78.3,1.17s.24,1,.35,1.46.23.94.32,1.42.15.7.21,1.07c.12.56.23,1.14.32,1.72.26,1.39.46,2.79.64,4.2l.18,1.66c.15,1.45.26,2.92.32,4.38,0,.64.06,1.28.08,1.9S347.82,170.13,347.82,170.83Z"/><ellipse class="cls-7" cx="266.03" cy="170.83" rx="43.84" ry="81.79"/><line class="cls-3" x1="185.04" y1="168.97" x2="333.12" y2="168.97"/><line class="cls-3" x1="266.03" y1="252.62" x2="266.03" y2="99.49"/><path class="cls-2" d="M347.82,170.83a81.8,81.8,0,0,1-161.44,18.62,81.82,81.82,0,0,0,143.33-70A81.49,81.49,0,0,1,347.82,170.83Z"/><path class="cls-7" d="M347.82,170.83A81.78,81.78,0,0,1,266,252.62c-.7,0-1.42,0-2.12,0l-1.86-.06c-.78,0-1.55-.09-2.31-.15s-1.39-.11-2.07-.18l-1.25-.14-1.11-.14c-2.09-.27-4.14-.62-6.18-1.05-.53-.11-1.05-.23-1.57-.35-1.43-.32-2.83-.69-4.23-1.1-1.11-.3-2.21-.65-3.29-1s-2.27-.79-3.4-1.22l-1.43-.58c-1.78-.72-3.53-1.49-5.24-2.34-.81-.4-1.6-.81-2.39-1.22-.52-.29-1.05-.56-1.57-.87-1-.55-2-1.13-2.92-1.72l-1.43-.9c-.94-.61-1.87-1.25-2.8-1.9s-1.83-1.31-2.71-2l-1.32-1.05-1.25-1c-.47-.41-.93-.79-1.39-1.2-1.25-1.08-2.47-2.22-3.65-3.4-.4-.4-.79-.79-1.19-1.2s-.78-.81-1.16-1.22q-2.31-2.47-4.4-5.12l-1-1.32q-1.62-2.15-3.11-4.38c-.26-.4-.5-.78-.75-1.17-.91-1.43-1.78-2.89-2.59-4.37-.27-.49-.55-1-.81-1.49s-.47-.91-.7-1.37-.35-.72-.52-1.07-.41-.84-.59-1.26-.29-.59-.41-.9a80.54,80.54,0,0,1-3.08-8c-.18-.53-.35-1.08-.52-1.64-.38-1.26-.73-2.53-1-3.81-.11-.4-.21-.79-.29-1.2a0,0,0,0,1,0,0,81.79,81.79,0,0,1,134.13-79.63,82.41,82.41,0,0,1,9.2,9.67,83.61,83.61,0,0,1,5.88,8.27c.3.49.59,1,.88,1.46,1,1.61,1.86,3.27,2.71,5,.2.4.4.79.58,1.19a80.11,80.11,0,0,1,3.82,9.38c.33,1,.64,1.95.91,2.92.21.69.41,1.37.58,2.06.11.4.21.78.3,1.17s.24,1,.35,1.46.23.94.32,1.42.15.7.21,1.07c.12.56.23,1.14.32,1.72.26,1.39.46,2.79.64,4.2l.18,1.66c.15,1.45.26,2.92.32,4.38,0,.64.06,1.28.08,1.9S347.82,170.13,347.82,170.83Z"/><path class="cls-2" d="M320.51,109.83c-1.63-.23-3.3-.5-5-.82-19-3.61-33.72-11.66-35-18.68A81.48,81.48,0,0,1,320.51,109.83Z"/><path id="icon" class="cls-8" d="M135.08,199.68a3.51,3.51,0,0,1,1.1-1.41,3.63,3.63,0,0,1,1.77.25,4.33,4.33,0,0,1,.67,1.66,4.19,4.19,0,0,1-1.1,1.41,5.22,5.22,0,0,1-1.77-.25h0l-.91-.05.52-.64A3.13,3.13,0,0,1,135.08,199.68Zm-2.53-2.28a.69.69,0,1,1,.12-1A.7.7,0,0,1,132.55,197.4Zm2.41,1.55-1,.75-.13.75-.31-.4-.09.07a.62.62,0,0,1-.87-.11l-.72-.92a.62.62,0,0,1,.11-.87l1.5-1.16a.62.62,0,0,1,.87.11l.72.92A.62.62,0,0,1,135,198.95Zm1.46-4.3a.7.7,0,1,1,.7-.7A.7.7,0,0,1,136.42,194.65Zm.65,1.19s-.13-.31-.18-.31-.15.29-.18.31-.34,0-.36.07.24.21.25.26-.09.31,0,.35.29-.15.33-.15.28.18.33.15-.06-.3,0-.35.26-.2.25-.26S137.1,195.85,137.07,195.83Zm.42,1.39-.74.52.11-.52a8.9,8.9,0,0,1-1.88,0,5,5,0,0,1-.52-2.5c.22-.3,3.06.56,3.17.81a7.27,7.27,0,0,1,.22,1.62C137.82,197.26,137.49,197.22,137.49,197.22Zm1.48.94a.62.62,0,1,1-.11-.87A.62.62,0,0,1,139,198.16Z"/><ellipse class="cls-9" cx="248.3" cy="160.54" rx="7.76" ry="7.42"/><ellipse class="cls-9" cx="293.56" cy="140.93" rx="6.08" ry="8.17" transform="translate(-4.87 271.23) rotate(-49.23)"/><ellipse class="cls-9" cx="251.57" cy="109.96" rx="5.52" ry="4.11" transform="translate(72.99 318.5) rotate(-73.04)"/><ellipse class="cls-9" cx="310.18" cy="208.67" rx="5.52" ry="4.11" transform="translate(20.09 444.47) rotate(-73.04)"/><ellipse class="cls-9" cx="249.79" cy="221.61" rx="4.11" ry="5.52" transform="translate(-62.5 103.38) rotate(-20.84)"/><path class="cls-4" d="M235.91,119.39l-.81.23-.8.28c-10.18,3.78-13.15,16.15-5.87,23.33l18,17.77a2,2,0,0,0,3.3-1.05L254.19,135C256,125,246.41,116.58,235.91,119.39Zm6.67,23.75a10,10,0,1,1,6.49-12.55A10,10,0,0,1,242.59,143.14Z"/><path class="cls-5" d="M249.07,130.59a10,10,0,1,1-12.55-6.5A10,10,0,0,1,249.07,130.59Z"/><path class="cls-2" d="M240,151.93a19,19,0,0,1-2.17.56l8.63,8.5a2,2,0,0,0,3.3-1.05l4-22.43A20.79,20.79,0,0,1,240,151.93Z"/><path class="cls-7" d="M235.91,119.39l-.81.23-.8.28c-10.18,3.78-13.15,16.15-5.87,23.33l18,17.77a2,2,0,0,0,3.3-1.05L254.19,135C256,125,246.41,116.58,235.91,119.39Zm6.67,23.75a10,10,0,1,1,6.49-12.55A10,10,0,0,1,242.59,143.14Z"/><path class="cls-10" d="M293.61,120.27l-.33,20.56a1.59,1.59,0,0,0,2.47,1.35l17.13-11.36c6.92-4.6,6.47-14.92-1.06-19.51l-.59-.35-.61-.31C302.68,106.78,293.75,112,293.61,120.27Zm4.77-2.74a8.11,8.11,0,1,1,3.22,11A8.12,8.12,0,0,1,298.38,117.53Z"/><ellipse class="cls-5" cx="305.5" cy="121.42" rx="8.12" ry="8.11" transform="translate(52.36 331.18) rotate(-61.32)"/><path class="cls-2" d="M293.58,122.33l-.3,18.5a1.59,1.59,0,0,0,2.47,1.35l8.2-5.44a15.42,15.42,0,0,1-1.65-.78A16.88,16.88,0,0,1,293.58,122.33Z"/><path class="cls-7" d="M293.61,120.27l-.33,20.56a1.59,1.59,0,0,0,2.47,1.35l17.13-11.36c6.92-4.6,6.47-14.92-1.06-19.51l-.59-.35-.61-.31C302.68,106.78,293.75,112,293.61,120.27Zm4.77-2.74a8.11,8.11,0,1,1,3.22,11A8.12,8.12,0,0,1,298.38,117.53Z"/><path class="cls-11" d="M243.7,97l6.48,12.82a1.11,1.11,0,0,0,2,0l6.9-12.6c2.78-5.09-.85-11.33-7-11.72l-.48,0h-.48C244.92,85.67,241.08,91.78,243.7,97Zm2.06-3.25a5.67,5.67,0,1,1,5.57,5.76A5.67,5.67,0,0,1,245.76,93.72Z"/><circle class="cls-5" cx="251.42" cy="93.81" r="5.67" transform="translate(153.44 343.64) rotate(-89.05)"/><path class="cls-2" d="M244.34,98.25l5.83,11.54a1.11,1.11,0,0,0,2,0l3.3-6a10.78,10.78,0,0,1-1.27,0A11.8,11.8,0,0,1,244.34,98.25Z"/><path class="cls-10" d="M237.76,210.89l10.85,10.79a1.18,1.18,0,0,0,2-.63L253.36,206c1.11-6.08-4.66-11.17-11-9.5l-.49.14-.48.17C235.21,199.07,233.38,206.53,237.76,210.89Zm1-4a6,6,0,1,1,7.56,4A6,6,0,0,1,238.76,206.92Z"/><circle class="cls-5" cx="244.52" cy="205.11" r="6.04" transform="translate(-50.15 82.52) rotate(-17.4)"/><path class="cls-2" d="M238.85,212l9.76,9.71a1.18,1.18,0,0,0,2-.63l1.32-7.2a11.48,11.48,0,0,1-1.27.48A12.56,12.56,0,0,1,238.85,212Z"/><path class="cls-11" d="M308.58,187.87l2.06,18.83a1.46,1.46,0,0,0,2.41,1L327.4,195.3c5.8-5,4.2-14.38-3.21-17.71l-.58-.25-.6-.22C315.31,174.49,307.75,180.26,308.58,187.87Zm4-3.05a7.47,7.47,0,1,1,4.21,9.69A7.48,7.48,0,0,1,312.62,184.82Z"/><ellipse class="cls-5" cx="319.58" cy="187.56" rx="7.48" ry="7.47" transform="translate(27.84 416.03) rotate(-68.47)"/><path class="cls-2" d="M308.78,189.76l1.85,16.95a1.46,1.46,0,0,0,2.41,1l6.87-5.91a14.21,14.21,0,0,1-1.59-.53A15.56,15.56,0,0,1,308.78,189.76Z"/><path class="cls-12" d="M393.15,96.17l-3.33,14a4.82,4.82,0,0,1-5.42,3.61l-21.83-5.19-4.65,4.84c-.79.86-1.64.58-1.49-.58l.69-5.55-.92-.22c-2.32-.55-3.12-3.18-2.57-5.5l3.33-14c.55-2.32,2.37-4,4.69-3.43l28.2,6.7A4.51,4.51,0,0,1,393.15,96.17Z"/><path class="cls-13" d="M393.15,96.17l-3.33,14a4.82,4.82,0,0,1-5.42,3.61l-21.83-5.19-4.65,4.84c-.79.86-1.64.58-1.49-.58l.69-5.55-.92-.22c-2.32-.55-3.12-3.18-2.57-5.5l3.33-14c.55-2.32,2.37-4,4.69-3.43l28.2,6.7A4.51,4.51,0,0,1,393.15,96.17Z"/><path class="cls-2" d="M392.72,98l-2.91,12.23a4.81,4.81,0,0,1-5.42,3.61l-21.83-5.19-4.66,4.84c-.79.85-1.63.58-1.48-.58l.69-5.56-.91-.21a3.78,3.78,0,0,1-2.73-3.73A54.93,54.93,0,0,0,367.13,105C377.71,105,387.07,102.26,392.72,98Z"/><path class="cls-14" d="M393.15,96.17l-3.33,14a4.82,4.82,0,0,1-5.42,3.61l-21.83-5.19-4.65,4.84c-.79.86-1.64.58-1.49-.58l.69-5.55-.92-.22c-2.32-.55-3.12-3.18-2.57-5.5l3.33-14c.55-2.32,2.37-4,4.69-3.43l28.2,6.7A4.51,4.51,0,0,1,393.15,96.17Z"/><circle class="cls-15" cx="381.23" cy="101.06" r="3.18" transform="translate(193.93 448.15) rotate(-76.49)"/><circle class="cls-15" cx="373.6" cy="99.23" r="3.18" transform="translate(189.86 439.32) rotate(-76.49)"/><circle class="cls-15" cx="365.97" cy="97.39" r="3.18" transform="translate(185.8 430.5) rotate(-76.49)"/><path class="cls-16" d="M349,177.74c5.68-.88,11.94-2.15,17.68-1.15,8.76,1.53,3.82,7.24-1.07,10.59-16.19,11.05-35.91,16.89-54.31,23.16-20.56,7-41.47,13-62.59,18-19.65,4.71-39.86,9.74-60.22,9.45-6.76-.1-11-3.44-4.73-8.63,4.39-3.65,10-5.87,15.1-8.23"/><path class="cls-16" d="M183.31,184.06c-14.53-1.77-23.71-1.32-24.61,1.81-2,7.07,39.23,25.14,92.16,40.36S348.35,248,350.38,241c.91-3.16-6.81-8.51-20.35-14.81"/><line class="cls-17" x1="204.13" y1="137.25" x2="196.33" y2="185.14"/><line class="cls-17" x1="193.17" y1="137.87" x2="192.66" y2="184.94"/><line class="cls-18" x1="168.3" y1="135.49" x2="176.1" y2="183.38"/><line class="cls-18" x1="179.26" y1="136.11" x2="179.77" y2="183.17"/><path class="cls-11" d="M185.77,29.42h0Z"/><path class="cls-11" d="M185.36,29.42c10.09,0,18.27,21.8,18.27,48.7,0,16.16-3,30.48-7.5,39.34-1.5,2.93-2.39,7.61-2.39,12.58v5.45c0,3.62-1.11,6.58-2.47,6.58h9.86a6.6,6.6,0,0,0,6.58-6.58V130a15.57,15.57,0,0,1,6.37-12.58,48.7,48.7,0,0,0-28.73-88Z"/><path class="cls-10" d="M185,29.42l-.61,0-.34.06a4.44,4.44,0,0,0-.61.15,2.74,2.74,0,0,0-.33.09,4.75,4.75,0,0,0-.59.23,2.41,2.41,0,0,0-.35.15c-8,3.75-14.22,21.41-15,43.16q-.18,5,0,9.85c.47,12.24,2.65,23.13,5.88,31,.49,1.16,1,2.25,1.51,3.27,1.51,3,2.41,7.63,2.41,12.64v5.45c0,3.61,1.11,6.58,2.47,6.58h-9.85a6.61,6.61,0,0,1-6.59-6.58V130a15.68,15.68,0,0,0-6.44-12.64,51.45,51.45,0,0,1-4-3.27,48.52,48.52,0,0,1-15.79-39.29c0-.5.06-1,.11-1.52a48.86,48.86,0,0,1,45-43.79l1.43-.08h.12c.32,0,.64,0,.94,0Z"/><path class="cls-19" d="M185,29.42l-.61,0-.34.06a4.44,4.44,0,0,0-.61.15,2.15,2.15,0,0,0-.33.09,4.75,4.75,0,0,0-.59.23,2.41,2.41,0,0,0-.35.15c-1.11.2-2.22.44-3.3.72A48.81,48.81,0,0,0,142.3,72.34c-.06.32-.09.64-.12,1a48.63,48.63,0,0,0,15.68,40.82,51.45,51.45,0,0,0,4,3.27A15.68,15.68,0,0,1,168.3,130v5.45a6.6,6.6,0,0,0,6.58,6.58h-5.3a6.61,6.61,0,0,1-6.59-6.58V130a15.68,15.68,0,0,0-6.44-12.64,51.45,51.45,0,0,1-4-3.27,48.52,48.52,0,0,1-15.79-39.29c0-.5.06-1,.11-1.52a48.86,48.86,0,0,1,45-43.79l1.43-.08h.12c.32,0,.64,0,.94,0Z"/><path class="cls-7" d="M185,29.42l-.61,0-.34.06a4.44,4.44,0,0,0-.61.15,2.74,2.74,0,0,0-.33.09,4.75,4.75,0,0,0-.59.23,2.41,2.41,0,0,0-.35.15c-8,3.75-14.22,21.41-15,43.16q-.18,5,0,9.85c.47,12.24,2.65,23.13,5.88,31,.49,1.16,1,2.25,1.51,3.27,1.51,3,2.41,7.63,2.41,12.64v5.45c0,3.61,1.11,6.58,2.47,6.58h-9.85a6.61,6.61,0,0,1-6.59-6.58V130a15.68,15.68,0,0,0-6.44-12.64,51.45,51.45,0,0,1-4-3.27,48.52,48.52,0,0,1-15.79-39.29c0-.5.06-1,.11-1.52a48.86,48.86,0,0,1,45-43.79l1.43-.08h.12c.32,0,.64,0,.94,0Z"/><path class="cls-2" d="M184,29.42a11,11,0,0,0-1.18.11c-10.93,1.62-19.87,20.33-20.92,43.8-.8,18.07,3,34.35,9.15,44.09,1.87,3,3,7.63,3,12.63v5.45c0,3.62,1.38,6.58,3.06,6.58h7.33V29.42Z"/><path class="cls-10" d="M185.36,29.42V142.07h5.92c1.36,0,2.47-3,2.47-6.58V130c0-5,.88-9.64,2.39-12.58,4.54-8.86,7.5-23.17,7.5-39.34C203.63,51.22,195.45,29.42,185.36,29.42Z"/><path class="cls-20" d="M185,29.42a7.19,7.19,0,0,0-1,.11c-8.82,1.62-16,20.33-16.89,43.8-.65,18.07,2.41,34.35,7.38,44.09,1.51,3,2.41,7.63,2.41,12.63v5.45c0,3.62,1.11,6.58,2.47,6.58h5.92V29.42Z"/><path class="cls-2" d="M185.91,29.42V142.07h7.55c1.73,0,3.15-3,3.15-6.58V130c0-5,1.13-9.64,3-12.58,5.8-8.86,9.56-23.17,9.56-39.34C209.21,51.22,198.78,29.42,185.91,29.42Z"/><path class="cls-10" d="M185.36,29.42V142.07h5.92c1.36,0,2.47-3,2.47-6.58V130c0-5,.88-9.64,2.39-12.58,4.54-8.86,7.5-23.17,7.5-39.34C203.63,51.22,195.45,29.42,185.36,29.42Z"/><path class="cls-19" d="M185.36,29.42v.2c-6.74,2.07-12.26,20.57-12.9,43.7-.5,18.09,1.89,34.36,5.77,44.09,1.19,3,1.89,7.63,1.89,12.64v5.45c0,3.61.87,6.58,1.92,6.58h-2.6c-1.35,0-2.47-3-2.47-6.58V130c0-5-.9-9.67-2.41-12.64-5-9.73-8-26-7.38-44.09.84-23.46,8.05-42.16,16.88-43.79a6.89,6.89,0,0,1,.94-.11Z"/><path class="cls-7" d="M185,29.42a7.19,7.19,0,0,0-1,.11c-8.82,1.62-16,20.33-16.89,43.8-.65,18.07,2.41,34.35,7.38,44.09,1.51,3,2.41,7.63,2.41,12.63v5.45c0,3.62,1.11,6.58,2.47,6.58h5.92V29.42Z"/><path class="cls-21" d="M197.54,97.37a114.16,114.16,0,0,0-4.66-56.52"/><path class="cls-13" d="M204,184.63V192a18.08,18.08,0,0,1-36.17,0v-7.34Z"/><path class="cls-2" d="M204,184.63V192a18.08,18.08,0,0,1-35.79,3.62A18.13,18.13,0,0,0,183.48,204a18.15,18.15,0,0,0,18.09-18.09v-1.26Z"/><path class="cls-3" d="M167.86,184.63H204a0,0,0,0,1,0,0V192a18.08,18.08,0,0,1-18.08,18.08h0A18.08,18.08,0,0,1,167.86,192v-7.34A0,0,0,0,1,167.86,184.63Z"/><rect class="cls-13" x="165.59" y="181.28" width="40.7" height="4" rx="2" ry="2"/><path class="cls-22" d="M206.29,183.28h0a2,2,0,0,1-2,2h-36.7a2,2,0,0,1-2-2h40.7Z"/><rect class="cls-7" x="165.59" y="181.28" width="40.7" height="4" rx="2" ry="2"/><path class="cls-15" d="M180.05,193.36a1.29,1.29,0,0,1-.46.21c-.36.08-.59-.11-.52-.48a3,3,0,0,1,.33-.8c.48-.9.24-1.52-.75-1.8a3.32,3.32,0,0,0-2.27.09,1.09,1.09,0,0,0-.35,2,6.18,6.18,0,0,0,1.12.74c.63.35,1.3.66,1.92,1a2.66,2.66,0,0,1,1.57,2.79,2.83,2.83,0,0,1-2,2.31,5.43,5.43,0,0,1-2.06.49,5.08,5.08,0,0,1-2.59-.77,2.39,2.39,0,0,1-1.15-2.49,1.3,1.3,0,0,1,.9-1.08c.42-.13.67.06.64.5,0,.23-.06.46-.08.69a1.34,1.34,0,0,0,.93,1.53,3.49,3.49,0,0,0,3.32-.4,1.3,1.3,0,0,0,.14-2.19,17.5,17.5,0,0,0-2-1.26,15.85,15.85,0,0,1-1.72-1.08,2.11,2.11,0,0,1,.1-3.48,4.35,4.35,0,0,1,5.32.19A2.22,2.22,0,0,1,180.05,193.36Zm13.41-3.71a7.85,7.85,0,0,0-1.56,4.54A9.36,9.36,0,0,0,193.46,189.65ZM189,194a1,1,0,0,0-1.21,1.06,15.06,15.06,0,0,0,0,1.94.77.77,0,0,0,1.14.73,5.74,5.74,0,0,0,.88-.42c.81-.45.73-.57.62-1.15a9.82,9.82,0,0,1,.18-2.16Zm0-3.76a.38.38,0,0,0-.33.16,7.56,7.56,0,0,0-.8,2.5l.11.09c.11-.09.26-.16.32-.27.27-.5.53-1,.76-1.52a1.59,1.59,0,0,0,.12-.62A.41.41,0,0,0,188.91,190.21Zm-4.45,5.2c.18-.28.2-.62-.07-.78a.81.81,0,0,0-.72.15,2.28,2.28,0,0,0-.6,1.56A1.92,1.92,0,0,0,184.46,195.41Zm13.37,2c-1,.19-1.42-.22-1.83-2l-.83,2.28c-.09.25-.17.5-.27.74s-.2.6-.59.6-.52-.26-.85-.44a11.85,11.85,0,0,1-1.53.44c-.75.12-.94-.56-1.28-1.06-.4.21-.78.43-1.18.63-1.48.75-1.94.63-2.75-.68a14.88,14.88,0,0,1-2.07,1,2.16,2.16,0,0,1-3-2.28,3.92,3.92,0,0,1,1-2.57,1.82,1.82,0,0,1,1.84-.6,1.36,1.36,0,0,1,1,1.92,3.18,3.18,0,0,1-1.75,1.69l-.51.21a.73.73,0,0,0,.92.44,4.57,4.57,0,0,0,2.12-1.08.47.47,0,0,0,.11-.32c0-.83,0-1.66,0-2.55a8.59,8.59,0,0,1-1.08-.21c-.16-.05-.28-.25-.42-.39.14-.11.27-.29.42-.31a12,12,0,0,1,1.24,0c.23-.72.4-1.42.68-2.08a6,6,0,0,1,.92-1.53.92.92,0,0,1,1.66.29,2.47,2.47,0,0,1-.06,2.1c-.19.43-.43.85-.67,1.33h1.62a8.53,8.53,0,0,1,.42-1.36,28.68,28.68,0,0,1,1.42-2.57,2,2,0,0,1,.82-.65c.78-.39,1.44,0,1.44.86a4.72,4.72,0,0,1-.26,1.76c-.55,1.32-1.21,2.58-1.83,3.87-.27.57-.54,1.13-.8,1.71a.86.86,0,0,0-.06.32c0,.73.26.91.91.6a1.48,1.48,0,0,0,1-1.31,14.72,14.72,0,0,1,.52-2.34.77.77,0,0,1,.45-.44c.32-.1.58,0,.55.43s0,.8,0,1.29a4.46,4.46,0,0,1,.31-.58,5,5,0,0,1,.85-1,.91.91,0,0,1,.8,0c.15.08.21.45.2.68,0,.43-.16.85-.17,1.27s.25.72.74.56a9.92,9.92,0,0,0,1.19-.57C199.37,196.64,199,197.18,197.83,197.39Z"/><path class="cls-12" d="M130.19,161.19l3.33,14a4.82,4.82,0,0,0,5.42,3.61l21.83-5.19,4.65,4.84c.79.86,1.64.58,1.49-.58l-.69-5.55.92-.22c2.32-.55,3.12-3.18,2.57-5.5l-3.33-14c-.55-2.32-2.37-4-4.69-3.43l-28.2,6.7A4.51,4.51,0,0,0,130.19,161.19Z"/><path class="cls-23" d="M130.19,161.19l3.33,14a4.82,4.82,0,0,0,5.42,3.61l21.83-5.19,4.65,4.84c.79.86,1.64.58,1.49-.58l-.69-5.55.92-.22c2.32-.55,3.12-3.18,2.57-5.5l-3.33-14c-.55-2.32-2.37-4-4.69-3.43l-28.2,6.7A4.51,4.51,0,0,0,130.19,161.19Z"/><path class="cls-2" d="M167.15,172.14l-.93.21.7,5.56c.15,1.16-.7,1.43-1.49.58l-4.66-4.84L139,178.83a4.83,4.83,0,0,1-5.44-3.59l-.56-2.36a33.33,33.33,0,0,0,5.13.4c15.22,0,27.59-10,27.65-22.27a5.5,5.5,0,0,1,.64,1.6l3.33,14C170.25,169,169.46,171.58,167.15,172.14Z"/><path class="cls-14" d="M130.19,161.19l3.33,14a4.82,4.82,0,0,0,5.42,3.61l21.83-5.19,4.65,4.84c.79.86,1.64.58,1.49-.58l-.69-5.55.92-.22c2.32-.55,3.12-3.18,2.57-5.5l-3.33-14c-.55-2.32-2.37-4-4.69-3.43l-28.2,6.7A4.51,4.51,0,0,0,130.19,161.19Z"/><circle class="cls-15" cx="142.89" cy="165.89" r="2.85" transform="translate(-34.79 37.96) rotate(-13.51)"/><circle class="cls-15" cx="149.73" cy="164.25" r="2.85" transform="translate(-34.22 39.51) rotate(-13.51)"/><circle class="cls-15" cx="156.57" cy="162.6" r="2.85" transform="translate(-33.65 41.06) rotate(-13.51)"/><path class="cls-22" d="M193.71,106.12v1.19a10.4,10.4,0,0,1-.09,1.39,11.38,11.38,0,0,1-7.67,9.35,3.66,3.66,0,0,1-.55.15,5.49,5.49,0,0,1-1,.23,10,10,0,0,1-2,.2H152.58A48.52,48.52,0,0,1,136.8,79.32a21.18,21.18,0,0,1,5.54-2.5,21,21,0,0,1,5.89-.84,21.2,21.2,0,0,1,13.58,4.89,21.49,21.49,0,0,1,7.58,13.93h13a10,10,0,0,1,2,.2,8.78,8.78,0,0,1,1,.23c.18,0,.37.11.55.17a10.78,10.78,0,0,1,1.37.56v0l.12.06c.41.21.82.44,1.2.69,0,0,0,0,0,0a11.71,11.71,0,0,1,1.1.85l.27.26a10.3,10.3,0,0,1,.81.82l.18.2a10,10,0,0,1,.82,1.11,1.44,1.44,0,0,1,.15.26,11.4,11.4,0,0,1,.58,1,2,2,0,0,0,.12.26,10.34,10.34,0,0,1,.5,1.36.7.7,0,0,1,0,.17,8.68,8.68,0,0,1,.27,1.25,3.51,3.51,0,0,1,.06.35A11.89,11.89,0,0,1,193.71,106.12Z"/><path class="cls-15" d="M180.45,126.27A11.35,11.35,0,0,0,191.77,115v-1.18a11.35,11.35,0,0,0-11.32-11.32h-13a21.31,21.31,0,0,0-41.68-3.27,14,14,0,1,0-5,27.09Z"/><path class="cls-2" d="M191.77,113.78V115a11.34,11.34,0,0,1-11.31,11.31H120.75a14,14,0,0,1-13.31-9.61,14,14,0,0,0,7.22,2h59.71a11.34,11.34,0,0,0,11.31-11.31v-1.17a11,11,0,0,0-.3-2.57A11.34,11.34,0,0,1,191.77,113.78Z"/><path class="cls-3" d="M180.45,126.27A11.35,11.35,0,0,0,191.77,115v-1.18a11.35,11.35,0,0,0-11.32-11.32h-13a21.31,21.31,0,0,0-41.68-3.27,14,14,0,1,0-5,27.09Z"/><path class="cls-15" d="M335.31,229a8.67,8.67,0,0,1-8.64-8.64v-.9a8.67,8.67,0,0,1,8.64-8.64h9.92a16.28,16.28,0,0,1,31.84-2.5A10.7,10.7,0,1,1,380.91,229Z"/><path class="cls-2" d="M391.61,218.3A10.7,10.7,0,0,1,380.91,229H335.31a8.69,8.69,0,0,1-8.48-7,8.49,8.49,0,0,0,4.9,1.54h45.6A10.7,10.7,0,0,0,388,212.84a11,11,0,0,0-.38-2.86A10.7,10.7,0,0,1,391.61,218.3Z"/><path class="cls-3" d="M335.31,229a8.67,8.67,0,0,1-8.64-8.64v-.9a8.67,8.67,0,0,1,8.64-8.64h9.92a16.28,16.28,0,0,1,31.84-2.5A10.7,10.7,0,1,1,380.91,229Z"/><ellipse class="cls-24" cx="265.07" cy="264.94" rx="37.66" ry="5.65"/></svg>