<svg id="Layer_1" data-name="Layer 1" xmlns="http://www.w3.org/2000/svg" viewBox="0 0 500 300"><defs><style>.cls-1{fill:#fff;}.cls-2{fill:#0b2674;}.cls-3{opacity:0.5;}.cls-4{opacity:0.1;}.cls-5{fill:#00c8aa;}.cls-6{fill:#fafafa;}.cls-7{opacity:0.3;}.cls-8{fill:#fd2087;}.cls-9{fill:#3acfef;}.cls-10{fill:#ffd652;}.cls-11{opacity:0.2;}.cls-12{fill:#425bff;}.cls-13{opacity:0.05;}.cls-14{opacity:0.4;}</style></defs><title>screens for translators</title><rect class="cls-1" x="94.26" y="56.15" width="73.64" height="128.54" rx="5.1" ry="5.1"/><path class="cls-2" d="M162.79,185.2H99.36a5.62,5.62,0,0,1-5.61-5.61V61.25a5.62,5.62,0,0,1,5.61-5.61h63.43a5.62,5.62,0,0,1,5.61,5.61V179.59A5.62,5.62,0,0,1,162.79,185.2ZM99.36,56.66a4.6,4.6,0,0,0-4.59,4.59V179.59a4.6,4.6,0,0,0,4.59,4.59h63.43a4.6,4.6,0,0,0,4.59-4.59V61.25a4.6,4.6,0,0,0-4.59-4.59Z"/><g class="cls-3"><path class="cls-2" d="M168,63.56v3c0-.88-.43-2.14-.5-3Z"/></g><g class="cls-4"><path d="M168,82.06v83.46H119.33C146.32,150.7,165.37,119,168,82.06Z"/></g><path class="cls-5" d="M99.36,56.15h63.43a5.1,5.1,0,0,1,5.1,5.1v7a0,0,0,0,1,0,0H94.26a0,0,0,0,1,0,0v-7A5.1,5.1,0,0,1,99.36,56.15Z"/><path class="cls-2" d="M167.89,68.81H94.26a.51.51,0,0,1-.51-.51v-7a5.62,5.62,0,0,1,5.61-5.61h63.43a5.62,5.62,0,0,1,5.61,5.61v7A.51.51,0,0,1,167.89,68.81Zm-73.13-1h72.62V61.25a4.6,4.6,0,0,0-4.59-4.59H99.36a4.6,4.6,0,0,0-4.59,4.59Z"/><circle class="cls-6" cx="131.08" cy="62.01" r="1.94"/><g class="cls-7"><path class="cls-2" d="M133.21,62a1.94,1.94,0,0,1-3.84.37,1.94,1.94,0,0,0,3.43-1.23,2,2,0,0,0,0-.37A1.93,1.93,0,0,1,133.21,62Z"/></g><path class="cls-2" d="M131.08,64.46A2.45,2.45,0,1,1,133.52,62,2.45,2.45,0,0,1,131.08,64.46Zm0-3.87A1.43,1.43,0,1,0,132.5,62,1.43,1.43,0,0,0,131.08,60.58Z"/><path class="cls-5" d="M94.26,165.74h73.64a0,0,0,0,1,0,0v13.84a5.1,5.1,0,0,1-5.1,5.1H99.36a5.1,5.1,0,0,1-5.1-5.1V165.74A0,0,0,0,1,94.26,165.74Z"/><path class="cls-2" d="M162.79,185.2H99.36a5.62,5.62,0,0,1-5.61-5.61V165.74a.51.51,0,0,1,.51-.51h73.64a.51.51,0,0,1,.51.51v13.84A5.62,5.62,0,0,1,162.79,185.2Zm-68-18.95v13.33a4.6,4.6,0,0,0,4.59,4.59h63.43a4.6,4.6,0,0,0,4.59-4.59V166.25Z"/><circle class="cls-6" cx="131.08" cy="175.1" r="5.23"/><g class="cls-7"><path class="cls-2" d="M136.3,175.1a5.23,5.23,0,0,1-10.36,1,5.23,5.23,0,0,0,9.26-3.33,5.43,5.43,0,0,0-.1-1A5.2,5.2,0,0,1,136.3,175.1Z"/></g><path class="cls-2" d="M131.08,180.84a5.74,5.74,0,1,1,5.74-5.74A5.74,5.74,0,0,1,131.08,180.84Zm0-10.46a4.72,4.72,0,1,0,4.72,4.72A4.72,4.72,0,0,0,131.08,170.38Z"/><path class="cls-2" d="M168.21,73.88c0,2.46-.23,4.9-.23,7.31V66.57C168,69,168.21,71.42,168.21,73.88Z"/><g class="cls-4"><circle cx="109.12" cy="82.76" r="8.21"/><rect x="100.62" y="112.41" width="61.59" height="1.94" rx="0.97" ry="0.97"/><rect x="100.62" y="106.4" width="61.59" height="1.94" rx="0.97" ry="0.97"/><rect x="100.62" y="100.38" width="61.59" height="1.94" rx="0.97" ry="0.97"/><rect x="100.62" y="94.36" width="61.59" height="1.94" rx="0.97" ry="0.97"/><rect x="133.59" y="150.58" width="28.61" height="14.07"/><rect x="100.58" y="150.58" width="28.61" height="14.07"/><rect x="133.59" y="118.43" width="28.61" height="28.61"/><rect x="100.58" y="118.43" width="28.61" height="28.61"/><rect x="120.68" y="77.57" width="41.53" height="10.72" rx="5.1" ry="5.1"/></g><path class="cls-8" d="M123.1,201.31h-1.17v-2.56a1.29,1.29,0,0,0-.2-.8.68.68,0,0,0-.57-.26.89.89,0,0,0-.33.07,1.3,1.3,0,0,0-.33.2,1.65,1.65,0,0,0-.29.3,1.2,1.2,0,0,0-.19.38v2.66h-1.17V195H120v2.64a1.75,1.75,0,0,1,.68-.68,1.92,1.92,0,0,1,1-.24,1.5,1.5,0,0,1,.72.15,1.15,1.15,0,0,1,.44.4,1.67,1.67,0,0,1,.22.57,3.61,3.61,0,0,1,.06.66Z"/><path class="cls-8" d="M126.82,201.08a5.08,5.08,0,0,1-.58.21,2.47,2.47,0,0,1-.72.1,1.66,1.66,0,0,1-.46-.06,1,1,0,0,1-.37-.2,1,1,0,0,1-.26-.35,1.26,1.26,0,0,1-.1-.52v-2.62h-.59v-.9h.59v-1.48h1.17v1.48h1v.9h-1v2.23a.41.41,0,0,0,.13.34.5.5,0,0,0,.31.1,1.08,1.08,0,0,0,.36-.06l.28-.1Z"/><path class="cls-8" d="M134.49,201.31h-1.17v-2.56a1.33,1.33,0,0,0-.19-.8.62.62,0,0,0-.52-.25,1,1,0,0,0-.64.27,1.46,1.46,0,0,0-.44.69v2.65h-1.17v-2.56a1.36,1.36,0,0,0-.19-.8.61.61,0,0,0-.52-.25,1,1,0,0,0-.65.26,1.42,1.42,0,0,0-.44.69v2.66H127.4v-4.56h1.05v.84a1.74,1.74,0,0,1,.69-.68,2.06,2.06,0,0,1,1-.24,1.28,1.28,0,0,1,.88.28,1.31,1.31,0,0,1,.4.69,2,2,0,0,1,.7-.72,1.91,1.91,0,0,1,1-.25,1.36,1.36,0,0,1,.69.16,1.12,1.12,0,0,1,.42.41,1.72,1.72,0,0,1,.21.57,3.75,3.75,0,0,1,.06.65Z"/><path class="cls-8" d="M135.48,195h1.17v4.84q0,.53.48.53a.85.85,0,0,0,.22,0l.24-.08.16.93a2.23,2.23,0,0,1-.55.17,3,3,0,0,1-.56.06,1.17,1.17,0,0,1-.85-.29,1.1,1.1,0,0,1-.3-.83Z"/><path class="cls-8" d="M140.24,198.54a2.23,2.23,0,0,1,.81.14,1.92,1.92,0,0,1,.65.4,1.81,1.81,0,0,1,.43.63,2.08,2.08,0,0,1,.15.81,2,2,0,0,1-.17.85,2,2,0,0,1-.48.66,2.19,2.19,0,0,1-.72.43,2.64,2.64,0,0,1-.91.15,2.53,2.53,0,0,1-1.21-.29,2,2,0,0,1-.81-.78l.67-.7a1.91,1.91,0,0,0,.61.54,1.53,1.53,0,0,0,.75.2,1.08,1.08,0,0,0,.77-.28,1,1,0,0,0-.7-1.76,1.13,1.13,0,0,0-.54.13,1,1,0,0,0-.4.36h-1a1.68,1.68,0,0,1,0-.2l.09-.44.11-.59q.06-.33.13-.67l.35-1.79h3v1.06h-2.2l-.24,1.38a.74.74,0,0,1,.3-.18A1.53,1.53,0,0,1,140.24,198.54Z"/><path class="cls-5" d="M242.48,238.61l4.44-2.68v1.49l-2.39,1.49,2.39,1.43v1.58l-4.44-2.63Z"/><path class="cls-5" d="M251.26,241.74a2.22,2.22,0,0,1-1.12-.28,2.07,2.07,0,0,1-.78-.78v1h-1.23V234h1.41v3.13a2.13,2.13,0,0,1,.77-.78,2.16,2.16,0,0,1,1.11-.28,2.1,2.1,0,0,1,1,.23,2.43,2.43,0,0,1,.77.62,2.8,2.8,0,0,1,.49.91,3.48,3.48,0,0,1,.17,1.1,3.14,3.14,0,0,1-.2,1.12,2.8,2.8,0,0,1-.54.9,2.55,2.55,0,0,1-.82.6A2.39,2.39,0,0,1,251.26,241.74Zm-.39-1.2a1.42,1.42,0,0,0,.61-.13,1.56,1.56,0,0,0,.48-.35,1.53,1.53,0,0,0,.32-.52,1.78,1.78,0,0,0,.11-.63,2,2,0,0,0-.11-.64,1.64,1.64,0,0,0-.3-.54,1.49,1.49,0,0,0-.46-.37,1.23,1.23,0,0,0-.58-.14,1.29,1.29,0,0,0-.85.31,2.07,2.07,0,0,0-.57.76v1.31a1.18,1.18,0,0,0,.22.38,1.55,1.55,0,0,0,.32.29,1.53,1.53,0,0,0,.39.19A1.33,1.33,0,0,0,250.88,240.54Z"/><path class="cls-5" d="M257.34,241.74a3,3,0,0,1-1.21-.23,2.72,2.72,0,0,1-.91-.63,2.76,2.76,0,0,1-.57-.91,3,3,0,0,1-.2-1.08,3,3,0,0,1,.2-1.09,2.76,2.76,0,0,1,.57-.91,2.71,2.71,0,0,1,.91-.63,3,3,0,0,1,1.21-.23,3,3,0,0,1,1.2.23,2.73,2.73,0,0,1,.9.63,2.78,2.78,0,0,1,.57.91,3,3,0,0,1,.2,1.09A3,3,0,0,1,260,240a2.82,2.82,0,0,1-.57.91,2.67,2.67,0,0,1-.9.63A3,3,0,0,1,257.34,241.74Zm-1.44-2.85a1.92,1.92,0,0,0,.11.67,1.61,1.61,0,0,0,.3.52,1.34,1.34,0,0,0,1,.46,1.33,1.33,0,0,0,.57-.12,1.36,1.36,0,0,0,.46-.34,1.62,1.62,0,0,0,.3-.53,2,2,0,0,0,.11-.67,2,2,0,0,0-.11-.66,1.63,1.63,0,0,0-.3-.53,1.38,1.38,0,0,0-.46-.34,1.34,1.34,0,0,0-.57-.12,1.29,1.29,0,0,0-.57.13,1.43,1.43,0,0,0-.46.35,1.61,1.61,0,0,0-.3.53A1.93,1.93,0,0,0,255.9,238.89Z"/><path class="cls-5" d="M263.43,241.74a2.47,2.47,0,0,1-1-.22,2.5,2.5,0,0,1-.83-.61A2.86,2.86,0,0,1,261,240a3.18,3.18,0,0,1-.19-1.12,3.29,3.29,0,0,1,.18-1.11,2.9,2.9,0,0,1,.51-.9,2.35,2.35,0,0,1,.78-.61,2.22,2.22,0,0,1,1-.22,2.08,2.08,0,0,1,1.09.29,2.14,2.14,0,0,1,.76.77V234h1.41V240a.47.47,0,0,0,.08.32.41.41,0,0,0,.29.11v1.2a3.86,3.86,0,0,1-.67.07,1,1,0,0,1-.6-.18.73.73,0,0,1-.27-.47l0-.38a2,2,0,0,1-.82.79A2.34,2.34,0,0,1,263.43,241.74Zm.37-1.2a1.33,1.33,0,0,0,.41-.07,1.46,1.46,0,0,0,.39-.19,1.87,1.87,0,0,0,.33-.29,1.17,1.17,0,0,0,.22-.37V238.3a1.72,1.72,0,0,0-.58-.77,1.39,1.39,0,0,0-.85-.31,1.27,1.27,0,0,0-.58.14,1.4,1.4,0,0,0-.46.37,1.8,1.8,0,0,0-.29.54,1.9,1.9,0,0,0-.11.63,1.75,1.75,0,0,0,.12.64,1.63,1.63,0,0,0,.32.52,1.5,1.5,0,0,0,.48.35A1.44,1.44,0,0,0,263.8,240.54Z"/><path class="cls-5" d="M268,242.71l.35.07.27,0a.58.58,0,0,0,.24,0,.57.57,0,0,0,.21-.17,1.66,1.66,0,0,0,.2-.35,6.05,6.05,0,0,0,.22-.59l-2.19-5.51h1.45l1.5,4.29,1.33-4.29h1.33l-2.32,6.6a1.94,1.94,0,0,1-.7,1,1.9,1.9,0,0,1-1.13.34,2.54,2.54,0,0,1-.75-.12Z"/><path class="cls-5" d="M278,239.29l-4.44,2.63v-1.58l2.39-1.43-2.39-1.49v-1.49l4.44,2.68Z"/><path class="cls-9" d="M377.34,191.93l6.72-4.06v2.26l-3.62,2.26,3.62,2.17v2.39l-6.72-4Z"/><path class="cls-9" d="M385.39,192.34a4.54,4.54,0,0,1,.3-1.66,4,4,0,0,1,.88-1.37,4.27,4.27,0,0,1,1.39-.94,4.59,4.59,0,0,1,1.83-.35,4.39,4.39,0,0,1,2.33.59,3.77,3.77,0,0,1,1.44,1.55l-2.09.64a1.89,1.89,0,0,0-.72-.71,2,2,0,0,0-1-.25,2,2,0,0,0-.86.18,2.11,2.11,0,0,0-.69.51,2.36,2.36,0,0,0-.46.79,3,3,0,0,0-.17,1,2.86,2.86,0,0,0,.18,1,2.55,2.55,0,0,0,.47.8,2.06,2.06,0,0,0,.69.52,2,2,0,0,0,.84.18,2.05,2.05,0,0,0,1.06-.29,1.61,1.61,0,0,0,.68-.7l2.09.64a3.51,3.51,0,0,1-1.42,1.56,4.45,4.45,0,0,1-2.37.61,4.59,4.59,0,0,1-1.83-.35A4.15,4.15,0,0,1,385.7,194,4.46,4.46,0,0,1,385.39,192.34Z"/><path class="cls-9" d="M398.11,196.68a7.43,7.43,0,0,1-1.06-.08,9,9,0,0,1-1.08-.22,7.35,7.35,0,0,1-1-.35,4.85,4.85,0,0,1-.84-.46l.86-1.45a5.66,5.66,0,0,0,3.07,1,2,2,0,0,0,1.05-.24.76.76,0,0,0,.38-.69.7.7,0,0,0-.45-.66,8.58,8.58,0,0,0-1.52-.47,12.77,12.77,0,0,1-1.39-.4,3.38,3.38,0,0,1-.92-.48,1.64,1.64,0,0,1-.51-.62,2,2,0,0,1-.16-.83,2.49,2.49,0,0,1,1-2,3.28,3.28,0,0,1,1.07-.55,4.45,4.45,0,0,1,1.33-.19,5.88,5.88,0,0,1,1.78.28,7.17,7.17,0,0,1,1.65.76l-.88,1.32a5.82,5.82,0,0,0-1.32-.65,4.06,4.06,0,0,0-1.24-.2,1.92,1.92,0,0,0-1,.22.76.76,0,0,0-.39.72.65.65,0,0,0,.37.62,7,7,0,0,0,1.33.43q.89.22,1.52.45a4.26,4.26,0,0,1,1,.51,1.77,1.77,0,0,1,.59.66,2,2,0,0,1,.18.9,2.43,2.43,0,0,1-.25,1.1,2.39,2.39,0,0,1-.69.84,3.21,3.21,0,0,1-1.09.53A5.22,5.22,0,0,1,398.11,196.68Z"/><path class="cls-9" d="M406.2,196.68a7.43,7.43,0,0,1-1.06-.08,9,9,0,0,1-1.08-.22,7.35,7.35,0,0,1-1-.35,4.85,4.85,0,0,1-.84-.46l.86-1.45a5.66,5.66,0,0,0,3.07,1,2,2,0,0,0,1.05-.24.76.76,0,0,0,.38-.69.7.7,0,0,0-.45-.66,8.58,8.58,0,0,0-1.52-.47,12.77,12.77,0,0,1-1.39-.4,3.38,3.38,0,0,1-.92-.48,1.64,1.64,0,0,1-.51-.62,2,2,0,0,1-.16-.83,2.49,2.49,0,0,1,1-2,3.28,3.28,0,0,1,1.07-.55A4.45,4.45,0,0,1,406,188a5.88,5.88,0,0,1,1.78.28,7.17,7.17,0,0,1,1.65.76l-.88,1.32a5.82,5.82,0,0,0-1.32-.65,4.06,4.06,0,0,0-1.24-.2,1.92,1.92,0,0,0-1,.22.76.76,0,0,0-.39.72.65.65,0,0,0,.37.62,7,7,0,0,0,1.33.43q.89.22,1.52.45a4.26,4.26,0,0,1,1,.51,1.77,1.77,0,0,1,.59.66,2,2,0,0,1,.18.9,2.43,2.43,0,0,1-.25,1.1,2.39,2.39,0,0,1-.69.84,3.21,3.21,0,0,1-1.09.53A5.22,5.22,0,0,1,406.2,196.68Z"/><path class="cls-9" d="M417.65,193l-6.72,4v-2.39l3.62-2.17-3.62-2.26v-2.26l6.72,4.06Z"/><path class="cls-2" d="M183.36,74.54l5.17-3.12v1.74l-2.78,1.74,2.78,1.67v1.84l-5.17-3.06Z"/><path class="cls-2" d="M197.43,69.37l-6.07,8.69h-1.81l6.06-8.69Z"/><path class="cls-2" d="M198.09,74.86a3.48,3.48,0,0,1,.23-1.27,3.09,3.09,0,0,1,.67-1.05,3.29,3.29,0,0,1,1.07-.72,3.52,3.52,0,0,1,1.41-.27,3.38,3.38,0,0,1,1.79.45,2.9,2.9,0,0,1,1.11,1.19l-1.6.49a1.44,1.44,0,0,0-.55-.54,1.54,1.54,0,0,0-.76-.19,1.56,1.56,0,0,0-.66.14,1.63,1.63,0,0,0-.53.39,1.82,1.82,0,0,0-.35.61,2.29,2.29,0,0,0-.13.78,2.19,2.19,0,0,0,.13.78,2,2,0,0,0,.36.61,1.59,1.59,0,0,0,.53.4,1.53,1.53,0,0,0,.65.14,1.57,1.57,0,0,0,.81-.22,1.24,1.24,0,0,0,.52-.54l1.6.49a2.7,2.7,0,0,1-1.09,1.2,3.42,3.42,0,0,1-1.82.47,3.52,3.52,0,0,1-1.41-.27,3.19,3.19,0,0,1-1.74-1.79A3.42,3.42,0,0,1,198.09,74.86Z"/><path class="cls-2" d="M208.29,78.19a3.53,3.53,0,0,1-1.41-.27,3.16,3.16,0,0,1-1.06-.73,3.2,3.2,0,0,1-.67-1.06,3.56,3.56,0,0,1,0-2.53,3.2,3.2,0,0,1,.67-1.06,3.16,3.16,0,0,1,1.06-.73,3.52,3.52,0,0,1,1.41-.27,3.48,3.48,0,0,1,1.4.27,3.18,3.18,0,0,1,1.05.73,3.22,3.22,0,0,1,.67,1.06,3.57,3.57,0,0,1,0,2.53,3.27,3.27,0,0,1-.66,1.06,3.1,3.1,0,0,1-1.05.73A3.52,3.52,0,0,1,208.29,78.19Zm-1.68-3.32a2.24,2.24,0,0,0,.13.78,1.91,1.91,0,0,0,.35.61,1.59,1.59,0,0,0,.53.4,1.62,1.62,0,0,0,1.32,0,1.58,1.58,0,0,0,.53-.4,1.88,1.88,0,0,0,.36-.61,2.29,2.29,0,0,0,.13-.78,2.25,2.25,0,0,0-.13-.77,1.88,1.88,0,0,0-.36-.61,1.59,1.59,0,0,0-.53-.4,1.57,1.57,0,0,0-.66-.14,1.5,1.5,0,0,0-.66.15,1.66,1.66,0,0,0-.53.4,1.89,1.89,0,0,0-.35.61A2.25,2.25,0,0,0,206.61,74.87Z"/><path class="cls-2" d="M215.38,78.19a2.87,2.87,0,0,1-2.18-1,3.3,3.3,0,0,1-.63-1.06,3.68,3.68,0,0,1-.23-1.3,3.84,3.84,0,0,1,.21-1.3,3.42,3.42,0,0,1,.59-1.05,2.74,2.74,0,0,1,.91-.71,2.59,2.59,0,0,1,1.15-.26,2.41,2.41,0,0,1,1.27.34,2.49,2.49,0,0,1,.89.89V69.13H219v7.05a.55.55,0,0,0,.1.37.48.48,0,0,0,.34.12v1.4a4.48,4.48,0,0,1-.78.09,1.17,1.17,0,0,1-.7-.21.85.85,0,0,1-.31-.55l0-.44a2.34,2.34,0,0,1-1,.92A2.72,2.72,0,0,1,215.38,78.19Zm.43-1.4a1.54,1.54,0,0,0,.48-.08,1.69,1.69,0,0,0,.45-.23,2.18,2.18,0,0,0,.38-.34,1.39,1.39,0,0,0,.26-.43V74.18a2,2,0,0,0-.68-.89,1.62,1.62,0,0,0-1-.35,1.47,1.47,0,0,0-.68.16,1.61,1.61,0,0,0-.53.43,2.1,2.1,0,0,0-.34.63,2.24,2.24,0,0,0-.12.73,2,2,0,0,0,.13.75,1.88,1.88,0,0,0,.37.6,1.74,1.74,0,0,0,.56.4A1.69,1.69,0,0,0,215.81,76.79Z"/><path class="cls-2" d="M223.65,78.19a3.55,3.55,0,0,1-1.4-.26,3.2,3.2,0,0,1-1.07-.72,3.17,3.17,0,0,1-.68-1.05,3.37,3.37,0,0,1-.24-1.26,3.57,3.57,0,0,1,.23-1.29,3.14,3.14,0,0,1,.67-1.07,3.22,3.22,0,0,1,1.07-.73,3.55,3.55,0,0,1,1.41-.27,3.48,3.48,0,0,1,1.4.27,3.23,3.23,0,0,1,1.05.72,3.09,3.09,0,0,1,.66,1.05,3.5,3.5,0,0,1,.23,1.25q0,.16,0,.31a1.27,1.27,0,0,1,0,.25h-5a1.92,1.92,0,0,0,.18.67,1.67,1.67,0,0,0,.38.5,1.65,1.65,0,0,0,.53.32,1.72,1.72,0,0,0,.61.11,1.89,1.89,0,0,0,.92-.24,1.27,1.27,0,0,0,.59-.63l1.41.39a2.87,2.87,0,0,1-1.13,1.21A3.51,3.51,0,0,1,223.65,78.19Zm1.67-3.87a1.71,1.71,0,0,0-.53-1.16,1.72,1.72,0,0,0-1.76-.32,1.6,1.6,0,0,0-.51.32,1.67,1.67,0,0,0-.36.5,1.79,1.79,0,0,0-.17.65Z"/><path class="cls-2" d="M233.12,75.33,228,78.39V76.56l2.78-1.67L228,73.15V71.41l5.17,3.12Z"/><rect class="cls-1" x="168.17" y="100" width="185.7" height="121.42" rx="4.08" ry="4.08"/><rect class="cls-1" x="172.09" y="116.29" width="177.87" height="100.69" rx="2.04" ry="2.04"/><circle class="cls-5" cx="192.61" cy="107.4" r="2.96"/><circle class="cls-10" cx="183.72" cy="107.4" r="2.96"/><circle class="cls-8" cx="174.84" cy="107.4" r="2.96"/><g class="cls-4"><rect x="208.13" y="104.44" width="141.82" height="8.14" rx="4.07" ry="4.07"/></g><g class="cls-4"><rect x="240.26" y="153.31" width="51.71" height="54.79" rx="2.04" ry="2.04"/></g><g class="cls-4"><rect x="299.11" y="180.7" width="39.96" height="27.39" rx="2.04" ry="2.04"/></g><g class="cls-4"><rect x="181.49" y="153.31" width="51.71" height="54.79" rx="2.04" ry="2.04"/></g><g class="cls-4"><rect x="299.03" y="170.34" width="41.53" height="2.96" rx="1.48" ry="1.48"/></g><g class="cls-4"><rect x="299.03" y="162.19" width="41.53" height="2.96" rx="1.48" ry="1.48"/></g><g class="cls-4"><rect x="299.03" y="154.05" width="41.53" height="2.96" rx="1.48" ry="1.48"/></g><g class="cls-4"><rect x="181.49" y="145.9" width="110.48" height="2.96" rx="1.48" ry="1.48"/></g><g class="cls-4"><rect x="181.49" y="137.76" width="110.48" height="2.96" rx="1.48" ry="1.48"/></g><g class="cls-4"><rect x="299.03" y="145.9" width="41.53" height="2.96" rx="1.48" ry="1.48"/></g><g class="cls-4"><rect x="299.03" y="137.76" width="41.53" height="2.96" rx="1.48" ry="1.48"/></g><g class="cls-4"><rect x="299.03" y="122.21" width="41.53" height="10.37" rx="2.04" ry="2.04"/></g><g class="cls-4"><rect x="181.49" y="122.21" width="110.48" height="10.37" rx="2.04" ry="2.04"/></g><g class="cls-4"><polygon class="cls-1" points="181.4 217.89 358.75 220.03 358.75 91.39 294.03 91.91 181.4 217.89"/></g><path class="cls-5" d="M365.51,93.56V214.15a5.79,5.79,0,0,1-5.79,5.79h-.43a5.79,5.79,0,0,1-5.79-5.79V105.58a5.79,5.79,0,0,0-5.79-5.79H173a5.79,5.79,0,0,0-5.79,5.79V214.15a5.79,5.79,0,0,1-5.79,5.79H161a5.79,5.79,0,0,1-5.79-5.79V93.56A5.79,5.79,0,0,1,161,87.77H359.72A5.79,5.79,0,0,1,365.51,93.56Z"/><path class="cls-2" d="M354.24,214.15V105.57a6.51,6.51,0,0,0-.51-2.53h0a6.63,6.63,0,0,0-6-4H173a6.55,6.55,0,0,0-6.54,6.54V214.15a2,2,0,0,1,0,.35H168a2,2,0,0,0,0-.35V105.57a4.91,4.91,0,0,1,.17-1.3,5,5,0,0,1,4.87-3.74H347.7a5.05,5.05,0,0,1,5,5V213.74h.74v.41a1.92,1.92,0,0,0,0,.35h.75A2,2,0,0,1,354.24,214.15ZM359.71,87H161a6.54,6.54,0,0,0-6.54,6.54V214.15a2,2,0,0,0,0,.35,6.52,6.52,0,0,0,6.52,6.19h.43a6.52,6.52,0,0,0,6.52-6.19,2,2,0,0,0,0-.35V105.57a4.91,4.91,0,0,1,.17-1.3,5,5,0,0,1,4.87-3.74H347.7a5.05,5.05,0,0,1,5,5V214.15a2,2,0,0,0,0,.35,6.56,6.56,0,0,0,6.52,6.19h.43a6.53,6.53,0,0,0,6.53-6.19,2,2,0,0,0,0-.35V93.56A6.55,6.55,0,0,0,359.71,87Zm5,127.12a2,2,0,0,1,0,.35,5,5,0,0,1-5,4.69h-.43a4.49,4.49,0,0,1-.53,0,5,5,0,0,1-4.49-4.66,2,2,0,0,1,0-.35V105.57a6.51,6.51,0,0,0-.51-2.53h0a6.63,6.63,0,0,0-6-4H173a6.55,6.55,0,0,0-6.54,6.54V214.15a2,2,0,0,1,0,.35,5,5,0,0,1-5,4.69H161a5,5,0,0,1-5-4.69,2,2,0,0,1,0-.35V93.56a5,5,0,0,1,5-5H359.71a5,5,0,0,1,5,5Z"/><rect class="cls-2" x="200.55" y="214.49" width="104.77" height="7.45"/><path class="cls-5" d="M374.08,226.45H143.64a12.71,12.71,0,0,1-12.71-12.71H234.61l3.52,2.22h41.66l3.33-2.22H386.8A12.71,12.71,0,0,1,374.08,226.45Z"/><path class="cls-2" d="M353.49,214.15v-.41h-.74V213H350v.74H283.11l-1.13.76L279.79,216H238.13l-2.33-1.47-1.19-.76H168v.41a2,2,0,0,1,0,.35h66.41l3.51,2.22H280l3.34-2.22h70.16A1.92,1.92,0,0,1,353.49,214.15ZM282.89,213l-2.27,1.5-1.07.71H238.34l-1.13-.71-2.39-1.5H130.18v.74a13.48,13.48,0,0,0,13.47,13.47H374.08a13.48,13.48,0,0,0,13.47-13.47V213Zm100.35,8.43a11.92,11.92,0,0,1-9.16,4.29H143.64a12,12,0,0,1-11.95-11.21h102.7l3.51,2.22H280l3.34-2.22H386A11.88,11.88,0,0,1,383.24,221.42Z"/><g class="cls-11"><path d="M385.09,221.42c-.55,0-1.22.27-2,1.54-2.29,3.67-5.46,3.25-9,3.25H144.46c-4.69,0-8.8,0-11-4.79Z"/></g><path class="cls-2" d="M353.49,214.15v-.41h-.74V213H350v.74H283.11l-1.13.76L279.79,216H238.13l-2.33-1.47-1.19-.76H168v.41a2,2,0,0,1,0,.35h66.41l3.51,2.22H280l3.34-2.22h70.16A1.92,1.92,0,0,1,353.49,214.15ZM282.89,213l-2.27,1.5-1.07.71H238.34l-1.13-.71-2.39-1.5H130.18v.74a13.48,13.48,0,0,0,13.47,13.47H374.08a13.48,13.48,0,0,0,13.47-13.47V213Zm100.35,8.43a11.92,11.92,0,0,1-9.16,4.29H143.64a12,12,0,0,1-11.95-11.21h102.7l3.51,2.22H280l3.34-2.22H386A11.88,11.88,0,0,1,383.24,221.42Z"/><g class="cls-4"><path d="M366.26,93.56v92.35H249a3.29,3.29,0,0,1-3.3-3.3V87h114A6.55,6.55,0,0,1,366.26,93.56Z"/></g><path class="cls-1" d="M425.3,77.79V175a3.3,3.3,0,0,1-3.29,3.29H255.13a3.3,3.3,0,0,1-3.29-3.29V77.79a3.29,3.29,0,0,1,3.29-3.29H422A3.29,3.29,0,0,1,425.3,77.79Z"/><path class="cls-2" d="M422,178.77H255.13a3.81,3.81,0,0,1-3.8-3.8V77.79a3.81,3.81,0,0,1,3.8-3.8H422a3.81,3.81,0,0,1,3.8,3.8V175A3.81,3.81,0,0,1,422,178.77ZM255.13,75a2.79,2.79,0,0,0-2.78,2.78V175a2.79,2.79,0,0,0,2.78,2.78H422a2.79,2.79,0,0,0,2.78-2.78V77.79A2.79,2.79,0,0,0,422,75Z"/><path class="cls-10" d="M289.72,74.49V178.26H255.13a3.3,3.3,0,0,1-3.29-3.29V77.79a3.29,3.29,0,0,1,3.29-3.29Z"/><path class="cls-2" d="M290.23,178.77H255.13a3.81,3.81,0,0,1-3.8-3.8V77.79a3.81,3.81,0,0,1,3.8-3.8h35.09ZM255.13,75a2.79,2.79,0,0,0-2.78,2.78V175a2.79,2.79,0,0,0,2.78,2.78h34.07V75Z"/><path class="cls-8" d="M361.63,158.65H347.35a1,1,0,1,1,0-2h14.27a1,1,0,1,1,0,2Z"/><path class="cls-2" d="M340.77,158.65H300.15a1,1,0,1,1,0-2h40.62a1,1,0,1,1,0,2Z"/><path class="cls-2" d="M349.79,149.87H300.15a1,1,0,1,1,0-2h49.65a1,1,0,0,1,0,2Z"/><path class="cls-2" d="M282.31,149.32H259.25a1,1,0,1,1,0-2h23.05a1,1,0,0,1,0,2Z"/><path class="cls-2" d="M282.31,158.65H259.25a1,1,0,0,1,0-2h23.05a1,1,0,1,1,0,2Z"/><path class="cls-8" d="M361.63,140.29H347.35a1,1,0,1,1,0-2h14.27a1,1,0,1,1,0,2Z"/><path class="cls-8" d="M399,94.18H380.29a1,1,0,0,1,0-2H399a1,1,0,0,1,0,2Z"/><path class="cls-12" d="M305.63,111.74H299a1,1,0,0,1,0-2h6.59a1,1,0,1,1,0,2Z"/><path class="cls-5" d="M364.74,149.87h-6.59a1,1,0,0,1,0-2h6.59a1,1,0,1,1,0,2Z"/><path class="cls-5" d="M391.27,131.5h-6.59a1,1,0,1,1,0-2h6.59a1,1,0,1,1,0,2Z"/><path class="cls-5" d="M364.92,121.62h-6.59a1,1,0,0,1,0-2h6.59a1,1,0,1,1,0,2Z"/><path class="cls-9" d="M388,111.74h-6.59a1,1,0,1,1,0-2H388a1,1,0,1,1,0,2Z"/><path class="cls-12" d="M390.17,121.62H369.31a1,1,0,0,1,0-2h20.86a1,1,0,1,1,0,2Z"/><path class="cls-12" d="M377,111.74h-6.59a1,1,0,0,1,0-2H377a1,1,0,1,1,0,2Z"/><path class="cls-10" d="M310,103H299a1,1,0,0,1,0-2h11a1,1,0,1,1,0,2Z"/><path class="cls-2" d="M340.77,140.29H300.15a1,1,0,0,1,0-2h40.62a1,1,0,1,1,0,2Z"/><path class="cls-2" d="M380.29,131.5H300.15a1,1,0,1,1,0-2h80.14a1,1,0,1,1,0,2Z"/><path class="cls-2" d="M353.94,121.62H299a1,1,0,0,1,0-2h54.89a1,1,0,1,1,0,2Z"/><path class="cls-2" d="M366,111.74H311.12a1,1,0,0,1,0-2H366a1,1,0,1,1,0,2Z"/><path class="cls-2" d="M390.17,103H316.61a1,1,0,0,1,0-2h73.55a1,1,0,1,1,0,2Z"/><path class="cls-2" d="M372.6,94.18H299a1,1,0,0,1,0-2H372.6a1,1,0,0,1,0,2Z"/><path class="cls-2" d="M282.31,93.63H259.25a1,1,0,0,1,0-2h23.05a1,1,0,0,1,0,2Z"/><path class="cls-2" d="M282.31,103H259.25a1,1,0,0,1,0-2h23.05a1,1,0,1,1,0,2Z"/><path class="cls-2" d="M282.31,112.29H259.25a1,1,0,0,1,0-2h23.05a1,1,0,0,1,0,2Z"/><path class="cls-2" d="M282.31,121.62H259.25a1,1,0,0,1,0-2h23.05a1,1,0,1,1,0,2Z"/><path class="cls-2" d="M282.31,131H259.25a1,1,0,1,1,0-2h23.05a1,1,0,0,1,0,2Z"/><path class="cls-2" d="M282.31,140.29H259.25a1,1,0,1,1,0-2h23.05a1,1,0,1,1,0,2Z"/><path class="cls-1" d="M425.3,77.79V175a3.3,3.3,0,0,1-3.29,3.29H255.13a3.3,3.3,0,0,1-3.29-3.29V77.79a3.29,3.29,0,0,1,3.29-3.29H422A3.29,3.29,0,0,1,425.3,77.79Z"/><path class="cls-2" d="M422,178.77H255.13a3.81,3.81,0,0,1-3.8-3.8V77.79a3.81,3.81,0,0,1,3.8-3.8H422a3.81,3.81,0,0,1,3.8,3.8V175A3.81,3.81,0,0,1,422,178.77ZM255.13,75a2.79,2.79,0,0,0-2.78,2.78V175a2.79,2.79,0,0,0,2.78,2.78H422a2.79,2.79,0,0,0,2.78-2.78V77.79A2.79,2.79,0,0,0,422,75Z"/><path class="cls-10" d="M289.72,74.49V178.26H255.13a3.3,3.3,0,0,1-3.29-3.29V77.79a3.29,3.29,0,0,1,3.29-3.29Z"/><path class="cls-2" d="M290.23,178.77H255.13a3.81,3.81,0,0,1-3.8-3.8V77.79a3.81,3.81,0,0,1,3.8-3.8h35.09ZM255.13,75a2.79,2.79,0,0,0-2.78,2.78V175a2.79,2.79,0,0,0,2.78,2.78h34.07V75Z"/><path class="cls-8" d="M361.63,158.65H347.35a1,1,0,1,1,0-2h14.27a1,1,0,1,1,0,2Z"/><path class="cls-2" d="M340.77,158.65H300.15a1,1,0,1,1,0-2h40.62a1,1,0,1,1,0,2Z"/><path class="cls-2" d="M349.79,149.87H300.15a1,1,0,1,1,0-2h49.65a1,1,0,0,1,0,2Z"/><path class="cls-2" d="M282.31,149.32H259.25a1,1,0,1,1,0-2h23.05a1,1,0,0,1,0,2Z"/><path class="cls-2" d="M282.31,158.65H259.25a1,1,0,0,1,0-2h23.05a1,1,0,1,1,0,2Z"/><path class="cls-8" d="M361.63,140.29H347.35a1,1,0,1,1,0-2h14.27a1,1,0,1,1,0,2Z"/><path class="cls-8" d="M399,94.18H380.29a1,1,0,0,1,0-2H399a1,1,0,0,1,0,2Z"/><path class="cls-12" d="M305.63,111.74H299a1,1,0,0,1,0-2h6.59a1,1,0,1,1,0,2Z"/><path class="cls-5" d="M364.74,149.87h-6.59a1,1,0,0,1,0-2h6.59a1,1,0,1,1,0,2Z"/><path class="cls-5" d="M391.27,131.5h-6.59a1,1,0,1,1,0-2h6.59a1,1,0,1,1,0,2Z"/><path class="cls-5" d="M364.92,121.62h-6.59a1,1,0,0,1,0-2h6.59a1,1,0,1,1,0,2Z"/><path class="cls-9" d="M388,111.74h-6.59a1,1,0,1,1,0-2H388a1,1,0,1,1,0,2Z"/><path class="cls-12" d="M390.17,121.62H369.31a1,1,0,0,1,0-2h20.86a1,1,0,1,1,0,2Z"/><path class="cls-12" d="M377,111.74h-6.59a1,1,0,0,1,0-2H377a1,1,0,1,1,0,2Z"/><path class="cls-10" d="M310,103H299a1,1,0,0,1,0-2h11a1,1,0,1,1,0,2Z"/><path class="cls-2" d="M340.77,140.29H300.15a1,1,0,0,1,0-2h40.62a1,1,0,1,1,0,2Z"/><path class="cls-2" d="M380.29,131.5H300.15a1,1,0,1,1,0-2h80.14a1,1,0,1,1,0,2Z"/><path class="cls-2" d="M353.94,121.62H299a1,1,0,0,1,0-2h54.89a1,1,0,1,1,0,2Z"/><path class="cls-2" d="M366,111.74H311.12a1,1,0,0,1,0-2H366a1,1,0,1,1,0,2Z"/><path class="cls-2" d="M390.17,103H316.61a1,1,0,0,1,0-2h73.55a1,1,0,1,1,0,2Z"/><path class="cls-2" d="M372.6,94.18H299a1,1,0,0,1,0-2H372.6a1,1,0,0,1,0,2Z"/><path class="cls-2" d="M282.31,93.63H259.25a1,1,0,0,1,0-2h23.05a1,1,0,0,1,0,2Z"/><path class="cls-2" d="M282.31,103H259.25a1,1,0,0,1,0-2h23.05a1,1,0,1,1,0,2Z"/><path class="cls-2" d="M282.31,112.29H259.25a1,1,0,0,1,0-2h23.05a1,1,0,0,1,0,2Z"/><path class="cls-2" d="M282.31,121.62H259.25a1,1,0,0,1,0-2h23.05a1,1,0,1,1,0,2Z"/><path class="cls-2" d="M282.31,131H259.25a1,1,0,1,1,0-2h23.05a1,1,0,0,1,0,2Z"/><path class="cls-2" d="M282.31,140.29H259.25a1,1,0,1,1,0-2h23.05a1,1,0,1,1,0,2Z"/><path class="cls-2" d="M422,178.77H255.13a3.81,3.81,0,0,1-3.8-3.8V77.79a3.81,3.81,0,0,1,3.8-3.8H422a3.81,3.81,0,0,1,3.8,3.8V175A3.81,3.81,0,0,1,422,178.77ZM255.13,75a2.79,2.79,0,0,0-2.78,2.78V175a2.79,2.79,0,0,0,2.78,2.78H422a2.79,2.79,0,0,0,2.78-2.78V77.79A2.79,2.79,0,0,0,422,75Z"/><g class="cls-13"><path d="M425.3,141.42V175a3.29,3.29,0,0,1-3.3,3.3H255.14a3.29,3.29,0,0,1-3.3-3.3V158.52A336.29,336.29,0,0,0,311,163.6C356.89,163.6,397.91,155,425.3,141.42Z"/></g><path class="cls-12" d="M394.36,163.36l-.23,0a8.08,8.08,0,0,0-.27-1.67l.24-.11a1,1,0,0,0,.49-1.35l-.47-1a1,1,0,0,0-1.36-.49l-.29.13a8.51,8.51,0,0,0-1-1.07l.19-.29a1,1,0,0,0-.3-1.41l-.93-.61a1,1,0,0,0-1.41.3l-.22.34a8.32,8.32,0,0,0-1.48-.41v-.43a1,1,0,0,0-1-1h-1.11a1,1,0,0,0-1,1v.46a8.17,8.17,0,0,0-1.43.44l-.26-.4a1,1,0,0,0-1.41-.3l-.93.61a1,1,0,0,0-.3,1.41l.27.41a8.1,8.1,0,0,0-.9,1l-.44-.21a1,1,0,0,0-1.36.49l-.47,1a1,1,0,0,0,.49,1.35l.42.19a8.16,8.16,0,0,0-.24,1.55l-.43.07a1,1,0,0,0-.86,1.16l.16,1.1a1,1,0,0,0,1.16.86l.39-.06a8,8,0,0,0,.6,1.36l-.28.24a1,1,0,0,0-.1,1.44l.73.84a1,1,0,0,0,1.44.1l.23-.2a8.37,8.37,0,0,0,1.24.83l-.08.26a1,1,0,0,0,.68,1.27l1.07.32a1,1,0,0,0,1.27-.68l.06-.22a8.39,8.39,0,0,0,1,.06c.26,0,.51,0,.77,0l.06.2a1,1,0,0,0,1.27.68l1.07-.32a1,1,0,0,0,.68-1.27l-.05-.17a8.24,8.24,0,0,0,1.3-.84l.13.12a1,1,0,0,0,1.44-.1l.73-.84a1,1,0,0,0-.1-1.44l-.14-.12a8.17,8.17,0,0,0,.66-1.45l.19,0a1,1,0,0,0,1.16-.86l.16-1.1A1,1,0,0,0,394.36,163.36Zm-8.57,4.81a4.39,4.39,0,1,1,4.39-4.39A4.39,4.39,0,0,1,385.79,168.17Z"/><path class="cls-2" d="M387.69,173.44a1.53,1.53,0,0,1-1.39-.89,8.47,8.47,0,0,1-1,0,1.53,1.53,0,0,1-1.84.84l-1.06-.32a1.53,1.53,0,0,1-1.05-1.78q-.32-.19-.62-.42a1.53,1.53,0,0,1-2.07-.22l-.73-.84a1.53,1.53,0,0,1,.12-2.13c-.11-.22-.21-.44-.3-.67a1.54,1.54,0,0,1-1.71-1.29l-.16-1.1a1.53,1.53,0,0,1,1.29-1.74h0c0-.28.07-.55.13-.82l0,0a1.53,1.53,0,0,1-.74-2l.47-1a1.54,1.54,0,0,1,2-.74l.07,0q.19-.23.4-.45l0-.07a1.53,1.53,0,0,1,.45-2.11l.93-.61a1.53,1.53,0,0,1,2.12.45l0,.06c.24-.08.48-.16.72-.22v-.06a1.53,1.53,0,0,1,1.53-1.53h1.11a1.53,1.53,0,0,1,1.53,1.53h0q.39.09.76.21h0a1.53,1.53,0,0,1,2.12-.45l.93.61a1.53,1.53,0,0,1,.49,2.05q.24.25.47.52a1.54,1.54,0,0,1,2,.77l.47,1a1.53,1.53,0,0,1-.6,2,8.65,8.65,0,0,1,.15,1,1.53,1.53,0,0,1,1.11,1.7l-.16,1.1A1.53,1.53,0,0,1,394,167h0q-.16.4-.36.8a1.53,1.53,0,0,1,0,2l-.73.84a1.53,1.53,0,0,1-2,.29c-.23.16-.46.31-.7.46a1.53,1.53,0,0,1-1.07,1.67l-1.07.32A1.53,1.53,0,0,1,387.69,173.44Zm-1-1.94a.51.51,0,0,1,.49.37l.06.2a.51.51,0,0,0,.63.33l1.07-.32a.51.51,0,0,0,.34-.63l-.05-.18a.51.51,0,0,1,.25-.6,7.8,7.8,0,0,0,1.22-.79.51.51,0,0,1,.65,0l.13.12a.51.51,0,0,0,.72-.05l.73-.84a.51.51,0,0,0,0-.72l-.14-.12a.51.51,0,0,1-.11-.64,7.72,7.72,0,0,0,.62-1.36.51.51,0,0,1,.56-.34l.19,0a.49.49,0,0,0,.37-.1.5.5,0,0,0,.2-.33l.16-1.1a.51.51,0,0,0-.43-.58h0l-.23,0a.51.51,0,0,1-.43-.48,7.53,7.53,0,0,0-.25-1.56.51.51,0,0,1,.28-.59l.24-.11a.51.51,0,0,0,.25-.67l-.47-1a.51.51,0,0,0-.68-.24l-.28.13a.51.51,0,0,1-.62-.15,8.08,8.08,0,0,0-.91-1,.51.51,0,0,1-.08-.65l.19-.29a.51.51,0,0,0-.15-.7l-.93-.61a.51.51,0,0,0-.7.15l-.22.34a.51.51,0,0,1-.61.2,7.84,7.84,0,0,0-1.38-.39.51.51,0,0,1-.42-.5v-.43a.51.51,0,0,0-.51-.51h-1.11a.51.51,0,0,0-.51.51v.46a.51.51,0,0,1-.41.5,7.73,7.73,0,0,0-1.34.41.51.51,0,0,1-.62-.19l-.26-.4a.51.51,0,0,0-.71-.15l-.93.61a.51.51,0,0,0-.15.7l.27.41a.51.51,0,0,1-.07.65,7.61,7.61,0,0,0-.84,1,.51.51,0,0,1-.63.16l-.44-.21a.51.51,0,0,0-.68.25l-.47,1a.51.51,0,0,0,.25.68l.42.19a.51.51,0,0,1,.28.59,7.54,7.54,0,0,0-.22,1.46.51.51,0,0,1-.43.48l-.43.07a.51.51,0,0,0-.43.58l.16,1.1a.51.51,0,0,0,.58.43l.38-.06a.51.51,0,0,1,.56.34,7.61,7.61,0,0,0,.56,1.27.51.51,0,0,1-.11.63l-.28.24a.51.51,0,0,0,0,.72l.73.84a.51.51,0,0,0,.72,0l.23-.2a.51.51,0,0,1,.66,0,7.89,7.89,0,0,0,1.16.78.51.51,0,0,1,.24.59l-.08.26a.51.51,0,0,0,.34.64l1.06.32a.5.5,0,0,0,.39,0,.51.51,0,0,0,.25-.3l.06-.21a.51.51,0,0,1,.55-.37,7.81,7.81,0,0,0,1.62,0Zm-.87-2.82a4.9,4.9,0,1,1,4.9-4.9A4.9,4.9,0,0,1,385.79,168.68Zm0-8.77a3.88,3.88,0,1,0,3.88,3.88A3.88,3.88,0,0,0,385.79,159.9Z"/><g class="cls-11"><path d="M394.36,163.36l-.23,0a8.24,8.24,0,0,0-.27-1.67l.23-.11a1,1,0,0,0,.5-1.35l-.47-1a1,1,0,0,0-1.36-.5l-.06,0a9.64,9.64,0,0,1-9.06,12.89,9.41,9.41,0,0,1-1.83-.18,1,1,0,0,0,.71,1.13l1.06.32a1,1,0,0,0,1.27-.68l.06-.22a7.5,7.5,0,0,0,1,.06c.26,0,.51,0,.76,0l.06.19a1,1,0,0,0,1.27.68l1.07-.32a1,1,0,0,0,.68-1.27l-.05-.18a8.31,8.31,0,0,0,1.31-.84l.13.12a1,1,0,0,0,1.44-.1l.73-.84a1,1,0,0,0-.1-1.44l-.14-.12a8.13,8.13,0,0,0,.65-1.45l.2,0a1,1,0,0,0,1.16-.86l.16-1.1A1,1,0,0,0,394.36,163.36Z"/></g><path class="cls-2" d="M387.69,173.44a1.53,1.53,0,0,1-1.39-.89,8.47,8.47,0,0,1-1,0,1.53,1.53,0,0,1-1.84.84l-1.06-.32a1.53,1.53,0,0,1-1.05-1.78q-.32-.19-.62-.42a1.53,1.53,0,0,1-2.07-.22l-.73-.84a1.53,1.53,0,0,1,.12-2.13c-.11-.22-.21-.44-.3-.67a1.54,1.54,0,0,1-1.71-1.29l-.16-1.1a1.53,1.53,0,0,1,1.29-1.74h0c0-.28.07-.55.13-.82l0,0a1.53,1.53,0,0,1-.74-2l.47-1a1.54,1.54,0,0,1,2-.74l.07,0q.19-.23.4-.45l0-.07a1.53,1.53,0,0,1,.45-2.11l.93-.61a1.53,1.53,0,0,1,2.12.45l0,.06c.24-.08.48-.16.72-.22v-.06a1.53,1.53,0,0,1,1.53-1.53h1.11a1.53,1.53,0,0,1,1.53,1.53h0q.39.09.76.21h0a1.53,1.53,0,0,1,2.12-.45l.93.61a1.53,1.53,0,0,1,.49,2.05q.24.25.47.52a1.54,1.54,0,0,1,2,.77l.47,1a1.53,1.53,0,0,1-.6,2,8.65,8.65,0,0,1,.15,1,1.53,1.53,0,0,1,1.11,1.7l-.16,1.1A1.53,1.53,0,0,1,394,167h0q-.16.4-.36.8a1.53,1.53,0,0,1,0,2l-.73.84a1.53,1.53,0,0,1-2,.29c-.23.16-.46.31-.7.46a1.53,1.53,0,0,1-1.07,1.67l-1.07.32A1.53,1.53,0,0,1,387.69,173.44Zm-1-1.94a.51.51,0,0,1,.49.37l.06.2a.51.51,0,0,0,.63.33l1.07-.32a.51.51,0,0,0,.34-.63l-.05-.18a.51.51,0,0,1,.25-.6,7.8,7.8,0,0,0,1.22-.79.51.51,0,0,1,.65,0l.13.12a.51.51,0,0,0,.72-.05l.73-.84a.51.51,0,0,0,0-.72l-.14-.12a.51.51,0,0,1-.11-.64,7.72,7.72,0,0,0,.62-1.36.51.51,0,0,1,.56-.34l.19,0a.49.49,0,0,0,.37-.1.5.5,0,0,0,.2-.33l.16-1.1a.51.51,0,0,0-.43-.58h0l-.23,0a.51.51,0,0,1-.43-.48,7.53,7.53,0,0,0-.25-1.56.51.51,0,0,1,.28-.59l.24-.11a.51.51,0,0,0,.25-.67l-.47-1a.51.51,0,0,0-.68-.24l-.28.13a.51.51,0,0,1-.62-.15,8.08,8.08,0,0,0-.91-1,.51.51,0,0,1-.08-.65l.19-.29a.51.51,0,0,0-.15-.7l-.93-.61a.51.51,0,0,0-.7.15l-.22.34a.51.51,0,0,1-.61.2,7.84,7.84,0,0,0-1.38-.39.51.51,0,0,1-.42-.5v-.43a.51.51,0,0,0-.51-.51h-1.11a.51.51,0,0,0-.51.51v.46a.51.51,0,0,1-.41.5,7.73,7.73,0,0,0-1.34.41.51.51,0,0,1-.62-.19l-.26-.4a.51.51,0,0,0-.71-.15l-.93.61a.51.51,0,0,0-.15.7l.27.41a.51.51,0,0,1-.07.65,7.61,7.61,0,0,0-.84,1,.51.51,0,0,1-.63.16l-.44-.21a.51.51,0,0,0-.68.25l-.47,1a.51.51,0,0,0,.25.68l.42.19a.51.51,0,0,1,.28.59,7.54,7.54,0,0,0-.22,1.46.51.51,0,0,1-.43.48l-.43.07a.51.51,0,0,0-.43.58l.16,1.1a.51.51,0,0,0,.58.43l.38-.06a.51.51,0,0,1,.56.34,7.61,7.61,0,0,0,.56,1.27.51.51,0,0,1-.11.63l-.28.24a.51.51,0,0,0,0,.72l.73.84a.51.51,0,0,0,.72,0l.23-.2a.51.51,0,0,1,.66,0,7.89,7.89,0,0,0,1.16.78.51.51,0,0,1,.24.59l-.08.26a.51.51,0,0,0,.34.64l1.06.32a.5.5,0,0,0,.39,0,.51.51,0,0,0,.25-.3l.06-.21a.51.51,0,0,1,.55-.37,7.81,7.81,0,0,0,1.62,0Zm-.87-2.82a4.9,4.9,0,1,1,4.9-4.9A4.9,4.9,0,0,1,385.79,168.68Zm0-8.77a3.88,3.88,0,1,0,3.88,3.88A3.88,3.88,0,0,0,385.79,159.9Z"/><path class="cls-8" d="M420.08,155.18l-.4-.06a14.13,14.13,0,0,0-.47-2.92l.41-.19a1.78,1.78,0,0,0,.86-2.37l-.82-1.76a1.79,1.79,0,0,0-2.37-.86l-.5.24a14.88,14.88,0,0,0-1.7-1.88l.33-.51a1.78,1.78,0,0,0-.52-2.46l-1.63-1.06a1.78,1.78,0,0,0-2.47.52l-.38.59a14.56,14.56,0,0,0-2.58-.72V141a1.78,1.78,0,0,0-1.78-1.78h-1.95a1.78,1.78,0,0,0-1.78,1.78v.81a14.29,14.29,0,0,0-2.51.77l-.46-.7a1.78,1.78,0,0,0-2.47-.52l-1.63,1.06a1.78,1.78,0,0,0-.52,2.46l.47.72a14.16,14.16,0,0,0-1.57,1.79l-.77-.36a1.79,1.79,0,0,0-2.37.86l-.82,1.76a1.78,1.78,0,0,0,.86,2.37l.73.34a14.26,14.26,0,0,0-.42,2.72l-.76.11a1.78,1.78,0,0,0-1.5,2l.29,1.92a1.78,1.78,0,0,0,2,1.5l.68-.1a14.06,14.06,0,0,0,1,2.38l-.48.42a1.78,1.78,0,0,0-.17,2.51l1.28,1.47a1.79,1.79,0,0,0,2.52.17l.4-.35a14.64,14.64,0,0,0,2.16,1.46l-.14.46a1.78,1.78,0,0,0,1.19,2.22l1.86.56a1.78,1.78,0,0,0,2.22-1.19l.11-.38a14.66,14.66,0,0,0,1.69.1c.45,0,.9,0,1.34-.07l.1.34a1.78,1.78,0,0,0,2.22,1.19l1.86-.56a1.78,1.78,0,0,0,1.19-2.22l-.09-.3a14.4,14.4,0,0,0,2.28-1.47l.23.2a1.79,1.79,0,0,0,2.52-.17l1.28-1.47a1.78,1.78,0,0,0-.17-2.51l-.24-.21a14.29,14.29,0,0,0,1.15-2.54l.34.05a1.78,1.78,0,0,0,2-1.5l.29-1.92A1.78,1.78,0,0,0,420.08,155.18Zm-15,8.4a7.67,7.67,0,1,1,7.67-7.67A7.67,7.67,0,0,1,405.1,163.58Z"/><path class="cls-2" d="M408.42,172.42a2.3,2.3,0,0,1-2.17-1.58,14,14,0,0,1-2.28,0,2.29,2.29,0,0,1-2.85,1.5l-1.86-.56a2.29,2.29,0,0,1-1.53-2.86l0-.07a15.31,15.31,0,0,1-1.54-1l-.08.07a2.3,2.3,0,0,1-3.24-.22l-1.28-1.47a2.29,2.29,0,0,1,.22-3.23l.17-.15a14.55,14.55,0,0,1-.75-1.69l-.26,0a2.29,2.29,0,0,1-2.61-1.93l-.29-1.92a2.29,2.29,0,0,1,1.93-2.6l.35-.05a14.87,14.87,0,0,1,.31-2l-.35-.16a2.29,2.29,0,0,1-1.11-3l.82-1.76a2.3,2.3,0,0,1,3-1.11l.4.19a14.45,14.45,0,0,1,1.07-1.22l-.24-.37A2.29,2.29,0,0,1,395,142l1.63-1.06a2.3,2.3,0,0,1,3.17.67l.23.35a15,15,0,0,1,1.8-.55V141a2.29,2.29,0,0,1,2.29-2.29h1.95a2.29,2.29,0,0,1,2.29,2.29v.33a15.09,15.09,0,0,1,1.86.52l.16-.25a2.3,2.3,0,0,1,3.17-.67l1.63,1.06a2.29,2.29,0,0,1,.67,3.17l-.1.16a15.31,15.31,0,0,1,1.19,1.32l.13-.06a2.3,2.3,0,0,1,3,1.11l.82,1.77a2.29,2.29,0,0,1-1.11,3h0a14.91,14.91,0,0,1,.35,2.19,2.29,2.29,0,0,1,1.92,2.6l-.29,1.92a2.31,2.31,0,0,1-2.53,1.94,15,15,0,0,1-.84,1.86,2.29,2.29,0,0,1,.16,3.17l-1.28,1.47a2.3,2.3,0,0,1-3.15.29A15.1,15.1,0,0,1,412.5,169a2.29,2.29,0,0,1-1.56,2.76l-1.87.56A2.29,2.29,0,0,1,408.42,172.42Zm-1.8-2.63a.51.51,0,0,1,.49.37l.1.34a1.27,1.27,0,0,0,1.58.84l1.87-.56a1.27,1.27,0,0,0,.85-1.58l-.09-.31a.51.51,0,0,1,.25-.6,13.88,13.88,0,0,0,2.2-1.42.51.51,0,0,1,.65,0l.23.2a1.28,1.28,0,0,0,1.79-.12l1.28-1.47a1.27,1.27,0,0,0-.12-1.79l-.24-.21a.51.51,0,0,1-.11-.64,13.8,13.8,0,0,0,1.11-2.45.51.51,0,0,1,.56-.34l.34.05a1.27,1.27,0,0,0,1.44-1.07l.29-1.92a1.27,1.27,0,0,0-1.07-1.44h0l-.4-.06a.51.51,0,0,1-.43-.48,13.74,13.74,0,0,0-.45-2.81.51.51,0,0,1,.28-.59l.41-.19a1.27,1.27,0,0,0,.62-1.69l-.82-1.77a1.28,1.28,0,0,0-1.69-.61l-.5.23a.51.51,0,0,1-.62-.15,14.31,14.31,0,0,0-1.64-1.81.51.51,0,0,1-.08-.65l.33-.51a1.27,1.27,0,0,0-.37-1.76L413,141.77a1.28,1.28,0,0,0-1.76.37l-.38.59a.51.51,0,0,1-.61.2,14.07,14.07,0,0,0-2.49-.7.51.51,0,0,1-.42-.5V141a1.27,1.27,0,0,0-1.27-1.27h-1.95a1.27,1.27,0,0,0-1.27,1.27v.81a.51.51,0,0,1-.41.5A13.85,13.85,0,0,0,400,143a.51.51,0,0,1-.62-.19l-.46-.7a1.28,1.28,0,0,0-1.76-.37l-1.63,1.06a1.27,1.27,0,0,0-.37,1.76l.47.72a.51.51,0,0,1-.07.65,13.68,13.68,0,0,0-1.51,1.73.51.51,0,0,1-.63.16l-.77-.36a1.28,1.28,0,0,0-1.69.62l-.82,1.76a1.27,1.27,0,0,0,.61,1.69l.73.34a.51.51,0,0,1,.28.59,13.76,13.76,0,0,0-.41,2.62.51.51,0,0,1-.43.48l-.76.11a1.27,1.27,0,0,0-1.07,1.44l.29,1.92a1.27,1.27,0,0,0,1.45,1.07l.67-.1a.5.5,0,0,1,.56.34,13.65,13.65,0,0,0,1,2.29.51.51,0,0,1-.11.63l-.48.42a1.27,1.27,0,0,0-.12,1.79l1.28,1.47a1.28,1.28,0,0,0,1.8.12l.4-.35a.51.51,0,0,1,.66,0,14.17,14.17,0,0,0,2.09,1.41.51.51,0,0,1,.24.59l-.14.46a1.27,1.27,0,0,0,.85,1.58l1.86.56a1.27,1.27,0,0,0,1.58-.85l.11-.37a.5.5,0,0,1,.55-.36,13.44,13.44,0,0,0,2.92,0Zm-1.52-5.69a8.18,8.18,0,1,1,8.18-8.18A8.19,8.19,0,0,1,405.1,164.09Zm0-15.34a7.16,7.16,0,1,0,7.16,7.16A7.17,7.17,0,0,0,405.1,148.75Z"/><path class="cls-2" d="M408.42,172.42a2.3,2.3,0,0,1-2.17-1.58,14,14,0,0,1-2.28,0,2.29,2.29,0,0,1-2.85,1.5l-1.86-.56a2.29,2.29,0,0,1-1.53-2.86l0-.07a15.31,15.31,0,0,1-1.54-1l-.08.07a2.3,2.3,0,0,1-3.24-.22l-1.28-1.47a2.29,2.29,0,0,1,.22-3.23l.17-.15a14.55,14.55,0,0,1-.75-1.69l-.26,0a2.29,2.29,0,0,1-2.61-1.93l-.29-1.92a2.29,2.29,0,0,1,1.93-2.6l.35-.05a14.87,14.87,0,0,1,.31-2l-.35-.16a2.29,2.29,0,0,1-1.11-3l.82-1.76a2.3,2.3,0,0,1,3-1.11l.4.19a14.45,14.45,0,0,1,1.07-1.22l-.24-.37A2.29,2.29,0,0,1,395,142l1.63-1.06a2.3,2.3,0,0,1,3.17.67l.23.35a15,15,0,0,1,1.8-.55V141a2.29,2.29,0,0,1,2.29-2.29h1.95a2.29,2.29,0,0,1,2.29,2.29v.33a15.09,15.09,0,0,1,1.86.52l.16-.25a2.3,2.3,0,0,1,3.17-.67l1.63,1.06a2.29,2.29,0,0,1,.67,3.17l-.1.16a15.31,15.31,0,0,1,1.19,1.32l.13-.06a2.3,2.3,0,0,1,3,1.11l.82,1.77a2.29,2.29,0,0,1-1.11,3h0a14.91,14.91,0,0,1,.35,2.19,2.29,2.29,0,0,1,1.92,2.6l-.29,1.92a2.31,2.31,0,0,1-2.53,1.94,15,15,0,0,1-.84,1.86,2.29,2.29,0,0,1,.16,3.17l-1.28,1.47a2.3,2.3,0,0,1-3.15.29A15.1,15.1,0,0,1,412.5,169a2.29,2.29,0,0,1-1.56,2.76l-1.87.56A2.29,2.29,0,0,1,408.42,172.42Zm-1.8-2.63a.51.51,0,0,1,.49.37l.1.34a1.27,1.27,0,0,0,1.58.84l1.87-.56a1.27,1.27,0,0,0,.85-1.58l-.09-.31a.51.51,0,0,1,.25-.6,13.88,13.88,0,0,0,2.2-1.42.51.51,0,0,1,.65,0l.23.2a1.28,1.28,0,0,0,1.79-.12l1.28-1.47a1.27,1.27,0,0,0-.12-1.79l-.24-.21a.51.51,0,0,1-.11-.64,13.8,13.8,0,0,0,1.11-2.45.51.51,0,0,1,.56-.34l.34.05a1.27,1.27,0,0,0,1.44-1.07l.29-1.92a1.27,1.27,0,0,0-1.07-1.44h0l-.4-.06a.51.51,0,0,1-.43-.48,13.74,13.74,0,0,0-.45-2.81.51.51,0,0,1,.28-.59l.41-.19a1.27,1.27,0,0,0,.62-1.69l-.82-1.77a1.28,1.28,0,0,0-1.69-.61l-.5.23a.51.51,0,0,1-.62-.15,14.31,14.31,0,0,0-1.64-1.81.51.51,0,0,1-.08-.65l.33-.51a1.27,1.27,0,0,0-.37-1.76L413,141.77a1.28,1.28,0,0,0-1.76.37l-.38.59a.51.51,0,0,1-.61.2,14.07,14.07,0,0,0-2.49-.7.51.51,0,0,1-.42-.5V141a1.27,1.27,0,0,0-1.27-1.27h-1.95a1.27,1.27,0,0,0-1.27,1.27v.81a.51.51,0,0,1-.41.5A13.85,13.85,0,0,0,400,143a.51.51,0,0,1-.62-.19l-.46-.7a1.28,1.28,0,0,0-1.76-.37l-1.63,1.06a1.27,1.27,0,0,0-.37,1.76l.47.72a.51.51,0,0,1-.07.65,13.68,13.68,0,0,0-1.51,1.73.51.51,0,0,1-.63.16l-.77-.36a1.28,1.28,0,0,0-1.69.62l-.82,1.76a1.27,1.27,0,0,0,.61,1.69l.73.34a.51.51,0,0,1,.28.59,13.76,13.76,0,0,0-.41,2.62.51.51,0,0,1-.43.48l-.76.11a1.27,1.27,0,0,0-1.07,1.44l.29,1.92a1.27,1.27,0,0,0,1.45,1.07l.67-.1a.5.5,0,0,1,.56.34,13.65,13.65,0,0,0,1,2.29.51.51,0,0,1-.11.63l-.48.42a1.27,1.27,0,0,0-.12,1.79l1.28,1.47a1.28,1.28,0,0,0,1.8.12l.4-.35a.51.51,0,0,1,.66,0,14.17,14.17,0,0,0,2.09,1.41.51.51,0,0,1,.24.59l-.14.46a1.27,1.27,0,0,0,.85,1.58l1.86.56a1.27,1.27,0,0,0,1.58-.85l.11-.37a.5.5,0,0,1,.55-.36,13.44,13.44,0,0,0,2.92,0Zm-1.52-5.69a8.18,8.18,0,1,1,8.18-8.18A8.19,8.19,0,0,1,405.1,164.09Zm0-15.34a7.16,7.16,0,1,0,7.16,7.16A7.17,7.17,0,0,0,405.1,148.75Z"/><g class="cls-11"><path d="M420.08,155.18l-.4-.05a14.41,14.41,0,0,0-.47-2.92l.41-.19a1.78,1.78,0,0,0,.87-2.37l-.82-1.77a1.8,1.8,0,0,0-2.38-.87l-.1.05a16.85,16.85,0,0,1-15.85,22.54,16.46,16.46,0,0,1-3.19-.31,1.76,1.76,0,0,0,1.24,2l1.86.56a1.78,1.78,0,0,0,2.22-1.19l.11-.38a13.11,13.11,0,0,0,1.68.11c.45,0,.9,0,1.34-.07l.1.34a1.77,1.77,0,0,0,2.21,1.19l1.87-.56a1.78,1.78,0,0,0,1.19-2.21l-.09-.31a14.53,14.53,0,0,0,2.29-1.47l.22.2a1.8,1.8,0,0,0,2.52-.17l1.28-1.47a1.8,1.8,0,0,0-.17-2.52l-.25-.2a14.21,14.21,0,0,0,1.14-2.54l.35.05a1.78,1.78,0,0,0,2-1.5l.29-1.92A1.79,1.79,0,0,0,420.08,155.18Z"/></g><g class="cls-14"><path class="cls-1" d="M394.42,155.94a.51.51,0,0,1-.51-.51,10.89,10.89,0,0,1,10.88-10.88.51.51,0,0,1,0,1,9.87,9.87,0,0,0-9.86,9.86A.51.51,0,0,1,394.42,155.94Z"/></g></svg>