<?xml version="1.0" encoding="utf-8"?>
<!-- Generator: Adobe Illustrator 21.0.0, SVG Export Plug-In . SVG Version: 6.00 Build 0)  -->
<svg version="1.1" id="Layer_1" xmlns="http://www.w3.org/2000/svg" xmlns:xlink="http://www.w3.org/1999/xlink" x="0px" y="0px"
	 viewBox="0 0 227.9 183.1" style="enable-background:new 0 0 227.9 183.1;" xml:space="preserve">
<style type="text/css">
	.st0{fill:#FFD652;}
	.st1{fill:#FD2087;}
	.st2{fill:#FFFFFF;}
	.st3{fill:#00A388;}
	.st4{opacity:0.2;}
	.st5{fill:#0B2674;}
	.st6{fill:#425BFF;}
	.st7{fill:#00C8AA;}
	.st8{opacity:0.3;}
	.st9{opacity:0.5;}
	.st10{fill:#FAFAFA;}
	.st11{fill:#3ACFEF;}
</style>
<g>
	<g>
		<path class="st0" d="M84.4,125c0-0.2-0.1-0.5-0.2-0.6l-5.8-7.7l-4.3-5.7l-1.5-2c-0.1-0.2-0.3-0.3-0.6-0.4
			c-4.4-1.2-50.1-12.9-69.4,31.6c-0.4,0.8,0.4,1.7,1.3,1.4c1.6-0.5,4.1-1.1,7.3-1c0.9,0,1.3,1,0.8,1.7C8.4,146.8-1,160.4,0.1,175.1
			c0,0.4,0.3,0.8,0.7,0.9c13.9,5,29.5-0.3,34.8-2.5c0.8-0.3,1.6,0.4,1.4,1.2c-0.8,3.1-2,5.3-2.9,6.7c-0.5,0.7,0.1,1.7,1,1.6
			C83.1,176.8,84.4,129.6,84.4,125z"/>
	</g>
	<g>
		<path class="st1" d="M79.7,124.9c0-0.4-0.1-0.7-0.3-1l-3.2-4.2l-2.5-3.4l-0.7-0.9c-0.2-0.3-0.5-0.5-0.9-0.6
			c-3.9-1-28.1-6.3-39.4,16.7c-0.6,1.2,0.4,2.5,1.7,2.3c0,0,0.1,0,0.1,0c1.4-0.2,2.4,1.4,1.6,2.5c-2.4,3.4-6,9.9-5.8,16.8
			c0,0.7,0.5,1.3,1.1,1.5c6.6,2.1,13.8,0.4,17.7-1c1.3-0.5,2.6,0.9,2,2.2c0,0,0,0.1,0,0.1c-0.5,1.2,0.5,2.5,1.8,2.3
			C78,153.6,79.6,128.9,79.7,124.9z"/>
	</g>
	<g>
		<path class="st2" d="M78,124c0.4-0.7,0.3-1.6-0.2-2.3l-1.6-2.1l-1.6-2.1c-0.5-0.7-1.3-1-2.1-0.9c-12.9,2.2-22,15.8-25.8,22.7
			c-0.9,1.7,0.6,3.7,2.4,3.2C56.8,140.8,72.4,135.8,78,124z"/>
	</g>
	<g>
		<g>
			<path class="st3" d="M103.8,132.8l-35-45c-0.5-0.7-1.5-0.8-2.2-0.3l-2.1,1.6c-0.7,0.5-0.8,1.5-0.3,2.2l5.9,7.6
				c-0.1,0-0.2,0.1-0.2,0.1l-2.1,1.6c-0.7,0.5-0.8,1.5-0.3,2.2l20.9,26.9c0.5,0.7,1.5,0.8,2.2,0.3l2.1-1.6c0.1-0.1,0.1-0.1,0.2-0.2
				l6.3,8.1c0.5,0.7,1.5,0.8,2.2,0.3l2.1-1.6C104.2,134.5,104.3,133.5,103.8,132.8z"/>
		</g>
		<g class="st4">
			<path d="M92.9,128.3l6.3,8.1c0.5,0.7,1.5,0.8,2.2,0.3l2.1-1.6c0.7-0.5,0.8-1.5,0.3-2.2l-35-45c-0.5-0.7-1.5-0.8-2.2-0.3l-2.1,1.6
				c-0.7,0.5-0.8,1.5-0.3,2.2l5.9,7.6L92.9,128.3z"/>
		</g>
		<g>
			<path class="st5" d="M100.4,137.7c-0.7,0-1.3-0.3-1.8-0.9l-5.8-7.5l-1.8,1.4c-0.5,0.4-1.1,0.5-1.7,0.5c-0.6-0.1-1.1-0.4-1.5-0.9
				L67,103.4c-0.4-0.5-0.5-1.1-0.5-1.7c0.1-0.6,0.4-1.1,0.9-1.5l1.8-1.4l-5.5-7.1c-0.8-1-0.6-2.4,0.4-3.2l2.1-1.6
				c1-0.8,2.4-0.6,3.2,0.4l35,45v0c0.4,0.5,0.5,1.1,0.5,1.7c-0.1,0.6-0.4,1.1-0.9,1.5l-2.1,1.6C101.4,137.5,100.9,137.7,100.4,137.7
				z M92.9,127.6C92.9,127.6,92.9,127.6,92.9,127.6c0.2,0,0.4,0.1,0.6,0.3l6.3,8.1c0.3,0.4,0.8,0.4,1.2,0.1l2.1-1.6
				c0.2-0.1,0.3-0.3,0.3-0.6c0-0.2,0-0.4-0.2-0.6v0l-35-45c-0.3-0.4-0.8-0.4-1.2-0.1l-2.1,1.6c-0.4,0.3-0.4,0.8-0.1,1.2l5.9,7.6
				c0.1,0.2,0.2,0.4,0.1,0.6c0,0.2-0.2,0.4-0.4,0.5c0,0-0.1,0-0.1,0.1l-2.1,1.6c-0.2,0.1-0.3,0.3-0.3,0.6c0,0.2,0,0.4,0.2,0.6
				L89,129.4c0.1,0.2,0.3,0.3,0.6,0.3c0.2,0,0.4,0,0.6-0.2l2.1-1.6c0,0,0.1-0.1,0.1-0.1C92.5,127.6,92.7,127.6,92.9,127.6z"/>
		</g>
	</g>
	<g>
		<path class="st6" d="M87.6,48.1c-11,9.9-20.2,20.5-26.9,31c-0.3,0.4-0.6,0.7-1.1,0.9L37.1,90.6c-2.4,1.1-4.7-1.5-3.3-3.7
			l25.1-39.5c1.5-2.3,4.9-4.1,7.6-4.1L86,43.6C88.3,43.6,89.4,46.5,87.6,48.1z"/>
	</g>
	<g>
		<path class="st6" d="M147.2,124.9c2-1.3,4.5,0.4,4,2.7l-4.5,18.9c-0.6,2.7-3.2,5.5-5.8,6.4l-44.5,14.6c-2.5,0.8-4.5-2.1-2.8-4.1
			l16.2-19.8l0.1-0.1h0C122,139.5,134.7,133.3,147.2,124.9z"/>
	</g>
	<g>
		<path class="st7" d="M215.2,34.3c-3.5,24.4-26.8,59.1-57.6,83c-1.6,1.3-3.3,2.5-4.9,3.7c-14.2,10.4-29,17.9-42.8,22.5h0
			c0,0-0.1,0-0.1,0l-25-32.2L60.2,79.8c0,0,0-0.1,0.1-0.1c7.9-12.3,18.9-24.7,32.5-36c1.5-1.3,3.1-2.5,4.7-3.8
			c30.8-24,70.4-37.5,94.9-35c8.3,0.9,14.8,3.6,18.7,8.3c0.1,0.1,0.1,0.2,0.2,0.2C215.3,18.7,216.4,25.9,215.2,34.3z"/>
	</g>
	<g>
		<path class="st5" d="M227.2,0.9c0,1.3-10.1,11.8-14,15.7c2.4,4.8,3,10.8,2,17.7L197,10.9l-4.6-6c6.5,0.7,11.9,2.5,15.8,5.5
			c0.2-0.1,0.4-0.2,0.6-0.4c0.2-0.1,0.4-0.2,0.5-0.3c0.1-0.1,0.2-0.1,0.3-0.2c0.2-0.1,0.4-0.2,0.6-0.3c0.7-0.4,1.5-0.8,2.3-1.3
			c0.2-0.1,0.3-0.2,0.5-0.3c0.6-0.3,1.2-0.7,1.9-1.1c0.1-0.1,0.2-0.1,0.3-0.2c1.5-0.8,3.1-1.7,4.6-2.5c0.2-0.1,0.3-0.2,0.5-0.3
			c0.5-0.3,1-0.5,1.5-0.8c0.2-0.1,0.4-0.2,0.6-0.3C225.1,1.2,227.1,0.4,227.2,0.9C227.2,0.8,227.2,0.8,227.2,0.9L227.2,0.9z"/>
	</g>
	<g>
		<g>
			
				<ellipse transform="matrix(0.9685 -0.2491 0.2491 0.9685 -8.188 41.9516)" class="st6" cx="161.7" cy="53.3" rx="22.1" ry="22.1"/>
		</g>
		<g class="st8">
			<path class="st5" d="M183.4,47.7c3,11.8-4.1,23.9-15.9,27c-10.4,2.7-21-2.6-25.5-11.9c5.2,3.7,11.9,5.2,18.5,3.5
				c11.9-3.1,19-15.1,15.9-27c-0.4-1.4-0.9-2.8-1.5-4C179,38.3,182.1,42.5,183.4,47.7z"/>
		</g>
		<g>
			<path class="st5" d="M161.6,76.2c-4,0-8-1.1-11.6-3.2c-5.3-3.1-9-8.1-10.5-14c-1.5-5.9-0.6-12.1,2.5-17.3c3.1-5.3,8.1-9,14-10.5
				c5.9-1.5,12.1-0.6,17.3,2.5c5.3,3.1,9,8.1,10.5,14c1.5,5.9,0.6,12.1-2.5,17.3c-3.1,5.3-8.1,9-14,10.5
				C165.4,75.9,163.5,76.2,161.6,76.2z M161.7,31.9c-1.8,0-3.6,0.2-5.4,0.7c-5.5,1.4-10.2,4.9-13.1,9.9c-2.9,4.9-3.7,10.7-2.3,16.2
				c1.4,5.5,4.9,10.2,9.9,13.1c4.9,2.9,10.7,3.7,16.2,2.3c5.5-1.4,10.2-4.9,13.1-9.9c2.9-4.9,3.7-10.7,2.3-16.2l0,0
				c-1.4-5.5-4.9-10.2-9.9-13.1C169.2,32.9,165.5,31.9,161.7,31.9z"/>
		</g>
	</g>
	<g class="st4">
		<path d="M215.2,34.3c-3.5,24.4-26.8,59.1-57.6,83c-1.6,1.3-3.3,2.6-4.9,3.8c-14.3,10.3-29,18.2-42.8,22.6h0c0,0-0.1,0-0.1,0
			l-7.3-9.4c14.5-4.8,29.9-12.8,44.8-23.6c1.7-1.3,3.5-2.6,5.2-3.9c32.4-25.2,56.9-61.7,60.6-87.4c0.1-0.8,0.2-1.6,0.3-2.4
			C215.7,21.7,216.2,27.6,215.2,34.3z"/>
	</g>
	<g>
		<path class="st5" d="M109.7,144.4l-0.4-0.4L59.4,79.9l0.3-0.5c8.1-12.7,19.4-25.3,32.6-36.2c1.5-1.2,3.1-2.5,4.7-3.8
			c29.6-23,69.7-37.8,95.4-35.2c8.9,0.9,15.3,3.8,19.2,8.6l0.2,0.3c4,5.1,5.4,12.3,4.1,21.3c-3.6,25.1-27.9,60.2-57.8,83.5
			c-1.6,1.2-3.2,2.4-5,3.7c-13.9,10.1-28.7,17.9-43,22.6L109.7,144.4z M61.1,79.8l49,62.9c14-4.7,28.6-12.4,42.3-22.3
			c1.8-1.3,3.4-2.5,4.9-3.7C186.9,93.7,211,59,214.5,34.2l0,0c1.2-8.6-0.1-15.4-3.8-20.3l-0.2-0.2c-3.6-4.5-9.8-7.2-18.2-8.1
			c-25.4-2.6-65,12-94.4,34.9c-1.6,1.3-3.2,2.5-4.7,3.8C80.2,55,69.1,67.3,61.1,79.8z"/>
	</g>
	<g class="st9">
		<path class="st10" d="M136.4,25c2.6-1.1,5.1-2.1,7.7-3c3.5-1.3,7-2.4,10.5-3.3"/>
		<path class="st10" d="M136.4,27.1c-0.8,0-1.6-0.5-2-1.3c-0.5-1.1,0-2.3,1.1-2.8c2.6-1.1,5.2-2.1,7.8-3.1c3.6-1.3,7.1-2.4,10.7-3.4
			c1.1-0.3,2.3,0.4,2.6,1.5c0.3,1.1-0.4,2.3-1.5,2.6c-3.4,0.9-6.9,2-10.3,3.3c-2.5,0.9-5.1,1.9-7.6,3
			C136.9,27.1,136.6,27.1,136.4,27.1z"/>
	</g>
	<g class="st9">
		<path class="st10" d="M108.6,40.4c3.1-2.1,6.3-4.2,9.5-6"/>
		<path class="st10" d="M108.6,42.5c-0.7,0-1.3-0.3-1.8-0.9c-0.7-1-0.4-2.3,0.6-3c3.1-2.1,6.3-4.2,9.6-6.1c1-0.6,2.3-0.3,2.9,0.7
			c0.6,1,0.3,2.3-0.7,2.9c-3.2,1.9-6.3,3.9-9.3,6C109.4,42.4,109,42.5,108.6,42.5z"/>
	</g>
	<g class="st8">
		<path class="st5" d="M151.2,127.6l-0.6,2.4c-16.8,10.8-33.7,19-49.9,24.7l9.1-11.1l0.1,0h0c12-3.9,24.7-10.3,37.2-18.7
			C149.1,123.6,151.7,125.3,151.2,127.6z"/>
	</g>
	<g>
		<path class="st5" d="M95.6,168.4c-1.1,0-2-0.5-2.7-1.4c-0.9-1.2-0.8-2.8,0.2-4l16.3-19.9l0.5-0.2c12.2-4,24.9-10.4,37-18.5l0,0
			c1.2-0.8,2.6-0.8,3.7,0c1.1,0.8,1.7,2.1,1.3,3.5l-4.5,18.9c-0.7,2.9-3.5,5.9-6.3,6.9l-44.5,14.6C96.3,168.3,95.9,168.4,95.6,168.4
			z M110.3,144.2l-16.1,19.7c-0.7,0.8-0.5,1.7-0.1,2.3c0.4,0.6,1.2,1,2.1,0.7l44.5-14.6c2.3-0.8,4.8-3.4,5.4-5.9l4.5-18.9
			c0.2-0.9-0.2-1.6-0.8-2c-0.5-0.4-1.3-0.5-2.1,0C135.4,133.6,122.5,140.1,110.3,144.2z"/>
	</g>
	<g class="st4">
		<path class="st11" d="M83.2,43.5c-11.3,2.2-25.9,12.9-37.9,28.8c-4.5,5.9-8.2,12-11,17.9c-0.9-0.8-1.3-2.1-0.5-3.4l25.1-39.5
			c1.5-2.3,4.9-4.1,7.6-4.1L83.2,43.5z"/>
	</g>
	<g>
		<path class="st5" d="M36,91.6c-0.9,0-1.8-0.4-2.5-1.1c-1-1.1-1.1-2.7-0.3-4L58.3,47c1.6-2.5,5.3-4.5,8.2-4.4L86,42.9
			c1.4,0,2.6,0.8,3,2.1c0.5,1.3,0.1,2.7-0.9,3.6c-10.7,9.5-19.9,20.2-26.8,30.9c-0.3,0.5-0.8,0.9-1.4,1.2L37.4,91.2
			C37,91.5,36.5,91.6,36,91.6z M66.4,44c-2.5,0-5.6,1.7-6.9,3.8L34.4,87.2c-0.6,0.9-0.3,1.7,0.2,2.3c0.5,0.5,1.3,0.9,2.2,0.5
			l22.5-10.5c0.3-0.1,0.6-0.4,0.8-0.7c7-10.7,16.3-21.5,27.1-31.1l0,0c0.7-0.6,0.7-1.5,0.5-2.1c-0.2-0.6-0.8-1.2-1.7-1.2L66.4,44
			C66.5,44,66.4,44,66.4,44z"/>
	</g>
	<g>
		<path class="st6" d="M81.1,114.3L81.1,114.3c-1-1.1-0.9-2.8,0.2-3.8l36.3-31.9c1.1-1,2.8-0.9,3.8,0.2l0,0c1,1.1,0.9,2.8-0.2,3.8
			L85,114.5C83.8,115.5,82.1,115.4,81.1,114.3z"/>
		<path class="st5" d="M83.2,115.9c-0.1,0-0.2,0-0.2,0c-0.9-0.1-1.7-0.5-2.3-1.2l0,0c-0.6-0.7-0.9-1.6-0.8-2.5
			c0.1-0.9,0.5-1.7,1.2-2.3L117.2,78c1.4-1.2,3.6-1.1,4.8,0.3c1.2,1.4,1.1,3.6-0.3,4.8l-36.3,31.9C84.8,115.6,84,115.9,83.2,115.9z
			 M81.7,113.8c0.3,0.4,0.8,0.6,1.4,0.7c0.5,0,1-0.1,1.4-0.5l36.3-31.9c0.8-0.7,0.9-2,0.2-2.8c-0.7-0.8-2-0.9-2.8-0.2L81.9,111
			c-0.4,0.3-0.6,0.8-0.7,1.4C81.1,112.9,81.3,113.4,81.7,113.8L81.7,113.8z"/>
	</g>
	<g class="st8">
		<path class="st2" d="M227.2,0.9L227.2,0.9L227.2,0.9c-5.8,2.9-15.5,9.4-19,11.4c0,0.1,0,0.1-0.1,0.2c-2-1.4-4.5-2.3-7.2-2.3
			c-1.4,0-2.7,0.2-3.9,0.6l-4.6-6c6.5,0.7,11.9,2.5,15.8,5.5c0.2-0.1,0.4-0.2,0.6-0.4c0.2-0.1,0.4-0.2,0.5-0.3
			c0.1-0.1,0.2-0.1,0.3-0.2c0.2-0.1,0.4-0.2,0.6-0.3c0.7-0.4,1.5-0.8,2.3-1.3c0.2-0.1,0.3-0.2,0.5-0.3c0.6-0.3,1.2-0.7,1.9-1.1
			c0.1-0.1,0.2-0.1,0.3-0.2c1.5-0.8,3.1-1.7,4.6-2.5c0.2-0.1,0.3-0.2,0.5-0.3c0.5-0.3,1-0.5,1.5-0.8c0.2-0.1,0.4-0.2,0.6-0.3
			C225.1,1.2,227.1,0.4,227.2,0.9C227.2,0.9,227.2,0.9,227.2,0.9z"/>
	</g>
	<g>
		<path class="st5" d="M215.7,36.1L190.8,4l1.7,0.2c6.6,0.7,11.9,2.5,15.8,5.4c17.6-10.2,18.7-9.7,19.1-9.5c0.2,0.1,0.4,0.3,0.5,0.5
			l0,0c0.2,0.6,0.4,1.5-13.8,16.1c2.2,4.7,2.9,10.7,1.9,17.7L215.7,36.1z M194,5.8l20.8,26.7c0.7-6.2-0.1-11.4-2.2-15.6l-0.2-0.5
			l0.4-0.4c7.8-8,11.8-12.5,13.2-14.4c-2.2,0.9-7.6,3.6-17.3,9.3l-0.4,0.2l-0.4-0.3C204.4,8.4,199.7,6.6,194,5.8z"/>
	</g>
</g>
</svg>
