<?xml version="1.0" encoding="utf-8"?>
<!-- Generator: Adobe Illustrator 21.0.0, SVG Export Plug-In . SVG Version: 6.00 Build 0)  -->
<svg version="1.1" id="Layer_1" xmlns="http://www.w3.org/2000/svg" xmlns:xlink="http://www.w3.org/1999/xlink" x="0px" y="0px"
	 viewBox="0 0 279.1 169.8" style="enable-background:new 0 0 279.1 169.8;" xml:space="preserve">
<style type="text/css">
	.st0{opacity:0.4;}
	.st1{clip-path:url(#SVGID_2_);fill:#00C8AA;}
	.st2{fill:#00C8AA;}
	.st3{opacity:0.2;}
	.st4{fill:#0B2674;}
	.st5{opacity:0.6;}
	.st6{fill:#FAFAFA;}
	.st7{fill:#FD2088;}
	.st8{fill:#FFFFFF;}
	.st9{fill:#425BFF;}
	.st10{fill:#FFD652;}
	.st11{opacity:0.1;}
	.st12{fill-rule:evenodd;clip-rule:evenodd;fill:#FAFAFA;}
	.st13{fill:#3ACFEF;}
	.st14{opacity:0.3;}
	.st15{opacity:0.5;}
</style>
<g>
	<g class="st0">
		<g>
			<defs>
				<polygon id="SVGID_1_" points="182.3,99.7 219.6,78.3 219.6,155.7 178.7,129.8 				"/>
			</defs>
			<use xlink:href="#SVGID_1_"  style="overflow:visible;fill:#00C8AA;"/>
			<clipPath id="SVGID_2_">
				<use xlink:href="#SVGID_1_"  style="overflow:visible;"/>
			</clipPath>
			<path class="st1" d="M178.7,78.3v77.4V78.3z"/>
			<rect x="178.7" y="78.3" class="st1" width="0.2" height="77.4"/>
			<rect x="178.9" y="78.3" class="st1" width="0.2" height="77.4"/>
			<rect x="179" y="78.3" class="st1" width="0.2" height="77.4"/>
			<rect x="179.2" y="78.3" class="st1" width="0.2" height="77.4"/>
			<rect x="179.3" y="78.3" class="st1" width="0.2" height="77.4"/>
			<rect x="179.5" y="78.3" class="st1" width="0.2" height="77.4"/>
			<rect x="179.7" y="78.3" class="st1" width="0.2" height="77.4"/>
			<rect x="179.8" y="78.3" class="st1" width="0.2" height="77.4"/>
			<rect x="180" y="78.3" class="st1" width="0.2" height="77.4"/>
			<rect x="180.1" y="78.3" class="st1" width="0.2" height="77.4"/>
			<rect x="180.3" y="78.3" class="st1" width="0.2" height="77.4"/>
			<rect x="180.5" y="78.3" class="st1" width="0.2" height="77.4"/>
			<rect x="180.6" y="78.3" class="st1" width="0.2" height="77.4"/>
			<rect x="180.8" y="78.3" class="st1" width="0.2" height="77.4"/>
			<rect x="180.9" y="78.3" class="st1" width="0.2" height="77.4"/>
			<rect x="181.1" y="78.3" class="st1" width="0.2" height="77.4"/>
			<rect x="181.3" y="78.3" class="st1" width="0.2" height="77.4"/>
			<rect x="181.4" y="78.3" class="st1" width="0.2" height="77.4"/>
			<rect x="181.6" y="78.3" class="st1" width="0.2" height="77.4"/>
			<rect x="181.8" y="78.3" class="st1" width="0.2" height="77.4"/>
			<rect x="181.9" y="78.3" class="st1" width="0.2" height="77.4"/>
			<rect x="182.1" y="78.3" class="st1" width="0.2" height="77.4"/>
			<rect x="182.2" y="78.3" class="st1" width="0.2" height="77.4"/>
			<rect x="182.4" y="78.3" class="st1" width="0.2" height="77.4"/>
			<rect x="182.6" y="78.3" class="st1" width="0.2" height="77.4"/>
			<rect x="182.7" y="78.3" class="st1" width="0.2" height="77.4"/>
			<rect x="182.9" y="78.3" class="st1" width="0.2" height="77.4"/>
			<rect x="183" y="78.3" class="st1" width="0.2" height="77.4"/>
			<rect x="183.2" y="78.3" class="st1" width="0.2" height="77.4"/>
			<rect x="183.4" y="78.3" class="st1" width="0.2" height="77.4"/>
			<rect x="183.5" y="78.3" class="st1" width="0.2" height="77.4"/>
			<rect x="183.7" y="78.3" class="st1" width="0.2" height="77.4"/>
			<rect x="183.8" y="78.3" class="st1" width="0.2" height="77.4"/>
			<rect x="184" y="78.3" class="st1" width="0.2" height="77.4"/>
			<rect x="184.2" y="78.3" class="st1" width="0.2" height="77.4"/>
			<rect x="184.3" y="78.3" class="st1" width="0.2" height="77.4"/>
			<rect x="184.5" y="78.3" class="st1" width="0.2" height="77.4"/>
			<rect x="184.6" y="78.3" class="st1" width="0.2" height="77.4"/>
			<rect x="184.8" y="78.3" class="st1" width="0.2" height="77.4"/>
			<rect x="185" y="78.3" class="st1" width="0.2" height="77.4"/>
			<rect x="185.1" y="78.3" class="st1" width="0.2" height="77.4"/>
			<rect x="185.3" y="78.3" class="st1" width="0.2" height="77.4"/>
			<rect x="185.4" y="78.3" class="st1" width="0.2" height="77.4"/>
			<rect x="185.6" y="78.3" class="st1" width="0.2" height="77.4"/>
			<rect x="185.8" y="78.3" class="st1" width="0.2" height="77.4"/>
			<rect x="185.9" y="78.3" class="st1" width="0.2" height="77.4"/>
			<rect x="186.1" y="78.3" class="st1" width="0.2" height="77.4"/>
			<rect x="186.2" y="78.3" class="st1" width="0.2" height="77.4"/>
			<rect x="186.4" y="78.3" class="st1" width="0.2" height="77.4"/>
			<rect x="186.6" y="78.3" class="st1" width="0.2" height="77.4"/>
			<rect x="186.7" y="78.3" class="st1" width="0.2" height="77.4"/>
			<rect x="186.9" y="78.3" class="st1" width="0.2" height="77.4"/>
			<rect x="187.1" y="78.3" class="st1" width="0.2" height="77.4"/>
			<rect x="187.2" y="78.3" class="st1" width="0.2" height="77.4"/>
			<rect x="187.4" y="78.3" class="st1" width="0.2" height="77.4"/>
			<rect x="187.5" y="78.3" class="st1" width="0.2" height="77.4"/>
			<rect x="187.7" y="78.3" class="st1" width="0.2" height="77.4"/>
			<rect x="187.9" y="78.3" class="st1" width="0.2" height="77.4"/>
			<rect x="188" y="78.3" class="st1" width="0.2" height="77.4"/>
			<rect x="188.2" y="78.3" class="st1" width="0.2" height="77.4"/>
			<rect x="188.3" y="78.3" class="st1" width="0.2" height="77.4"/>
			<rect x="188.5" y="78.3" class="st1" width="0.2" height="77.4"/>
			<rect x="188.7" y="78.3" class="st1" width="0.2" height="77.4"/>
			<rect x="188.8" y="78.3" class="st1" width="0.2" height="77.4"/>
			<rect x="189" y="78.3" class="st1" width="0.2" height="77.4"/>
			<rect x="189.1" y="78.3" class="st1" width="0.2" height="77.4"/>
			<rect x="189.3" y="78.3" class="st1" width="0.2" height="77.4"/>
			<rect x="189.5" y="78.3" class="st1" width="0.2" height="77.4"/>
			<rect x="189.6" y="78.3" class="st1" width="0.2" height="77.4"/>
			<rect x="189.8" y="78.3" class="st1" width="0.2" height="77.4"/>
			<rect x="189.9" y="78.3" class="st1" width="0.2" height="77.4"/>
			<rect x="190.1" y="78.3" class="st1" width="0.2" height="77.4"/>
			<rect x="190.3" y="78.3" class="st1" width="0.2" height="77.4"/>
			<rect x="190.4" y="78.3" class="st1" width="0.2" height="77.4"/>
			<rect x="190.6" y="78.3" class="st1" width="0.2" height="77.4"/>
			<rect x="190.7" y="78.3" class="st1" width="0.2" height="77.4"/>
			<rect x="190.9" y="78.3" class="st1" width="0.2" height="77.4"/>
			<rect x="191.1" y="78.3" class="st1" width="0.2" height="77.4"/>
			<rect x="191.2" y="78.3" class="st1" width="0.2" height="77.4"/>
			<rect x="191.4" y="78.3" class="st1" width="0.2" height="77.4"/>
			<rect x="191.5" y="78.3" class="st1" width="0.2" height="77.4"/>
			<rect x="191.7" y="78.3" class="st1" width="0.2" height="77.4"/>
			<rect x="191.9" y="78.3" class="st1" width="0.2" height="77.4"/>
			<rect x="192" y="78.3" class="st1" width="0.2" height="77.4"/>
			<rect x="192.2" y="78.3" class="st1" width="0.2" height="77.4"/>
			<rect x="192.4" y="78.3" class="st1" width="0.2" height="77.4"/>
			<rect x="192.5" y="78.3" class="st1" width="0.2" height="77.4"/>
			<rect x="192.7" y="78.3" class="st1" width="0.2" height="77.4"/>
			<rect x="192.8" y="78.3" class="st1" width="0.2" height="77.4"/>
			<rect x="193" y="78.3" class="st1" width="0.2" height="77.4"/>
			<rect x="193.2" y="78.3" class="st1" width="0.2" height="77.4"/>
			<rect x="193.3" y="78.3" class="st1" width="0.2" height="77.4"/>
			<rect x="193.5" y="78.3" class="st1" width="0.2" height="77.4"/>
			<rect x="193.6" y="78.3" class="st1" width="0.2" height="77.4"/>
			<rect x="193.8" y="78.3" class="st1" width="0.2" height="77.4"/>
			<rect x="194" y="78.3" class="st1" width="0.2" height="77.4"/>
			<rect x="194.1" y="78.3" class="st1" width="0.2" height="77.4"/>
			<rect x="194.3" y="78.3" class="st1" width="0.2" height="77.4"/>
			<rect x="194.4" y="78.3" class="st1" width="0.2" height="77.4"/>
			<rect x="194.6" y="78.3" class="st1" width="0.2" height="77.4"/>
			<rect x="194.8" y="78.3" class="st1" width="0.2" height="77.4"/>
			<rect x="194.9" y="78.3" class="st1" width="0.2" height="77.4"/>
			<rect x="195.1" y="78.3" class="st1" width="0.2" height="77.4"/>
			<rect x="195.2" y="78.3" class="st1" width="0.2" height="77.4"/>
			<rect x="195.4" y="78.3" class="st1" width="0.2" height="77.4"/>
			<rect x="195.6" y="78.3" class="st1" width="0.2" height="77.4"/>
			<rect x="195.7" y="78.3" class="st1" width="0.2" height="77.4"/>
			<rect x="195.9" y="78.3" class="st1" width="0.2" height="77.4"/>
			<rect x="196" y="78.3" class="st1" width="0.2" height="77.4"/>
			<rect x="196.2" y="78.3" class="st1" width="0.2" height="77.4"/>
			<rect x="196.4" y="78.3" class="st1" width="0.2" height="77.4"/>
			<rect x="196.5" y="78.3" class="st1" width="0.2" height="77.4"/>
			<rect x="196.7" y="78.3" class="st1" width="0.2" height="77.4"/>
			<rect x="196.8" y="78.3" class="st1" width="0.2" height="77.4"/>
			<rect x="197" y="78.3" class="st1" width="0.2" height="77.4"/>
			<rect x="197.2" y="78.3" class="st1" width="0.2" height="77.4"/>
			<rect x="197.3" y="78.3" class="st1" width="0.2" height="77.4"/>
			<rect x="197.5" y="78.3" class="st1" width="0.2" height="77.4"/>
			<rect x="197.6" y="78.3" class="st1" width="0.2" height="77.4"/>
			<rect x="197.8" y="78.3" class="st1" width="0.2" height="77.4"/>
			<rect x="198" y="78.3" class="st1" width="0.2" height="77.4"/>
			<rect x="198.1" y="78.3" class="st1" width="0.2" height="77.4"/>
			<rect x="198.3" y="78.3" class="st1" width="0.2" height="77.4"/>
			<rect x="198.5" y="78.3" class="st1" width="0.2" height="77.4"/>
			<rect x="198.6" y="78.3" class="st1" width="0.2" height="77.4"/>
			<rect x="198.8" y="78.3" class="st1" width="0.2" height="77.4"/>
			<rect x="198.9" y="78.3" class="st1" width="0.2" height="77.4"/>
			<rect x="199.1" y="78.3" class="st1" width="0.2" height="77.4"/>
			<rect x="199.3" y="78.3" class="st1" width="0.2" height="77.4"/>
			<rect x="199.4" y="78.3" class="st1" width="0.2" height="77.4"/>
			<rect x="199.6" y="78.3" class="st1" width="0.2" height="77.4"/>
			<rect x="199.7" y="78.3" class="st1" width="0.2" height="77.4"/>
			<rect x="199.9" y="78.3" class="st1" width="0.2" height="77.4"/>
			<rect x="200.1" y="78.3" class="st1" width="0.2" height="77.4"/>
			<rect x="200.2" y="78.3" class="st1" width="0.2" height="77.4"/>
			<rect x="200.4" y="78.3" class="st1" width="0.2" height="77.4"/>
			<rect x="200.5" y="78.3" class="st1" width="0.2" height="77.4"/>
			<rect x="200.7" y="78.3" class="st1" width="0.2" height="77.4"/>
			<rect x="200.9" y="78.3" class="st1" width="0.2" height="77.4"/>
			<rect x="201" y="78.3" class="st1" width="0.2" height="77.4"/>
			<rect x="201.2" y="78.3" class="st1" width="0.2" height="77.4"/>
			<rect x="201.3" y="78.3" class="st1" width="0.2" height="77.4"/>
			<rect x="201.5" y="78.3" class="st1" width="0.2" height="77.4"/>
			<rect x="201.7" y="78.3" class="st1" width="0.2" height="77.4"/>
			<rect x="201.8" y="78.3" class="st1" width="0.2" height="77.4"/>
			<rect x="202" y="78.3" class="st1" width="0.2" height="77.4"/>
			<rect x="202.1" y="78.3" class="st1" width="0.2" height="77.4"/>
			<rect x="202.3" y="78.3" class="st1" width="0.2" height="77.4"/>
			<rect x="202.5" y="78.3" class="st1" width="0.2" height="77.4"/>
			<rect x="202.6" y="78.3" class="st1" width="0.2" height="77.4"/>
			<rect x="202.8" y="78.3" class="st1" width="0.2" height="77.4"/>
			<rect x="202.9" y="78.3" class="st1" width="0.2" height="77.4"/>
			<rect x="203.1" y="78.3" class="st1" width="0.2" height="77.4"/>
			<rect x="203.3" y="78.3" class="st1" width="0.2" height="77.4"/>
			<rect x="203.4" y="78.3" class="st1" width="0.2" height="77.4"/>
			<rect x="203.6" y="78.3" class="st1" width="0.2" height="77.4"/>
			<rect x="203.8" y="78.3" class="st1" width="0.2" height="77.4"/>
			<rect x="203.9" y="78.3" class="st1" width="0.2" height="77.4"/>
			<rect x="204.1" y="78.3" class="st1" width="0.2" height="77.4"/>
			<rect x="204.2" y="78.3" class="st1" width="0.2" height="77.4"/>
			<rect x="204.4" y="78.3" class="st1" width="0.2" height="77.4"/>
			<rect x="204.6" y="78.3" class="st1" width="0.2" height="77.4"/>
			<rect x="204.7" y="78.3" class="st1" width="0.2" height="77.4"/>
			<rect x="204.9" y="78.3" class="st1" width="0.2" height="77.4"/>
			<rect x="205" y="78.3" class="st1" width="0.2" height="77.4"/>
			<rect x="205.2" y="78.3" class="st1" width="0.2" height="77.4"/>
			<rect x="205.4" y="78.3" class="st1" width="0.2" height="77.4"/>
			<rect x="205.5" y="78.3" class="st1" width="0.2" height="77.4"/>
			<rect x="205.7" y="78.3" class="st1" width="0.2" height="77.4"/>
			<rect x="205.8" y="78.3" class="st1" width="0.2" height="77.4"/>
			<rect x="206" y="78.3" class="st1" width="0.2" height="77.4"/>
			<rect x="206.2" y="78.3" class="st1" width="0.2" height="77.4"/>
			<rect x="206.3" y="78.3" class="st1" width="0.2" height="77.4"/>
			<rect x="206.5" y="78.3" class="st1" width="0.2" height="77.4"/>
			<rect x="206.6" y="78.3" class="st1" width="0.2" height="77.4"/>
			<rect x="206.8" y="78.3" class="st1" width="0.2" height="77.4"/>
			<rect x="207" y="78.3" class="st1" width="0.2" height="77.4"/>
			<rect x="207.1" y="78.3" class="st1" width="0.2" height="77.4"/>
			<rect x="207.3" y="78.3" class="st1" width="0.2" height="77.4"/>
			<rect x="207.4" y="78.3" class="st1" width="0.2" height="77.4"/>
			<rect x="207.6" y="78.3" class="st1" width="0.2" height="77.4"/>
			<rect x="207.8" y="78.3" class="st1" width="0.2" height="77.4"/>
			<rect x="207.9" y="78.3" class="st1" width="0.2" height="77.4"/>
			<rect x="208.1" y="78.3" class="st1" width="0.2" height="77.4"/>
			<rect x="208.2" y="78.3" class="st1" width="0.2" height="77.4"/>
			<rect x="208.4" y="78.3" class="st1" width="0.2" height="77.4"/>
			<rect x="208.6" y="78.3" class="st1" width="0.2" height="77.4"/>
			<rect x="208.7" y="78.3" class="st1" width="0.2" height="77.4"/>
			<rect x="208.9" y="78.3" class="st1" width="0.2" height="77.4"/>
			<rect x="209.1" y="78.3" class="st1" width="0.2" height="77.4"/>
			<rect x="209.2" y="78.3" class="st1" width="0.2" height="77.4"/>
			<rect x="209.4" y="78.3" class="st1" width="0.2" height="77.4"/>
			<rect x="209.5" y="78.3" class="st1" width="0.2" height="77.4"/>
			<rect x="209.7" y="78.3" class="st1" width="0.2" height="77.4"/>
			<rect x="209.9" y="78.3" class="st1" width="0.2" height="77.4"/>
			<rect x="210" y="78.3" class="st1" width="0.2" height="77.4"/>
			<rect x="210.2" y="78.3" class="st1" width="0.2" height="77.4"/>
			<rect x="210.3" y="78.3" class="st1" width="0.2" height="77.4"/>
			<rect x="210.5" y="78.3" class="st1" width="0.2" height="77.4"/>
			<rect x="210.7" y="78.3" class="st1" width="0.2" height="77.4"/>
			<rect x="210.8" y="78.3" class="st1" width="0.2" height="77.4"/>
			<rect x="211" y="78.3" class="st1" width="0.2" height="77.4"/>
			<rect x="211.1" y="78.3" class="st1" width="0.2" height="77.4"/>
			<rect x="211.3" y="78.3" class="st1" width="0.2" height="77.4"/>
			<rect x="211.5" y="78.3" class="st1" width="0.2" height="77.4"/>
			<rect x="211.6" y="78.3" class="st1" width="0.2" height="77.4"/>
			<rect x="211.8" y="78.3" class="st1" width="0.2" height="77.4"/>
			<rect x="211.9" y="78.3" class="st1" width="0.2" height="77.4"/>
			<rect x="212.1" y="78.3" class="st1" width="0.2" height="77.4"/>
			<rect x="212.3" y="78.3" class="st1" width="0.2" height="77.4"/>
			<rect x="212.4" y="78.3" class="st1" width="0.2" height="77.4"/>
			<rect x="212.6" y="78.3" class="st1" width="0.2" height="77.4"/>
			<rect x="212.7" y="78.3" class="st1" width="0.2" height="77.4"/>
			<rect x="212.9" y="78.3" class="st1" width="0.2" height="77.4"/>
			<rect x="213.1" y="78.3" class="st1" width="0.2" height="77.4"/>
			<rect x="213.2" y="78.3" class="st1" width="0.2" height="77.4"/>
			<rect x="213.4" y="78.3" class="st1" width="0.2" height="77.4"/>
			<rect x="213.5" y="78.3" class="st1" width="0.2" height="77.4"/>
			<rect x="213.7" y="78.3" class="st1" width="0.2" height="77.4"/>
			<rect x="213.9" y="78.3" class="st1" width="0.2" height="77.4"/>
			<rect x="214" y="78.3" class="st1" width="0.2" height="77.4"/>
			<rect x="214.2" y="78.3" class="st1" width="0.2" height="77.4"/>
			<rect x="214.3" y="78.3" class="st1" width="0.2" height="77.4"/>
			<rect x="214.5" y="78.3" class="st1" width="0.2" height="77.4"/>
			<rect x="214.7" y="78.3" class="st1" width="0.2" height="77.4"/>
			<rect x="214.8" y="78.3" class="st1" width="0.2" height="77.4"/>
			<rect x="215" y="78.3" class="st1" width="0.2" height="77.4"/>
			<rect x="215.2" y="78.3" class="st1" width="0.2" height="77.4"/>
			<rect x="215.3" y="78.3" class="st1" width="0.2" height="77.4"/>
			<rect x="215.5" y="78.3" class="st1" width="0.2" height="77.4"/>
			<rect x="215.6" y="78.3" class="st1" width="0.2" height="77.4"/>
			<rect x="215.8" y="78.3" class="st1" width="0.2" height="77.4"/>
			<rect x="216" y="78.3" class="st1" width="0.2" height="77.4"/>
			<rect x="216.1" y="78.3" class="st1" width="0.2" height="77.4"/>
			<rect x="216.3" y="78.3" class="st1" width="0.2" height="77.4"/>
			<rect x="216.4" y="78.3" class="st1" width="0.2" height="77.4"/>
			<rect x="216.6" y="78.3" class="st1" width="0.2" height="77.4"/>
			<rect x="216.8" y="78.3" class="st1" width="0.2" height="77.4"/>
			<rect x="216.9" y="78.3" class="st1" width="0.2" height="77.4"/>
			<rect x="217.1" y="78.3" class="st1" width="0.2" height="77.4"/>
			<rect x="217.2" y="78.3" class="st1" width="0.2" height="77.4"/>
			<rect x="217.4" y="78.3" class="st1" width="0.2" height="77.4"/>
			<rect x="217.6" y="78.3" class="st1" width="0.2" height="77.4"/>
			<rect x="217.7" y="78.3" class="st1" width="0.2" height="77.4"/>
			<rect x="217.9" y="78.3" class="st1" width="0.2" height="77.4"/>
			<rect x="218" y="78.3" class="st1" width="0.2" height="77.4"/>
			<rect x="218.2" y="78.3" class="st1" width="0.2" height="77.4"/>
			<rect x="218.4" y="78.3" class="st1" width="0.2" height="77.4"/>
			<rect x="218.5" y="78.3" class="st1" width="0.2" height="77.4"/>
			<rect x="218.7" y="78.3" class="st1" width="0.2" height="77.4"/>
			<rect x="218.8" y="78.3" class="st1" width="0.2" height="77.4"/>
			<rect x="219" y="78.3" class="st1" width="0.2" height="77.4"/>
			<rect x="219.2" y="78.3" class="st1" width="0.2" height="77.4"/>
			<rect x="219.3" y="78.3" class="st1" width="0.2" height="77.4"/>
			<rect x="219.5" y="78.3" class="st1" width="0.2" height="77.4"/>
			<path class="st1" d="M219.6,155.7V78.3V155.7z"/>
		</g>
	</g>
	<g>
		<g>
			<path class="st2" d="M185.6,137.6c0.8,1.9,1.2,4,1.1,6.1c-0.1,2.5-1,5-0.6,7.5c0.2,1,0.7,2,1.5,2.5c0.6,0.4,1.3,0.5,2,0.5
				c5.8,0.1,9.1-5.8,8-11c-0.9-4.4-4.2-8.6-8.3-10.4c-1.3-0.5-2.6-0.9-4-0.9c-1.7-0.1-3.4,0.3-5.1,0.8c-1.4,0.4-4.3,1.6-1.9,2.9
				C180.5,136.9,183.2,137.2,185.6,137.6C185.6,137.6,185.6,137.6,185.6,137.6z"/>
		</g>
		<g class="st3">
			<path d="M195.3,151.8c-1.4,1.5-3.3,2.4-5.6,2.3c-0.7,0-1.4-0.1-2-0.5c-0.9-0.5-1.4-1.5-1.5-2.5c-0.4-2.5,0.5-5,0.6-7.5
				c0.1-1.7-0.2-3.4-0.7-5.1c0.9,1.4,1.7,2.9,2.1,4.6c0.6,2.4,0.5,5.1,1.6,7.3c0.5,0.9,1.2,1.7,2.2,2c0.7,0.2,1.4,0.1,2-0.1
				C194.4,152.2,194.9,152.1,195.3,151.8z"/>
		</g>
		<g>
			<path class="st4" d="M189.8,154.7c-0.1,0-0.1,0-0.2,0c-0.9,0-1.7-0.2-2.3-0.6c-0.9-0.6-1.6-1.6-1.8-2.9c-0.3-1.7,0-3.3,0.2-4.9
				c0.1-0.9,0.3-1.8,0.3-2.7c0.1-1.8-0.2-3.8-0.9-5.6l-0.2,0c-2.3-0.3-4.9-0.7-7-1.9c-0.9-0.5-1.3-1.1-1.2-1.7
				c0.2-1.4,2.7-2.2,3.2-2.3c1.7-0.5,3.5-0.9,5.3-0.8c1.4,0,2.8,0.4,4.2,1c4.3,1.8,7.7,6.1,8.7,10.8c0.6,3-0.2,6.3-2.1,8.6
				C194.6,153.7,192.3,154.7,189.8,154.7z M185,132.5c-1.6,0-3.1,0.4-4.6,0.8c-1.3,0.4-2.3,1-2.4,1.3c0,0.1,0.1,0.3,0.6,0.5
				c1.9,1,4.4,1.4,6.6,1.7l0.8,0.1l0.2,0.3c0.8,2.1,1.2,4.3,1.1,6.4c0,0.9-0.2,1.9-0.3,2.8c-0.2,1.5-0.5,3.1-0.2,4.6
				c0.2,1,0.6,1.7,1.3,2.1c0.4,0.3,1,0.4,1.7,0.4c2.2,0.1,4.2-0.9,5.6-2.6c1.7-2,2.4-5,1.8-7.7c-0.9-4.3-4-8.2-8-9.9
				c-1.2-0.5-2.5-0.8-3.8-0.9C185.3,132.5,185.1,132.5,185,132.5z"/>
		</g>
		<g class="st5">
			<path class="st6" d="M195.3,145.8c0,2.6-0.9,4.6-2,4.6s0.3-2.1,0.3-4.6c0-2.6-1.4-4.6-0.3-4.6S195.3,143.2,195.3,145.8z"/>
		</g>
	</g>
	<g>
		<g>
			<path class="st7" d="M116.4,98.6h-5.9c-7.6,0-13.9-6.2-13.9-13.9V47.4c0-7.6,6.2-13.9,13.9-13.9h5.9c7.6,0,13.9,6.2,13.9,13.9
				v37.3C130.3,92.3,124,98.6,116.4,98.6z"/>
			<path class="st4" d="M116.4,99.1h-5.9c-8,0-14.4-6.5-14.4-14.4V47.4c0-8,6.5-14.4,14.4-14.4h5.9c8,0,14.4,6.5,14.4,14.4v37.3
				C130.8,92.7,124.3,99.1,116.4,99.1z M110.4,34.1c-7.3,0-13.3,6-13.3,13.3v37.3c0,7.3,6,13.3,13.3,13.3h5.9
				c7.3,0,13.3-6,13.3-13.3V47.4c0-7.3-6-13.3-13.3-13.3H110.4z"/>
		</g>
		<g class="st3">
			<path d="M130.3,47.4v37.3c0,7.6-6.2,13.9-13.9,13.9h-0.2c-1.5,0-2.9-0.2-4.2-0.7c5.6-1.8,9.6-7,9.6-13.2V47.4
				c0-6.1-4.1-11.4-9.6-13.2c1.3-0.4,2.8-0.7,4.2-0.7h0.2C124,33.5,130.3,39.8,130.3,47.4z"/>
		</g>
		<g class="st3">
			<path class="st8" d="M112,97.9c-0.9,0.3-1.9,0.5-2.9,0.6c-7-0.7-12.5-6.6-12.5-13.8V47.4c0-7.2,5.5-13.1,12.5-13.8
				c1,0.1,2,0.3,2.9,0.6c-5.6,1.8-9.6,7-9.6,13.2v37.3C102.4,90.8,106.4,96.1,112,97.9z"/>
		</g>
		<g>
			<path class="st4" d="M116.4,99.1h-5.9c-8,0-14.4-6.5-14.4-14.4V47.4c0-8,6.5-14.4,14.4-14.4h5.9c8,0,14.4,6.5,14.4,14.4v37.3
				C130.8,92.7,124.3,99.1,116.4,99.1z M110.4,34.1c-7.3,0-13.3,6-13.3,13.3v37.3c0,7.3,6,13.3,13.3,13.3h5.9
				c7.3,0,13.3-6,13.3-13.3V47.4c0-7.3-6-13.3-13.3-13.3H110.4z"/>
		</g>
	</g>
	<g>
		<path class="st9" d="M129.2,77.7H98c-1.9,0-3.5-1.6-3.5-3.5V66c0-1.9,1.6-3.5,3.5-3.5h31.3c1.9,0,3.5,1.6,3.5,3.5v8.3
			C132.7,76.2,131.2,77.7,129.2,77.7z"/>
		<path class="st4" d="M129.2,78.3H98c-2.2,0-4-1.8-4-4V66c0-2.2,1.8-4,4-4h31.3c2.2,0,4,1.8,4,4v8.3
			C133.3,76.5,131.5,78.3,129.2,78.3z M98,63.1c-1.6,0-2.9,1.3-2.9,2.9v8.3c0,1.6,1.3,2.9,2.9,2.9h31.3c1.6,0,2.9-1.3,2.9-2.9V66
			c0-1.6-1.3-2.9-2.9-2.9H98z"/>
	</g>
	<g>
		<path class="st10" d="M62.5,77.7H43.6c-1.9,0-3.5-1.6-3.5-3.5V66c0-1.9,1.6-3.5,3.5-3.5h18.8c1.9,0,3.5,1.6,3.5,3.5v8.3
			C65.9,76.2,64.4,77.7,62.5,77.7z"/>
		<path class="st4" d="M62.5,78.3H43.6c-2.2,0-4-1.8-4-4V66c0-2.2,1.8-4,4-4h18.8c2.2,0,4,1.8,4,4v8.3
			C66.5,76.5,64.7,78.3,62.5,78.3z M43.6,63.1c-1.6,0-2.9,1.3-2.9,2.9v8.3c0,1.6,1.3,2.9,2.9,2.9h18.8c1.6,0,2.9-1.3,2.9-2.9V66
			c0-1.6-1.3-2.9-2.9-2.9H43.6z"/>
	</g>
	<g>
		<path class="st9" d="M131.3,159.2H44c-24,0-43.4-19.4-43.4-43.4v0c0-24,19.4-43.4,43.4-43.4h87.3c24,0,43.4,19.4,43.4,43.4v0
			C174.7,139.8,155.2,159.2,131.3,159.2z"/>
		<path class="st4" d="M131.3,159.8H44c-24.2,0-44-19.7-44-44s19.7-44,44-44h87.3c24.2,0,44,19.7,44,44S155.5,159.8,131.3,159.8z
			 M44,73C20.4,73,1.2,92.2,1.2,115.8s19.2,42.8,42.8,42.8h87.3c23.6,0,42.8-19.2,42.8-42.8S154.9,73,131.3,73H44z"/>
	</g>
	<g>
		<path class="st9" d="M131.3,159.2H44c-24,0-43.4-19.4-43.4-43.4v0c0-24,19.4-43.4,43.4-43.4h87.3c24,0,43.4,19.4,43.4,43.4v0
			C174.7,139.8,155.2,159.2,131.3,159.2z"/>
	</g>
	<g class="st11">
		<path class="st8" d="M170.5,97.2c-7.7-7.1-18-11.4-29.4-11.4H53.8c-12,0-22.8,4.9-30.7,12.7c-7.9,7.8-12.7,18.7-12.7,30.7
			c0,6.7,1.5,13,4.2,18.6c-8.6-7.9-14-19.3-14-31.9c0-12,4.9-22.8,12.7-30.7C21.1,77.3,32,72.5,44,72.5h87.3
			C148.6,72.5,163.5,82.6,170.5,97.2z"/>
	</g>
	<g class="st3">
		<path d="M174.7,115.8c0,12-4.9,22.8-12.7,30.7c-7.8,7.9-18.7,12.7-30.7,12.7H44c-10.2,0-19.6-3.5-27-9.5c5.5,2.6,11.7,4,18.2,4
			h87.3c12,0,22.8-4.9,30.7-12.7c7.9-7.8,12.7-18.7,12.7-30.7c0-13.7-6.4-25.9-16.3-33.9C164.4,83.4,174.7,98.4,174.7,115.8z"/>
	</g>
	<g>
		<path class="st4" d="M131.3,159.8H44c-24.2,0-44-19.7-44-44s19.7-44,44-44h87.3c24.2,0,44,19.7,44,44S155.5,159.8,131.3,159.8z
			 M44,73C20.4,73,1.2,92.2,1.2,115.8s19.2,42.8,42.8,42.8h87.3c23.6,0,42.8-19.2,42.8-42.8S154.9,73,131.3,73H44z"/>
	</g>
	<g>
		<g>
			<path class="st6" d="M62.3,98c-0.2,0.2-0.5,0.3-0.7,0.3c-0.6,0.1-0.9-0.2-0.8-0.8c0.1-0.4,0.3-0.9,0.5-1.3
				c0.8-1.4,0.4-2.4-1.2-2.9c-1.2-0.3-2.4-0.4-3.6,0.1c-1.5,0.7-1.8,2-0.6,3.1c0.5,0.5,1.2,0.8,1.8,1.2c1,0.6,2.1,1,3.1,1.6
				c1.7,1,2.8,2.3,2.5,4.5c-0.3,1.9-1.5,3.1-3.2,3.7c-1,0.4-1.9,0.8-3.3,0.8c-1.3,0-2.9-0.4-4.1-1.2c-1.4-0.9-2.1-2.4-1.8-4
				c0.2-0.8,0.6-1.4,1.4-1.7c0.7-0.2,1.1,0.1,1,0.8c0,0.4-0.1,0.7-0.1,1.1c-0.1,1.2,0.4,2,1.5,2.4c1.9,0.7,3.7,0.5,5.3-0.6
				c1.3-0.9,1.5-2.5,0.2-3.5c-1-0.8-2.2-1.4-3.2-2C56,99.1,55,98.6,54.1,98c-1.9-1.6-1.8-4.1,0.2-5.6c2.4-1.8,6.5-1.7,8.5,0.3
				C64.2,94.2,64,96.7,62.3,98z M83.8,92.1c-1.8,2.1-2.2,4.7-2.5,7.2C82.5,97,83.8,94.8,83.8,92.1z M76.6,99c-0.3,0-0.7,0-0.9,0.1
				c-0.3,0.2-1,1-1.1,1.6c-0.1,1-0.1,2.1-0.1,3.1c0,1,0.8,1.5,1.8,1.2c0.5-0.2,1-0.4,1.4-0.7c1.3-0.7,1.2-0.9,1-1.8
				c0-0.2,0-2.6,0.3-3.4C78.2,99,77.4,99,76.6,99z M76.5,93c-0.1-0.1-0.4,0.1-0.5,0.3c-0.7,1.2-1,2.6-1.3,4c0.1,0,0.1,0.1,0.2,0.1
				c0.2-0.1,0.4-0.3,0.5-0.4c0.4-0.8,0.8-1.6,1.2-2.4c0.1-0.3,0.2-0.7,0.2-1C76.8,93.3,76.6,93,76.5,93z M69.4,101.3
				c0.3-0.4,0.3-1-0.1-1.2c-0.3-0.2-0.9,0-1.2,0.2c-0.7,0.6-0.9,1.5-1,2.5C68.2,102.6,68.9,102,69.4,101.3z M90.7,104.4
				c-1.6,0.3-2.3-0.3-2.9-3.1c-0.5,1.3-0.9,2.5-1.3,3.6c-0.1,0.4-0.3,0.8-0.4,1.2c-0.2,0.4-0.3,1-0.9,1c-0.8,0-0.8-0.4-1.4-0.7
				c-0.7,0.2-1.5,0.6-2.4,0.7c-1.2,0.2-1.5-0.9-2-1.7c-0.6,0.3-1.3,0.7-1.9,1c-2.4,1.2-3.1,1-4.4-1.1c-1.1,0.5-2.2,1.2-3.3,1.6
				c-2.7,0.8-4.8-0.8-4.7-3.6c0.1-1.5,0.5-3,1.6-4.1c0.8-0.9,1.8-1.2,2.9-1c1.5,0.3,2.2,1.7,1.6,3.1c-0.5,1.3-1.5,2.1-2.8,2.7
				c-0.3,0.1-0.5,0.2-0.8,0.3c0.3,0.7,0.9,0.8,1.5,0.7c1.3-0.2,2.4-0.9,3.4-1.7c0.1-0.1,0.2-0.3,0.2-0.5c0-1.3,0-2.6,0-4.1
				c-0.5-0.1-1.1-0.2-1.7-0.3c-0.3-0.1-0.5-0.4-0.7-0.6c0.2-0.2,0.4-0.5,0.7-0.5c0.7-0.1,1.3,0,2,0c0.4-1.2,0.6-2.3,1.1-3.3
				c0.4-0.9,0.9-1.7,1.5-2.4c0.9-1,2.1-0.8,2.6,0.5c0.5,1.1,0.4,2.3-0.1,3.4c-0.3,0.7-0.7,1.4-1.1,2.1c0.9,0,1.7,0,2.6,0
				c0.2-0.7,0.3-1.5,0.7-2.2c0.7-1.4,1.4-2.8,2.3-4.1c0.3-0.4,0.8-0.8,1.3-1c1.2-0.6,2.3,0,2.3,1.4c0,0.9-0.1,2-0.4,2.8
				c-0.9,2.1-1.9,4.1-2.9,6.2c-0.4,0.9-0.9,1.8-1.3,2.7c-0.1,0.2-0.1,0.3-0.1,0.5c0,1.2,0.4,1.4,1.5,1c0.9-0.4,1.4-1,1.5-2.1
				c0.1-1.3,0.5-2.5,0.8-3.7c0.1-0.3,0.4-0.6,0.7-0.7c0.5-0.2,0.9,0,0.9,0.7c0,0.6,0,1.3,0,2.1c0.2-0.4,0.3-0.7,0.5-0.9
				c0.4-0.6,0.8-1.2,1.4-1.6c0.3-0.2,0.9-0.2,1.3,0c0.2,0.1,0.3,0.7,0.3,1.1c0,0.7-0.3,1.4-0.3,2c0,0.8,0.4,1.2,1.2,0.9
				c0.7-0.2,1.3-0.6,1.9-0.9C93.2,103.2,92.6,104.1,90.7,104.4z"/>
		</g>
		<g id="icon_19_">
			<path class="st12" d="M37.9,104.2c0.1-0.6,1.8-3,2.5-3.3c0.7-0.3,3.6,0.2,4.1,0.6c0.5,0.4,1.6,3.3,1.5,3.8
				c-0.1,0.5-2.1,3.2-2.5,3.3c-0.5,0.1-3.5-0.2-4.1-0.6c0,0,0,0,0,0l-2.1-0.1c0,0,0.7-0.8,1.2-1.5C38.2,105.5,37.9,104.5,37.9,104.2
				z M32.1,98.9c-0.7,0.5-1.7,0.4-2.2-0.3c-0.5-0.7-0.4-1.7,0.3-2.2c0.7-0.5,1.7-0.4,2.2,0.3C32.9,97.3,32.8,98.4,32.1,98.9z
				 M37.7,102.5l-2.2,1.7l-0.3,1.7l-0.7-0.9l-0.2,0.2c-0.6,0.5-1.5,0.4-2-0.3l-1.7-2.1c-0.5-0.6-0.4-1.5,0.3-2l3.5-2.7
				c0.6-0.5,1.5-0.4,2,0.3l1.7,2.1C38.4,101.1,38.3,102,37.7,102.5z M41,92.5c-0.9,0-1.6-0.7-1.6-1.6c0-0.9,0.7-1.6,1.6-1.6
				c0.9,0,1.6,0.7,1.6,1.6C42.7,91.8,41.9,92.5,41,92.5z M42.5,95.3c-0.1-0.1-0.3-0.7-0.4-0.7c-0.1,0-0.3,0.7-0.4,0.7
				c-0.1,0.1-0.8,0-0.8,0.2c0,0.1,0.5,0.5,0.6,0.6c0,0.1-0.2,0.7-0.1,0.8c0.1,0.1,0.7-0.3,0.8-0.3c0.1,0,0.7,0.4,0.8,0.3
				c0.1-0.1-0.1-0.7-0.1-0.8c0-0.1,0.6-0.5,0.6-0.6C43.3,95.3,42.6,95.3,42.5,95.3z M43.5,98.5l-1.7,1.2l0.3-1.2c0,0-3.9,0.3-4.3,0
				c-0.5-0.3-1.7-5.1-1.2-5.8c0.5-0.7,7.1,1.3,7.3,1.9c0.3,0.6,0.6,3.5,0.5,3.7C44.3,98.6,43.5,98.5,43.5,98.5z M46.9,100.7
				c-0.5,0.6-1.4,0.7-2,0.2c-0.6-0.5-0.7-1.4-0.2-2c0.5-0.6,1.4-0.7,2-0.2C47.3,99.1,47.4,100,46.9,100.7z"/>
		</g>
	</g>
	<g>
		<g>
			<g>
				<path class="st2" d="M259.1,77.1l-35.5,0.2c-3.7,0-6.6,3-6.6,6.7l0.4,66.3c0,3.7,3,6.6,6.7,6.6l47.8-0.3c3.7,0,6.6-3,6.6-6.7
					l-0.3-54L259.1,77.1z"/>
				<path class="st4" d="M224,157.6c-4,0-7.2-3.2-7.2-7.2l-0.4-66.3c0-4,3.2-7.3,7.2-7.3l35.7-0.2l0.2,0.2l19.3,19l0,0.2l0.3,54
					c0,4-3.2,7.3-7.2,7.3L224,157.6C224.1,157.6,224,157.6,224,157.6z M258.8,77.7l-35.2,0.2c-3.4,0-6.1,2.8-6,6.1l0.4,66.3
					c0,3.4,2.7,6,6.1,6l47.8-0.3c3.4,0,6.1-2.8,6-6.1l-0.3-53.8L258.8,77.7z"/>
			</g>
			<g>
				<path class="st4" d="M259.1,89.4c0,3.7,3,6.6,6.7,6.6l12.3-0.1l-19.1-18.9L259.1,89.4z"/>
				<path class="st4" d="M265.8,96.6c-4,0-7.2-3.2-7.2-7.2v0l-0.1-12.3c0-0.2,0.1-0.4,0.4-0.5c0.2-0.1,0.5,0,0.6,0.1l19.1,18.9
					c0.2,0.2,0.2,0.4,0.1,0.6c-0.1,0.2-0.3,0.4-0.5,0.4L265.8,96.6C265.8,96.6,265.8,96.6,265.8,96.6z M259.7,89.4
					c0,3.3,2.7,6,6.1,6c0,0,0,0,0,0l10.9-0.1l-17.1-16.9L259.7,89.4L259.7,89.4z"/>
			</g>
		</g>
		<g>
			<g>
				<line class="st10" x1="225.4" y1="117.7" x2="268.8" y2="117.4"/>
				<path class="st4" d="M225.4,118.8c-0.6,0-1.2-0.5-1.2-1.1c0-0.6,0.5-1.2,1.1-1.2l43.4-0.3h0c0.6,0,1.2,0.5,1.2,1.1
					c0,0.6-0.5,1.2-1.1,1.2L225.4,118.8L225.4,118.8z"/>
			</g>
			<g>
				<line class="st10" x1="225.5" y1="126.8" x2="247.2" y2="126.7"/>
				<path class="st4" d="M225.5,128c-0.6,0-1.2-0.5-1.2-1.1c0-0.6,0.5-1.2,1.1-1.2l21.7-0.1c0,0,0,0,0,0c0.6,0,1.2,0.5,1.2,1.1
					c0,0.6-0.5,1.2-1.1,1.2L225.5,128L225.5,128z"/>
			</g>
			<g>
				<line class="st10" x1="253.7" y1="126.6" x2="270.2" y2="126.5"/>
				<path class="st4" d="M253.7,127.8c-0.6,0-1.2-0.5-1.2-1.1c0-0.6,0.5-1.2,1.1-1.2l16.5-0.1h0c0.6,0,1.2,0.5,1.2,1.1
					c0,0.6-0.5,1.2-1.1,1.2L253.7,127.8L253.7,127.8z"/>
			</g>
			<g>
				<line class="st10" x1="242" y1="135.8" x2="270.3" y2="135.7"/>
				<path class="st4" d="M242,137c-0.6,0-1.2-0.5-1.2-1.1c0-0.6,0.5-1.2,1.1-1.2l28.2-0.2c0,0,0,0,0,0c0.6,0,1.2,0.5,1.2,1.1
					c0,0.6-0.5,1.2-1.1,1.2L242,137C242,137,242,137,242,137z"/>
			</g>
			<g>
				<line class="st10" x1="225.5" y1="135.9" x2="236.4" y2="135.9"/>
				<path class="st4" d="M225.5,137.1c-0.6,0-1.2-0.5-1.2-1.1c0-0.6,0.5-1.2,1.1-1.2l10.8-0.1h0c0.6,0,1.2,0.5,1.2,1.1
					c0,0.6-0.5,1.2-1.1,1.2L225.5,137.1L225.5,137.1z"/>
			</g>
		</g>
		<g class="st11">
			<path d="M278,104.7l0.3,45.1c0,3.7-2.7,6.5-6.5,6.5l-48.4,0.3c-2.6,0-4.9-1.3-6.1-3.4C247.3,151.5,272.3,131.3,278,104.7z"/>
		</g>
	</g>
	<g class="st0">
		<ellipse class="st4" cx="247.8" cy="167.5" rx="31.1" ry="2.2"/>
	</g>
	<g>
		<circle class="st6" cx="132.4" cy="112.4" r="27.4"/>
		<path class="st4" d="M132.4,140.4c-15.4,0-28-12.5-28-28c0-15.4,12.5-28,28-28s28,12.5,28,28C160.3,127.8,147.8,140.4,132.4,140.4
			z M132.4,85.6c-14.8,0-26.8,12-26.8,26.8c0,14.8,12,26.8,26.8,26.8s26.8-12,26.8-26.8C159.2,97.6,147.1,85.6,132.4,85.6z"/>
	</g>
	<g>
		<path class="st2" d="M154.5,112.4c0,12.2-9.9,22.2-22.2,22.2c-12.2,0-22.2-9.9-22.2-22.2c0-1.4,0.1-2.8,0.4-4.1
			c0.7,0.2,1.5,0.3,2.5,0.3c6.1,0,6.1-4.6,12.1-4.6c6.1,0,6.1,4.6,12.2,4.6c6.1,0,6.1-4.6,12.1-4.6c1.5,0,2.6,0.3,3.6,0.7
			C154,107.1,154.5,109.7,154.5,112.4z"/>
		<path class="st4" d="M132.4,135.2c-12.5,0-22.7-10.2-22.7-22.7c0-1.5,0.1-2.9,0.4-4.2l0.1-0.6l0.6,0.2c0.7,0.2,1.5,0.3,2.4,0.3
			c2.8,0,4.2-1.1,5.7-2.2c1.6-1.2,3.2-2.4,6.4-2.4c3.2,0,4.9,1.2,6.4,2.4c1.5,1.1,2.9,2.2,5.7,2.2c2.8,0,4.2-1.1,5.7-2.2
			c1.6-1.2,3.2-2.4,6.4-2.4c1.5,0,2.7,0.3,3.8,0.8l0.2,0.1l0.1,0.2c0.9,2.5,1.4,5.2,1.4,7.9C155.1,125,144.9,135.2,132.4,135.2z
			 M111,109c-0.2,1.1-0.3,2.2-0.3,3.4c0,11.9,9.7,21.6,21.6,21.6c11.9,0,21.6-9.7,21.6-21.6c0-2.5-0.4-4.9-1.3-7.3
			c-0.9-0.4-1.9-0.6-3.1-0.6c-2.8,0-4.2,1.1-5.7,2.2c-1.6,1.2-3.2,2.4-6.4,2.4c-3.2,0-4.9-1.2-6.4-2.4c-1.5-1.1-2.9-2.2-5.7-2.2
			c-2.8,0-4.2,1.1-5.7,2.2c-1.6,1.2-3.2,2.4-6.4,2.4C112.4,109.2,111.7,109.1,111,109z"/>
	</g>
	<g>
		<path class="st13" d="M153.1,104.7c-0.9-0.4-2.1-0.7-3.6-0.7c-6.1,0-6.1,4.6-12.1,4.6c-6.1,0-6.1-4.6-12.2-4.6
			c-6.1,0-6.1,4.6-12.1,4.6c-1,0-1.8-0.1-2.5-0.3c1.9-10.3,10.9-18,21.8-18C141.9,90.3,150,96.3,153.1,104.7z"/>
		<path class="st4" d="M137.4,109.2c-3.2,0-4.9-1.2-6.4-2.4c-1.5-1.1-2.9-2.2-5.7-2.2c-2.8,0-4.2,1.1-5.7,2.2
			c-1.6,1.2-3.2,2.4-6.4,2.4c-1,0-1.9-0.1-2.7-0.3l-0.5-0.1l0.1-0.5c2-10.7,11.4-18.5,22.3-18.5c9.5,0,18,6,21.3,14.8l0.5,1.3
			l-1.3-0.6c-1-0.5-2-0.7-3.3-0.7c-2.8,0-4.2,1.1-5.7,2.2C142.3,108,140.6,109.2,137.4,109.2z M125.3,103.4c3.2,0,4.9,1.2,6.4,2.4
			c1.5,1.1,2.9,2.2,5.7,2.2c2.8,0,4.2-1.1,5.7-2.2c1.6-1.2,3.2-2.4,6.4-2.4c0.9,0,1.8,0.1,2.6,0.3c-3.4-7.8-11.2-12.9-19.8-12.9
			c-10.2,0-19,7.1-21.1,17c0.6,0.1,1.2,0.2,1.8,0.2c2.8,0,4.2-1.1,5.7-2.2C120.4,104.6,122,103.4,125.3,103.4z"/>
	</g>
	<g>
		<g>
			<circle class="st4" cx="48" cy="125.5" r="6.7"/>
		</g>
		<g>
			<circle class="st7" cx="48" cy="125.5" r="5.1"/>
		</g>
		<g class="st3">
			<path class="st4" d="M53.1,125.5c0,2.8-2.3,5.1-5,5.1c-1.8,0-3.4-1-4.3-2.4c0.8,0.6,1.8,0.9,2.9,0.9c2.8,0,5.1-2.3,5.1-5.1
				c0-1-0.3-1.9-0.7-2.6C52.2,122.3,53.1,123.8,53.1,125.5z"/>
		</g>
		<g>
			<path class="st4" d="M48,131.2c-3.1,0-5.6-2.5-5.6-5.6c0-3.1,2.5-5.6,5.6-5.6s5.6,2.5,5.6,5.6C53.6,128.6,51.1,131.2,48,131.2z
				 M48,121.1c-2.5,0-4.5,2-4.5,4.5c0,2.5,2,4.5,4.5,4.5s4.5-2,4.5-4.5C52.5,123.1,50.5,121.1,48,121.1z"/>
		</g>
		<g class="st3">
			<path class="st6" d="M44.4,126.1c-0.3,0-0.6-0.3-0.6-0.6c0-2.3,1.9-4.1,4.1-4.1c0.3,0,0.6,0.3,0.6,0.6s-0.3,0.6-0.6,0.6
				c-1.6,0-3,1.3-3,3C45,125.9,44.8,126.1,44.4,126.1z"/>
		</g>
	</g>
	<g>
		<g>
			<circle class="st4" cx="69.9" cy="125.5" r="6.7"/>
		</g>
		<g>
			<circle class="st10" cx="69.9" cy="125.5" r="5.1"/>
		</g>
		<g class="st3">
			<path class="st4" d="M75,125.5c0,2.8-2.3,5.1-5,5.1c-1.8,0-3.4-1-4.3-2.4c0.8,0.6,1.8,0.9,2.9,0.9c2.8,0,5.1-2.3,5.1-5.1
				c0-1-0.3-1.9-0.7-2.6C74.1,122.3,75,123.8,75,125.5z"/>
		</g>
		<g>
			<path class="st4" d="M69.9,131.2c-3.1,0-5.6-2.5-5.6-5.6c0-3.1,2.5-5.6,5.6-5.6s5.6,2.5,5.6,5.6C75.5,128.6,73,131.2,69.9,131.2z
				 M69.9,121.1c-2.5,0-4.5,2-4.5,4.5c0,2.5,2,4.5,4.5,4.5s4.5-2,4.5-4.5C74.4,123.1,72.4,121.1,69.9,121.1z"/>
		</g>
		<g class="st3">
			<path class="st6" d="M66.4,126.1c-0.3,0-0.6-0.3-0.6-0.6c0-2.3,1.9-4.1,4.1-4.1c0.3,0,0.6,0.3,0.6,0.6s-0.3,0.6-0.6,0.6
				c-1.6,0-3,1.3-3,3C66.9,125.9,66.7,126.1,66.4,126.1z"/>
		</g>
	</g>
	<g>
		<path class="st10" d="M182.2,140h-7c-1.9,0-3.5-1.6-3.5-3.5V98.8c0-1.9,1.6-3.5,3.5-3.5h7c1.9,0,3.5,1.6,3.5,3.5v37.7
			C185.6,138.4,184.1,140,182.2,140z"/>
	</g>
	<g class="st11">
		<path d="M185.6,119.8V137c0,1.6-1.3,3-3,3h-7.9c-1.6,0-3-1.3-3-3v-14.7C176.7,122,181.3,121.2,185.6,119.8z"/>
	</g>
	<g>
		<path class="st4" d="M182.2,140.5h-7c-2.2,0-4-1.8-4-4V98.8c0-2.2,1.8-4,4-4h7c2.2,0,4,1.8,4,4v37.7
			C186.2,138.7,184.4,140.5,182.2,140.5z M175.2,95.9c-1.6,0-2.9,1.3-2.9,2.9v37.7c0,1.6,1.3,2.9,2.9,2.9h7c1.6,0,2.9-1.3,2.9-2.9
			V98.8c0-1.6-1.3-2.9-2.9-2.9H175.2z"/>
	</g>
	<g>
		<g class="st3">
			<line class="st4" x1="174.7" y1="101" x2="182.7" y2="101"/>
			<path class="st4" d="M182.7,101.6h-7.9c-0.3,0-0.6-0.3-0.6-0.6s0.3-0.6,0.6-0.6h7.9c0.3,0,0.6,0.3,0.6,0.6S183,101.6,182.7,101.6
				z"/>
		</g>
		<g class="st3">
			<line class="st4" x1="174.7" y1="105.9" x2="182.7" y2="105.9"/>
			<path class="st4" d="M182.7,106.5h-7.9c-0.3,0-0.6-0.3-0.6-0.6s0.3-0.6,0.6-0.6h7.9c0.3,0,0.6,0.3,0.6,0.6S183,106.5,182.7,106.5
				z"/>
		</g>
		<g class="st3">
			<line class="st4" x1="174.7" y1="110.8" x2="182.7" y2="110.8"/>
			<path class="st4" d="M182.7,111.4h-7.9c-0.3,0-0.6-0.3-0.6-0.6s0.3-0.6,0.6-0.6h7.9c0.3,0,0.6,0.3,0.6,0.6S183,111.4,182.7,111.4
				z"/>
		</g>
		<g class="st3">
			<line class="st4" x1="174.7" y1="115.7" x2="182.7" y2="115.7"/>
			<path class="st4" d="M182.7,116.3h-7.9c-0.3,0-0.6-0.3-0.6-0.6s0.3-0.6,0.6-0.6h7.9c0.3,0,0.6,0.3,0.6,0.6S183,116.3,182.7,116.3
				z"/>
		</g>
		<g class="st3">
			<line class="st4" x1="174.7" y1="120.6" x2="182.7" y2="120.6"/>
			<path class="st4" d="M182.7,121.2h-7.9c-0.3,0-0.6-0.3-0.6-0.6s0.3-0.6,0.6-0.6h7.9c0.3,0,0.6,0.3,0.6,0.6S183,121.2,182.7,121.2
				z"/>
		</g>
		<g class="st3">
			<line class="st4" x1="174.7" y1="125.5" x2="182.7" y2="125.5"/>
			<path class="st4" d="M182.7,126h-7.9c-0.3,0-0.6-0.3-0.6-0.6s0.3-0.6,0.6-0.6h7.9c0.3,0,0.6,0.3,0.6,0.6S183,126,182.7,126z"/>
		</g>
		<g class="st3">
			<line class="st4" x1="174.7" y1="130.4" x2="182.7" y2="130.4"/>
			<path class="st4" d="M182.7,130.9h-7.9c-0.3,0-0.6-0.3-0.6-0.6s0.3-0.6,0.6-0.6h7.9c0.3,0,0.6,0.3,0.6,0.6S183,130.9,182.7,130.9
				z"/>
		</g>
		<g class="st3">
			<line class="st4" x1="174.7" y1="135.2" x2="182.7" y2="135.2"/>
			<path class="st4" d="M182.7,135.8h-7.9c-0.3,0-0.6-0.3-0.6-0.6s0.3-0.6,0.6-0.6h7.9c0.3,0,0.6,0.3,0.6,0.6S183,135.8,182.7,135.8
				z"/>
		</g>
	</g>
	<g>
		<g>
			<path class="st9" d="M45.3,0L32.4,0.9C31,1,30,2.1,30.1,3.5l1.7,24.1c0.1,1.3,1.2,2.3,2.6,2.3l17.4-1.2c1.3-0.1,2.3-1.2,2.3-2.6
				L52.6,6.4L45.3,0z"/>
		</g>
		<g class="st3">
			<path d="M45.6,4.5c0.1,1.3,1.2,2.3,2.6,2.3l4.5-0.3L45.3,0L45.6,4.5z"/>
		</g>
	</g>
	<g>
		<g>
			<line class="st10" x1="34" y1="15.5" x2="49.7" y2="14.4"/>
			<path class="st4" d="M34,16.1c-0.3,0-0.6-0.2-0.6-0.5c0-0.3,0.2-0.6,0.5-0.6l15.8-1.1c0.3,0,0.6,0.2,0.6,0.5
				c0,0.3-0.2,0.6-0.5,0.6L34,16.1C34,16.1,34,16.1,34,16.1z"/>
		</g>
		<g>
			<line class="st10" x1="33.7" y1="12.1" x2="39.7" y2="11.7"/>
			<path class="st4" d="M33.7,12.7c-0.3,0-0.6-0.2-0.6-0.5c0-0.3,0.2-0.6,0.5-0.6l6-0.4c0.3,0,0.6,0.2,0.6,0.5
				c0,0.3-0.2,0.6-0.5,0.6L33.7,12.7C33.7,12.7,33.7,12.7,33.7,12.7z"/>
		</g>
		<g>
			<line class="st10" x1="34.2" y1="18.8" x2="42.1" y2="18.3"/>
			<path class="st4" d="M34.2,19.4c-0.3,0-0.6-0.2-0.6-0.5c0-0.3,0.2-0.6,0.5-0.6l7.9-0.5c0.3,0,0.6,0.2,0.6,0.5
				c0,0.3-0.2,0.6-0.5,0.6L34.2,19.4C34.2,19.4,34.2,19.4,34.2,19.4z"/>
		</g>
		<g>
			<line class="st10" x1="44.4" y1="18.1" x2="50.4" y2="17.7"/>
			<path class="st4" d="M44.4,18.7c-0.3,0-0.6-0.2-0.6-0.5c0-0.3,0.2-0.6,0.5-0.6l6-0.4c0.3,0,0.6,0.2,0.6,0.5
				c0,0.3-0.2,0.6-0.5,0.6L44.4,18.7C44.4,18.7,44.4,18.7,44.4,18.7z"/>
		</g>
		<g>
			<line class="st10" x1="42.4" y1="11.5" x2="50" y2="11"/>
			<path class="st4" d="M42.4,12.1c-0.3,0-0.6-0.2-0.6-0.5c0-0.3,0.2-0.6,0.5-0.6l7.5-0.5c0.3,0,0.6,0.2,0.6,0.5
				c0,0.3-0.2,0.6-0.5,0.6L42.4,12.1C42.5,12.1,42.4,12.1,42.4,12.1z"/>
		</g>
		<g>
			<line class="st10" x1="40.4" y1="21.7" x2="50.7" y2="21"/>
			<path class="st4" d="M40.4,22.3c-0.3,0-0.6-0.2-0.6-0.5c0-0.3,0.2-0.6,0.5-0.6l10.3-0.7c0.3,0,0.6,0.2,0.6,0.5
				c0,0.3-0.2,0.6-0.5,0.6L40.4,22.3C40.4,22.3,40.4,22.3,40.4,22.3z"/>
		</g>
		<g>
			<line class="st10" x1="34.4" y1="22.1" x2="38.3" y2="21.9"/>
			<path class="st4" d="M34.4,22.7c-0.3,0-0.6-0.2-0.6-0.5c0-0.3,0.2-0.6,0.5-0.6l3.9-0.3c0.3,0,0.6,0.2,0.6,0.5
				c0,0.3-0.2,0.6-0.5,0.6L34.4,22.7C34.4,22.7,34.4,22.7,34.4,22.7z"/>
		</g>
	</g>
	<g class="st11">
		<path d="M52.8,9.6L53.9,26c0.1,1.4-0.8,2.4-2.2,2.5l-17.6,1.2c-0.9,0.1-1.8-0.3-2.3-1.1C42.7,27.3,51.3,19.4,52.8,9.6z"/>
	</g>
	<g>
		<g>
			<path class="st10" d="M81.5,12.2l-12-4.9c-1.2-0.5-2.7,0.1-3.2,1.3l-9.2,22.3c-0.5,1.2,0.1,2.7,1.3,3.2l16.1,6.6
				c1.2,0.5,2.7-0.1,3.2-1.3l7.5-18.2L81.5,12.2z"/>
		</g>
		<g class="st3">
			<path d="M79.8,16.3c-0.5,1.2,0.1,2.7,1.3,3.2l4.1,1.7l-3.8-9L79.8,16.3z"/>
		</g>
	</g>
	<g>
		<g>
			<line class="st10" x1="64.5" y1="21.1" x2="79.1" y2="27.1"/>
			<path class="st4" d="M79.1,27.6c-0.1,0-0.1,0-0.2,0l-14.6-6c-0.3-0.1-0.4-0.5-0.3-0.8c0.1-0.3,0.5-0.4,0.8-0.3l14.6,6
				c0.3,0.1,0.4,0.5,0.3,0.8C79.6,27.5,79.3,27.6,79.1,27.6z"/>
		</g>
		<g>
			<line class="st10" x1="65.8" y1="17.9" x2="71.4" y2="20.2"/>
			<path class="st4" d="M71.4,20.8c-0.1,0-0.1,0-0.2,0l-5.6-2.3c-0.3-0.1-0.4-0.5-0.3-0.8c0.1-0.3,0.5-0.4,0.8-0.3l5.6,2.3
				c0.3,0.1,0.4,0.5,0.3,0.8C71.8,20.6,71.6,20.8,71.4,20.8z"/>
		</g>
		<g>
			<line class="st10" x1="63.3" y1="24.1" x2="70.6" y2="27.1"/>
			<path class="st4" d="M70.6,27.7c-0.1,0-0.1,0-0.2,0l-7.3-3c-0.3-0.1-0.4-0.5-0.3-0.8c0.1-0.3,0.5-0.4,0.8-0.3l7.3,3
				c0.3,0.1,0.4,0.5,0.3,0.8C71,27.6,70.8,27.7,70.6,27.7z"/>
		</g>
		<g>
			<line class="st10" x1="72.7" y1="28" x2="78.3" y2="30.3"/>
			<path class="st4" d="M78.3,30.9c-0.1,0-0.1,0-0.2,0l-5.6-2.3c-0.3-0.1-0.4-0.5-0.3-0.8c0.1-0.3,0.5-0.4,0.8-0.3l5.6,2.3
				c0.3,0.1,0.4,0.5,0.3,0.8C78.8,30.8,78.5,30.9,78.3,30.9z"/>
		</g>
		<g>
			<line class="st10" x1="73.9" y1="21.2" x2="80.9" y2="24.1"/>
			<path class="st4" d="M80.9,24.7c-0.1,0-0.1,0-0.2,0l-7-2.9c-0.3-0.1-0.4-0.5-0.3-0.8c0.1-0.3,0.5-0.4,0.8-0.3l7,2.9
				c0.3,0.1,0.4,0.5,0.3,0.8C81.3,24.6,81.1,24.7,80.9,24.7z"/>
		</g>
		<g>
			<line class="st10" x1="67.5" y1="29.5" x2="77" y2="33.4"/>
			<path class="st4" d="M77,34c-0.1,0-0.1,0-0.2,0L67.3,30c-0.3-0.1-0.4-0.5-0.3-0.8c0.1-0.3,0.5-0.4,0.8-0.3l9.5,3.9
				c0.3,0.1,0.4,0.5,0.3,0.8C77.5,33.8,77.3,34,77,34z"/>
		</g>
		<g>
			<line class="st10" x1="62" y1="27.2" x2="65.6" y2="28.7"/>
			<path class="st4" d="M65.6,29.3c-0.1,0-0.1,0-0.2,0l-3.7-1.5c-0.3-0.1-0.4-0.5-0.3-0.8s0.5-0.4,0.8-0.3l3.7,1.5
				c0.3,0.1,0.4,0.5,0.3,0.8C66.1,29.1,65.9,29.3,65.6,29.3z"/>
		</g>
	</g>
	<g class="st11">
		<path d="M84,24.1l-6.2,15.2c-0.5,1.3-1.8,1.8-3.1,1.3l-16.3-6.7c-0.9-0.4-1.5-1.1-1.6-2C67.1,35.5,78.4,32.2,84,24.1z"/>
	</g>
	<g>
		<g>
			<path class="st7" d="M63.4,43.2L57.6,41c-0.6-0.2-1.3,0.1-1.5,0.7l-4.2,10.8c-0.2,0.6,0.1,1.3,0.7,1.5l7.8,3
				c0.6,0.2,1.3-0.1,1.5-0.7l3.4-8.8L63.4,43.2z"/>
		</g>
		<g class="st3">
			<path d="M62.6,45.2c-0.2,0.6,0.1,1.3,0.7,1.5l2,0.8l-1.9-4.3L62.6,45.2z"/>
		</g>
	</g>
	<g>
		<g>
			<line class="st10" x1="55.3" y1="47.7" x2="62.4" y2="50.4"/>
			<path class="st4" d="M62.4,50.7c0,0-0.1,0-0.1,0l-7.1-2.8c-0.1-0.1-0.2-0.2-0.2-0.4c0.1-0.1,0.2-0.2,0.4-0.2l7.1,2.8
				c0.1,0.1,0.2,0.2,0.2,0.4C62.6,50.6,62.5,50.7,62.4,50.7z"/>
		</g>
		<g>
			<line class="st10" x1="55.9" y1="46.1" x2="58.6" y2="47.2"/>
			<path class="st4" d="M58.6,47.5c0,0-0.1,0-0.1,0l-2.7-1.1c-0.1-0.1-0.2-0.2-0.2-0.4c0.1-0.1,0.2-0.2,0.4-0.2l2.7,1.1
				c0.1,0.1,0.2,0.2,0.2,0.4C58.8,47.4,58.7,47.5,58.6,47.5z"/>
		</g>
		<g>
			<line class="st10" x1="54.7" y1="49.1" x2="58.3" y2="50.5"/>
			<path class="st4" d="M58.3,50.8c0,0-0.1,0-0.1,0l-3.5-1.4c-0.1-0.1-0.2-0.2-0.2-0.4c0.1-0.1,0.2-0.2,0.4-0.2l3.5,1.4
				c0.1,0.1,0.2,0.2,0.2,0.4C58.5,50.7,58.4,50.8,58.3,50.8z"/>
		</g>
		<g>
			<line class="st10" x1="59.3" y1="50.9" x2="62" y2="52"/>
			<path class="st4" d="M62,52.3c0,0-0.1,0-0.1,0l-2.7-1.1c-0.1-0.1-0.2-0.2-0.2-0.4c0.1-0.1,0.2-0.2,0.4-0.2l2.7,1.1
				c0.1,0.1,0.2,0.2,0.2,0.4C62.3,52.2,62.1,52.3,62,52.3z"/>
		</g>
		<g>
			<line class="st10" x1="59.8" y1="47.7" x2="63.2" y2="49"/>
			<path class="st4" d="M63.2,49.3c0,0-0.1,0-0.1,0l-3.4-1.3c-0.1-0.1-0.2-0.2-0.2-0.4c0.1-0.1,0.2-0.2,0.4-0.2l3.4,1.3
				c0.1,0.1,0.2,0.2,0.2,0.4C63.4,49.2,63.3,49.3,63.2,49.3z"/>
		</g>
		<g>
			<line class="st10" x1="56.9" y1="51.7" x2="61.4" y2="53.5"/>
			<path class="st4" d="M61.4,53.8c0,0-0.1,0-0.1,0l-4.6-1.8c-0.1-0.1-0.2-0.2-0.2-0.4c0.1-0.1,0.2-0.2,0.4-0.2l4.6,1.8
				c0.1,0.1,0.2,0.2,0.2,0.4C61.7,53.7,61.6,53.8,61.4,53.8z"/>
		</g>
		<g>
			<line class="st10" x1="54.2" y1="50.6" x2="55.9" y2="51.3"/>
			<path class="st4" d="M55.9,51.6c0,0-0.1,0-0.1,0l-1.8-0.7c-0.1-0.1-0.2-0.2-0.2-0.4c0.1-0.1,0.2-0.2,0.4-0.2L56,51
				c0.1,0.1,0.2,0.2,0.2,0.4C56.2,51.5,56,51.6,55.9,51.6z"/>
		</g>
	</g>
	<g class="st11">
		<path d="M64.7,48.9l-2.9,7.3c-0.2,0.6-0.9,0.9-1.5,0.6l-7.9-3.1c-0.4-0.2-0.7-0.5-0.8-0.9C56.7,54.6,62.1,52.9,64.7,48.9z"/>
	</g>
	<g>
		<g>
			<path class="st13" d="M46,33.4L38.7,35c-0.8,0.2-1.2,0.9-1.1,1.7l3,13.5c0.2,0.8,0.9,1.2,1.7,1.1l9.7-2.1
				c0.8-0.2,1.2-0.9,1.1-1.7l-2.4-11L46,33.4z"/>
		</g>
		<g class="st3">
			<path d="M46.5,35.9c0.2,0.8,0.9,1.2,1.7,1.1l2.5-0.5l-4.7-3L46.5,35.9z"/>
		</g>
	</g>
	<g>
		<g>
			<line class="st10" x1="40.9" y1="43.1" x2="49.7" y2="41.2"/>
			<path class="st4" d="M40.9,43.4c-0.1,0-0.3-0.1-0.3-0.2c0-0.2,0.1-0.3,0.2-0.3l8.8-1.9c0.1,0,0.3,0.1,0.3,0.2s-0.1,0.3-0.2,0.3
				L40.9,43.4C40.9,43.4,40.9,43.4,40.9,43.4z"/>
		</g>
		<g>
			<line class="st10" x1="40.5" y1="41.2" x2="43.8" y2="40.5"/>
			<path class="st4" d="M40.5,41.5c-0.1,0-0.3-0.1-0.3-0.2c0-0.2,0.1-0.3,0.2-0.3l3.4-0.7c0.2,0,0.3,0.1,0.3,0.2
				c0,0.2-0.1,0.3-0.2,0.3L40.5,41.5C40.5,41.5,40.5,41.5,40.5,41.5z"/>
		</g>
		<g>
			<line class="st10" x1="41.3" y1="45" x2="45.7" y2="44"/>
			<path class="st4" d="M41.3,45.3c-0.1,0-0.3-0.1-0.3-0.2c0-0.2,0.1-0.3,0.2-0.3l4.4-1c0.2,0,0.3,0.1,0.3,0.2
				c0,0.2-0.1,0.3-0.2,0.3L41.3,45.3C41.3,45.3,41.3,45.3,41.3,45.3z"/>
		</g>
		<g>
			<line class="st10" x1="47" y1="43.7" x2="50.4" y2="43"/>
			<path class="st4" d="M47,44c-0.1,0-0.3-0.1-0.3-0.2c0-0.2,0.1-0.3,0.2-0.3l3.4-0.7c0.2,0,0.3,0.1,0.3,0.2c0,0.2-0.1,0.3-0.2,0.3
				L47,44C47.1,44,47,44,47,44z"/>
		</g>
		<g>
			<line class="st10" x1="45.3" y1="40.1" x2="49.6" y2="39.2"/>
			<path class="st4" d="M45.3,40.4c-0.1,0-0.3-0.1-0.3-0.2c0-0.2,0.1-0.3,0.2-0.3l4.2-0.9c0.1,0,0.3,0.1,0.3,0.2s-0.1,0.3-0.2,0.3
				L45.3,40.4C45.4,40.4,45.4,40.4,45.3,40.4z"/>
		</g>
		<g>
			<line class="st10" x1="45" y1="46.1" x2="50.8" y2="44.8"/>
			<path class="st4" d="M45,46.4c-0.1,0-0.3-0.1-0.3-0.2c0-0.2,0.1-0.3,0.2-0.3l5.8-1.3c0.2,0,0.3,0.1,0.3,0.2
				c0,0.2-0.1,0.3-0.2,0.3L45,46.4C45.1,46.4,45.1,46.4,45,46.4z"/>
		</g>
		<g>
			<line class="st10" x1="41.7" y1="46.8" x2="43.9" y2="46.4"/>
			<path class="st4" d="M41.7,47.1c-0.1,0-0.3-0.1-0.3-0.2c0-0.2,0.1-0.3,0.2-0.3l2.2-0.5c0.2,0,0.3,0.1,0.3,0.2
				c0,0.2-0.1,0.3-0.2,0.3L41.7,47.1C41.7,47.1,41.7,47.1,41.7,47.1z"/>
		</g>
	</g>
	<g class="st11">
		<path d="M51,38.2l2,9.2c0.2,0.8-0.3,1.4-1,1.6l-9.9,2.2c-0.5,0.1-1.1,0-1.4-0.4C46.8,49.1,51,43.9,51,38.2z"/>
	</g>
	<g>
		<path class="st10" d="M72.9,60.6c-0.2,1.3-0.7,2.6-1.3,3.5c-0.9,1.2-2.1,1.9-3.4,1.9H39.4c-2.4,0-4.3-2.4-4.7-5.4H72.9z"/>
	</g>
	<g class="st11">
		<path d="M72.9,60.6c-0.2,1.3-0.7,2.6-1.3,3.5c-0.9,1.2-2.1,1.9-3.4,1.9H39.4c-1.6,0-3-1-3.8-2.6c3.9,0.7,8.3,1.1,13,1.1
			c9.4,0,17.7-1.5,22.4-3.9H72.9z"/>
	</g>
	<g>
		<path class="st4" d="M68.2,66.6H39.4c-2.6,0-4.9-2.5-5.3-5.9c0-0.2,0-0.3,0.1-0.5c0.1-0.1,0.3-0.2,0.4-0.2h38.3
			c0.2,0,0.3,0.1,0.4,0.2c0.1,0.1,0.2,0.3,0.1,0.5c-0.2,1.4-0.7,2.7-1.4,3.8C71,65.9,69.7,66.6,68.2,66.6z M35.3,61.2
			c0.5,2.5,2.2,4.3,4,4.3h28.8c1.1,0,2.1-0.6,2.9-1.7c0.5-0.7,0.9-1.6,1.1-2.6H35.3z"/>
	</g>
	<g>
		<path class="st4" d="M73,59.1H34.6c-0.6,0-1.2,0.5-1.2,1.2v0c0,0.6,0.5,1.2,1.2,1.2H73c0.6,0,1.2-0.5,1.2-1.2v0
			C74.1,59.6,73.6,59.1,73,59.1z"/>
	</g>
	<g class="st14">
		<g>
			<path class="st6" d="M109.9,37.6c-2.5,2.7-3.4,6.4-2.3,10c0.7,2.1,4,1.2,3.3-0.9c-0.7-2.4-0.3-4.8,1.4-6.6
				C113.9,38.4,111.5,35.9,109.9,37.6L109.9,37.6z"/>
		</g>
	</g>
	<g>
		<path class="st2" d="M201.1,91.5c-0.9-0.3-2,0-2.6,0.6c-0.7,0.7-1,1.9-1.1,3c-0.1,0.8-0.2,1.4-0.6,2.1c-0.2,0.2-0.3,0.5-0.5,0.7
			c-1.1,1.2-3.4,2-3.4,2.1c0,0.4,5.9,2.4,8.8-1.4C204.1,95.2,203.3,92.2,201.1,91.5z"/>
	</g>
	<g class="st11">
		<path d="M201.6,98.5c-2.9,3.8-8.7,1.8-8.7,1.4c0,0,0.1-0.1,0.2-0.1h0c1.9,0.5,5.4,0.6,7.4-2c2-2.6,1.9-5,0.7-6.3
			C203.3,92.3,204.1,95.3,201.6,98.5z"/>
	</g>
	<g>
		<path class="st4" d="M196.5,101.1c-1.1,0-2.2-0.2-2.9-0.5c-1-0.3-1-0.6-1-0.7c0-0.2,0.1-0.3,0.7-0.5c0.7-0.3,2.1-0.9,2.8-1.8
			c0.2-0.2,0.4-0.4,0.5-0.6c0.4-0.6,0.5-1.2,0.6-1.9c0.2-1.5,0.5-2.5,1.2-3.1c0.6-0.6,1.8-1.1,2.9-0.7l0,0c1,0.4,1.8,1.1,2.1,2.2
			c0.5,1.6-0.1,3.5-1.4,5.3C200.4,100.5,198.3,101.1,196.5,101.1z M193.4,99.9c0.6,0.3,2,0.6,3.6,0.6c1.3-0.1,3.2-0.5,4.4-2.1
			c1.3-1.7,1.8-3.4,1.3-4.8c-0.3-0.9-0.9-1.5-1.7-1.8l0,0c-0.8-0.3-1.8,0.1-2.3,0.5c-0.6,0.5-0.9,1.4-1,2.8
			c-0.1,0.7-0.2,1.5-0.7,2.2c-0.1,0.2-0.3,0.5-0.5,0.7c-0.8,0.9-2.2,1.6-3,1.9C193.4,99.9,193.4,99.9,193.4,99.9z"/>
	</g>
	<g class="st0">
		
			<ellipse transform="matrix(0.3033 -0.9529 0.9529 0.3033 49.8276 255.5576)" class="st6" cx="199.7" cy="93.7" rx="1.4" ry="0.7"/>
	</g>
	<g>
		<g>
			<path class="st10" d="M233.7,99.6l1.2,2.4c0.1,0.2,0.3,0.4,0.6,0.4l2.6,0.4c0.6,0.1,0.9,0.8,0.4,1.3l-1.9,1.8
				c-0.2,0.2-0.3,0.4-0.2,0.7l0.4,2.6c0.1,0.6-0.5,1.1-1.1,0.8l-2.3-1.2c-0.2-0.1-0.5-0.1-0.7,0l-2.3,1.2c-0.5,0.3-1.2-0.2-1.1-0.8
				l0.4-2.6c0-0.2,0-0.5-0.2-0.7l-1.9-1.8c-0.4-0.4-0.2-1.2,0.4-1.3l2.6-0.4c0.2,0,0.5-0.2,0.6-0.4l1.2-2.4
				C232.6,99.1,233.4,99.1,233.7,99.6z"/>
		</g>
		<g>
			<path class="st10" d="M248.4,99.6l1.2,2.4c0.1,0.2,0.3,0.4,0.6,0.4l2.6,0.4c0.6,0.1,0.9,0.8,0.4,1.3l-1.9,1.8
				c-0.2,0.2-0.3,0.4-0.2,0.7l0.4,2.6c0.1,0.6-0.5,1.1-1.1,0.8l-2.3-1.2c-0.2-0.1-0.5-0.1-0.7,0L245,110c-0.5,0.3-1.2-0.2-1.1-0.8
				l0.4-2.6c0-0.2,0-0.5-0.2-0.7l-1.9-1.8c-0.4-0.4-0.2-1.2,0.4-1.3l2.6-0.4c0.2,0,0.5-0.2,0.6-0.4l1.2-2.4
				C247.3,99.1,248.1,99.1,248.4,99.6z"/>
		</g>
		<g>
			<path class="st10" d="M263,99.6l1.2,2.4c0.1,0.2,0.3,0.4,0.6,0.4l2.6,0.4c0.6,0.1,0.9,0.8,0.4,1.3l-1.9,1.8
				c-0.2,0.2-0.3,0.4-0.2,0.7l0.4,2.6c0.1,0.6-0.5,1.1-1.1,0.8l-2.3-1.2c-0.2-0.1-0.5-0.1-0.7,0l-2.3,1.2c-0.5,0.3-1.2-0.2-1.1-0.8
				l0.4-2.6c0-0.2,0-0.5-0.2-0.7l-1.9-1.8c-0.4-0.4-0.2-1.2,0.4-1.3l2.6-0.4c0.2,0,0.5-0.2,0.6-0.4l1.2-2.4
				C262,99.1,262.7,99.1,263,99.6z"/>
		</g>
		<g class="st15">
			<path class="st10" d="M232.6,101.3l-0.8,1.6c-0.1,0.1-0.2,0.2-0.4,0.3l-1.7,0.2c-0.4,0.1-0.6,0.6-0.3,0.8"/>
			<path class="st8" d="M229.5,104.9c-0.2,0-0.3-0.1-0.5-0.2c-0.3-0.3-0.4-0.7-0.3-1.1c0.1-0.4,0.5-0.7,0.9-0.7l1.7-0.2l0.7-1.5
				c0.1-0.3,0.5-0.4,0.8-0.3c0.3,0.1,0.4,0.5,0.3,0.8l-0.8,1.6c-0.2,0.3-0.5,0.5-0.8,0.6l-1.7,0.2c0.2,0.2,0.3,0.5,0,0.7
				C229.7,104.8,229.6,104.9,229.5,104.9z"/>
		</g>
		<g class="st15">
			<path class="st10" d="M247.4,101.3l-0.8,1.6c-0.1,0.1-0.2,0.2-0.4,0.3l-1.7,0.2c-0.4,0.1-0.6,0.6-0.3,0.8"/>
			<path class="st8" d="M244.3,104.9c-0.2,0-0.3-0.1-0.5-0.2c-0.3-0.3-0.4-0.7-0.3-1.1c0.1-0.4,0.5-0.7,0.9-0.7l1.7-0.2l0.7-1.5
				c0.1-0.3,0.5-0.4,0.8-0.3c0.3,0.1,0.4,0.5,0.3,0.8l-0.8,1.6c-0.2,0.3-0.5,0.5-0.8,0.6l-1.7,0.2c0.2,0.2,0.3,0.5,0,0.7
				C244.6,104.8,244.4,104.9,244.3,104.9z"/>
		</g>
		<g class="st15">
			<path class="st10" d="M262.2,101.3l-0.8,1.6c-0.1,0.1-0.2,0.2-0.4,0.3l-1.7,0.2c-0.4,0.1-0.6,0.6-0.3,0.8"/>
			<path class="st8" d="M259.1,104.9c-0.2,0-0.3-0.1-0.5-0.2c-0.3-0.3-0.4-0.7-0.3-1.1s0.5-0.7,0.9-0.7l1.7-0.2l0.7-1.5
				c0.1-0.3,0.5-0.4,0.8-0.3c0.3,0.1,0.4,0.5,0.3,0.8l-0.8,1.6c-0.2,0.3-0.5,0.5-0.8,0.6l-1.7,0.2c0.2,0.2,0.3,0.5,0,0.7
				C259.4,104.8,259.3,104.9,259.1,104.9z"/>
		</g>
		<g class="st11">
			<path d="M235.7,110l-2.3-1.2c-0.2-0.1-0.5-0.1-0.7,0l-2.3,1.2c-0.5,0.3-1.2-0.2-1.1-0.8l0.2-0.9c0.2,0.3,0.6,0.4,0.9,0.2l2.3-1.2
				c0.2-0.1,0.5-0.1,0.7,0l2.3,1.2c0.3,0.2,0.7,0.1,0.9-0.2l0.2,0.9C236.9,109.8,236.2,110.2,235.7,110z"/>
		</g>
		<g class="st11">
			<path d="M250.4,110l-2.3-1.2c-0.2-0.1-0.5-0.1-0.7,0L245,110c-0.5,0.3-1.2-0.2-1.1-0.8l0.2-0.9c0.2,0.3,0.6,0.4,0.9,0.2l2.3-1.2
				c0.2-0.1,0.5-0.1,0.7,0l2.3,1.2c0.3,0.2,0.7,0.1,0.9-0.2l0.2,0.9C251.6,109.8,250.9,110.2,250.4,110z"/>
		</g>
		<g class="st11">
			<path d="M265,110l-2.3-1.2c-0.2-0.1-0.5-0.1-0.7,0l-2.3,1.2c-0.5,0.3-1.2-0.2-1.1-0.8l0.2-0.9c0.2,0.3,0.6,0.4,0.9,0.2l2.3-1.2
				c0.2-0.1,0.5-0.1,0.7,0l2.3,1.2c0.3,0.2,0.7,0.1,0.9-0.2l0.2,0.9C266.2,109.8,265.6,110.2,265,110z"/>
		</g>
		<g class="st11">
			<path d="M229.5,106c0.1,0.2,0.2,0.4,0.2,0.6l-0.3,1.7c-0.1-0.2-0.2-0.4-0.2-0.6L229.5,106z"/>
		</g>
		<g class="st11">
			<path d="M236.6,108.3l-0.3-1.7c0-0.2,0-0.4,0.2-0.6l0.3,1.7C236.8,107.9,236.8,108.1,236.6,108.3z"/>
		</g>
		<g class="st11">
			<path d="M244.2,106c0.1,0.2,0.2,0.4,0.2,0.6l-0.3,1.7c-0.1-0.2-0.2-0.4-0.2-0.6L244.2,106z"/>
		</g>
		<g class="st11">
			<path d="M251.3,108.3l-0.3-1.7c0-0.2,0-0.4,0.2-0.6l0.3,1.7C251.5,107.9,251.4,108.1,251.3,108.3z"/>
		</g>
		<g class="st11">
			<path d="M258.9,106c0.1,0.2,0.2,0.4,0.2,0.6l-0.3,1.7c-0.1-0.2-0.2-0.4-0.2-0.6L258.9,106z"/>
		</g>
		<g class="st11">
			<path d="M266,108.3l-0.3-1.7c0-0.2,0-0.4,0.2-0.6l0.3,1.7C266.2,107.9,266.1,108.1,266,108.3z"/>
		</g>
		<g>
			<path class="st4" d="M236,110.6c-0.2,0-0.4-0.1-0.6-0.2l-2.3-1.2c0,0-0.1,0-0.2,0l-2.3,1.2c-0.4,0.2-1,0.2-1.4-0.1
				c-0.4-0.3-0.6-0.8-0.5-1.3l0.4-2.6c0-0.1,0-0.1,0-0.1l-1.9-1.8c-0.4-0.4-0.5-0.9-0.3-1.4s0.6-0.8,1.1-0.9l2.6-0.4
				c0.1,0,0.1,0,0.1-0.1l1.2-2.4c0.2-0.5,0.7-0.7,1.2-0.7h0c0.5,0,1,0.3,1.2,0.7l1.2,2.4c0,0,0.1,0.1,0.1,0.1l2.6,0.4
				c0.5,0.1,0.9,0.4,1.1,0.9c0.2,0.5,0,1-0.3,1.4l-1.9,1.8c0,0-0.1,0.1,0,0.2l0.4,2.6c0.1,0.5-0.1,1-0.5,1.3
				C236.6,110.5,236.3,110.6,236,110.6z M233,108.1c0.2,0,0.4,0.1,0.6,0.2l2.3,1.2c0.1,0,0.1,0,0.2,0c0,0,0.1-0.1,0.1-0.2l-0.4-2.6
				c-0.1-0.4,0.1-0.9,0.4-1.2l1.9-1.8c0.1-0.1,0.1-0.1,0-0.2c0,0,0-0.1-0.1-0.1l-2.6-0.4c-0.4-0.1-0.8-0.3-1-0.7l-1.2-2.4
				c0-0.1-0.1-0.1-0.2-0.1l0,0c0,0-0.1,0-0.2,0.1l-1.2,2.4c-0.2,0.4-0.6,0.7-1,0.7l-2.6,0.4c-0.1,0-0.1,0.1-0.1,0.1c0,0,0,0.1,0,0.2
				l1.9,1.8c0.3,0.3,0.5,0.7,0.4,1.2l-0.4,2.6c0,0.1,0,0.1,0.1,0.2c0,0,0.1,0.1,0.2,0l2.3-1.2C232.6,108.1,232.8,108.1,233,108.1z"
				/>
		</g>
		<g>
			<path class="st4" d="M244.6,110.6c-0.3,0-0.5-0.1-0.8-0.3c-0.4-0.3-0.6-0.8-0.5-1.3l0.4-2.6c0-0.1,0-0.1,0-0.1l-1.9-1.8
				c-0.4-0.4-0.5-0.9-0.3-1.4s0.6-0.8,1.1-0.9l2.6-0.4c0.1,0,0.1,0,0.1-0.1l1.2-2.4c0.2-0.5,0.7-0.7,1.2-0.7s1,0.3,1.2,0.7l0,0
				l1.2,2.4c0,0,0.1,0.1,0.1,0.1l2.6,0.4c0.5,0.1,0.9,0.4,1.1,0.9s0,1-0.3,1.4l-1.9,1.8c0,0-0.1,0.1,0,0.2l0.4,2.6
				c0.1,0.5-0.1,1-0.5,1.3c-0.4,0.3-0.9,0.3-1.4,0.1l-2.3-1.2c0,0-0.1,0-0.2,0l-2.3,1.2C245.1,110.6,244.9,110.6,244.6,110.6z
				 M247.7,108.1c0.2,0,0.4,0.1,0.6,0.2l2.3,1.2c0.1,0,0.1,0,0.2,0c0,0,0.1-0.1,0.1-0.2l-0.4-2.6c-0.1-0.4,0.1-0.9,0.4-1.2l1.9-1.8
				c0.1-0.1,0.1-0.1,0-0.2c0,0-0.1-0.1-0.1-0.1L250,103c-0.4-0.1-0.8-0.3-1-0.7l-1.2-2.4c-0.1-0.2-0.2-0.2-0.3,0l-1.2,2.4
				c-0.2,0.4-0.6,0.7-1,0.7l-2.6,0.4c-0.1,0-0.1,0.1-0.1,0.1c0,0,0,0.1,0,0.2l1.9,1.8c0.3,0.3,0.5,0.7,0.4,1.2l-0.4,2.6
				c0,0.1,0,0.1,0.1,0.2s0.1,0.1,0.2,0l2.3-1.2C247.3,108.1,247.5,108.1,247.7,108.1z"/>
		</g>
		<g>
			<path class="st4" d="M265.4,110.6c-0.2,0-0.4-0.1-0.6-0.2l-2.3-1.2c0,0-0.1,0-0.2,0l-2.3,1.2c-0.4,0.2-1,0.2-1.4-0.1
				c-0.4-0.3-0.6-0.8-0.5-1.3l0.4-2.6c0-0.1,0-0.1,0-0.1l-1.9-1.8c-0.4-0.4-0.5-0.9-0.3-1.4s0.6-0.8,1.1-0.9l2.6-0.4
				c0.1,0,0.1,0,0.1-0.1l1.2-2.4c0.2-0.5,0.7-0.7,1.2-0.7s1,0.3,1.2,0.7l0,0l1.2,2.4c0,0,0.1,0.1,0.1,0.1l2.6,0.4
				c0.5,0.1,0.9,0.4,1.1,0.9s0,1-0.3,1.4l-1.9,1.8c0,0-0.1,0.1,0,0.1l0.4,2.6c0.1,0.5-0.1,1-0.5,1.3
				C265.9,110.5,265.7,110.6,265.4,110.6z M262.4,99.8c0,0-0.1,0-0.2,0.1l-1.2,2.4c-0.2,0.4-0.6,0.7-1,0.7l-2.6,0.4
				c-0.1,0-0.1,0.1-0.1,0.1c0,0,0,0.1,0,0.2l1.9,1.8c0.3,0.3,0.5,0.7,0.4,1.2l-0.4,2.6c0,0.1,0,0.1,0.1,0.2c0,0,0.1,0.1,0.2,0
				l2.3-1.2c0.4-0.2,0.8-0.2,1.2,0l2.3,1.2c0.1,0,0.1,0,0.2,0s0.1-0.1,0.1-0.2l-0.4-2.6c-0.1-0.4,0.1-0.9,0.4-1.2l1.9-1.8
				c0.1-0.1,0.1-0.1,0-0.2c0,0-0.1-0.1-0.1-0.1l-2.6-0.4c-0.4-0.1-0.8-0.3-1-0.7l-1.2-2.4C262.5,99.8,262.4,99.8,262.4,99.8z"/>
		</g>
	</g>
	<g>
		<path class="st8" d="M140.9,113.4h-25c-0.3,0-0.6-0.3-0.6-0.6s0.3-0.6,0.6-0.6h25c0.3,0,0.6,0.3,0.6,0.6S141.2,113.4,140.9,113.4z
			"/>
	</g>
	<g>
		<path class="st8" d="M145.5,120.7h-25c-0.3,0-0.6-0.3-0.6-0.6s0.3-0.6,0.6-0.6h25c0.3,0,0.6,0.3,0.6,0.6S145.8,120.7,145.5,120.7z
			"/>
	</g>
	<g>
		<path class="st8" d="M139,117.1h-10.5c-0.3,0-0.6-0.3-0.6-0.6s0.3-0.6,0.6-0.6H139c0.3,0,0.6,0.3,0.6,0.6S139.4,117.1,139,117.1z"
			/>
	</g>
	<g>
		<path class="st8" d="M141.2,126.1h-6.7c-0.3,0-0.6-0.3-0.6-0.6s0.3-0.6,0.6-0.6h6.7c0.3,0,0.6,0.3,0.6,0.6
			S141.5,126.1,141.2,126.1z"/>
	</g>
	<g>
		<path class="st8" d="M130.1,126h-10.5c-0.3,0-0.6-0.3-0.6-0.6s0.3-0.6,0.6-0.6h10.5c0.3,0,0.6,0.3,0.6,0.6S130.4,126,130.1,126z"
			/>
	</g>
</g>
</svg>
