<?xml version="1.0" encoding="UTF-8"?>
<!DOCTYPE svg PUBLIC "-//W3C//DTD SVG 1.1//EN" "http://www.w3.org/Graphics/SVG/1.1/DTD/svg11.dtd">
<!-- Creator: CorelDRAW X8 -->
<svg xmlns="http://www.w3.org/2000/svg" xml:space="preserve" width="8.1583mm" height="16.202mm" version="1.1" style="shape-rendering:geometricPrecision; text-rendering:geometricPrecision; image-rendering:optimizeQuality; fill-rule:evenodd; clip-rule:evenodd"
viewBox="0 0 177 351"
 xmlns:xlink="http://www.w3.org/1999/xlink">
 <defs>
  <style type="text/css">
   <![CDATA[
    .fil0 {fill:white}
   ]]>
  </style>
 </defs>
 <g id="Camada_x0020_1">
  <metadata id="CorelCorpID_0Corel-Layer"/>
  <g id="_689958729232">
   <path class="fil0" d="M33 98c17,0 31,14 31,31 0,16 -14,30 -31,30 -17,0 -30,-14 -30,-30 0,-17 13,-31 30,-31z"/>
   <path class="fil0" d="M31 0c78,-2 143,58 146,135 3,77 -58,143 -135,146 -3,0 -5,0 -8,0l-13 -1 1 -25 12 0 0 0c3,0 5,0 7,0 63,-3 112,-56 110,-119 -3,-63 -56,-112 -119,-110 -1,0 -3,0 -4,0l0 0 -13 1 1 0 -3 0c-6,1 -12,-3 -13,-9l0 -4c-1,-6 4,-12 10,-12l3 -1 0 0 3 0c4,0 12,-1 15,-1z"/>
   <path class="fil0" d="M35 187l0 0c8,0 15,7 15,15l0 134c0,8 -7,15 -15,15l0 0c-8,0 -15,-7 -15,-15l0 -134c0,-8 7,-15 15,-15z"/>
  </g>
 </g>
</svg>
