<?xml version="1.0" encoding="UTF-8"?>
<!DOCTYPE svg PUBLIC "-//W3C//DTD SVG 1.1//EN" "http://www.w3.org/Graphics/SVG/1.1/DTD/svg11.dtd">
<!-- Creator: CorelDRAW X8 -->
<svg xmlns="http://www.w3.org/2000/svg" xml:space="preserve" width="178.964mm" height="44.2153mm" version="1.1" style="shape-rendering:geometricPrecision; text-rendering:geometricPrecision; image-rendering:optimizeQuality; fill-rule:evenodd; clip-rule:evenodd"
viewBox="0 0 18085 4468"
 xmlns:xlink="http://www.w3.org/1999/xlink">
 <defs>
  <style type="text/css">
   <![CDATA[
    .str0 {stroke:#FEFEFE;stroke-width:303.148}
    .fil0 {fill:#FEFEFE;fill-rule:nonzero}
   ]]>
  </style>
 </defs>
 <g id="Camada_x0020_1">
  <metadata id="CorelCorpID_0Corel-Layer"/>
  <path class="fil0 str0" d="M462 448l0 2833c0,43 -15,79 -46,110 -30,30 -67,45 -109,45 -43,0 -79,-15 -110,-45 -30,-31 -45,-67 -45,-110l0 -2833c0,-42 15,-79 45,-109 31,-31 67,-46 110,-46 42,0 79,15 109,46 31,30 46,67 46,109zm1560 817c560,0 839,269 839,807l0 1218c0,43 -13,78 -41,105 -27,27 -62,41 -105,41 -42,0 -77,-14 -105,-41 -27,-27 -41,-62 -41,-105l0 -1159c0,-197 -39,-348 -118,-451 -79,-104 -222,-155 -429,-155 -405,0 -607,213 -607,638l0 1127c0,43 -14,78 -43,105 -29,27 -63,41 -103,41 -39,0 -73,-14 -102,-41 -29,-27 -44,-62 -44,-105l0 -1852c0,-43 15,-78 44,-105 29,-27 63,-41 102,-41 40,0 74,14 103,41 29,27 43,62 43,105l0 146c46,-91 123,-167 231,-228 108,-61 233,-91 376,-91l0 0zm2180 2080c-28,61 -73,91 -137,91 -64,0 -110,-30 -137,-91l-775 -1843c-9,-27 -13,-49 -13,-64 0,-43 13,-78 41,-105 27,-27 62,-41 105,-41 66,0 111,32 135,96l644 1574 643 -1574c24,-64 70,-96 137,-96 42,0 77,14 105,41 27,27 41,62 41,105 0,15 -5,37 -14,64l-775 1843zm1021 -985c0,-350 83,-620 247,-810 164,-190 395,-285 693,-285 140,0 263,21 370,64 106,42 191,95 253,159 62,64 112,138 150,221 38,84 64,162 78,233 14,72 21,142 21,212 0,46 -2,81 -5,105 -3,25 -9,53 -18,87 -9,33 -28,58 -55,75 -27,17 -62,25 -105,25l-1332 0c0,228 62,409 185,543 123,134 291,201 504,201 191,0 374,-66 547,-196 28,-19 55,-28 82,-28 37,0 68,13 94,39 26,26 39,57 39,94 0,36 -17,71 -50,105 -171,170 -408,255 -712,255 -313,0 -556,-91 -728,-271 -172,-181 -258,-457 -258,-828l0 0zm1524 -169c0,-441 -194,-662 -584,-662 -194,0 -346,59 -456,176 -109,117 -172,279 -187,486l1227 0zm1387 -643c-271,0 -406,91 -406,273 0,88 41,161 123,219 82,58 183,106 301,144 119,38 237,80 354,125 117,46 216,114 299,206 82,91 123,203 123,337 0,198 -72,348 -217,450 -144,101 -331,152 -559,152 -173,0 -330,-34 -470,-101 -140,-66 -243,-143 -310,-227 -21,-30 -32,-59 -32,-87 0,-36 13,-67 39,-93 26,-26 57,-39 94,-39 36,0 69,15 100,46 149,149 342,223 579,223 143,0 260,-26 349,-77 90,-52 135,-134 135,-247 0,-85 -41,-156 -123,-212 -82,-56 -182,-103 -299,-141 -117,-38 -235,-80 -354,-126 -118,-45 -219,-115 -301,-207 -82,-93 -123,-208 -123,-345 0,-182 65,-320 194,-413 129,-92 297,-139 504,-139 316,0 547,98 693,292 22,28 32,56 32,87 0,36 -13,68 -38,93 -26,26 -57,39 -94,39 -36,0 -68,-13 -96,-41 -134,-128 -299,-191 -497,-191l0 0zm1401 -219l0 -479c0,-40 14,-74 43,-103 29,-29 63,-43 102,-43 40,0 74,14 103,43 29,29 43,63 43,103l0 479 297 0c40,0 72,12 98,38 26,26 39,59 39,98 0,40 -13,73 -39,99 -26,25 -58,38 -98,38l-297 0 0 1259c0,95 25,168 73,222 49,53 113,79 192,79 40,0 73,13 100,39 28,26 41,59 41,98 0,40 -13,73 -41,98 -27,26 -60,39 -100,39 -176,0 -313,-53 -411,-160 -97,-106 -145,-244 -145,-415l0 -1259 -178 0c-40,0 -73,-13 -99,-38 -25,-26 -38,-59 -38,-99 0,-39 13,-72 38,-98 26,-26 59,-38 99,-38l178 0zm1537 -717l0 1218 707 0c189,0 336,-53 442,-159 107,-107 160,-257 160,-452 0,-198 -54,-348 -162,-452 -108,-103 -254,-155 -440,-155l-707 0 0 0zm0 1501l0 1168c0,43 -15,79 -46,110 -30,30 -67,45 -109,45 -43,0 -79,-15 -110,-45 -30,-31 -45,-67 -45,-110l0 -2796c0,-43 15,-79 45,-110 31,-30 67,-46 110,-46l908 0c258,0 468,76 629,226 161,151 242,372 242,664 0,289 -81,510 -242,664 -161,153 -371,230 -629,230l-753 0 0 0zm2146 -1918c29,-29 63,-43 103,-43 39,0 74,14 103,43 28,29 43,63 43,103l0 2604c0,174 61,260 182,260 37,0 69,13 96,39 28,26 41,59 41,98 0,40 -13,73 -41,98 -27,26 -59,39 -96,39 -316,0 -474,-178 -474,-534l0 -2604c0,-40 14,-74 43,-103l0 0zm1718 1343c-216,0 -392,78 -529,233 -40,43 -79,64 -119,64 -36,0 -68,-13 -93,-39 -26,-26 -39,-57 -39,-93 0,-28 7,-54 23,-78 152,-240 404,-360 757,-360 261,0 464,70 607,210 143,139 214,328 214,565l0 1255c0,39 -14,73 -41,100 -27,27 -61,41 -100,41 -40,0 -73,-14 -101,-41 -27,-27 -41,-61 -41,-100l0 -164c-55,103 -141,184 -260,241 -118,58 -249,87 -392,87 -243,0 -436,-57 -577,-171 -142,-114 -212,-275 -212,-481 0,-201 71,-358 214,-473 143,-114 338,-171 584,-171l643 0 0 -123c0,-155 -48,-277 -144,-367 -95,-90 -227,-135 -394,-135l0 0zm-87 1656c170,0 317,-51 440,-155 124,-103 185,-246 185,-429l0 -191 -643 0c-155,0 -278,33 -367,98 -90,65 -135,162 -135,290 0,258 173,387 520,387zm1319 848c79,0 149,-11 209,-36 61,-24 111,-51 149,-82 38,-30 79,-84 123,-162 44,-77 77,-141 100,-191 23,-50 59,-136 107,-258l-761 -1811c-10,-27 -14,-49 -14,-64 0,-43 14,-78 41,-105 27,-27 62,-41 105,-41 67,0 112,32 137,96l643 1574 643 -1574c25,-64 70,-96 137,-96 43,0 78,14 105,41 27,27 41,62 41,105 0,15 -5,37 -14,64l-898 2139c-98,232 -212,401 -342,511 -131,110 -302,165 -511,165 -40,0 -73,-13 -99,-39 -25,-26 -38,-59 -38,-98 0,-40 13,-72 38,-98 26,-26 59,-39 99,-39l0 -1z"/>
 </g>
</svg>
