<?xml version="1.0" encoding="UTF-8"?>
<!DOCTYPE svg PUBLIC "-//W3C//DTD SVG 1.1//EN" "http://www.w3.org/Graphics/SVG/1.1/DTD/svg11.dtd">
<!-- Creator: CorelDRAW X8 -->
<svg xmlns="http://www.w3.org/2000/svg" xml:space="preserve" width="75.2142mm" height="18.3848mm" version="1.1" style="shape-rendering:geometricPrecision; text-rendering:geometricPrecision; image-rendering:optimizeQuality; fill-rule:evenodd; clip-rule:evenodd"
viewBox="0 0 5550 1357"
 xmlns:xlink="http://www.w3.org/1999/xlink">
 <defs>
  <style type="text/css">
   <![CDATA[
    .fil0 {fill:white}
   ]]>
  </style>
 </defs>
 <g id="Camada_x0020_1">
  <metadata id="CorelCorpID_0Corel-Layer"/>
  <g id="_689955538144">
   <path class="fil0" d="M3583 518l-144 0 0 -302c198,0 325,-32 325,163 0,50 -20,87 -48,108 -33,25 -77,31 -133,31zm-319 -344l0 790c0,173 175,143 175,25l0 -314c180,0 405,38 480,-189 39,-119 16,-269 -64,-348 -47,-48 -123,-84 -217,-84l-284 0c-67,0 -90,52 -90,120z"/>
   <path class="fil0" d="M4573 934c-76,0 -133,-1 -133,-90 0,-96 182,-73 277,-73 0,54 -1,88 -40,123 -26,22 -58,40 -104,40zm-260 -428c0,57 28,84 85,84 63,0 62,-90 193,-90 76,0 126,39 126,121 -155,0 -344,-28 -422,132 -10,21 -25,71 -24,103 1,29 12,74 22,98 55,127 241,162 361,122 33,-10 44,-20 69,-33 17,12 27,42 79,42 43,0 78,-44 78,-90l0 -362c0,-172 -106,-290 -265,-290 -86,0 -138,1 -213,47 -28,18 -89,75 -89,116z"/>
   <path class="fil0" d="M1864 500c71,0 163,5 163,127l-296 0c16,-33 36,-127 133,-127zm-302 187c0,117 9,219 83,303 113,127 345,136 488,26 58,-44 60,-148 -46,-148 -46,0 -73,66 -193,66 -91,0 -161,-68 -163,-157l386 0c103,0 107,-200 3,-340 -58,-78 -156,-94 -256,-94 -99,0 -170,47 -219,101 -45,51 -83,149 -83,243z"/>
   <path class="fil0" d="M4904 434c0,32 200,490 217,531 11,27 23,35 12,64 -78,204 -136,153 -196,173 -77,27 -55,155 28,155 244,0 289,-217 366,-389 34,-77 219,-513 219,-534 0,-65 -111,-156 -172,-3 -17,44 -34,83 -50,124l-104 247 -98 -246c-50,-109 -58,-207 -143,-207 -33,0 -79,30 -79,85z"/>
   <path class="fil0" d="M452 391c-54,-81 -150,-30 -150,31l0 591c0,60 92,107 146,37 19,-25 17,-43 17,-85 -1,-81 -9,-332 12,-392 21,-57 56,-70 129,-77 62,-5 110,18 128,67 16,48 8,329 8,402 0,178 169,135 169,30l0 -356c0,-224 -121,-296 -314,-296 -64,0 -106,23 -145,48z"/>
   <path class="fil0" d="M2244 536c0,184 128,208 271,260 178,67 72,132 13,132 -212,0 -133,-78 -248,-78 -55,0 -132,106 36,193 211,109 459,21 459,-157 0,-65 0,-99 -53,-152 -112,-113 -315,-110 -315,-180 0,-58 62,-48 115,-48 85,0 77,66 168,66 40,0 136,-83 -19,-186 -122,-81 -427,-58 -427,150z"/>
   <path class="fil0" d="M923 422c0,68 107,286 138,362l105 251c35,70 122,63 151,4 6,-14 12,-29 18,-43 7,-16 11,-26 18,-42 25,-59 46,-114 71,-170 24,-55 45,-109 70,-165 13,-30 23,-55 36,-85 24,-59 32,-59 32,-112 0,-60 -111,-135 -167,7 -20,52 -144,343 -146,367l-12 0c-10,-41 -120,-300 -145,-362 -60,-152 -169,-69 -169,-12z"/>
   <path class="fil0" d="M2890 253l0 108c-144,0 -105,157 -31,157l31 0 0 368c0,210 289,260 289,121 0,-38 -24,-67 -57,-76 -46,-12 -70,0 -70,-63l0 -350c58,0 133,12 133,-84 0,-82 -95,-73 -133,-73 0,-70 12,-131 -22,-165 -61,-61 -140,-11 -140,57z"/>
   <path class="fil0" d="M4012 72l0 838c0,193 259,230 259,97 0,-84 -83,-78 -90,-85 -27,-26 10,-816 -12,-869 -35,-85 -157,-60 -157,19z"/>
   <path class="fil0" d="M0 132l0 863c0,122 169,115 169,6l0 -881c0,-95 -169,-114 -169,12z"/>
  </g>
 </g>
</svg>
