<?xml version="1.0" encoding="utf-8"?>
<!-- Generator: Adobe Illustrator 21.0.0, SVG Export Plug-In . SVG Version: 6.00 Build 0)  -->
<svg version="1.1" id="Layer_1" xmlns="http://www.w3.org/2000/svg" xmlns:xlink="http://www.w3.org/1999/xlink" x="0px" y="0px"
	 viewBox="0 0 215.2 219.4" style="enable-background:new 0 0 215.2 219.4;" xml:space="preserve">
<style type="text/css">
	.st0{fill:#F6E7D1;}
	.st1{fill:#0B2674;}
	.st2{opacity:0.1;}
	.st3{fill:#3ACFEF;}
	.st4{opacity:0.5;}
	.st5{fill:#00C8AA;}
	.st6{fill:#FAFAFA;}
	.st7{opacity:0.3;}
	.st8{fill:#FFFFFF;}
	.st9{fill-rule:evenodd;clip-rule:evenodd;fill:#FFFFFF;}
	.st10{fill:#425BFF;}
	.st11{opacity:0.6;}
	.st12{opacity:0.4;}
	.st13{fill:#FFD652;}
	.st14{fill:#FD2088;}
	.st15{fill:#FD2087;}
	.st16{fill:none;stroke:#0B2674;stroke-width:1.4486;stroke-linecap:round;stroke-linejoin:round;stroke-miterlimit:10;}
</style>
<g>
	<g>
		<g>
			<g>
				<g>
					<g>
						<g>
							<path class="st0" d="M196.5,103.4C196.5,103.4,196.4,103.5,196.5,103.4l-15.4,7.9c-1.5,0.7-3.5,0.9-4.2-0.5l-0.4-0.8
								l-1.3,0.7l-7.3-14.3l3.2-1.7l-0.1-0.1c-0.4-0.7-0.1-1.9,0.7-2.2l10-5.1c1.5-0.8,3.2,0.2,4,1.6l6.6,12.9
								c0.3-0.1,0.2-0.3,0.2-0.3C194.1,101.4,195.8,102.1,196.5,103.4z"/>
						</g>
						<g>
							<path class="st1" d="M178.8,112c-0.1,0-0.1,0-0.2,0c-0.9,0-1.6-0.4-1.9-1.1l-0.4-0.7l-1.3,0.7l-0.1-0.1l-7.3-14.4l3.2-1.7
								l0,0c-0.4-0.8,0-2,0.7-2.4l10-5.1c1.6-0.8,3.4,0.2,4.1,1.7l6.5,12.8c0,0,0.1-0.1,0.1-0.1l0,0l0-0.1c0,0,0,0,0.1,0
								c1.8-0.2,3.5,0.6,4.1,1.9l0,0.1l-15.5,7.9C180.4,111.8,179.6,112,178.8,112z M176.5,109.9l0.5,0.9c0.4,0.8,1.2,1,1.8,1
								c0.7,0,1.6-0.2,2.3-0.6l15.3-7.8c-0.6-1.1-2.2-1.9-3.8-1.7c0,0.1-0.1,0.2-0.3,0.3l-0.1,0l-6.6-13c-0.7-1.3-2.3-2.3-3.8-1.6
								l-10,5.1c-0.7,0.3-0.9,1.5-0.6,2.1l0.1,0.2l-3.2,1.7l7.2,14.1L176.5,109.9z"/>
						</g>
					</g>
				</g>
				<g class="st2">
					<g>
						<g>
							<path d="M176.5,110L176.5,110L176.5,110l-1.4,0.6l-7.3-14.3l2.8-1.4c0,0.6,0.2,2.5,1.7,6.3C174.5,106.6,176.5,110,176.5,110z
								"/>
						</g>
					</g>
				</g>
				<g>
					<g>
						<g>
							<path class="st0" d="M192.1,82.2l0.6-4.3c0.2-1.2,1.3-2.1,2.5-1.9l0.5,0.1c1.2,0.2,2.1,1.3,1.9,2.5l-0.6,4.3
								c-0.1,0.8-0.9,1.4-1.7,1.3l-1.9-0.2C192.5,83.8,191.9,83,192.1,82.2z"/>
						</g>
						<g>
							<path class="st1" d="M195.4,84.3c-0.1,0-0.1,0-0.2,0l-1.9-0.2c-0.4-0.1-0.8-0.3-1.1-0.6c-0.3-0.3-0.4-0.8-0.3-1.2l0.6-4.3
								c0.1-0.6,0.4-1.2,0.9-1.5c0.5-0.4,1.1-0.5,1.7-0.5l0.5,0.1c0.6,0.1,1.2,0.4,1.5,0.9c0.4,0.5,0.5,1.1,0.5,1.7l-0.6,4.3
								c-0.1,0.4-0.3,0.8-0.6,1.1C196.1,84.1,195.8,84.3,195.4,84.3z M194.8,76c-0.5,0-0.9,0.2-1.3,0.4c-0.4,0.3-0.7,0.8-0.8,1.4
								l-0.6,4.3c0,0.4,0.1,0.7,0.3,1c0.2,0.3,0.6,0.5,0.9,0.5l1.9,0.2c0.4,0,0.7-0.1,1-0.3c0.3-0.2,0.5-0.6,0.5-0.9l0.6-4.3
								c0.1-0.6-0.1-1.1-0.4-1.6s-0.8-0.7-1.4-0.8l-0.5-0.1C195,76,194.9,76,194.8,76z"/>
						</g>
					</g>
				</g>
				<g class="st2">
					<g>
						<g>
							<path d="M195.4,84.1c-0.1,0-0.2,0-0.3,0l-1.6-0.2c-0.9-0.1-1.6-1-1.5-1.9l0.5-3.9c0.2-1.3,1.4-2.3,2.8-2.1
								c0.1,0,0.2,0,0.3,0.1c-1.1,0.1-2.1,1-2.3,2.1l-0.5,3.9c-0.1,0.9,0.5,1.8,1.5,1.9L195.4,84.1z"/>
						</g>
					</g>
				</g>
				<g>
					<g>
						<g>
							<g>
								<g>
									<g>
										<g>
											<g>
												<path class="st3" d="M183.1,107.8l-8.3-16.3c-0.3-0.5-0.1-1.2,0.5-1.5l29.9-15.3c0.5-0.3,1.2-0.1,1.5,0.5l8.3,16.3
													c0.3,0.5,0.1,1.2-0.5,1.5l-29.9,15.3C184,108.5,183.3,108.3,183.1,107.8z"/>
											</g>
										</g>
										<g>
											<g>
												<path class="st1" d="M182.9,107.9l-8.3-16.3c-0.3-0.6-0.1-1.4,0.5-1.7l29.9-15.3c0.6-0.3,1.4-0.1,1.7,0.5l8.3,16.3
													c0.3,0.6,0.1,1.4-0.5,1.7l-29.9,15.3C184,108.7,183.2,108.5,182.9,107.9z M206.5,75.3c-0.2-0.5-0.8-0.6-1.2-0.4
													l-29.9,15.3c-0.5,0.2-0.6,0.8-0.4,1.2l8.3,16.3c0.2,0.5,0.8,0.6,1.2,0.4l29.9-15.3c0.5-0.2,0.6-0.8,0.4-1.2L206.5,75.3z
													"/>
											</g>
										</g>
									</g>
									<g class="st4">
										<g>
											<g>
												<path class="st1" d="M213.6,93.4l-0.7,0.4c0.2-0.1,0.5-0.4,0.7-0.5L213.6,93.4z"/>
											</g>
										</g>
									</g>
									<g class="st2">
										<g>
											<g>
												<path class="st1" d="M209,95.8l-20.7,10.6l-6.2-12.1C189.3,99.1,199.5,99.8,209,95.8z"/>
											</g>
										</g>
									</g>
									<g>
										<g>
											<g>
												<path class="st5" d="M215,91.5l-8.3-16.3c-0.3-0.5-0.9-0.8-1.5-0.5l-2,1l9.3,18.3l2-1C215,92.7,215.2,92,215,91.5z"/>
											</g>
										</g>
										<g>
											<g>
												<path class="st1" d="M212.3,94.1L203,75.8c0-0.1,0-0.2,0.1-0.2l2-1c0.6-0.3,1.4-0.1,1.7,0.5l8.3,16.3
													c0.3,0.6,0.1,1.4-0.5,1.7l-2,1C212.4,94.2,212.3,94.2,212.3,94.1z M203.3,75.8l9.2,18l1.9-1c0.5-0.2,0.6-0.8,0.4-1.2
													l-8.3-16.3c-0.2-0.5-0.8-0.6-1.2-0.4L203.3,75.8z"/>
											</g>
										</g>
									</g>
									<g>
										<g>
											<g>
												<g>
													
														<ellipse transform="matrix(0.8907 -0.4546 0.4546 0.8907 -15.3457 104.3555)" class="st6" cx="209.3" cy="84.1" rx="0.5" ry="0.5"/>
												</g>
											</g>
										</g>
										<g class="st7">
											<g>
												<g>
													<path class="st1" d="M209.6,84.6c-0.3,0.1-0.6,0-0.7-0.2c-0.1-0.2-0.1-0.5,0.1-0.7c-0.1,0.1-0.1,0.3,0,0.5
														c0.1,0.3,0.5,0.4,0.7,0.2c0,0,0.1,0,0.1-0.1C209.8,84.5,209.7,84.6,209.6,84.6z"/>
												</g>
											</g>
										</g>
										<g>
											<g>
												<g>
													<path class="st1" d="M208.7,84.4c-0.2-0.3,0-0.8,0.3-0.9c0.3-0.2,0.8,0,0.9,0.3c0.2,0.3,0,0.8-0.3,0.9
														C209.3,84.9,208.9,84.8,208.7,84.4z M209.7,83.9c-0.1-0.2-0.3-0.3-0.5-0.2s-0.3,0.3-0.2,0.5s0.3,0.3,0.5,0.2
														S209.8,84.1,209.7,83.9z"/>
												</g>
											</g>
										</g>
									</g>
									<g>
										<g>
											<g>
												<path class="st5" d="M188.3,106.4l-9.3-18.3l-3.7,1.9c-0.5,0.3-0.8,0.9-0.5,1.5l8.3,16.3c0.3,0.5,0.9,0.8,1.5,0.5
													L188.3,106.4z"/>
											</g>
										</g>
										<g>
											<g>
												<path class="st1" d="M182.9,107.9l-8.3-16.3c-0.3-0.6-0.1-1.4,0.5-1.7l3.7-1.9c0.1,0,0.2,0,0.2,0.1l9.3,18.3
													c0,0.1,0,0.2-0.1,0.2l-3.7,1.9C184,108.7,183.2,108.5,182.9,107.9z M178.9,88.3l-3.6,1.8c-0.5,0.2-0.6,0.8-0.4,1.2
													l8.3,16.3c0.2,0.5,0.8,0.6,1.2,0.4l3.6-1.8L178.9,88.3z"/>
											</g>
										</g>
									</g>
									<g>
										<g>
											<g>
												<g>
													
														<ellipse transform="matrix(0.8907 -0.4546 0.4546 0.8907 -24.9223 93.1658)" class="st6" cx="181.3" cy="98.4" rx="1.5" ry="1.5"/>
												</g>
											</g>
										</g>
										<g class="st7">
											<g>
												<g>
													<path class="st1" d="M181.9,99.7c-0.7,0.4-1.6,0.1-2-0.6c-0.3-0.6-0.1-1.4,0.4-1.8c-0.2,0.4-0.2,0.8,0,1.2
														c0.4,0.7,1.2,1,2,0.6c0.1,0,0.2-0.1,0.2-0.2C182.5,99.3,182.3,99.5,181.9,99.7z"/>
												</g>
											</g>
										</g>
										<g>
											<g>
												<g>
													<path class="st1" d="M179.8,99.1c-0.4-0.8-0.1-1.8,0.7-2.2c0.8-0.4,1.8-0.1,2.2,0.7c0.4,0.8,0.1,1.8-0.7,2.2
														C181.2,100.3,180.2,99.9,179.8,99.1z M182.4,97.8c-0.3-0.6-1.1-0.9-1.7-0.6c-0.6,0.3-0.9,1.1-0.6,1.7
														c0.3,0.6,1.1,0.9,1.7,0.6C182.5,99.2,182.8,98.5,182.4,97.8z"/>
												</g>
											</g>
										</g>
									</g>
									<g>
										<g>
											<g>
												<path class="st1" d="M211.1,94.8c-0.6,0.3-1.2,0.6-1.8,0.9l3.6-1.9C212.3,94.1,211.7,94.5,211.1,94.8z"/>
											</g>
										</g>
									</g>
								</g>
							</g>
						</g>
					</g>
					<g>
						<g>
							<g>
								<g>
									<path class="st8" d="M204.6,86.6c-0.1,0-0.1-0.1-0.1-0.1c-0.1-0.1-0.1-0.2,0.1-0.2c0.1,0,0.2,0,0.3,0
										c0.4,0,0.5-0.2,0.5-0.5c-0.1-0.3-0.2-0.5-0.4-0.7c-0.3-0.2-0.6-0.2-0.7,0.2c0,0.2,0,0.3-0.1,0.5c0,0.3,0,0.5,0,0.8
										c0,0.4-0.2,0.8-0.6,1c-0.4,0.1-0.8,0-1.1-0.3c-0.2-0.2-0.4-0.3-0.5-0.6c-0.1-0.3-0.2-0.6-0.2-1c0-0.4,0.3-0.7,0.6-0.8
										c0.2-0.1,0.4,0,0.5,0.1c0.1,0.1,0.1,0.2-0.1,0.3c-0.1,0-0.2,0.1-0.2,0.1c-0.3,0.1-0.4,0.3-0.3,0.5c0.1,0.4,0.3,0.8,0.7,1
										c0.3,0.2,0.7,0,0.7-0.3c0.1-0.3,0.1-0.6,0.1-0.9c0-0.2,0-0.5,0.1-0.7c0.1-0.5,0.6-0.8,1.1-0.5c0.6,0.3,1,1.1,0.8,1.7
										C205.6,86.6,205.1,86.8,204.6,86.6z M208,90.3c-0.6-0.2-1.2,0-1.7,0.2C206.9,90.5,207.5,90.6,208,90.3z M205.9,89.5
										c0-0.1-0.1-0.1-0.1-0.2c-0.1-0.1-0.3-0.1-0.4-0.1c-0.2,0.1-0.4,0.2-0.6,0.3c-0.2,0.1-0.2,0.3,0,0.5
										c0.1,0.1,0.2,0.1,0.3,0.2c0.3,0.2,0.3,0.1,0.5,0c0,0,0.5-0.3,0.7-0.3C206.1,89.9,206,89.7,205.9,89.5z M207.1,88.9
										c0,0-0.1-0.1-0.1-0.1c-0.3,0-0.6,0.1-0.9,0.2c0,0,0,0,0,0.1c0,0,0.1,0.1,0.1,0.1c0.2,0,0.4,0,0.6,0c0.1,0,0.2,0,0.2-0.1
										C207.1,89,207.1,88.9,207.1,88.9z M204.7,88.3c0.1,0,0.2,0,0.2-0.2c0-0.1-0.1-0.2-0.2-0.2c-0.2-0.1-0.4,0-0.6,0.1
										C204.3,88.2,204.5,88.3,204.7,88.3z M206.3,93c-0.2-0.3-0.2-0.5,0.3-0.9c-0.3,0-0.6,0.1-0.9,0.1c-0.1,0-0.2,0-0.3,0
										c-0.1,0-0.2,0-0.3-0.1c-0.1-0.2,0-0.2,0-0.3c-0.1-0.1-0.3-0.3-0.4-0.4c-0.2-0.2,0-0.4,0.1-0.6c-0.1-0.1-0.3-0.2-0.4-0.3
										c-0.5-0.4-0.5-0.5-0.2-1c-0.2-0.2-0.5-0.3-0.7-0.5c-0.4-0.5-0.3-1.1,0.2-1.3c0.3-0.1,0.7-0.2,1-0.1
										c0.3,0.1,0.4,0.2,0.5,0.5c0.1,0.3-0.1,0.6-0.5,0.6c-0.3,0-0.6-0.1-0.8-0.3c-0.1,0-0.1-0.1-0.2-0.1c-0.1,0.1-0.1,0.3,0,0.4
										c0.2,0.2,0.4,0.4,0.7,0.5c0,0,0.1,0,0.1,0c0.3-0.1,0.5-0.3,0.8-0.4c0-0.1-0.1-0.2-0.1-0.4c0-0.1,0-0.1,0.1-0.2
										c0.1,0,0.1,0,0.2,0.1c0.1,0.1,0.1,0.3,0.2,0.4c0.3,0,0.5-0.1,0.8-0.1c0.2,0,0.4,0,0.6,0c0.3,0.1,0.4,0.3,0.2,0.6
										c-0.2,0.2-0.4,0.3-0.7,0.3c-0.2,0-0.3,0-0.5,0c0.1,0.2,0.2,0.3,0.3,0.5c0.2,0,0.3-0.1,0.5-0.1c0.4,0,0.7,0,1.1,0
										c0.1,0,0.2,0.1,0.3,0.2c0.3,0.2,0.2,0.5,0,0.6c-0.2,0.1-0.4,0.2-0.6,0.2c-0.5,0-1,0-1.5,0c-0.2,0-0.5,0-0.7,0
										c0,0-0.1,0-0.1,0c-0.2,0.1-0.2,0.2,0,0.4c0.2,0.1,0.4,0.2,0.6,0.1c0.3-0.1,0.6-0.2,0.8-0.2c0.1,0,0.2,0,0.2,0.1
										c0.1,0.1,0.1,0.2,0,0.2c-0.1,0.1-0.3,0.1-0.4,0.2c0.1,0,0.2,0,0.2,0c0.2,0,0.3,0,0.5,0.1c0.1,0,0.1,0.2,0.1,0.3
										c0,0.1-0.1,0.1-0.2,0.2c-0.1,0.1-0.3,0.1-0.4,0.2c-0.2,0.1-0.2,0.2-0.1,0.3c0.1,0.1,0.3,0.2,0.4,0.3
										C206.8,93.3,206.5,93.3,206.3,93z"/>
								</g>
							</g>
						</g>
						<g id="icon_23_">
							<g>
								<g>
									<path class="st9" d="M200.9,82.3c0.1,0,0.8,0.1,0.9,0.2c0.1,0.1,0.3,0.7,0.3,0.9c0,0.1-0.5,0.7-0.6,0.7
										c-0.1,0-0.9-0.1-0.9-0.2c-0.1-0.1-0.3-0.7-0.3-0.9c0,0,0,0,0,0l-0.2-0.4c0,0,0.2,0.1,0.4,0.1
										C200.6,82.5,200.8,82.3,200.9,82.3z M201.3,80.6c-0.2-0.1-0.3-0.3-0.2-0.5c0.1-0.2,0.3-0.3,0.5-0.2
										c0.2,0.1,0.3,0.3,0.2,0.5C201.7,80.6,201.5,80.6,201.3,80.6z M201.2,82l-0.6-0.3l-0.4,0.1l0.1-0.2l-0.1,0
										c-0.2-0.1-0.2-0.3-0.2-0.4l0.3-0.6c0.1-0.2,0.3-0.2,0.4-0.2l0.9,0.4c0.2,0.1,0.2,0.3,0.2,0.4l-0.3,0.6
										C201.5,82.1,201.4,82.1,201.2,82z M203.5,81.7c-0.1-0.2,0-0.4,0.2-0.5s0.4,0,0.5,0.2c0.1,0.2,0,0.4-0.2,0.5
										S203.6,81.9,203.5,81.7z M203.1,82.3c0,0,0.1-0.1,0.1-0.2c0,0-0.2,0-0.2,0S203,82,202.9,82c0,0,0,0.2-0.1,0.2
										c0,0-0.2,0-0.2,0.1c0,0,0.1,0.1,0.1,0.1c0,0,0,0.2,0,0.2c0,0,0.1-0.1,0.2-0.1c0,0,0.2,0.1,0.2,0.1
										C203.2,82.5,203.1,82.3,203.1,82.3z M202.6,82.8l-0.4-0.2l0.3-0.1c0,0-0.5-0.8-0.4-0.9c0-0.1,0.9-0.9,1-0.8
										c0.2,0,0.5,1.6,0.4,1.7c-0.1,0.1-0.6,0.5-0.7,0.5C202.7,83,202.6,82.8,202.6,82.8z M202.5,83.7c-0.2,0-0.3-0.2-0.3-0.4
										c0-0.2,0.2-0.3,0.4-0.3c0.2,0,0.3,0.2,0.3,0.4C202.9,83.6,202.7,83.8,202.5,83.7z"/>
								</g>
							</g>
						</g>
					</g>
				</g>
				<g>
					<g>
						<g>
							<g>
								
									<ellipse transform="matrix(0.8907 -0.4546 0.4546 0.8907 -16.7901 95.2715)" class="st0" cx="189.7" cy="82.6" rx="2.5" ry="2.5"/>
							</g>
							<g>
								<path class="st1" d="M189.7,85.1c-0.3,0-0.5,0-0.8-0.1c-0.7-0.2-1.2-0.7-1.5-1.3s-0.4-1.3-0.2-2s0.7-1.2,1.3-1.5
									c0.6-0.3,1.3-0.4,2-0.2c0.7,0.2,1.2,0.7,1.5,1.3s0.4,1.3,0.2,2s-0.7,1.2-1.3,1.5l0,0C190.5,85,190.1,85.1,189.7,85.1z
									 M189.7,80.2c-0.4,0-0.7,0.1-1.1,0.3c-0.6,0.3-1,0.8-1.2,1.4c-0.2,0.6-0.1,1.2,0.1,1.8c0.3,0.6,0.8,1,1.4,1.2
									c0.6,0.2,1.2,0.1,1.8-0.1l0,0c0.6-0.3,1-0.8,1.2-1.4c0.2-0.6,0.1-1.2-0.1-1.8c-0.3-0.6-0.8-1-1.4-1.2
									C190.2,80.2,190,80.2,189.7,80.2z"/>
							</g>
						</g>
					</g>
					<g class="st2">
						<g>
							<g>
								<path d="M189.8,85c-0.9,0-1.9-0.5-2.3-1.3c-0.6-1.2-0.1-2.7,1.1-3.3c0.6-0.3,1.3-0.3,1.9-0.1c-0.3,0-0.7,0.1-1,0.3
									c-1.2,0.6-1.7,2.1-1.1,3.3C188.7,84.4,189.2,84.8,189.8,85z"/>
							</g>
						</g>
					</g>
				</g>
				<g>
					<g>
						<g>
							<g>
								
									<ellipse transform="matrix(0.8907 -0.4546 0.4546 0.8907 -18.2099 93.6127)" class="st0" cx="185.6" cy="84.7" rx="2.2" ry="2.2"/>
							</g>
							<g>
								<path class="st1" d="M185.6,87c-0.2,0-0.5,0-0.7-0.1c-0.6-0.2-1.1-0.6-1.4-1.2s-0.3-1.2-0.1-1.8c0.2-0.6,0.6-1.1,1.2-1.4
									c0.6-0.3,1.2-0.3,1.8-0.1c0.6,0.2,1.1,0.6,1.4,1.2s0.3,1.2,0.1,1.8c-0.2,0.6-0.6,1.1-1.2,1.4C186.3,86.9,185.9,87,185.6,87z
									 M185.6,82.6c-0.3,0-0.7,0.1-1,0.2c-0.5,0.3-0.9,0.7-1,1.2c-0.2,0.5-0.1,1.1,0.1,1.6c0.3,0.5,0.7,0.9,1.2,1
									c0.5,0.2,1.1,0.1,1.6-0.1c0.5-0.3,0.9-0.7,1-1.2c0.2-0.5,0.1-1.1-0.1-1.6c-0.3-0.5-0.7-0.9-1.2-1
									C186,82.6,185.8,82.6,185.6,82.6z"/>
							</g>
						</g>
					</g>
					<g class="st2">
						<g>
							<g>
								<path d="M185.7,86.9c-0.9,0.1-1.7-0.4-2.1-1.2c-0.6-1.1-0.1-2.4,1-3c0.6-0.3,1.2-0.3,1.7-0.1c-0.3,0-0.6,0.1-0.9,0.2
									c-1.1,0.6-1.5,1.9-1,3C184.7,86.3,185.2,86.7,185.7,86.9z"/>
							</g>
						</g>
					</g>
				</g>
				<g>
					<g>
						<g>
							<g>
								
									<ellipse transform="matrix(0.8907 -0.4546 0.4546 0.8907 -19.4654 92.1456)" class="st0" cx="181.9" cy="86.6" rx="1.9" ry="1.9"/>
							</g>
							<g>
								<path class="st1" d="M181.9,88.6c-0.7,0-1.5-0.4-1.8-1.1c-0.2-0.5-0.3-1-0.1-1.6c0.2-0.5,0.5-0.9,1-1.2
									c0.5-0.2,1-0.3,1.6-0.1c0.5,0.2,0.9,0.5,1.2,1c0.5,1,0.1,2.2-0.9,2.7l0,0C182.5,88.5,182.2,88.6,181.9,88.6z M181.9,84.7
									c-0.3,0-0.6,0.1-0.8,0.2c-0.4,0.2-0.8,0.6-0.9,1.1c-0.2,0.5-0.1,1,0.1,1.4c0.5,0.9,1.6,1.3,2.5,0.8l0,0
									c0.9-0.5,1.2-1.6,0.8-2.5c-0.2-0.4-0.6-0.8-1.1-0.9C182.3,84.8,182.1,84.7,181.9,84.7z"/>
							</g>
						</g>
					</g>
					<g class="st2">
						<g>
							<g>
								<path d="M182.1,88.5c-0.8,0.1-1.5-0.3-1.9-1c-0.5-1-0.1-2.1,0.8-2.6c0.5-0.3,1.1-0.3,1.6-0.1c-0.2,0-0.5,0.1-0.7,0.2
									c-1,0.5-1.3,1.6-0.8,2.6C181.3,88,181.6,88.3,182.1,88.5z"/>
							</g>
						</g>
					</g>
				</g>
				<g>
					<g>
						<g>
							<path class="st8" d="M172.2,112L165,98c-0.2-0.3,0-0.8,0.3-0.9l2.4-1.2c0.3-0.2,0.8,0,0.9,0.3l7.2,14.1
								c0.2,0.3,0,0.8-0.3,0.9l-2.4,1.2C172.8,112.5,172.4,112.4,172.2,112z"/>
						</g>
					</g>
				</g>
				<g class="st2">
					<g>
						<g>
							<rect x="160.3" y="103.9" transform="matrix(0.4546 0.8907 -0.8907 0.4546 185.5184 -93.2096)" width="17.2" height="1.9"/>
						</g>
					</g>
				</g>
				<g>
					<g>
						<g>
							<path class="st1" d="M172.1,112.1L164.9,98c-0.2-0.4,0-1,0.4-1.2l2.4-1.2c0.4-0.2,1,0,1.2,0.4l7.2,14.1c0.2,0.4,0,1-0.4,1.2
								l-2.4,1.2C172.8,112.7,172.3,112.5,172.1,112.1z M168.5,96.2c-0.1-0.3-0.5-0.4-0.7-0.2l-2.4,1.2c-0.3,0.1-0.4,0.5-0.2,0.7
								l7.2,14.1c0.1,0.3,0.5,0.4,0.7,0.2l2.4-1.2c0.3-0.1,0.4-0.5,0.2-0.7L168.5,96.2z"/>
						</g>
					</g>
				</g>
				<g>
					<g>
						<g>
							<path class="st10" d="M158.2,99.9l5.7-2.9c0.5-0.3,1.1-0.1,1.4,0.4l7.6,14.8c0.3,0.5,0.1,1.1-0.4,1.4l-5.7,2.9"/>
						</g>
					</g>
					<g>
						<g>
							<path class="st1" d="M166.7,116.7l-0.1-0.3l5.7-2.9c0.4-0.2,0.6-0.7,0.4-1.2l-7.6-14.8c-0.2-0.4-0.7-0.6-1.2-0.4l-5.7,2.9
								l-0.1-0.3l5.7-2.9c0.6-0.3,1.3-0.1,1.6,0.5l7.6,14.8c0.3,0.6,0.1,1.3-0.5,1.6L166.7,116.7z"/>
						</g>
					</g>
				</g>
				<g>
					<g>
						<g>
							
								<ellipse transform="matrix(0.8907 -0.4546 0.4546 0.8907 -28.2772 85.2136)" class="st8" cx="163.1" cy="101.4" rx="1.2" ry="1.2"/>
						</g>
					</g>
					<g>
						<g>
							<path class="st1" d="M161.8,102c-0.3-0.7-0.1-1.5,0.6-1.9c0.7-0.3,1.5-0.1,1.9,0.6c0.3,0.7,0.1,1.5-0.6,1.9
								C163,103,162.2,102.7,161.8,102z M164,100.9c-0.3-0.5-0.9-0.7-1.4-0.5c-0.5,0.3-0.7,0.9-0.5,1.4c0.3,0.5,0.9,0.7,1.4,0.5
								C164.1,102.1,164.3,101.4,164,100.9z"/>
						</g>
					</g>
				</g>
				<g>
					<g>
						<g>
							<path class="st0" d="M181.7,111l14.7-7.5c0,0,0.1,0,0.1,0c-0.8-1.5-2.5-2.3-4.1-1.9c-0.3,0.1-11,5.6-11,5.6"/>
						</g>
						<g>
							<path class="st1" d="M181.8,111.1l-0.1-0.2l14.6-7.5c-0.8-1.4-2.4-2.1-4-1.7c-0.3,0.1-8,4.1-10.9,5.6l-0.1-0.2
								c1.1-0.6,10.6-5.5,11-5.6c1.6-0.4,3.5,0.4,4.3,1.9l0,0.1L181.8,111.1z"/>
						</g>
					</g>
				</g>
			</g>
			<g class="st11">
				<g>
					<path class="st8" d="M195,98.2l-5.6-11c-0.1-0.2,0-0.4,0.1-0.4l0,0c0.2-0.1,0.4,0,0.4,0.1l5.6,11c0.1,0.2,0,0.4-0.1,0.4l0,0
						C195.3,98.4,195.1,98.3,195,98.2z"/>
				</g>
			</g>
			<g class="st11">
				<g>
					<path class="st8" d="M196.1,97.6l-5.6-11c-0.1-0.2,0-0.4,0.1-0.4l0,0c0.2-0.1,0.4,0,0.4,0.1l5.6,11c0.1,0.2,0,0.4-0.1,0.4l0,0
						C196.4,97.8,196.2,97.7,196.1,97.6z"/>
				</g>
			</g>
			<g class="st11">
				<g>
					<path class="st8" d="M197.3,97l-5.6-11c-0.1-0.2,0-0.4,0.1-0.4l0,0c0.2-0.1,0.4,0,0.4,0.1l5.6,11c0.1,0.2,0,0.4-0.1,0.4l0,0
						C197.6,97.2,197.4,97.2,197.3,97z"/>
				</g>
			</g>
			<g class="st12">
				<g>
					<g>
						<path class="st8" d="M185.2,89.3l-0.4-0.7c-0.1-0.3,0-0.6,0.3-0.8l0.3-0.2c0.3-0.1,0.6,0,0.8,0.3l0.4,0.7
							c0.1,0.3,0,0.6-0.3,0.8l-0.3,0.2C185.7,89.7,185.3,89.6,185.2,89.3z"/>
					</g>
				</g>
				<g>
					<g>
						<path class="st8" d="M186.4,91.6l-0.4-0.7c-0.1-0.3,0-0.6,0.3-0.8l0.3-0.2c0.3-0.1,0.6,0,0.8,0.3l0.4,0.7
							c0.1,0.3,0,0.6-0.3,0.8l-0.3,0.2C186.9,92,186.5,91.8,186.4,91.6z"/>
					</g>
				</g>
				<g>
					<g>
						<path class="st8" d="M187.5,93.8l-0.4-0.7c-0.1-0.3,0-0.6,0.3-0.8l0.3-0.2c0.3-0.1,0.6,0,0.8,0.3l0.4,0.7
							c0.1,0.3,0,0.6-0.3,0.8l-0.3,0.2C188,94.2,187.7,94.1,187.5,93.8z"/>
					</g>
				</g>
				<g>
					<g>
						<path class="st8" d="M188.7,96.1l-0.4-0.7c-0.1-0.3,0-0.6,0.3-0.8l0.3-0.2c0.3-0.1,0.6,0,0.8,0.3l0.4,0.7
							c0.1,0.3,0,0.6-0.3,0.8l-0.3,0.2C189.2,96.5,188.8,96.4,188.7,96.1z"/>
					</g>
				</g>
				<g>
					<g>
						<path class="st8" d="M189.8,98.4l-0.4-0.7c-0.1-0.3,0-0.6,0.3-0.8l0.3-0.2c0.3-0.1,0.6,0,0.8,0.3l0.4,0.7
							c0.1,0.3,0,0.6-0.3,0.8l-0.3,0.2C190.3,98.8,190,98.7,189.8,98.4z"/>
					</g>
				</g>
				<g>
					<g>
						<path class="st8" d="M191,100.7l-0.4-0.7c-0.1-0.3,0-0.6,0.3-0.8l0.3-0.2c0.3-0.1,0.6,0,0.8,0.3l0.4,0.7
							c0.1,0.3,0,0.6-0.3,0.8l-0.3,0.2C191.5,101.1,191.2,101,191,100.7z"/>
					</g>
				</g>
				<g>
					<g>
						<path class="st8" d="M181.9,90.9l-0.4-0.7c-0.1-0.3,0-0.6,0.3-0.8l0.3-0.2c0.3-0.1,0.6,0,0.8,0.3l0.4,0.7
							c0.1,0.3,0,0.6-0.3,0.8l-0.3,0.2C182.4,91.4,182.1,91.2,181.9,90.9z"/>
					</g>
				</g>
				<g>
					<g>
						<path class="st8" d="M183.1,93.2l-0.4-0.7c-0.1-0.3,0-0.6,0.3-0.8l0.3-0.2c0.3-0.1,0.6,0,0.8,0.3l0.4,0.7
							c0.1,0.3,0,0.6-0.3,0.8l-0.3,0.2C183.6,93.6,183.2,93.5,183.1,93.2z"/>
					</g>
				</g>
				<g>
					<g>
						<path class="st8" d="M184.2,95.5l-0.4-0.7c-0.1-0.3,0-0.6,0.3-0.8l0.3-0.2c0.3-0.1,0.6,0,0.8,0.3l0.4,0.7
							c0.1,0.3,0,0.6-0.3,0.8l-0.3,0.2C184.7,95.9,184.4,95.8,184.2,95.5z"/>
					</g>
				</g>
				<g>
					<g>
						<path class="st8" d="M185.4,97.8l-0.4-0.7c-0.1-0.3,0-0.6,0.3-0.8l0.3-0.2c0.3-0.1,0.6,0,0.8,0.3l0.4,0.7
							c0.1,0.3,0,0.6-0.3,0.8l-0.3,0.2C185.9,98.2,185.6,98.1,185.4,97.8z"/>
					</g>
				</g>
				<g>
					<g>
						<path class="st8" d="M186.6,100.1l-0.4-0.7c-0.1-0.3,0-0.6,0.3-0.8l0.3-0.2c0.3-0.1,0.6,0,0.8,0.3l0.4,0.7
							c0.1,0.3,0,0.6-0.3,0.8l-0.3,0.2C187.1,100.5,186.7,100.4,186.6,100.1z"/>
					</g>
				</g>
				<g>
					<g>
						<path class="st8" d="M187.7,102.3l-0.4-0.7c-0.1-0.3,0-0.6,0.3-0.8l0.3-0.2c0.3-0.1,0.6,0,0.8,0.3l0.4,0.7
							c0.1,0.3,0,0.6-0.3,0.8l-0.3,0.2C188.2,102.8,187.9,102.6,187.7,102.3z"/>
					</g>
				</g>
				<g>
					<g>
						<path class="st8" d="M184.1,91.2l-0.4-0.7c-0.1-0.3,0-0.6,0.3-0.8l0.3-0.2c0.3-0.1,0.6,0,0.8,0.3l0.4,0.7
							c0.1,0.3,0,0.6-0.3,0.8l-0.3,0.2C184.6,91.6,184.2,91.4,184.1,91.2z"/>
					</g>
				</g>
				<g>
					<g>
						<path class="st8" d="M185.3,93.4l-0.4-0.7c-0.1-0.3,0-0.6,0.3-0.8l0.3-0.2c0.3-0.1,0.6,0,0.8,0.3l0.4,0.7
							c0.1,0.3,0,0.6-0.3,0.8l-0.3,0.2C185.8,93.8,185.4,93.7,185.3,93.4z"/>
					</g>
				</g>
				<g>
					<g>
						<path class="st8" d="M186.4,95.7L186,95c-0.1-0.3,0-0.6,0.3-0.8l0.3-0.2c0.3-0.1,0.6,0,0.8,0.3l0.4,0.7c0.1,0.3,0,0.6-0.3,0.8
							l-0.3,0.2C186.9,96.1,186.6,96,186.4,95.7z"/>
					</g>
				</g>
				<g>
					<g>
						<path class="st8" d="M187.6,98l-0.4-0.7c-0.1-0.3,0-0.6,0.3-0.8l0.3-0.2c0.3-0.1,0.6,0,0.8,0.3l0.4,0.7c0.1,0.3,0,0.6-0.3,0.8
							l-0.3,0.2C188.1,98.4,187.7,98.3,187.6,98z"/>
					</g>
				</g>
				<g>
					<g>
						<path class="st8" d="M188.7,100.3l-0.4-0.7c-0.1-0.3,0-0.6,0.3-0.8l0.3-0.2c0.3-0.1,0.6,0,0.8,0.3l0.4,0.7
							c0.1,0.3,0,0.6-0.3,0.8l-0.3,0.2C189.2,100.7,188.9,100.6,188.7,100.3z"/>
					</g>
				</g>
			</g>
		</g>
		<g>
			<g>
				<g>
					<g>
						<g>
							<path class="st0" d="M187.1,71.6C187.1,71.6,187.1,71.6,187.1,71.6l-14.2,18.6c-1.3,1.8-3.8,3.2-5.5,1.9l-1-0.8l-1.2,1.6
								l-17.2-13.1l3-3.9l-0.2-0.1c-0.8-0.6-1.1-2.2-0.5-3.1l9.2-12.1c1.4-1.8,4-1.7,5.8-0.4L181,72.1c0.3-0.4,0-0.4,0.1-0.4
								C183,70.5,185.6,70.4,187.1,71.6z"/>
						</g>
						<g>
							<path class="st1" d="M165.3,93l-17.4-13.3l3-3.9l0,0c-0.4-0.3-0.7-0.9-0.9-1.6c-0.1-0.7,0-1.3,0.3-1.7l9.2-12.1
								c1.5-1.9,4.3-1.7,6-0.4L181,71.8c0-0.1,0-0.1,0-0.1l0-0.1l0-0.1c0,0,0-0.1,0.1-0.1c2.1-1.2,4.6-1.2,6.2,0l0.1,0.1l-0.2,0.2
								L173,90.2c-0.7,1-1.7,1.7-2.7,2.1c-1.1,0.5-2.2,0.4-3-0.2l-0.9-0.7L165.3,93z M148.3,79.7l16.9,13l1.2-1.6l1.1,0.8
								c0.9,0.7,2,0.5,2.7,0.2c0.9-0.4,1.8-1.1,2.5-2l14.1-18.4c-1.4-1-3.8-1-5.6,0.1c0,0.1,0,0.3-0.2,0.5l-0.1,0.1l-0.1-0.1
								l-15.5-11.9c-1.6-1.2-4.2-1.5-5.6,0.3l-9.2,12.1c-0.3,0.4-0.4,0.9-0.3,1.5c0.1,0.6,0.4,1.1,0.7,1.4l0.3,0.2L148.3,79.7z"/>
						</g>
					</g>
				</g>
				<g class="st2">
					<g>
						<g>
							<path d="M166.6,91.2L166.6,91.2l-0.1,0l-1.2,1.6l-17.2-13.1l2.5-3.3c0.4,0.8,1.7,2.9,5.8,6.6
								C162.1,88.2,166.6,91.2,166.6,91.2z"/>
						</g>
					</g>
				</g>
				<g>
					<g>
						<g>
							<path class="st0" d="M169.3,48.3l-1.8-5.6c-0.5-1.6,0.4-3.3,1.9-3.8l0.6-0.2c1.6-0.5,3.3,0.4,3.8,1.9l1.8,5.6
								c0.3,1.1-0.2,2.2-1.3,2.6l-2.4,0.8C170.9,49.9,169.7,49.4,169.3,48.3z"/>
						</g>
						<g>
							<path class="st1" d="M171.3,49.8c-0.9,0-1.8-0.6-2.1-1.5l-1.8-5.6c-0.5-1.7,0.4-3.4,2-4l0.6-0.2c0.8-0.3,1.6-0.2,2.4,0.2
								c0.8,0.4,1.3,1,1.6,1.8l1.8,5.6c0.2,0.6,0.1,1.2-0.1,1.7s-0.7,0.9-1.3,1.1l-2.4,0.8C171.7,49.8,171.5,49.8,171.3,49.8z
								 M169.5,48.2c0.3,1,1.4,1.5,2.4,1.2l2.4-0.8c0.5-0.2,0.9-0.5,1.1-0.9c0.2-0.5,0.3-1,0.1-1.4l-1.8-5.6
								c-0.2-0.7-0.7-1.3-1.4-1.7c-0.7-0.3-1.5-0.4-2.2-0.2l-0.6,0.2c-1.5,0.5-2.3,2.1-1.8,3.6L169.5,48.2z"/>
						</g>
					</g>
				</g>
				<g class="st2">
					<g>
						<g>
							<path d="M174.5,48.7c-0.1,0.1-0.2,0.1-0.4,0.2l-2,0.7c-1.2,0.4-2.5-0.3-2.9-1.5l-1.7-5.1c-0.6-1.7,0.4-3.6,2.1-4.2
								c0.1,0,0.3-0.1,0.4-0.1c-1.3,0.8-2,2.4-1.5,3.9l1.7,5.1c0.4,1.2,1.7,1.8,2.9,1.5L174.5,48.7z"/>
						</g>
					</g>
				</g>
				<g>
					<g>
						<g>
							<g>
								<g>
									<g>
										<g>
											<g>
												<path class="st3" d="M173.3,84.7l-19.7-15c-0.6-0.5-0.8-1.4-0.3-2.1l27.6-36c0.5-0.6,1.4-0.8,2.1-0.3l19.7,15
													c0.6,0.5,0.8,1.4,0.3,2.1l-27.6,36C174.9,85.1,174,85.2,173.3,84.7z"/>
											</g>
										</g>
										<g>
											<g>
												<path class="st1" d="M173.2,84.9l-19.7-15c-0.7-0.6-0.9-1.6-0.3-2.4l27.6-36c0.6-0.7,1.6-0.9,2.4-0.3l19.7,15
													c0.7,0.6,0.9,1.6,0.3,2.4l-27.6,36C175,85.3,173.9,85.4,173.2,84.9z M182.9,31.4c-0.5-0.4-1.3-0.3-1.8,0.2l-27.6,36
													c-0.4,0.5-0.3,1.3,0.2,1.8l19.7,15c0.5,0.4,1.3,0.3,1.8-0.2l27.6-36c0.4-0.5,0.3-1.3-0.2-1.8L182.9,31.4z"/>
											</g>
										</g>
									</g>
									<g class="st4">
										<g>
											<g>
												<path class="st1" d="M202.2,49.4l-0.7,0.9c0.2-0.3,0.4-0.7,0.5-1L202.2,49.4z"/>
											</g>
										</g>
									</g>
									<g class="st2">
										<g>
											<g>
												<path class="st1" d="M198,55l-19.1,24.9l-14.5-11.1C175.8,70.5,188.7,65.4,198,55z"/>
											</g>
										</g>
									</g>
									<g>
										<g>
											<g>
												<path class="st5" d="M202.7,46.3l-19.7-15c-0.6-0.5-1.6-0.4-2.1,0.3l-1.9,2.5l22,16.8l1.9-2.5
													C203.4,47.7,203.3,46.8,202.7,46.3z"/>
											</g>
										</g>
										<g>
											<g>
												<path class="st1" d="M200.9,51l-22-16.8c-0.1-0.1-0.1-0.2,0-0.3l1.9-2.5c0.6-0.7,1.6-0.9,2.4-0.3l19.7,15
													c0.7,0.6,0.9,1.6,0.3,2.4l-1.9,2.5C201.2,51.1,201,51.1,200.9,51z M179.4,34L201,50.5l1.7-2.3c0.4-0.5,0.3-1.3-0.2-1.8
													l-19.7-15c-0.5-0.4-1.3-0.3-1.8,0.2L179.4,34z"/>
											</g>
										</g>
									</g>
									<g>
										<g>
											<g>
												<g>
													
														<ellipse transform="matrix(0.6076 -0.7943 0.7943 0.6076 42.9562 168.0201)" class="st6" cx="191.5" cy="40.5" rx="0.7" ry="0.7"/>
												</g>
											</g>
										</g>
										<g class="st7">
											<g>
												<g>
													<path class="st1" d="M192.1,41c-0.2,0.3-0.7,0.4-1,0.1c-0.3-0.2-0.4-0.6-0.2-0.9c0,0.2,0.1,0.4,0.3,0.6
														c0.3,0.2,0.8,0.2,1-0.1c0,0,0.1-0.1,0.1-0.1C192.3,40.7,192.3,40.9,192.1,41z"/>
												</g>
											</g>
										</g>
										<g>
											<g>
												<g>
													<path class="st1" d="M190.9,41.3c-0.4-0.3-0.5-0.9-0.2-1.3c0.3-0.4,0.9-0.5,1.3-0.2c0.4,0.3,0.5,0.9,0.2,1.3
														C191.9,41.5,191.3,41.6,190.9,41.3z M191.8,40.1c-0.2-0.2-0.5-0.1-0.7,0.1c-0.2,0.2-0.1,0.5,0.1,0.7
														c0.2,0.2,0.5,0.1,0.7-0.1S192,40.3,191.8,40.1z"/>
												</g>
											</g>
										</g>
									</g>
									<g>
										<g>
											<g>
												<path class="st5" d="M178.8,79.9l-22-16.8l-3.4,4.5c-0.5,0.6-0.4,1.6,0.3,2.1l19.7,15c0.6,0.5,1.6,0.4,2.1-0.3
													L178.8,79.9z"/>
											</g>
										</g>
										<g>
											<g>
												<path class="st1" d="M173.2,84.9l-19.7-15c-0.7-0.6-0.9-1.6-0.3-2.4l3.4-4.5c0.1-0.1,0.2-0.1,0.3,0l22,16.8
													c0.1,0.1,0.1,0.2,0,0.3l-3.4,4.5C175,85.3,173.9,85.4,173.2,84.9z M156.9,63.4l-3.3,4.3c-0.4,0.5-0.3,1.3,0.2,1.8
													l19.7,15c0.5,0.4,1.3,0.3,1.8-0.2l3.3-4.3L156.9,63.4z"/>
											</g>
										</g>
									</g>
									<g>
										<g>
											<g>
												<g>
													
														<ellipse transform="matrix(0.6076 -0.7943 0.7943 0.6076 5.9906 160.7539)" class="st6" cx="165.7" cy="74.3" rx="2" ry="2"/>
												</g>
											</g>
										</g>
										<g class="st7">
											<g>
												<g>
													<path class="st1" d="M167.2,75.5c-0.7,0.9-1.9,1-2.8,0.4c-0.8-0.6-1-1.6-0.6-2.4c0,0.6,0.3,1.1,0.8,1.5
														c0.9,0.7,2.1,0.5,2.8-0.4c0.1-0.1,0.1-0.2,0.2-0.3C167.7,74.7,167.5,75.1,167.2,75.5z"/>
												</g>
											</g>
										</g>
										<g>
											<g>
												<g>
													<path class="st1" d="M164.3,76.1c-1-0.7-1.1-2.1-0.4-3.1c0.7-1,2.1-1.1,3.1-0.4c1,0.7,1.1,2.1,0.4,3.1
														C166.7,76.6,165.3,76.8,164.3,76.1z M166.7,72.9c-0.8-0.6-1.9-0.4-2.4,0.3c-0.6,0.8-0.4,1.9,0.3,2.4
														c0.8,0.6,1.9,0.4,2.4-0.3C167.6,74.6,167.5,73.5,166.7,72.9z"/>
												</g>
											</g>
										</g>
									</g>
									<g>
										<g>
											<g>
												<path class="st1" d="M199.9,52.6c-0.6,0.7-1.2,1.4-1.7,2.1l3.3-4.4C200.9,51.1,200.5,51.8,199.9,52.6z"/>
											</g>
										</g>
									</g>
								</g>
							</g>
						</g>
					</g>
					<g>
						<g>
							<g>
								<g>
									<path class="st8" d="M187.2,46.3c-0.1,0-0.2,0-0.2-0.1c-0.2-0.1-0.2-0.2-0.1-0.3c0.1-0.1,0.2-0.2,0.4-0.2
										c0.5-0.2,0.5-0.5,0.2-0.9c-0.2-0.3-0.5-0.5-0.9-0.6c-0.5-0.1-0.8,0.2-0.7,0.7c0,0.2,0.1,0.4,0.2,0.6c0.1,0.3,0.3,0.6,0.4,1
										c0.2,0.6,0.2,1.1-0.2,1.5c-0.4,0.4-0.9,0.5-1.5,0.3c-0.3-0.1-0.6-0.2-0.9-0.4c-0.3-0.2-0.6-0.6-0.8-1.1
										c-0.2-0.5-0.1-1,0.3-1.3c0.2-0.2,0.4-0.2,0.7-0.1c0.2,0.1,0.2,0.2,0.1,0.4c-0.1,0.1-0.2,0.2-0.2,0.2
										c-0.2,0.3-0.3,0.6-0.1,0.9c0.3,0.5,0.8,0.8,1.4,0.8c0.5,0,0.8-0.3,0.7-0.8c-0.1-0.4-0.3-0.7-0.4-1.1
										c-0.1-0.3-0.3-0.6-0.3-0.9c-0.2-0.7,0.3-1.3,1.1-1.3c0.9,0,1.9,0.8,2,1.7C188.4,45.7,187.9,46.3,187.2,46.3z M193.5,48.8
										c-0.8,0.2-1.4,0.7-1.9,1.3C192.3,49.8,193,49.5,193.5,48.8z M190.5,49.2c-0.1-0.1-0.2-0.1-0.2-0.1c-0.1,0-0.4,0-0.6,0.2
										c-0.2,0.2-0.4,0.5-0.6,0.7c-0.2,0.3-0.1,0.5,0.2,0.6c0.1,0,0.3,0.1,0.5,0.1c0.4,0.1,0.5,0,0.6-0.3c0-0.1,0.5-0.6,0.7-0.8
										C190.9,49.5,190.7,49.3,190.5,49.2z M191.6,47.7c0,0-0.1-0.1-0.2,0c-0.4,0.2-0.7,0.4-1.1,0.7c0,0,0,0,0,0.1
										c0.1,0,0.1,0,0.2,0c0.3-0.1,0.5-0.2,0.7-0.4c0.1,0,0.2-0.1,0.2-0.2C191.6,47.8,191.6,47.7,191.6,47.7z M188.3,48.4
										c0.2-0.1,0.3-0.2,0.2-0.3c0-0.1-0.2-0.2-0.3-0.2c-0.3,0-0.5,0.2-0.7,0.4C187.8,48.5,188.1,48.5,188.3,48.4z M192.9,53.1
										c-0.5-0.2-0.5-0.5-0.1-1.3c-0.4,0.2-0.7,0.4-1,0.6c-0.1,0.1-0.2,0.1-0.3,0.2c-0.1,0.1-0.3,0.2-0.4,0.1
										c-0.2-0.1-0.1-0.3-0.2-0.4c-0.2-0.1-0.5-0.2-0.7-0.3c-0.3-0.2-0.2-0.5-0.2-0.8c-0.2,0-0.4-0.1-0.6-0.1
										c-0.8-0.1-0.9-0.3-0.9-1.1c-0.4-0.1-0.8-0.1-1.1-0.2c-0.8-0.3-1-1.1-0.5-1.8c0.3-0.4,0.7-0.6,1.2-0.7
										c0.3-0.1,0.7,0,0.9,0.3c0.3,0.4,0.2,0.8-0.2,1c-0.4,0.2-0.8,0.2-1.2,0.1c-0.1,0-0.2,0-0.3-0.1c-0.1,0.2,0.1,0.4,0.2,0.4
										c0.4,0.2,0.7,0.2,1.1,0.2c0,0,0.1-0.1,0.1-0.1c0.2-0.3,0.5-0.6,0.8-1c-0.1-0.1-0.2-0.2-0.4-0.4c0-0.1,0-0.2,0-0.3
										c0.1,0,0.2,0,0.3,0c0.2,0.1,0.3,0.2,0.5,0.4c0.3-0.2,0.6-0.4,0.9-0.6c0.3-0.1,0.5-0.3,0.8-0.3c0.4-0.1,0.6,0.2,0.6,0.6
										c-0.1,0.4-0.3,0.6-0.6,0.8c-0.2,0.1-0.4,0.2-0.7,0.3c0.2,0.2,0.4,0.3,0.6,0.5c0.2-0.1,0.4-0.3,0.6-0.4
										c0.4-0.2,0.9-0.4,1.3-0.6c0.2-0.1,0.3,0,0.5,0c0.4,0.1,0.6,0.4,0.3,0.8c-0.2,0.2-0.4,0.5-0.6,0.6c-0.6,0.3-1.2,0.6-1.9,1
										c-0.3,0.1-0.5,0.3-0.8,0.4c0,0-0.1,0.1-0.1,0.1c-0.2,0.3-0.2,0.4,0.2,0.5c0.3,0.1,0.5,0,0.8-0.2c0.3-0.3,0.6-0.5,0.9-0.8
										c0.1-0.1,0.2-0.1,0.3,0c0.2,0.1,0.2,0.2,0.1,0.3c-0.1,0.1-0.2,0.3-0.4,0.5c0.1-0.1,0.2-0.1,0.3-0.1
										c0.2-0.1,0.4-0.1,0.6-0.1c0.1,0,0.3,0.1,0.3,0.2c0,0.1,0,0.2-0.1,0.3c-0.1,0.2-0.3,0.3-0.4,0.4c-0.2,0.2-0.1,0.4,0.1,0.4
										c0.2,0.1,0.4,0.1,0.6,0.1C193.7,53.3,193.4,53.4,192.9,53.1z"/>
								</g>
							</g>
						</g>
						<g id="icon_21_">
							<g>
								<g>
									<path class="st9" d="M180.2,43.3c0.1-0.1,1-0.4,1.2-0.3c0.2,0.1,0.8,0.7,0.9,0.9s-0.2,1.1-0.3,1.2
										c-0.1,0.1-1.1,0.4-1.2,0.3c-0.1-0.1-0.8-0.7-0.9-0.9c0,0,0,0,0,0l-0.5-0.4c0,0,0.3-0.1,0.6-0.1
										C180,43.6,180.1,43.3,180.2,43.3z M179.7,40.9c-0.3,0-0.5-0.2-0.5-0.5c0-0.3,0.2-0.5,0.5-0.5c0.3,0,0.5,0.2,0.5,0.5
										C180.2,40.7,180,40.9,179.7,40.9z M180.4,42.8l-0.9,0l-0.4,0.4l0-0.4l-0.1,0c-0.2,0-0.4-0.2-0.4-0.4l0-0.8
										c0-0.2,0.2-0.4,0.4-0.4l1.3,0c0.2,0,0.4,0.2,0.4,0.4l0,0.8C180.8,42.6,180.6,42.8,180.4,42.8z M183.1,41
										c-0.2-0.2-0.3-0.5-0.1-0.7c0.2-0.2,0.5-0.3,0.7-0.1c0.2,0.2,0.3,0.5,0.1,0.7C183.6,41.1,183.3,41.2,183.1,41z M182.9,42
										c0,0,0.1-0.2,0-0.2c0,0-0.2,0.1-0.2,0.1c0,0-0.2-0.1-0.2-0.1c0,0,0,0.2,0,0.3c0,0-0.2,0.1-0.2,0.2s0.2,0,0.2,0.1
										c0,0,0.1,0.2,0.1,0.2s0.1-0.2,0.1-0.2c0,0,0.2,0,0.2,0C183.1,42.1,182.9,42,182.9,42z M182.6,42.9l-0.6,0l0.3-0.2
										c0,0-1-0.6-1.1-0.8c-0.1-0.2,0.5-1.6,0.8-1.6c0.3-0.1,1.5,1.6,1.4,1.8c0,0.2-0.5,1-0.6,1C182.7,43.1,182.6,42.9,182.6,42.9
										z M183,44.1c-0.2,0.1-0.5-0.1-0.5-0.3c-0.1-0.2,0.1-0.5,0.3-0.5c0.2-0.1,0.5,0.1,0.5,0.3C183.4,43.8,183.2,44,183,44.1z"/>
								</g>
							</g>
						</g>
					</g>
				</g>
				<g>
					<g>
						<g>
							<g>
								
									<ellipse transform="matrix(0.6076 -0.7943 0.7943 0.6076 25.6499 152.0815)" class="st0" cx="166.7" cy="50.1" rx="3.3" ry="3.3"/>
							</g>
							<g>
								<path class="st1" d="M166.7,53.6c-0.7,0-1.5-0.2-2.1-0.7c-0.7-0.6-1.2-1.4-1.3-2.3c-0.1-0.9,0.1-1.8,0.7-2.6
									c0.6-0.7,1.4-1.2,2.3-1.3c0.9-0.1,1.8,0.1,2.6,0.7c1.5,1.2,1.8,3.4,0.7,4.9l0,0C168.8,53.1,167.8,53.6,166.7,53.6z
									 M166.7,46.9c-0.1,0-0.3,0-0.4,0c-0.8,0.1-1.6,0.5-2.1,1.2c-0.5,0.7-0.7,1.5-0.6,2.4c0.1,0.8,0.5,1.6,1.2,2.1
									c1.4,1.1,3.4,0.8,4.5-0.6l0,0c1.1-1.4,0.8-3.4-0.6-4.5C168.1,47.1,167.4,46.9,166.7,46.9z"/>
							</g>
						</g>
					</g>
					<g class="st2">
						<g>
							<g>
								<path d="M168.3,53c-1.1,0.6-2.5,0.5-3.6-0.3c-1.5-1.1-1.7-3.2-0.6-4.7c0.6-0.7,1.4-1.2,2.2-1.3c-0.4,0.2-0.8,0.5-1.1,0.9
									c-1.1,1.5-0.8,3.6,0.6,4.7C166.6,52.9,167.5,53.1,168.3,53z"/>
							</g>
						</g>
					</g>
				</g>
				<g>
					<g>
						<g>
							<g>
								
									<ellipse transform="matrix(0.6076 -0.7943 0.7943 0.6076 20.1698 151.0043)" class="st0" cx="162.9" cy="55.1" rx="3" ry="3"/>
							</g>
							<g>
								<path class="st1" d="M162.9,58.2c-0.7,0-1.3-0.2-1.9-0.6c-0.7-0.5-1.1-1.2-1.2-2.1c-0.1-0.8,0.1-1.7,0.6-2.3
									c0.5-0.7,1.2-1.1,2.1-1.2c0.8-0.1,1.7,0.1,2.3,0.6c1.4,1.1,1.6,3,0.6,4.4l0,0C164.8,57.8,163.8,58.2,162.9,58.2z
									 M162.9,52.2c-0.1,0-0.3,0-0.4,0c-0.8,0.1-1.4,0.5-1.9,1.1c-0.5,0.6-0.7,1.3-0.6,2.1c0.1,0.8,0.5,1.4,1.1,1.9
									c1.2,1,3,0.7,4-0.5l0,0c1-1.2,0.7-3-0.5-4C164.1,52.5,163.5,52.2,162.9,52.2z"/>
							</g>
						</g>
					</g>
					<g class="st2">
						<g>
							<g>
								<path d="M164.4,57.7c-1,0.6-2.3,0.5-3.3-0.2c-1.3-1-1.6-2.9-0.6-4.2c0.5-0.7,1.3-1.1,2-1.2c-0.3,0.2-0.7,0.5-0.9,0.8
									c-1,1.3-0.8,3.2,0.6,4.2C162.9,57.6,163.6,57.8,164.4,57.7z"/>
							</g>
						</g>
					</g>
				</g>
				<g>
					<g>
						<g>
							<g>
								
									<ellipse transform="matrix(0.6076 -0.7943 0.7943 0.6076 15.3232 150.0516)" class="st0" cx="159.5" cy="59.5" rx="2.6" ry="2.6"/>
							</g>
							<g>
								<path class="st1" d="M159.5,62.3c-0.6,0-1.2-0.2-1.7-0.6c-0.6-0.4-1-1.1-1.1-1.8c-0.1-0.7,0.1-1.5,0.5-2
									c0.9-1.2,2.7-1.4,3.9-0.5c0.6,0.4,1,1.1,1.1,1.8c0.1,0.7-0.1,1.5-0.5,2l0,0c-0.4,0.6-1.1,1-1.8,1.1
									C159.8,62.3,159.6,62.3,159.5,62.3z M159.5,57.1c-0.7,0-1.5,0.3-2,1c-0.4,0.5-0.6,1.2-0.5,1.8c0.1,0.7,0.4,1.2,0.9,1.6
									s1.2,0.6,1.8,0.5c0.7-0.1,1.2-0.4,1.6-0.9l0,0c0.4-0.5,0.6-1.2,0.5-1.8c-0.1-0.7-0.4-1.2-0.9-1.6
									C160.6,57.2,160,57.1,159.5,57.1z"/>
							</g>
						</g>
					</g>
					<g class="st2">
						<g>
							<g>
								<path d="M160.9,61.8c-0.9,0.5-2.1,0.5-2.9-0.2c-1.1-0.9-1.4-2.5-0.5-3.7c0.5-0.6,1.2-1,1.9-1c-0.3,0.2-0.5,0.4-0.7,0.7
									c-0.9,1.1-0.7,2.8,0.5,3.7C159.6,61.6,160.2,61.8,160.9,61.8z"/>
							</g>
						</g>
					</g>
				</g>
				<g>
					<g>
						<g>
							<path class="st8" d="M162.6,96.2l-17-13c-0.4-0.3-0.5-0.9-0.2-1.3l2.2-2.9c0.3-0.4,0.9-0.5,1.3-0.2l17,13
								c0.4,0.3,0.5,0.9,0.2,1.3l-2.2,2.9C163.6,96.4,163,96.5,162.6,96.2z"/>
						</g>
					</g>
				</g>
				<g class="st2">
					<g>
						<g>
							<rect x="142.7" y="88.1" transform="matrix(0.7943 0.6076 -0.6076 0.7943 86.0783 -75.366)" width="23.2" height="2.6"/>
						</g>
					</g>
				</g>
				<g>
					<g>
						<g>
							<path class="st1" d="M162.4,96.4l-17-13c-0.5-0.4-0.6-1.1-0.2-1.6l2.2-2.9c0.4-0.5,1.1-0.6,1.6-0.2l17,13
								c0.5,0.4,0.6,1.1,0.2,1.6l-2.2,2.9C163.7,96.7,162.9,96.8,162.4,96.4z M148.8,79c-0.3-0.2-0.8-0.2-1,0.1l-2.2,2.9
								c-0.2,0.3-0.2,0.8,0.1,1l17,13c0.3,0.2,0.8,0.2,1-0.1l2.2-2.9c0.2-0.3,0.2-0.8-0.1-1L148.8,79z"/>
						</g>
					</g>
				</g>
				<g>
					<g>
						<g>
							<path class="st13" d="M138.4,89.6l5.2-6.9c0.5-0.6,1.3-0.7,1.9-0.3l17.8,13.6c0.6,0.5,0.7,1.3,0.3,1.9l-5.2,6.9"/>
						</g>
					</g>
					<g>
						<g>
							<path class="st1" d="M158.6,105l-0.4-0.3l5.2-6.9c0.4-0.5,0.3-1.2-0.2-1.6l-17.8-13.6c-0.5-0.4-1.2-0.3-1.6,0.2l-5.2,6.9
								l-0.4-0.3l5.2-6.9c0.5-0.7,1.6-0.8,2.3-0.3l17.8,13.6c0.7,0.5,0.8,1.6,0.3,2.3L158.6,105z"/>
						</g>
					</g>
				</g>
				<g>
					<g>
						<g>
							
								<ellipse transform="matrix(0.6076 -0.7943 0.7943 0.6076 -13.3548 150.1166)" class="st8" cx="145.2" cy="88.6" rx="1.6" ry="1.6"/>
						</g>
					</g>
					<g>
						<g>
							<path class="st1" d="M144.1,90.1c-0.8-0.6-1-1.8-0.3-2.6c0.6-0.8,1.8-1,2.6-0.3c0.8,0.6,1,1.8,0.3,2.6
								C146.1,90.5,144.9,90.7,144.1,90.1z M146.1,87.4c-0.6-0.5-1.5-0.4-2,0.3c-0.5,0.6-0.4,1.5,0.3,2s1.5,0.4,2-0.3
								C146.8,88.8,146.7,87.9,146.1,87.4z"/>
						</g>
					</g>
				</g>
				<g>
					<g>
						<g>
							<path class="st0" d="M173.5,89.4L187,71.7c0,0,0.1-0.1,0.1-0.1c-1.8-1.4-4.4-1.3-6.1,0.1c-0.4,0.3-10.1,13.2-10.1,13.2"/>
						</g>
						<g>
							<path class="st1" d="M173.6,89.5l-0.2-0.2l13.5-17.6c-1.7-1.3-4.2-1.2-5.8,0.2c-0.3,0.3-7.4,9.6-10.1,13.2l-0.2-0.2
								c1-1.3,9.8-12.9,10.1-13.2c1.7-1.5,4.5-1.5,6.3-0.1l0.1,0.1L173.6,89.5z"/>
						</g>
					</g>
				</g>
			</g>
			<g class="st11">
				<g>
					<path class="st8" d="M182.2,66L169,55.9c-0.2-0.1-0.2-0.4-0.1-0.6l0,0c0.1-0.2,0.4-0.2,0.6-0.1l13.3,10.2
						c0.2,0.1,0.2,0.4,0.1,0.6l0,0C182.7,66.2,182.4,66.2,182.2,66z"/>
				</g>
			</g>
			<g class="st11">
				<g>
					<path class="st8" d="M183.3,64.7L170,54.5c-0.2-0.1-0.2-0.4-0.1-0.6l0,0c0.1-0.2,0.4-0.2,0.6-0.1L183.8,64
						c0.2,0.1,0.2,0.4,0.1,0.6l0,0C183.8,64.8,183.5,64.8,183.3,64.7z"/>
				</g>
			</g>
			<g class="st11">
				<g>
					<path class="st8" d="M184.4,63.3l-13.3-10.2c-0.2-0.1-0.2-0.4-0.1-0.6l0,0c0.1-0.2,0.4-0.2,0.6-0.1l13.3,10.2
						c0.2,0.1,0.2,0.4,0.1,0.6l0,0C184.8,63.4,184.5,63.4,184.4,63.3z"/>
				</g>
			</g>
			<g class="st12">
				<g>
					<g>
						<path class="st8" d="M165.1,60.9l-0.9-0.7c-0.3-0.3-0.4-0.8-0.1-1.1l0.3-0.4c0.3-0.3,0.8-0.4,1.1-0.1l0.9,0.7
							c0.3,0.3,0.4,0.8,0.1,1.1l-0.3,0.4C166,61.1,165.5,61.2,165.1,60.9z"/>
					</g>
				</g>
				<g>
					<g>
						<path class="st8" d="M167.9,63l-0.9-0.7c-0.3-0.3-0.4-0.8-0.1-1.1l0.3-0.4c0.3-0.3,0.8-0.4,1.1-0.1l0.9,0.7
							c0.3,0.3,0.4,0.8,0.1,1.1l-0.3,0.4C168.7,63.2,168.2,63.3,167.9,63z"/>
					</g>
				</g>
				<g>
					<g>
						<path class="st8" d="M170.6,65.1l-0.9-0.7c-0.3-0.3-0.4-0.8-0.1-1.1l0.3-0.4c0.3-0.3,0.8-0.4,1.1-0.1l0.9,0.7
							c0.3,0.3,0.4,0.8,0.1,1.1l-0.3,0.4C171.5,65.3,171,65.4,170.6,65.1z"/>
					</g>
				</g>
				<g>
					<g>
						<path class="st8" d="M173.4,67.2l-0.9-0.7c-0.3-0.3-0.4-0.8-0.1-1.1l0.3-0.4c0.3-0.3,0.8-0.4,1.1-0.1l0.9,0.7
							c0.3,0.3,0.4,0.8,0.1,1.1l-0.3,0.4C174.2,67.4,173.7,67.5,173.4,67.2z"/>
					</g>
				</g>
				<g>
					<g>
						<path class="st8" d="M176.1,69.3l-0.9-0.7c-0.3-0.3-0.4-0.8-0.1-1.1l0.3-0.4c0.3-0.3,0.8-0.4,1.1-0.1l0.9,0.7
							c0.3,0.3,0.4,0.8,0.1,1.1l-0.3,0.4C176.9,69.5,176.4,69.6,176.1,69.3z"/>
					</g>
				</g>
				<g>
					<g>
						<path class="st8" d="M178.8,71.4l-0.9-0.7c-0.3-0.3-0.4-0.8-0.1-1.1l0.3-0.4c0.3-0.3,0.8-0.4,1.1-0.1l0.9,0.7
							c0.3,0.3,0.4,0.8,0.1,1.1l-0.3,0.4C179.7,71.6,179.2,71.7,178.8,71.4z"/>
					</g>
				</g>
				<g>
					<g>
						<path class="st8" d="M162.1,64.9l-0.9-0.7c-0.3-0.3-0.4-0.8-0.1-1.1l0.3-0.4c0.3-0.3,0.8-0.4,1.1-0.1l0.9,0.7
							c0.3,0.3,0.4,0.8,0.1,1.1l-0.3,0.4C163,65.1,162.5,65.1,162.1,64.9z"/>
					</g>
				</g>
				<g>
					<g>
						<path class="st8" d="M164.8,67l-0.9-0.7c-0.3-0.3-0.4-0.8-0.1-1.1l0.3-0.4c0.3-0.3,0.8-0.4,1.1-0.1l0.9,0.7
							c0.3,0.3,0.4,0.8,0.1,1.1l-0.3,0.4C165.7,67.2,165.2,67.2,164.8,67z"/>
					</g>
				</g>
				<g>
					<g>
						<path class="st8" d="M167.6,69.1l-0.9-0.7c-0.3-0.3-0.4-0.8-0.1-1.1l0.3-0.4c0.3-0.3,0.8-0.4,1.1-0.1l0.9,0.7
							c0.3,0.3,0.4,0.8,0.1,1.1l-0.3,0.4C168.4,69.3,167.9,69.3,167.6,69.1z"/>
					</g>
				</g>
				<g>
					<g>
						<path class="st8" d="M170.3,71.2l-0.9-0.7c-0.3-0.3-0.4-0.8-0.1-1.1l0.3-0.4c0.3-0.3,0.8-0.4,1.1-0.1l0.9,0.7
							c0.3,0.3,0.4,0.8,0.1,1.1l-0.3,0.4C171.2,71.4,170.7,71.4,170.3,71.2z"/>
					</g>
				</g>
				<g>
					<g>
						<path class="st8" d="M173.1,73.3l-0.9-0.7c-0.3-0.3-0.4-0.8-0.1-1.1l0.3-0.4c0.3-0.3,0.8-0.4,1.1-0.1l0.9,0.7
							c0.3,0.3,0.4,0.8,0.1,1.1l-0.3,0.4C173.9,73.5,173.4,73.5,173.1,73.3z"/>
					</g>
				</g>
				<g>
					<g>
						<path class="st8" d="M175.8,75.4l-0.9-0.7c-0.3-0.3-0.4-0.8-0.1-1.1l0.3-0.4c0.3-0.3,0.8-0.4,1.1-0.1l0.9,0.7
							c0.3,0.3,0.4,0.8,0.1,1.1l-0.3,0.4C176.7,75.6,176.2,75.6,175.8,75.4z"/>
					</g>
				</g>
				<g>
					<g>
						<path class="st8" d="M164.9,63.8l-0.9-0.7c-0.3-0.3-0.4-0.8-0.1-1.1l0.3-0.4c0.3-0.3,0.8-0.4,1.1-0.1l0.9,0.7
							c0.3,0.3,0.4,0.8,0.1,1.1l-0.3,0.4C165.7,64,165.2,64.1,164.9,63.8z"/>
					</g>
				</g>
				<g>
					<g>
						<path class="st8" d="M167.6,65.9l-0.9-0.7c-0.3-0.3-0.4-0.8-0.1-1.1l0.3-0.4c0.3-0.3,0.8-0.4,1.1-0.1l0.9,0.7
							c0.3,0.3,0.4,0.8,0.1,1.1l-0.3,0.4C168.5,66.1,168,66.2,167.6,65.9z"/>
					</g>
				</g>
				<g>
					<g>
						<path class="st8" d="M170.4,68l-0.9-0.7c-0.3-0.3-0.4-0.8-0.1-1.1l0.3-0.4c0.3-0.3,0.8-0.4,1.1-0.1l0.9,0.7
							c0.3,0.3,0.4,0.8,0.1,1.1l-0.3,0.4C171.2,68.2,170.7,68.3,170.4,68z"/>
					</g>
				</g>
				<g>
					<g>
						<path class="st8" d="M173.1,70.1l-0.9-0.7c-0.3-0.3-0.4-0.8-0.1-1.1l0.3-0.4c0.3-0.3,0.8-0.4,1.1-0.1l0.9,0.7
							c0.3,0.3,0.4,0.8,0.1,1.1l-0.3,0.4C174,70.3,173.5,70.4,173.1,70.1z"/>
					</g>
				</g>
				<g>
					<g>
						<path class="st8" d="M175.9,72.2l-0.9-0.7c-0.3-0.3-0.4-0.8-0.1-1.1l0.3-0.4c0.3-0.3,0.8-0.4,1.1-0.1l0.9,0.7
							c0.3,0.3,0.4,0.8,0.1,1.1l-0.3,0.4C176.7,72.4,176.2,72.5,175.9,72.2z"/>
					</g>
				</g>
			</g>
		</g>
		<g>
			<g>
				<g>
					<g>
						<g>
							<path class="st0" d="M156.8,40.3c0,0,0,0.1,0,0.1l-3.8,28c-0.4,2.7-2,5.6-4.6,5.3l-1.5-0.2l-0.3,2.4l-26-3.5l0.8-5.9l-0.2,0
								c-1.3-0.2-2.5-1.7-2.4-3l2.5-18.2c0.4-2.8,3.2-4.2,5.9-3.8l23.5,3.2c0.1-0.6-0.2-0.4-0.1-0.6
								C151.8,41.6,154.4,39.9,156.8,40.3z"/>
						</g>
						<g>
							<path class="st1" d="M146.7,76l-0.2,0l-26.2-3.5l0-0.2l0.8-5.7l-0.1,0c-0.6-0.1-1.3-0.5-1.8-1.1c-0.5-0.6-0.8-1.4-0.7-2
								l2.5-18.2c0.4-2.9,3.4-4.3,6.1-4l23.3,3.1c0-0.1,0-0.1,0-0.1l-0.1,0l-0.1-0.1c0,0,0-0.1,0-0.2c1.4-2.5,4.1-4.1,6.5-3.7l0.2,0
								l0,0.3l-3.8,28c-0.4,2.9-2.2,5.8-4.8,5.4l-1.3-0.2L146.7,76z M120.8,72.1l25.6,3.5l0.3-2.4l1.7,0.2c2.4,0.3,4-2.4,4.4-5.1
								l3.8-27.9c-2.1-0.2-4.5,1.2-5.9,3.5c0.1,0.1,0.1,0.3,0.1,0.6l0,0.2l-23.7-3.2c-2.4-0.3-5.3,1-5.7,3.7L119,63.4
								c-0.1,0.6,0.1,1.2,0.6,1.8c0.4,0.5,1,0.9,1.6,1l0.4,0.1l0,0.2L120.8,72.1z"/>
						</g>
					</g>
				</g>
				<g class="st2">
					<g>
						<g>
							<path d="M147,73.3l0,0.1l-0.1,0l-0.3,2.4l-26-3.5l0.7-5c0.9,0.6,3.5,2,10.1,3.5C140.5,72.8,147,73.3,147,73.3z"/>
						</g>
					</g>
				</g>
				<g>
					<g>
						<g>
							<path class="st0" d="M124,26.4l-5.3-4.8c-1.5-1.3-1.6-3.7-0.3-5.1l0.5-0.6c1.3-1.5,3.7-1.6,5.1-0.3l5.3,4.8
								c1,0.9,1.1,2.5,0.2,3.5l-2.1,2.3C126.6,27.3,125.1,27.3,124,26.4z"/>
						</g>
						<g>
							<path class="st1" d="M125.7,27.3c-0.7,0-1.3-0.2-1.8-0.7l-5.3-4.8c-1.6-1.4-1.7-3.8-0.3-5.4l0.5-0.6c1.4-1.6,3.8-1.7,5.4-0.3
								l5.3,4.8c0.5,0.5,0.8,1.1,0.9,1.8c0,0.7-0.2,1.4-0.7,1.9l-2.1,2.3c-0.5,0.5-1.1,0.8-1.8,0.9
								C125.8,27.2,125.7,27.3,125.7,27.3z M121.7,14.9c-0.9,0-1.9,0.4-2.6,1.1l-0.5,0.6c-0.6,0.7-0.9,1.6-0.9,2.5
								c0,0.9,0.4,1.8,1.1,2.4l5.3,4.8c0.5,0.4,1,0.6,1.7,0.6c0.6,0,1.2-0.3,1.6-0.8l2.1-2.3c0.4-0.5,0.6-1,0.6-1.7
								c0-0.6-0.3-1.2-0.8-1.6l-5.3-4.8C123.4,15.2,122.6,14.9,121.7,14.9z"/>
						</g>
					</g>
				</g>
				<g class="st2">
					<g>
						<g>
							<path d="M129.7,23.8c-0.1,0.1-0.2,0.3-0.3,0.4l-1.7,1.9c-1,1.1-2.8,1.2-3.9,0.2l-4.8-4.3c-1.6-1.5-1.8-4.1-0.3-5.7
								c0.1-0.1,0.3-0.3,0.4-0.4c-1,1.6-0.7,3.8,0.8,5.1l4.8,4.3c1.1,1,2.9,0.9,3.9-0.2L129.7,23.8z"/>
						</g>
					</g>
				</g>
				<g>
					<g>
						<g>
							<g>
								<g>
									<g>
										<g>
											<g>
												<path class="st3" d="M150.1,62.4l-29.7-4c-1-0.1-1.7-1-1.5-2l7.4-54.6c0.1-1,1-1.7,2-1.5l29.7,4c1,0.1,1.7,1,1.5,2
													l-7.4,54.6C152,61.8,151.1,62.5,150.1,62.4z"/>
											</g>
										</g>
										<g>
											<g>
												<path class="st1" d="M150.1,62.7l-29.7-4c-1.1-0.2-1.9-1.2-1.8-2.3l7.4-54.6c0.2-1.1,1.2-1.9,2.3-1.8L158,4
													c1.1,0.2,1.9,1.2,1.8,2.3l-7.4,54.6C152.2,62,151.2,62.8,150.1,62.7z M128.2,0.5c-0.8-0.1-1.6,0.5-1.7,1.3l-7.4,54.6
													c-0.1,0.8,0.5,1.6,1.3,1.7l29.7,4c0.8,0.1,1.6-0.5,1.7-1.3l7.4-54.6c0.1-0.8-0.5-1.6-1.3-1.7L128.2,0.5z"/>
											</g>
										</g>
									</g>
									<g class="st4">
										<g>
											<g>
												<path class="st1" d="M159.3,7.9l-0.2,1.4c0.1-0.4-0.1-1,0-1.4L159.3,7.9z"/>
											</g>
										</g>
									</g>
									<g class="st2">
										<g>
											<g>
												<path class="st1" d="M158.2,16.2L153.1,54l-22-3C144.2,46,154.8,32.8,158.2,16.2z"/>
											</g>
										</g>
									</g>
									<g>
										<g>
											<g>
												<path class="st5" d="M158,4.3l-29.7-4c-1-0.1-1.9,0.6-2,1.5l-0.5,3.7L159,10l0.5-3.7C159.6,5.3,158.9,4.4,158,4.3z"/>
											</g>
										</g>
										<g>
											<g>
												<path class="st1" d="M159,10.3l-33.3-4.5c-0.1,0-0.2-0.2-0.2-0.3l0.5-3.7c0.2-1.1,1.2-1.9,2.3-1.8L158,4
													c1.1,0.2,1.9,1.2,1.8,2.3l-0.5,3.7C159.2,10.2,159.1,10.3,159,10.3z M126,5.3l32.8,4.4l0.5-3.5c0.1-0.8-0.5-1.6-1.3-1.7
													l-29.7-4c-0.8-0.1-1.6,0.5-1.7,1.3L126,5.3z"/>
											</g>
										</g>
									</g>
									<g>
										<g>
											<g>
												<g>
													
														<ellipse transform="matrix(0.1336 -0.991 0.991 0.1336 118.7657 145.7249)" class="st6" cx="142.7" cy="4.9" rx="0.9" ry="0.9"/>
												</g>
											</g>
										</g>
										<g class="st7">
											<g>
												<g>
													<path class="st1" d="M143.7,5.1c-0.1,0.5-0.5,0.8-1,0.8c-0.4-0.1-0.7-0.4-0.8-0.8c0.1,0.2,0.4,0.4,0.6,0.4
														c0.5,0.1,0.9-0.3,1-0.8c0-0.1,0-0.1,0-0.2C143.7,4.7,143.7,4.9,143.7,5.1z"/>
												</g>
											</g>
										</g>
										<g>
											<g>
												<g>
													<path class="st1" d="M142.6,6.1c-0.6-0.1-1.1-0.7-1-1.3s0.7-1.1,1.3-1c0.6,0.1,1.1,0.7,1,1.3
														C143.8,5.7,143.2,6.2,142.6,6.1z M142.8,4.3c-0.3,0-0.6,0.2-0.7,0.5s0.2,0.6,0.5,0.7c0.3,0,0.6-0.2,0.7-0.5
														C143.4,4.7,143.1,4.4,142.8,4.3z"/>
												</g>
											</g>
										</g>
									</g>
									<g>
										<g>
											<g>
												<path class="st5" d="M153,54.1l-33.3-4.5l-0.9,6.8c-0.1,1,0.6,1.9,1.5,2l29.7,4c1,0.1,1.9-0.6,2-1.5L153,54.1z"/>
											</g>
										</g>
										<g>
											<g>
												<path class="st1" d="M150.1,62.7l-29.7-4c-1.1-0.2-1.9-1.2-1.8-2.3l0.9-6.8c0-0.1,0.2-0.2,0.3-0.2l33.3,4.5
													c0.1,0,0.2,0.2,0.2,0.3l-0.9,6.8C152.2,62,151.2,62.8,150.1,62.7z M120,49.9l-0.9,6.5c-0.1,0.8,0.5,1.6,1.3,1.7l29.7,4
													c0.8,0.1,1.6-0.5,1.7-1.3l0.9-6.5L120,49.9z"/>
											</g>
										</g>
									</g>
									<g>
										<g>
											<g>
												<g>
													
														<ellipse transform="matrix(0.1336 -0.991 0.991 0.1336 62.1336 183.1849)" class="st6" cx="135.8" cy="56.1" rx="2.4" ry="2.4"/>
												</g>
											</g>
										</g>
										<g class="st7">
											<g>
												<g>
													<path class="st1" d="M138.2,56.4c-0.2,1.3-1.4,2.2-2.7,2c-1.2-0.2-2-1.1-2.1-2.2c0.4,0.6,1,1,1.7,1.1
														c1.3,0.2,2.5-0.7,2.7-2c0-0.2,0-0.3,0-0.5C138.1,55.3,138.3,55.8,138.2,56.4z"/>
												</g>
											</g>
										</g>
										<g>
											<g>
												<g>
													<path class="st1" d="M135.5,58.7c-1.4-0.2-2.5-1.5-2.3-3c0.2-1.4,1.5-2.5,3-2.3s2.5,1.5,2.3,3
														C138.3,57.9,136.9,58.9,135.5,58.7z M136.1,54c-1.2-0.2-2.2,0.7-2.4,1.8c-0.2,1.2,0.7,2.2,1.8,2.4
														c1.2,0.2,2.2-0.7,2.4-1.8C138.1,55.2,137.3,54.1,136.1,54z"/>
												</g>
											</g>
										</g>
									</g>
									<g>
										<g>
											<g>
												<path class="st1" d="M158.8,12.6c-0.1,1.1-0.4,2.2-0.5,3.3l0.9-6.6C159,10.3,158.9,11.5,158.8,12.6z"/>
											</g>
										</g>
									</g>
								</g>
							</g>
						</g>
					</g>
					<g>
						<g>
							<g>
								<g>
									<path class="st8" d="M141.7,13.6c-0.1,0-0.2,0.1-0.3,0.1c-0.2,0-0.3-0.1-0.3-0.3c0.1-0.2,0.2-0.3,0.3-0.4
										c0.4-0.5,0.3-0.9-0.3-1.1c-0.4-0.2-0.9-0.3-1.3-0.1c-0.6,0.2-0.8,0.7-0.4,1.1c0.2,0.2,0.4,0.4,0.6,0.5
										c0.3,0.3,0.7,0.5,1,0.8c0.6,0.4,0.9,1,0.7,1.8c-0.2,0.7-0.7,1-1.4,1.2c-0.4,0.1-0.8,0.2-1.2,0.1c-0.5-0.1-1-0.3-1.5-0.7
										c-0.5-0.4-0.7-1-0.5-1.5c0.1-0.3,0.3-0.5,0.6-0.6c0.3,0,0.4,0.1,0.3,0.3c0,0.1-0.1,0.3-0.1,0.4c-0.1,0.4,0,0.8,0.4,1
										c0.6,0.3,1.3,0.4,2,0c0.5-0.3,0.7-0.8,0.3-1.3c-0.3-0.3-0.7-0.6-1.1-0.9c-0.3-0.3-0.6-0.5-0.9-0.8c-0.6-0.7-0.5-1.6,0.3-2
										c1-0.6,2.5-0.3,3.1,0.5C142.6,12.3,142.4,13.2,141.7,13.6z M149.8,12.5c-0.8,0.7-1,1.6-1.3,2.5
										C149.1,14.2,149.7,13.4,149.8,12.5z M146.8,14.6c-0.1,0-0.3,0-0.3,0c-0.1,0-0.4,0.3-0.5,0.5c-0.1,0.4-0.1,0.8-0.2,1.1
										c0,0.4,0.2,0.6,0.6,0.5c0.2,0,0.4-0.1,0.5-0.2c0.5-0.2,0.5-0.3,0.5-0.6c0-0.1,0.1-1,0.3-1.3
										C147.4,14.7,147.1,14.7,146.8,14.6z M147.1,12.4c0,0-0.2,0-0.2,0.1c-0.3,0.4-0.5,0.9-0.7,1.4c0,0,0,0,0.1,0.1
										c0.1,0,0.2-0.1,0.2-0.1c0.2-0.3,0.4-0.5,0.6-0.8c0.1-0.1,0.1-0.2,0.1-0.4C147.2,12.6,147.2,12.5,147.1,12.4z M144.1,15.1
										c0.1-0.1,0.2-0.3,0-0.5c-0.1-0.1-0.3,0-0.4,0c-0.3,0.2-0.4,0.5-0.5,0.9C143.6,15.5,143.9,15.4,144.1,15.1z M151.8,17.3
										c-0.6,0-0.8-0.2-0.9-1.3c-0.2,0.5-0.5,0.9-0.7,1.3c-0.1,0.1-0.1,0.3-0.2,0.4c-0.1,0.2-0.2,0.3-0.4,0.3
										c-0.3,0-0.3-0.2-0.5-0.3c-0.3,0-0.6,0.1-0.9,0.1c-0.4,0-0.5-0.4-0.7-0.7c-0.3,0.1-0.5,0.2-0.7,0.3
										c-0.9,0.3-1.2,0.2-1.6-0.6c-0.4,0.1-0.9,0.3-1.3,0.4c-1,0.2-1.7-0.5-1.6-1.6c0.1-0.6,0.3-1.1,0.8-1.4
										c0.3-0.3,0.7-0.4,1.1-0.2c0.5,0.2,0.7,0.7,0.4,1.2c-0.3,0.4-0.7,0.7-1.2,0.9c-0.1,0-0.2,0.1-0.3,0.1
										c0.1,0.3,0.3,0.3,0.5,0.3c0.5,0,0.9-0.2,1.3-0.5c0,0,0.1-0.1,0.1-0.2c0.1-0.5,0.1-1,0.2-1.5c-0.2-0.1-0.4-0.1-0.6-0.2
										c-0.1,0-0.1-0.2-0.2-0.3c0.1-0.1,0.2-0.2,0.3-0.1c0.2,0,0.5,0.1,0.7,0.1c0.2-0.4,0.3-0.8,0.6-1.2c0.2-0.3,0.4-0.6,0.7-0.8
										c0.4-0.3,0.8-0.2,0.9,0.3c0.1,0.4,0,0.8-0.2,1.2c-0.1,0.2-0.3,0.5-0.5,0.7c0.3,0,0.6,0.1,0.9,0.1c0.1-0.2,0.2-0.5,0.4-0.8
										c0.3-0.5,0.7-0.9,1-1.4c0.1-0.2,0.3-0.3,0.5-0.3c0.5-0.2,0.8,0.1,0.8,0.6c0,0.3-0.1,0.7-0.3,1c-0.4,0.7-0.9,1.4-1.4,2.1
										c-0.2,0.3-0.4,0.6-0.6,0.9c0,0.1,0,0.1-0.1,0.2c-0.1,0.4,0.1,0.6,0.5,0.4c0.4-0.1,0.6-0.3,0.7-0.7c0.1-0.5,0.3-0.9,0.5-1.3
										c0-0.1,0.2-0.2,0.3-0.2c0.2,0,0.3,0,0.3,0.3c0,0.2-0.1,0.5-0.1,0.8c0.1-0.1,0.1-0.2,0.2-0.3c0.2-0.2,0.4-0.4,0.6-0.5
										c0.1-0.1,0.4,0,0.5,0.1c0.1,0.1,0.1,0.3,0.1,0.4c0,0.2-0.2,0.5-0.2,0.7c-0.1,0.3,0.1,0.4,0.4,0.4c0.3,0,0.5-0.2,0.7-0.2
										C152.7,17,152.5,17.3,151.8,17.3z"/>
								</g>
							</g>
						</g>
						<g id="icon_22_">
							<g>
								<g>
									<path class="st9" d="M132.4,14.6c0.1-0.2,0.8-1,1.1-1.1c0.3-0.1,1.3,0.2,1.5,0.4c0.2,0.2,0.4,1.3,0.4,1.5
										c0,0.2-0.9,1.1-1.1,1.1c-0.2,0-1.3-0.2-1.5-0.4c0,0,0,0,0,0L132,16c0,0,0.3-0.3,0.5-0.5C132.4,15.1,132.4,14.8,132.4,14.6z
										 M130.5,12.4c-0.3,0.2-0.6,0.1-0.8-0.2c-0.2-0.3-0.1-0.6,0.2-0.8c0.3-0.2,0.6-0.1,0.8,0.2
										C130.9,11.9,130.8,12.2,130.5,12.4z M132.4,14l-0.9,0.5l-0.2,0.6l-0.2-0.4l-0.1,0c-0.3,0.1-0.6,0.1-0.7-0.2l-0.5-0.9
										c-0.1-0.3-0.1-0.6,0.2-0.7l1.4-0.8c0.3-0.1,0.6-0.1,0.7,0.2l0.5,0.9C132.7,13.5,132.6,13.9,132.4,14z M134.1,10.5
										c-0.3,0-0.6-0.3-0.5-0.7c0-0.3,0.3-0.6,0.7-0.5c0.3,0,0.6,0.3,0.5,0.7C134.7,10.3,134.4,10.6,134.1,10.5z M134.5,11.6
										c0,0-0.1-0.3-0.1-0.3c0,0-0.2,0.2-0.2,0.2c0,0-0.3,0-0.3,0c0,0,0.2,0.2,0.2,0.2c0,0-0.1,0.3-0.1,0.3c0,0,0.3-0.1,0.3-0.1
										c0,0,0.2,0.2,0.3,0.2c0,0,0-0.3,0-0.3c0,0,0.2-0.1,0.2-0.2C134.8,11.6,134.6,11.6,134.5,11.6z M134.7,12.8l-0.7,0.4
										l0.2-0.4c0,0-1.4-0.1-1.6-0.2c-0.2-0.1-0.4-2-0.2-2.2c0.2-0.2,2.5,0.8,2.6,1c0.1,0.2,0,1.3,0,1.4
										C135,12.9,134.7,12.8,134.7,12.8z M135.9,13.8c-0.2,0.2-0.5,0.2-0.7,0c-0.2-0.2-0.2-0.5,0-0.7c0.2-0.2,0.5-0.2,0.7,0
										C136.1,13.2,136.1,13.6,135.9,13.8z"/>
								</g>
							</g>
						</g>
					</g>
				</g>
				<g>
					<g>
						<g>
							<g>
								<ellipse transform="matrix(0.1336 -0.991 0.991 0.1336 76.3853 147.175)" class="st0" cx="122.4" cy="29.9" rx="4" ry="4"/>
							</g>
							<g>
								<path class="st1" d="M122.4,34.1c-0.2,0-0.4,0-0.6,0c-2.3-0.3-3.9-2.4-3.6-4.8c0.3-2.3,2.4-3.9,4.8-3.6
									c1.1,0.2,2.1,0.7,2.8,1.6s1,2,0.8,3.1C126.3,32.6,124.5,34.1,122.4,34.1z M122.4,26c-1.9,0-3.6,1.4-3.8,3.4
									c-0.3,2.1,1.2,4.1,3.3,4.3c2.1,0.3,4.1-1.2,4.3-3.3c0.1-1-0.1-2-0.8-2.9s-1.5-1.3-2.6-1.5C122.7,26,122.5,26,122.4,26z"/>
							</g>
						</g>
					</g>
					<g class="st2">
						<g>
							<g>
								<path d="M125.8,32.1c-0.8,1.3-2.3,2.1-4,1.9c-2.2-0.3-3.8-2.3-3.5-4.6c0.1-1.1,0.7-2.1,1.6-2.7c-0.3,0.5-0.5,1-0.6,1.6
									c-0.3,2.2,1.3,4.3,3.5,4.6C123.9,33,125,32.7,125.8,32.1z"/>
							</g>
						</g>
					</g>
				</g>
				<g>
					<g>
						<g>
							<g>
								
									<ellipse transform="matrix(0.1336 -0.991 0.991 0.1336 67.9897 152.7284)" class="st0" cx="121.3" cy="37.5" rx="3.6" ry="3.6"/>
							</g>
							<g>
								<path class="st1" d="M121.4,41.3c-0.2,0-0.3,0-0.5,0c-2.1-0.3-3.5-2.2-3.3-4.3c0.1-1,0.7-1.9,1.5-2.5
									c0.8-0.6,1.8-0.9,2.8-0.7c1,0.1,1.9,0.7,2.5,1.5c0.6,0.8,0.9,1.8,0.7,2.8c-0.1,1-0.7,1.9-1.5,2.5
									C123,41,122.2,41.3,121.4,41.3z M121.3,34c-0.8,0-1.5,0.2-2.1,0.7c-0.7,0.6-1.2,1.4-1.3,2.3c-0.3,1.9,1.1,3.6,3,3.9
									c1.9,0.3,3.6-1.1,3.9-3c0.3-1.9-1.1-3.6-3-3.9C121.6,34,121.5,34,121.3,34z"/>
							</g>
						</g>
					</g>
					<g class="st2">
						<g>
							<g>
								<path d="M124.5,39.3c-0.7,1.2-2.1,1.9-3.6,1.7c-2-0.3-3.4-2.1-3.1-4.1c0.1-1,0.7-1.9,1.5-2.4c-0.2,0.4-0.4,0.9-0.5,1.4
									c-0.3,2,1.1,3.8,3.1,4.1C122.8,40.1,123.7,39.9,124.5,39.3z"/>
							</g>
						</g>
					</g>
				</g>
				<g>
					<g>
						<g>
							<g>
								
									<ellipse transform="matrix(0.1336 -0.991 0.991 0.1336 60.5646 157.6398)" class="st0" cx="120.4" cy="44.2" rx="3.2" ry="3.2"/>
							</g>
							<g>
								<path class="st1" d="M120.4,47.5c-0.1,0-0.3,0-0.4,0c-1.8-0.2-3.1-1.9-2.9-3.8c0.2-1.8,1.9-3.1,3.8-2.9
									c0.9,0.1,1.7,0.6,2.2,1.3s0.8,1.6,0.7,2.5l0,0C123.5,46.3,122.1,47.5,120.4,47.5z M120.4,41.2c-1.5,0-2.8,1.1-3,2.6
									c-0.2,1.6,0.9,3.1,2.6,3.4c1.6,0.2,3.1-0.9,3.4-2.6c0.2-1.6-0.9-3.1-2.6-3.4C120.7,41.2,120.6,41.2,120.4,41.2z"/>
							</g>
						</g>
					</g>
					<g class="st2">
						<g>
							<g>
								<path d="M123.2,45.7c-0.6,1.1-1.9,1.8-3.2,1.6c-1.7-0.2-2.9-1.8-2.7-3.6c0.1-0.9,0.6-1.7,1.4-2.2c-0.2,0.3-0.3,0.7-0.4,1.1
									c-0.2,1.7,1,3.3,2.7,3.6C121.8,46.4,122.6,46.2,123.2,45.7z"/>
							</g>
						</g>
					</g>
				</g>
				<g>
					<g>
						<g>
							<path class="st8" d="M145.7,81l-25.7-3.5c-0.6-0.1-1.1-0.7-1-1.3l0.6-4.4c0.1-0.6,0.7-1.1,1.3-1l25.7,3.5
								c0.6,0.1,1.1,0.7,1,1.3L147,80C146.9,80.6,146.4,81.1,145.7,81z"/>
						</g>
					</g>
				</g>
				<g class="st2">
					<g>
						<g>
							<rect x="118.9" y="77.2" transform="matrix(0.991 0.1336 -0.1336 0.991 11.7196 -17.0588)" width="28.2" height="3.1"/>
						</g>
					</g>
				</g>
				<g>
					<g>
						<g>
							<path class="st1" d="M145.7,81.2L120,77.8c-0.8-0.1-1.3-0.8-1.2-1.6l0.6-4.4c0.1-0.8,0.8-1.3,1.6-1.2l25.7,3.5
								c0.8,0.1,1.3,0.8,1.2,1.6l-0.6,4.4C147.2,80.8,146.5,81.4,145.7,81.2z M120.9,71.1c-0.5-0.1-0.9,0.3-1,0.8l-0.6,4.4
								c-0.1,0.5,0.3,0.9,0.8,1l25.7,3.5c0.5,0.1,0.9-0.3,1-0.8l0.6-4.4c0.1-0.5-0.3-0.9-0.8-1L120.9,71.1z"/>
						</g>
					</g>
				</g>
				<g>
					<g>
						<g>
							<path class="st14" d="M116.3,88.6l1.4-10.4c0.1-0.9,1-1.6,1.9-1.4l27,3.6c0.9,0.1,1.6,1,1.4,1.9l-1.4,10.4"/>
						</g>
					</g>
					<g>
						<g>
							<path class="st1" d="M146.9,92.7l-0.5-0.1l1.4-10.4c0.1-0.8-0.4-1.5-1.2-1.6l-27-3.6c-0.8-0.1-1.5,0.4-1.6,1.2l-1.4,10.4
								l-0.5-0.1l1.4-10.4c0.1-1.1,1.1-1.8,2.2-1.7l27,3.6c1.1,0.1,1.8,1.1,1.7,2.2L146.9,92.7z"/>
						</g>
					</g>
				</g>
				<g>
					<g>
						<g>
							<ellipse transform="matrix(0.1336 -0.991 0.991 0.1336 23.8459 194.0185)" class="st8" cx="122.9" cy="83.4" rx="2" ry="2"/>
						</g>
					</g>
					<g>
						<g>
							<path class="st1" d="M122.6,85.6c-1.2-0.2-2.1-1.3-1.9-2.5c0.2-1.2,1.3-2.1,2.5-1.9c1.2,0.2,2.1,1.3,1.9,2.5
								C125,84.9,123.8,85.8,122.6,85.6z M123.1,81.7c-0.9-0.1-1.8,0.5-1.9,1.5c-0.1,0.9,0.5,1.8,1.5,1.9c0.9,0.1,1.8-0.5,1.9-1.5
								C124.7,82.7,124.1,81.8,123.1,81.7z"/>
						</g>
					</g>
				</g>
				<g>
					<g>
						<g>
							<path class="st0" d="M153.1,67.2l3.6-26.7c0,0,0-0.1,0-0.1c-2.7-0.4-5.5,1.3-6.4,3.8c-0.2,0.5-2.7,20-2.7,20"/>
						</g>
						<g>
							<path class="st1" d="M153.3,67.2l-0.4,0l3.6-26.7c-2.6-0.3-5.2,1.3-6,3.7c-0.2,0.5-2,14.5-2.7,19.9l-0.4,0
								c0.3-2,2.5-19.5,2.7-20c0.9-2.6,3.8-4.3,6.6-3.9l0.2,0L153.3,67.2z"/>
						</g>
					</g>
				</g>
			</g>
			<g class="st11">
				<g>
					<path class="st8" d="M148.3,37.4l-20.1-2.7c-0.3,0-0.5-0.3-0.5-0.6h0c0-0.3,0.3-0.5,0.6-0.5l20.1,2.7c0.3,0,0.5,0.3,0.5,0.6
						l0,0C148.9,37.2,148.6,37.4,148.3,37.4z"/>
				</g>
			</g>
			<g class="st11">
				<g>
					<path class="st8" d="M148.6,35.3l-20.1-2.7c-0.3,0-0.5-0.3-0.5-0.6v0c0-0.3,0.3-0.5,0.6-0.5l20.1,2.7c0.3,0,0.5,0.3,0.5,0.6
						l0,0C149.1,35.1,148.9,35.3,148.6,35.3z"/>
				</g>
			</g>
			<g class="st11">
				<g>
					<path class="st8" d="M148.9,33.2l-20.1-2.7c-0.3,0-0.5-0.3-0.5-0.6v0c0-0.3,0.3-0.5,0.6-0.5l20.1,2.7c0.3,0,0.5,0.3,0.5,0.6
						l0,0C149.4,33,149.2,33.2,148.9,33.2z"/>
				</g>
			</g>
			<g class="st12">
				<g>
					<g>
						<path class="st8" d="M127.2,42.3l-1.3-0.2c-0.5-0.1-0.9-0.6-0.8-1.1l0.1-0.6c0.1-0.5,0.6-0.9,1.1-0.8l1.3,0.2
							c0.5,0.1,0.9,0.6,0.8,1.1l-0.1,0.6C128.2,42,127.7,42.3,127.2,42.3z"/>
					</g>
				</g>
				<g>
					<g>
						<path class="st8" d="M131.3,42.8l-1.3-0.2c-0.5-0.1-0.9-0.6-0.8-1.1l0.1-0.6c0.1-0.5,0.6-0.9,1.1-0.8l1.3,0.2
							c0.5,0.1,0.9,0.6,0.8,1.1l-0.1,0.6C132.4,42.5,131.9,42.9,131.3,42.8z"/>
					</g>
				</g>
				<g>
					<g>
						<path class="st8" d="M135.5,43.4l-1.3-0.2c-0.5-0.1-0.9-0.6-0.8-1.1l0.1-0.6c0.1-0.5,0.6-0.9,1.1-0.8l1.3,0.2
							c0.5,0.1,0.9,0.6,0.8,1.1l-0.1,0.6C136.5,43.1,136,43.5,135.5,43.4z"/>
					</g>
				</g>
				<g>
					<g>
						<path class="st8" d="M139.7,44l-1.3-0.2c-0.5-0.1-0.9-0.6-0.8-1.1l0.1-0.6c0.1-0.5,0.6-0.9,1.1-0.8l1.3,0.2
							c0.5,0.1,0.9,0.6,0.8,1.1l-0.1,0.6C140.7,43.7,140.2,44,139.7,44z"/>
					</g>
				</g>
				<g>
					<g>
						<path class="st8" d="M143.8,44.5l-1.3-0.2c-0.5-0.1-0.9-0.6-0.8-1.1l0.1-0.6c0.1-0.5,0.6-0.9,1.1-0.8l1.3,0.2
							c0.5,0.1,0.9,0.6,0.8,1.1l-0.1,0.6C144.8,44.2,144.3,44.6,143.8,44.5z"/>
					</g>
				</g>
				<g>
					<g>
						<path class="st8" d="M148,45.1l-1.3-0.2c-0.5-0.1-0.9-0.6-0.8-1.1l0.1-0.6c0.1-0.5,0.6-0.9,1.1-0.8l1.3,0.2
							c0.5,0.1,0.9,0.6,0.8,1.1l-0.1,0.6C149,44.8,148.5,45.2,148,45.1z"/>
					</g>
				</g>
				<g>
					<g>
						<path class="st8" d="M126.4,48.2l-1.3-0.2c-0.5-0.1-0.9-0.6-0.8-1.1l0.1-0.6c0.1-0.5,0.6-0.9,1.1-0.8l1.3,0.2
							c0.5,0.1,0.9,0.6,0.8,1.1l-0.1,0.6C127.4,47.9,126.9,48.3,126.4,48.2z"/>
					</g>
				</g>
				<g>
					<g>
						<path class="st8" d="M130.5,48.8l-1.3-0.2c-0.5-0.1-0.9-0.6-0.8-1.1l0.1-0.6c0.1-0.5,0.6-0.9,1.1-0.8l1.3,0.2
							c0.5,0.1,0.9,0.6,0.8,1.1l-0.1,0.6C131.6,48.5,131.1,48.9,130.5,48.8z"/>
					</g>
				</g>
				<g>
					<g>
						<path class="st8" d="M134.7,49.4l-1.3-0.2c-0.5-0.1-0.9-0.6-0.8-1.1l0.1-0.6c0.1-0.5,0.6-0.9,1.1-0.8l1.3,0.2
							c0.5,0.1,0.9,0.6,0.8,1.1l-0.1,0.6C135.7,49.1,135.2,49.4,134.7,49.4z"/>
					</g>
				</g>
				<g>
					<g>
						<path class="st8" d="M138.8,49.9l-1.3-0.2c-0.5-0.1-0.9-0.6-0.8-1.1l0.1-0.6c0.1-0.5,0.6-0.9,1.1-0.8l1.3,0.2
							c0.5,0.1,0.9,0.6,0.8,1.1l-0.1,0.6C139.9,49.6,139.4,50,138.8,49.9z"/>
					</g>
				</g>
				<g>
					<g>
						<path class="st8" d="M143,50.5l-1.3-0.2c-0.5-0.1-0.9-0.6-0.8-1.1l0.1-0.6c0.1-0.5,0.6-0.9,1.1-0.8l1.3,0.2
							c0.5,0.1,0.9,0.6,0.8,1.1l-0.1,0.6C144,50.2,143.5,50.6,143,50.5z"/>
					</g>
				</g>
				<g>
					<g>
						<path class="st8" d="M147.2,51l-1.3-0.2c-0.5-0.1-0.9-0.6-0.8-1.1l0.1-0.6c0.1-0.5,0.6-0.9,1.1-0.8l1.3,0.2
							c0.5,0.1,0.9,0.6,0.8,1.1l-0.1,0.6C148.2,50.7,147.7,51.1,147.2,51z"/>
					</g>
				</g>
				<g>
					<g>
						<path class="st8" d="M128.7,45.5l-1.3-0.2c-0.5-0.1-0.9-0.6-0.8-1.1l0.1-0.6c0.1-0.5,0.6-0.9,1.1-0.8L129,43
							c0.5,0.1,0.9,0.6,0.8,1.1l-0.1,0.6C129.7,45.2,129.2,45.6,128.7,45.5z"/>
					</g>
				</g>
				<g>
					<g>
						<path class="st8" d="M132.8,46.1l-1.3-0.2c-0.5-0.1-0.9-0.6-0.8-1.1l0.1-0.6c0.1-0.5,0.6-0.9,1.1-0.8l1.3,0.2
							c0.5,0.1,0.9,0.6,0.8,1.1l-0.1,0.6C133.9,45.8,133.4,46.1,132.8,46.1z"/>
					</g>
				</g>
				<g>
					<g>
						<path class="st8" d="M137,46.6l-1.3-0.2c-0.5-0.1-0.9-0.6-0.8-1.1l0.1-0.6c0.1-0.5,0.6-0.9,1.1-0.8l1.3,0.2
							c0.5,0.1,0.9,0.6,0.8,1.1l-0.1,0.6C138,46.3,137.5,46.7,137,46.6z"/>
					</g>
				</g>
				<g>
					<g>
						<path class="st8" d="M141.2,47.2l-1.3-0.2c-0.5-0.1-0.9-0.6-0.8-1.1l0.1-0.6c0.1-0.5,0.6-0.9,1.1-0.8l1.3,0.2
							c0.5,0.1,0.9,0.6,0.8,1.1l-0.1,0.6C142.2,46.9,141.7,47.3,141.2,47.2z"/>
					</g>
				</g>
				<g>
					<g>
						<path class="st8" d="M145.3,47.8l-1.3-0.2c-0.5-0.1-0.9-0.6-0.8-1.1l0.1-0.6c0.1-0.5,0.6-0.9,1.1-0.8l1.3,0.2
							c0.5,0.1,0.9,0.6,0.8,1.1l-0.1,0.6C146.3,47.5,145.8,47.8,145.3,47.8z"/>
					</g>
				</g>
			</g>
		</g>
		<g>
			<g>
				<circle class="st8" cx="122" cy="136.2" r="51"/>
			</g>
		</g>
	</g>
	<g>
		<g>
			<g>
				<path class="st10" d="M98.2,115.9H76.6c-5.2,0-9.5-4.3-9.5-9.5V83c0-5.2,4.3-9.5,9.5-9.5h21.7c5.2,0,9.5,4.3,9.5,9.5v23.4
					C107.7,111.6,103.5,115.9,98.2,115.9z"/>
			</g>
		</g>
		<g class="st2">
			<g>
				<path d="M98.2,115.9H76.6c-5.2,0-9.5-4.3-9.5-9.5V83c0-5.2,4.3-9.5,9.5-9.5h21.7c5.2,0,9.5,4.3,9.5,9.5v23.4
					C107.7,111.6,103.5,115.9,98.2,115.9z"/>
			</g>
		</g>
	</g>
	<g>
		<g>
			<g>
				<path class="st5" d="M168.8,135.7c0,26.1-21.1,47.2-47.2,47.2c-7.3,0-14.3-1.7-20.5-4.7c-3-1.4-5.8-3.2-8.4-5.2
					c-11.1-8.6-18.3-22.1-18.3-37.3c0-21,13.8-38.9,32.8-45c1.8-0.6,3.7-1.1,5.6-1.4c2.9-0.6,5.8-0.8,8.8-0.8
					C147.7,88.5,168.8,109.6,168.8,135.7z"/>
			</g>
		</g>
		<g class="st2">
			<g>
				<path d="M168.8,135.7c0,26.1-21.1,47.2-47.2,47.2c-7.3,0-14.3-1.7-20.5-4.7c-3-1.4-5.8-3.2-8.4-5.2c-5-3.9-9.2-8.8-12.3-14.3
					c1.2,1.2,2.5,2.3,3.8,3.3c2.6,2,5.4,3.8,8.4,5.2c6.2,3,13.2,4.7,20.5,4.7c26.1,0,47.2-21.1,47.2-47.2c0-8.3-2.2-16.1-5.9-22.9
					C163.3,110.3,168.8,122.3,168.8,135.7z"/>
			</g>
		</g>
		<g>
			<g>
				<path class="st15" d="M155,102.3l-33.4,33.4V88.5C134.6,88.5,146.4,93.8,155,102.3z"/>
			</g>
		</g>
		<g>
			<g>
				<path class="st6" d="M121.6,99.4c-0.8,0-1.4-0.6-1.4-1.4v-9.5c0-0.8,0.6-1.4,1.4-1.4s1.4,0.6,1.4,1.4v9.5
					C123.1,98.7,122.4,99.4,121.6,99.4z"/>
			</g>
		</g>
		<g>
			<g>
				<path class="st6" d="M155,170c-0.4,0-0.7-0.1-1-0.4l-6.7-6.7c-0.6-0.6-0.6-1.5,0-2c0.6-0.6,1.5-0.6,2,0l6.7,6.7
					c0.6,0.6,0.6,1.5,0,2C155.7,169.9,155.4,170,155,170z"/>
			</g>
		</g>
		<g>
			<g>
				<path class="st6" d="M121.8,183.8c-0.8,0-1.4-0.6-1.4-1.4v-9.5c0-0.8,0.6-1.4,1.4-1.4s1.4,0.6,1.4,1.4v9.5
					C123.3,183.2,122.6,183.8,121.8,183.8z"/>
			</g>
		</g>
		<g>
			<g>
				<path class="st6" d="M88.6,170.2c-0.4,0-0.7-0.1-1-0.4c-0.6-0.6-0.6-1.5,0-2l6.7-6.7c0.6-0.6,1.5-0.6,2,0c0.6,0.6,0.6,1.5,0,2
					l-6.7,6.7C89.3,170,89,170.2,88.6,170.2z"/>
			</g>
		</g>
		<g>
			<g>
				<path class="st6" d="M84.2,137h-9.5c-0.8,0-1.4-0.6-1.4-1.4s0.6-1.4,1.4-1.4h9.5c0.8,0,1.4,0.6,1.4,1.4S85,137,84.2,137z"/>
			</g>
		</g>
		<g>
			<g>
				<path class="st6" d="M95.1,110.5c-0.4,0-0.7-0.1-1-0.4l-6.7-6.7c-0.6-0.6-0.6-1.5,0-2c0.6-0.6,1.5-0.6,2,0l6.7,6.7
					c0.6,0.6,0.6,1.5,0,2C95.9,110.3,95.5,110.5,95.1,110.5z"/>
			</g>
		</g>
		<g>
			<g>
				<path class="st6" d="M148.1,110.3c-0.4,0-0.7-0.1-1-0.4c-0.6-0.6-0.6-1.5,0-2l6.7-6.7c0.6-0.6,1.5-0.6,2,0c0.6,0.6,0.6,1.5,0,2
					l-6.7,6.7C148.9,110.2,148.5,110.3,148.1,110.3z"/>
			</g>
		</g>
		<g>
			<g>
				<path class="st6" d="M168.7,136.8h-9.5c-0.8,0-1.4-0.6-1.4-1.4s0.6-1.4,1.4-1.4h9.5c0.8,0,1.4,0.6,1.4,1.4
					S169.5,136.8,168.7,136.8z"/>
			</g>
		</g>
		<g>
			<g>
				<path class="st1" d="M121.6,183.6c-26.4,0-47.9-21.5-47.9-47.9s21.5-47.9,47.9-47.9c26.4,0,47.9,21.5,47.9,47.9
					S148,183.6,121.6,183.6z M121.6,89.2c-25.6,0-46.5,20.8-46.5,46.5c0,25.6,20.8,46.5,46.5,46.5s46.5-20.8,46.5-46.5
					C168.1,110,147.2,89.2,121.6,89.2z"/>
			</g>
		</g>
	</g>
	<g>
		<g>
			<g>
				<path class="st1" d="M107.6,91.4c-0.4,0-0.7-0.3-0.7-0.7v-9.4c0-3.8-3.2-7-7-7c-3.8,0-6.9,3.1-6.9,6.9c0,0.4-0.3,0.7-0.7,0.7
					s-0.7-0.3-0.7-0.7c0-4.6,3.8-8.4,8.4-8.4c4.7,0,8.5,3.8,8.5,8.4v9.4C108.3,91.1,108,91.4,107.6,91.4z"/>
			</g>
		</g>
		<g>
			<g>
				<path class="st10" d="M99.8,73.7c-4.2,0-7.7,3.5-7.7,7.7v92.2c0,4.2-3.4,7.7-7.7,7.7H39.2c-4.2,0-7.7-3.4-7.7-7.7V81.4
					c0-4.2,3.5-7.7,7.7-7.7H99.8z"/>
			</g>
			<g>
				<path class="st1" d="M84.4,182H39.2c-4.6,0-8.4-3.8-8.4-8.4V81.4c0-4.6,3.8-8.4,8.4-8.4h60.6c0.4,0,0.7,0.3,0.7,0.7
					s-0.3,0.7-0.7,0.7c-3.8,0-6.9,3.1-6.9,6.9v92.2C92.8,178.2,89.1,182,84.4,182z M39.2,74.4c-3.8,0-6.9,3.1-6.9,6.9v92.2
					c0,3.8,3.1,6.9,6.9,6.9h45.3c3.8,0,6.9-3.1,6.9-6.9V81.4c0-2.9,1.5-5.4,3.7-6.9H39.2z"/>
			</g>
		</g>
	</g>
	<g>
		<g>
			<g>
				<line class="st3" x1="37.6" y1="87.9" x2="85.1" y2="87.9"/>
			</g>
			<g>
				<path class="st3" d="M85.1,88.6H37.6c-0.4,0-0.7-0.3-0.7-0.7s0.3-0.7,0.7-0.7h47.5c0.4,0,0.7,0.3,0.7,0.7S85.5,88.6,85.1,88.6z"
					/>
			</g>
		</g>
		<g>
			<g>
				<line class="st3" x1="37.6" y1="97.4" x2="85.1" y2="97.4"/>
			</g>
			<g>
				<path class="st3" d="M85.1,98.2H37.6c-0.4,0-0.7-0.3-0.7-0.7s0.3-0.7,0.7-0.7h47.5c0.4,0,0.7,0.3,0.7,0.7S85.5,98.2,85.1,98.2z"
					/>
			</g>
		</g>
		<g>
			<g>
				<line class="st3" x1="37.6" y1="107" x2="85.1" y2="107"/>
			</g>
			<g>
				<path class="st3" d="M85.1,107.8H37.6c-0.4,0-0.7-0.3-0.7-0.7s0.3-0.7,0.7-0.7h47.5c0.4,0,0.7,0.3,0.7,0.7
					S85.5,107.8,85.1,107.8z"/>
			</g>
		</g>
		<g>
			<g>
				<line class="st3" x1="37.6" y1="116.6" x2="85.1" y2="116.6"/>
			</g>
			<g>
				<path class="st3" d="M85.1,117.3H37.6c-0.4,0-0.7-0.3-0.7-0.7s0.3-0.7,0.7-0.7h47.5c0.4,0,0.7,0.3,0.7,0.7
					S85.5,117.3,85.1,117.3z"/>
			</g>
		</g>
		<g>
			<g>
				<line class="st3" x1="37.6" y1="126.2" x2="85.1" y2="126.2"/>
			</g>
			<g>
				<path class="st3" d="M85.1,126.9H37.6c-0.4,0-0.7-0.3-0.7-0.7s0.3-0.7,0.7-0.7h47.5c0.4,0,0.7,0.3,0.7,0.7
					S85.5,126.9,85.1,126.9z"/>
			</g>
		</g>
		<g>
			<g>
				<line class="st3" x1="37.6" y1="135.8" x2="85.1" y2="135.8"/>
			</g>
			<g>
				<path class="st3" d="M85.1,136.5H37.6c-0.4,0-0.7-0.3-0.7-0.7s0.3-0.7,0.7-0.7h47.5c0.4,0,0.7,0.3,0.7,0.7
					S85.5,136.5,85.1,136.5z"/>
			</g>
		</g>
		<g>
			<g>
				<line class="st3" x1="37.6" y1="145.4" x2="85.1" y2="145.4"/>
			</g>
			<g>
				<path class="st3" d="M85.1,146.1H37.6c-0.4,0-0.7-0.3-0.7-0.7s0.3-0.7,0.7-0.7h47.5c0.4,0,0.7,0.3,0.7,0.7
					S85.5,146.1,85.1,146.1z"/>
			</g>
		</g>
	</g>
	<g>
		<g>
			<path class="st10" d="M69.2,177.6H50.2c-4.3,0-7.8-3.5-7.8-7.8v-38.2c0-4.3,3.5-7.8,7.8-7.8h19.1c4.3,0,7.8,3.5,7.8,7.8v38.2
				C77.1,174,73.5,177.6,69.2,177.6z"/>
		</g>
	</g>
	<g class="st2">
		<g>
			<path d="M67.2,123.9v57.3h-5.9v-49.9c0-1.1,0.2-2.1,0.6-3c0.2-0.5,0.4-0.9,0.7-1.3c0.4-0.6,0.9-1.2,1.5-1.6
				C65,124.7,66,124.1,67.2,123.9z"/>
		</g>
	</g>
	<g>
		<g>
			<g>
				<path class="st1" d="M84.4,182c-4.6,0-8.4-3.8-8.4-8.4l0.1-42.3c0-1.8-0.7-3.6-2.1-4.9c-1.3-1.3-3.1-2-5-2
					c-0.6,0-1.1,0.1-1.6,0.2c-0.4,0.1-0.8-0.1-0.9-0.5c-0.1-0.4,0.1-0.8,0.5-0.9c0.6-0.2,1.3-0.2,2-0.2c2.2,0,4.4,0.9,6,2.5
					c1.6,1.6,2.5,3.7,2.5,5.9l-0.1,42.3c0,3.8,3.1,6.9,6.9,6.9c3.8,0,7-3.2,7-7v-43c0-0.4,0.3-0.7,0.7-0.7s0.7,0.3,0.7,0.7v43
					C92.8,178.2,89,182,84.4,182z"/>
			</g>
		</g>
		<g>
			<g>
				<path class="st1" d="M61.3,132c-0.4,0-0.7-0.3-0.7-0.7c0-1.1,0.2-2.2,0.6-3.2c0.2-0.4,0.6-0.5,0.9-0.4c0.4,0.2,0.5,0.6,0.4,0.9
					c-0.4,0.9-0.5,1.8-0.5,2.7C62,131.7,61.7,132,61.3,132z"/>
			</g>
		</g>
		<g>
			<g>
				<path class="st10" d="M69,123.6c-0.6,0-1.2,0.1-1.8,0.2c-1.2,0.3-2.2,0.8-3.1,1.6c-0.6,0.5-1.1,1-1.5,1.6
					c-0.3,0.4-0.5,0.8-0.7,1.3c-0.4,0.9-0.6,1.9-0.6,3v84.4c0,1.6-1.3,2.9-2.9,2.9H3.6c-1.6,0-2.9-1.3-2.9-2.9v-84.4
					c0-4.2,3.4-7.7,7.7-7.7H69z"/>
			</g>
		</g>
		<g class="st2">
			<g>
				<path d="M61.3,168.5v47.2c0,1.6-1.3,2.9-2.9,2.9H3.6c-1.3,0-2.4-0.9-2.8-2.1C30.2,215.7,54.6,195.5,61.3,168.5z"/>
			</g>
		</g>
		<g>
			<g>
				<path class="st1" d="M58.4,219.4H3.6c-2,0-3.6-1.6-3.6-3.6v-84.4c0-4.6,3.8-8.4,8.4-8.4H69c0.4,0,0.7,0.3,0.7,0.7
					s-0.3,0.7-0.7,0.7c-0.6,0-1.1,0.1-1.6,0.2c-1,0.2-2,0.7-2.8,1.4c-0.5,0.4-1,0.9-1.4,1.5c-0.2,0.4-0.5,0.7-0.6,1.2
					c-0.4,0.8-0.5,1.8-0.5,2.7v84.4C62,217.7,60.4,219.4,58.4,219.4z M8.4,124.4c-3.8,0-6.9,3.1-6.9,7v84.4c0,1.2,1,2.2,2.2,2.2
					h54.8c1.2,0,2.2-1,2.2-2.2v-84.4c0-1.1,0.2-2.2,0.7-3.3c0.2-0.5,0.5-1,0.8-1.4c0.5-0.7,1-1.3,1.6-1.8c0.2-0.2,0.4-0.3,0.6-0.5
					H8.4z"/>
			</g>
		</g>
		<g>
			<g>
				<path class="st3" d="M54.5,141.9H6.9c-0.4,0-0.7-0.3-0.7-0.7s0.3-0.7,0.7-0.7h47.5c0.4,0,0.7,0.3,0.7,0.7S54.9,141.9,54.5,141.9
					z"/>
			</g>
		</g>
		<g>
			<g>
				<path class="st3" d="M54.5,151.5H6.9c-0.4,0-0.7-0.3-0.7-0.7s0.3-0.7,0.7-0.7h47.5c0.4,0,0.7,0.3,0.7,0.7S54.9,151.5,54.5,151.5
					z"/>
			</g>
		</g>
		<g>
			<g>
				<path class="st3" d="M54.5,161H6.9c-0.4,0-0.7-0.3-0.7-0.7s0.3-0.7,0.7-0.7h47.5c0.4,0,0.7,0.3,0.7,0.7S54.9,161,54.5,161z"/>
			</g>
		</g>
		<g>
			<g>
				<path class="st3" d="M54.5,170.6H6.9c-0.4,0-0.7-0.3-0.7-0.7s0.3-0.7,0.7-0.7h47.5c0.4,0,0.7,0.3,0.7,0.7S54.9,170.6,54.5,170.6
					z"/>
			</g>
		</g>
		<g>
			<g>
				<path class="st3" d="M54.5,180.2H6.9c-0.4,0-0.7-0.3-0.7-0.7s0.3-0.7,0.7-0.7h47.5c0.4,0,0.7,0.3,0.7,0.7S54.9,180.2,54.5,180.2
					z"/>
			</g>
		</g>
		<g>
			<g>
				<path class="st3" d="M54.5,189.8H6.9c-0.4,0-0.7-0.3-0.7-0.7s0.3-0.7,0.7-0.7h47.5c0.4,0,0.7,0.3,0.7,0.7S54.9,189.8,54.5,189.8
					z"/>
			</g>
		</g>
		<g>
			<g>
				<path class="st3" d="M54.5,199.4H6.9c-0.4,0-0.7-0.3-0.7-0.7s0.3-0.7,0.7-0.7h47.5c0.4,0,0.7,0.3,0.7,0.7S54.9,199.4,54.5,199.4
					z"/>
			</g>
		</g>
		<g>
			<g>
				<path class="st3" d="M54.5,209H6.9c-0.4,0-0.7-0.3-0.7-0.7s0.3-0.7,0.7-0.7h47.5c0.4,0,0.7,0.3,0.7,0.7S54.9,209,54.5,209z"/>
			</g>
		</g>
	</g>
	<g>
		<g>
			<path class="st1" d="M67.2,124.6c-0.3,0-0.6-0.2-0.7-0.5c-0.1-0.4,0.1-0.8,0.5-0.9c1.1-0.3,2.3-0.3,3.3-0.1
				c0.4,0.1,0.7,0.5,0.6,0.8c-0.1,0.4-0.5,0.6-0.8,0.6c-0.8-0.1-1.8-0.1-2.6,0.1C67.3,124.6,67.3,124.6,67.2,124.6z"/>
		</g>
	</g>
	<g class="st2">
		<g>
			<path d="M82.3,128v51.8h-2.4c-1.9-1.4-3.1-3.6-3.1-6.1l0.1-42.3c0-2.1-0.9-4-2.3-5.4c-1.1-1.1-2.6-1.9-4.3-2.1H78
				C80.4,123.7,82.3,125.6,82.3,128z"/>
		</g>
	</g>
	<g>
		<g>
			<path class="st16" d="M107.9,84.7"/>
		</g>
	</g>
	<g>
		<g>
			<path class="st16" d="M107.8,118.9"/>
		</g>
	</g>
	<g>
		<g>
			<path class="st16" d="M107.8,118.9"/>
		</g>
	</g>
	<g>
		<g>
			<circle class="st1" cx="121.6" cy="135.7" r="3.2"/>
		</g>
	</g>
	<g>
		<g>
			<path class="st1" d="M121.6,136.4c-0.2,0-0.4-0.1-0.5-0.2c-0.3-0.3-0.3-0.7,0-1l21.7-21.6c0.3-0.3,0.7-0.3,1,0
				c0.3,0.3,0.3,0.7,0,1l-21.7,21.6C122,136.3,121.8,136.4,121.6,136.4z"/>
		</g>
	</g>
</g>
</svg>
