<?xml version="1.0" encoding="UTF-8"?>
<!DOCTYPE svg PUBLIC "-//W3C//DTD SVG 1.1//EN" "http://www.w3.org/Graphics/SVG/1.1/DTD/svg11.dtd">
<!-- Creator: CorelDRAW X8 -->
<svg xmlns="http://www.w3.org/2000/svg" xml:space="preserve" width="124.772mm" height="173.424mm" version="1.1" style="shape-rendering:geometricPrecision; text-rendering:geometricPrecision; image-rendering:optimizeQuality; fill-rule:evenodd; clip-rule:evenodd"
viewBox="0 0 11397 15841"
 xmlns:xlink="http://www.w3.org/1999/xlink">
 <defs>
  <style type="text/css">
   <![CDATA[
    .fil7 {fill:#946138}
    .fil0 {fill:#B57D4F}
    .fil6 {fill:#CCB7A6}
    .fil5 {fill:#CDB7A8}
    .fil4 {fill:#CDB8AA}
    .fil3 {fill:#F6D14C}
    .fil2 {fill:#F7D24B}
    .fil1 {fill:#F8D34B}
   ]]>
  </style>
 </defs>
 <g id="Camada_x0020_1">
  <metadata id="CorelCorpID_0Corel-Layer"/>
  <g id="_689835954112">
   <path class="fil0" d="M4929 13226l-5 712 -159 -4 0 -1671c234,-4 82,67 189,191 229,-418 1001,-199 964,449 -31,533 -620,793 -989,323zm2698 -196c-249,-199 -859,-100 -730,-532 98,-328 676,-324 847,-84 -8,40 -15,43 -57,93 -212,-159 -694,-271 -639,184 172,85 610,139 706,286 184,281 -138,494 -381,494 -224,0 -515,-85 -529,-218 132,-152 404,270 791,-45l-8 -178zm-1217 -619c-25,210 -11,422 -12,625 -3,279 40,327 319,235 64,134 19,161 -154,179 -439,47 -324,-379 -324,-996 -6,-6 -19,-19 -23,-12 -3,7 -17,-9 -22,-11 -125,-62 -75,-1 -110,-84 -20,-47 -10,-38 -11,-88 116,-1 91,17 166,-31l6 -405 144 2 12 434 275 0 -1 148 -265 4zm44 -4026c1467,-269 1841,2076 380,2333 -1502,263 -1904,-2054 -380,-2333zm-2936 295c0,-121 79,-84 207,-134 512,-197 239,-378 849,-352l0 2200 536 6 -5 300 -1407 4c-78,0 -90,-9 -90,-89 0,-279 -90,-219 615,-219l-2 -1753c-483,246 -703,485 -703,37zm-3153 5421c96,44 83,55 108,175 182,290 416,520 611,718 117,49 77,26 135,122l25 8c120,46 79,22 131,117 176,64 362,257 826,395 1003,299 2414,176 3496,176 1282,0 2863,180 3934,-353 136,-68 272,-176 388,-218 52,-95 12,-71 131,-117l25 -8c58,-96 18,-73 135,-122 195,-198 429,-428 611,-718 31,-136 7,-118 108,-175 19,-76 85,-204 114,-270 329,-761 327,-1572 61,-2334 -136,-388 -777,-1759 -987,-2237 -661,-1502 -1329,-2988 -1987,-4468 -689,84 -1799,19 -2533,19 -734,0 -1844,65 -2532,-19 -637,1433 -1375,3021 -1978,4446 -240,565 -819,1759 -989,2235 -260,731 -283,1596 44,2336 30,68 104,215 123,292z"/>
   <path class="fil0" d="M5697 4081l343 16 -343 -16 0 0zm-3776 -3757c83,332 203,638 307,952l636 1878c66,197 298,830 309,987 239,-34 4809,-34 5048,0 12,-157 236,-768 301,-963 205,-613 826,-2352 951,-2854 -28,-37 1,15 -36,-60 -5,-8 -15,-36 -20,-45 -51,-102 -60,-111 -162,-162l-86 -43c-3,-10 -13,-9 -19,-14l-6906 0c-124,97 -172,28 -267,219l-56 105z"/>
   <path class="fil1" d="M3165 4792c688,84 1798,19 2532,19 734,0 1844,65 2533,-19 92,-93 196,-123 203,-306 8,-195 -93,-246 -212,-345 -239,-34 -4809,-34 -5048,0 -113,95 -206,140 -212,316 -7,203 106,237 204,335z"/>
   <path class="fil0" d="M7387 9809c154,-480 -169,-970 -503,-1089 -1003,-360 -1496,1299 -505,1666 511,189 891,-211 1008,-577z"/>
   <path class="fil1" d="M7387 9809c-117,366 -497,766 -1008,577 -991,-367 -498,-2026 505,-1666 334,119 657,609 503,1089zm-933 -1424c-1524,279 -1122,2596 380,2333 1461,-257 1087,-2602 -380,-2333z"/>
   <path class="fil2" d="M3518 8680c0,448 220,209 703,-37l2 1753c-705,0 -615,-60 -615,219 0,80 12,89 90,89l1407 -4 5 -300 -536 -6 0 -2200c-610,-26 -337,155 -849,352 -128,50 -207,13 -207,134z"/>
   <path class="fil2" d="M5203 12406c560,-186 756,734 279,896 -262,89 -521,-85 -554,-303 -48,-309 17,-507 275,-593zm-274 820c369,470 958,210 989,-323 37,-648 -735,-867 -964,-449 -107,-124 45,-195 -189,-191l0 1671 159 4 5 -712z"/>
   <path class="fil0" d="M5203 12406c-258,86 -323,284 -275,593 33,218 292,392 554,303 477,-162 281,-1082 -279,-896z"/>
   <path class="fil3" d="M7627 13030l8 178c-387,315 -659,-107 -791,45 14,133 305,218 529,218 243,0 565,-213 381,-494 -96,-147 -534,-201 -706,-286 -55,-455 427,-343 639,-184 42,-50 49,-53 57,-93 -171,-240 -749,-244 -847,84 -129,432 481,333 730,532z"/>
   <path class="fil3" d="M6675 12407l1 -148 -275 0 -12 -434 -144 -2 -6 405c-75,48 -50,30 -166,31 1,50 -9,41 11,88 35,83 -15,22 110,84 5,2 19,18 22,11 4,-7 17,6 23,12 0,617 -115,1043 324,996 173,-18 218,-45 154,-179 -279,92 -322,44 -319,-235 1,-203 -13,-415 12,-625l265 -4z"/>
   <path class="fil4" d="M9473 324c-19,-199 -123,-302 -323,-324 6,5 16,4 19,14l86 43c102,51 111,60 162,162 5,9 15,37 20,45 37,75 8,23 36,60z"/>
   <path class="fil4" d="M1921 324l56 -105c95,-191 143,-122 267,-219 -199,22 -304,125 -323,324z"/>
   <path class="fil5" d="M473 14276c-25,-120 -12,-131 -108,-175l108 175z"/>
   <path class="fil5" d="M10921 14276l108 -175c-101,57 -77,39 -108,175z"/>
   <path class="fil6" d="M1375 15241c-52,-95 -11,-71 -131,-117l131 117z"/>
   <path class="fil6" d="M10019 15241l131 -117c-119,46 -79,22 -131,117z"/>
   <path class="fil5" d="M1219 15116c-58,-96 -18,-73 -135,-122l135 122z"/>
   <path class="fil5" d="M10175 15116l135 -122c-117,49 -77,26 -135,122z"/>
   <polygon class="fil7" points="5697,4081 6040,4097 5697,4081 "/>
  </g>
 </g>
</svg>
