<?xml version="1.0" encoding="utf-8"?>
<!-- Generator: Adobe Illustrator 21.0.0, SVG Export Plug-In . SVG Version: 6.00 Build 0)  -->
<svg version="1.1" id="Layer_1" xmlns="http://www.w3.org/2000/svg" xmlns:xlink="http://www.w3.org/1999/xlink" x="0px" y="0px"
	 viewBox="0 0 223.5 197.6" style="enable-background:new 0 0 223.5 197.6;" xml:space="preserve">
<style type="text/css">
	.st0{fill:#28B446;}
	.st1{fill:#219B38;}
	.st2{fill:#FFD837;}
	.st3{fill:#518EF8;}
	.st4{fill:#3A5BBC;}
	.st5{fill:#FBBB00;}
	.st6{fill:#1083DD;}
	.st7{fill:#0A6CBC;}
	.st8{fill:#38B4F9;}
	.st9{fill:#0594DB;}
	.st10{fill:#FAE2C0;}
	.st11{fill:#0B2674;}
	.st12{fill:#F6E7D1;}
	.st13{opacity:0.1;}
	.st14{fill:#FD2087;}
	.st15{fill:#FAFAFA;}
	.st16{opacity:0.5;}
	.st17{fill:#FD2088;}
	.st18{opacity:0.2;}
	.st19{fill:#00C8AA;}
	.st20{fill:#FFFFFF;}
	.st21{fill:#FFD652;}
	.st22{opacity:0.6;}
	.st23{fill:#425BFF;}
	.st24{opacity:0.4;}
	.st25{opacity:0.3;}
	.st26{fill-rule:evenodd;clip-rule:evenodd;fill:#FFFFFF;}
</style>
<g>
	<g id="drive_6_">
		<g>
			<polygon class="st0" points="178.3,42.3 178.1,46.7 174,49.8 169.8,42.3 178.7,26.8 182.8,29.6 183,34.3 182.9,34.3 			"/>
		</g>
		<g>
			<polygon class="st1" points="178.7,26.8 181.2,37.3 183,34.3 182.8,28.2 			"/>
		</g>
		<g>
			<polygon class="st2" points="187.3,26.8 196.2,42.3 191.4,44.7 187.6,42.3 187.6,42.3 183,34.3 178.7,26.8 			"/>
		</g>
		<g>
			<polygon class="st3" points="196.2,42.3 191.9,49.7 174,49.8 178.3,42.3 187.6,42.3 			"/>
		</g>
		<g>
			<polygon class="st4" points="174,49.8 181.5,42.3 178.3,42.3 			"/>
		</g>
		<g>
			<polygon class="st5" points="196.2,42.3 186.4,40.2 187.6,42.3 			"/>
		</g>
	</g>
	<g id="dropbox_5_">
		<g>
			<g>
				<path class="st6" d="M24.6,27.3L24.6,27.3L24.6,27.3z"/>
			</g>
			<g>
				<path class="st6" d="M16,32.9L16,32.9L16,32.9z"/>
			</g>
			<g>
				<polygon class="st6" points="16,34 10.1,39.1 7.5,37.5 7.5,39.4 16.2,44.5 24.7,39.1 24.6,37.2 22.1,38.9 				"/>
			</g>
		</g>
		<g>
			<polyline class="st7" points="16.2,44.5 24.7,39.1 24.6,37.2 22.1,38.9 16,34 			"/>
		</g>
		<g>
			<polygon class="st6" points="16,32.9 7.1,27.5 1.2,32.5 10,38.1 			"/>
		</g>
		<g>
			<polyline class="st7" points="1.2,32.5 10,38.1 16,32.9 16,32.9 16,32.9 			"/>
		</g>
		<g>
			<polygon class="st8" points="16,32.9 16,32.9 22.1,37.9 30.7,32 24.6,27.3 24.6,27.3 			"/>
		</g>
		<g>
			<polyline class="st9" points="22.1,37.9 30.7,32 24.6,27.3 24.6,27.3 			"/>
		</g>
		<g>
			<polygon class="st6" points="21.8,16.8 15.8,22.1 15.8,22.1 15.8,22.1 24.6,27.3 24.6,27.3 24.6,27.3 30.5,22.4 			"/>
		</g>
		<g>
			<polyline class="st7" points="24.6,27.3 24.6,27.3 24.6,27.3 30.6,22.4 21.8,16.8 			"/>
		</g>
		<g>
			<polygon class="st8" points="15.8,22.1 9.6,17 1.1,22.8 7.1,27.6 15.8,22.1 15.8,22.1 			"/>
		</g>
		<g>
			<polyline class="st9" points="7.1,27.6 15.8,22.1 15.8,22.1 15.8,22.1 9.6,17 			"/>
		</g>
	</g>
	<g>
		<g>
			<g>
				<rect x="93.7" y="125.7" class="st10" width="25.5" height="13.4"/>
			</g>
			<g>
				<path class="st11" d="M119.9,139.8H93.1V125h26.9V139.8z M94.4,138.5h24.2v-12.1H94.4V138.5z"/>
			</g>
		</g>
		<g>
			<path class="st12" d="M114,131.1H97.1c-19.7,0-35.6-16-35.6-35.6V51.4c0-19.7,16-35.6,35.6-35.6H114c19.7,0,35.6,16,35.6,35.6
				v44.1C149.6,115.1,133.7,131.1,114,131.1z"/>
			<path class="st11" d="M114,131.8H97.1c-20,0-36.3-16.3-36.3-36.3V51.4c0-20,16.3-36.3,36.3-36.3H114c20,0,36.3,16.3,36.3,36.3
				v44.1C150.3,115.5,134,131.8,114,131.8z M97.1,16.4c-19.3,0-35,15.7-35,35v44.1c0,19.3,15.7,35,35,35H114c19.3,0,35-15.7,35-35
				V51.4c0-19.3-15.7-35-35-35H97.1z"/>
		</g>
		<g class="st13">
			<path d="M149.6,51.4v44.1c0,19.7-16,35.6-35.6,35.6H97.1c-11.4,0-21.5-5.3-28-13.6c6.1,4.8,13.7,7.6,22,7.6H108
				c19.7,0,35.6-16,35.6-35.6V45.3c0-8.3-2.8-15.9-7.6-22C144.3,29.8,149.6,40,149.6,51.4z"/>
		</g>
		<g>
			<path class="st11" d="M114,131.8H97.1c-20,0-36.3-16.3-36.3-36.3V51.4c0-20,16.3-36.3,36.3-36.3H114c20,0,36.3,16.3,36.3,36.3
				v44.1C150.3,115.5,134,131.8,114,131.8z M97.1,16.4c-19.3,0-35,15.7-35,35v44.1c0,19.3,15.7,35,35,35H114c19.3,0,35-15.7,35-35
				V51.4c0-19.3-15.7-35-35-35H97.1z"/>
		</g>
		<g>
			<path class="st12" d="M58.1,80.7c-5.2,0-9.4-4.2-9.4-9.4s4.2-9.4,9.4-9.4"/>
			<path class="st11" d="M58.1,81.3c-5.6,0-10.1-4.5-10.1-10.1s4.5-10.1,10.1-10.1v1.3c-4.8,0-8.7,3.9-8.7,8.7s3.9,8.7,8.7,8.7V81.3
				z"/>
		</g>
		<g>
			<path class="st12" d="M148.2,61.8c5.2,0,9.4,4.2,9.4,9.4s-4.2,9.4-9.4,9.4"/>
			<path class="st11" d="M148.2,81.3V80c4.8,0,8.7-3.9,8.7-8.7s-3.9-8.7-8.7-8.7v-1.3c5.6,0,10.1,4.5,10.1,10.1
				S153.7,81.3,148.2,81.3z"/>
		</g>
		<g>
			<circle class="st11" cx="89" cy="67.2" r="4"/>
			<path class="st11" d="M89,71.9c-2.6,0-4.7-2.1-4.7-4.7s2.1-4.7,4.7-4.7s4.7,2.1,4.7,4.7S91.6,71.9,89,71.9z M89,63.9
				c-1.9,0-3.4,1.5-3.4,3.4s1.5,3.4,3.4,3.4s3.4-1.5,3.4-3.4S90.9,63.9,89,63.9z"/>
		</g>
		<g>
			<g>
				<path class="st10" d="M110.5,83.4c0,3-2.4,5.4-5.4,5.4c-3,0-5.4-2.4-5.4-5.4"/>
			</g>
			<g>
				<path class="st11" d="M105.2,89.4c-3.3,0-6-2.7-6-6.1h1.3c0,2.6,2.1,4.7,4.7,4.7c2.6,0,4.7-2.1,4.7-4.7h1.3
					C111.2,86.7,108.5,89.4,105.2,89.4z"/>
			</g>
		</g>
		<g>
			<circle class="st11" cx="122.6" cy="67.2" r="4"/>
			<path class="st11" d="M122.6,71.9c-2.6,0-4.7-2.1-4.7-4.7s2.1-4.7,4.7-4.7s4.7,2.1,4.7,4.7S125.2,71.9,122.6,71.9z M122.6,63.9
				c-1.9,0-3.4,1.5-3.4,3.4s1.5,3.4,3.4,3.4s3.4-1.5,3.4-3.4S124.5,63.9,122.6,63.9z"/>
		</g>
		<g>
			<g>
				<path class="st14" d="M124.7,104c-1.7,3.7-4.5,6.8-7.9,8.9c-3,1.8-6.5,2.9-10.3,2.9s-7.3-1-10.3-2.9c-3.5-2.1-6.2-5.2-7.9-8.9
					H124.7z"/>
			</g>
			<g>
				<path class="st15" d="M123.1,99.3H89.9c-1.6,0-2.8,1.6-2.2,3.1c0.2,0.5,0.4,1.1,0.6,1.6h36.4c0.2-0.5,0.4-1,0.6-1.6
					C125.9,100.9,124.7,99.3,123.1,99.3z"/>
			</g>
			<g>
				<path class="st11" d="M106.5,116.5c-8.1,0-15.5-4.8-18.8-12.2c-0.2-0.5-0.5-1.1-0.7-1.6c-0.3-0.9-0.2-1.9,0.4-2.7
					c0.6-0.8,1.5-1.3,2.5-1.3h33.2c1,0,1.9,0.5,2.5,1.3c0.6,0.8,0.7,1.8,0.4,2.7c-0.2,0.6-0.4,1.1-0.7,1.6
					C122,111.7,114.6,116.5,106.5,116.5z M89.9,100c-0.6,0-1.1,0.3-1.4,0.7c-0.3,0.4-0.4,1-0.2,1.5c0.2,0.5,0.4,1,0.6,1.5
					c3.1,6.9,10,11.4,17.6,11.4c7.6,0,14.5-4.5,17.6-11.4c0.2-0.5,0.4-1,0.6-1.5c0.2-0.5,0.1-1.1-0.2-1.5c-0.3-0.5-0.8-0.7-1.4-0.7
					H89.9z"/>
			</g>
			<g class="st16">
				<path d="M116.8,112.9c-3,1.8-6.5,2.9-10.3,2.9s-7.3-1-10.3-2.9c1.1-3.1,5.3-5.4,10.3-5.4C111.5,107.6,115.7,109.8,116.8,112.9z"
					/>
			</g>
		</g>
		<g>
			<g>
				<path class="st12" d="M147.5,163.8c0-15-12.3-27.3-27.3-27.3h-26c-15,0-27.3,12.3-27.3,27.3v21.7h80.7V163.8z"/>
				<path class="st11" d="M148.2,186.2h-82v-22.4c0-15.4,12.6-28,28-28h26c15.4,0,28,12.6,28,28V186.2z M67.5,184.9h79.3v-21.1
					c0-14.7-12-26.7-26.7-26.7h-26c-14.7,0-26.7,12-26.7,26.7V184.9z"/>
			</g>
			<g>
				<path class="st17" d="M147.5,163.8v6.3h-13.4v15.5H80.3v-15.5H66.8v-6.3c0-5.5,1.6-10.6,4.4-14.9c4.9-7.5,13.3-12.5,22.9-12.5
					h26c8.4,0,15.9,3.8,20.9,9.8C145.1,151,147.5,157.1,147.5,163.8z"/>
			</g>
			<g>
				<path class="st11" d="M134.1,185.5c-0.4,0-0.7-0.3-0.7-0.7v-21.5c0-0.4,0.3-0.7,0.7-0.7s0.7,0.3,0.7,0.7v21.5
					C134.7,185.2,134.4,185.5,134.1,185.5z"/>
			</g>
			<g class="st13">
				<path d="M141.1,146.3c-8,7.1-21.4,11.7-36.6,11.7c-13.2,0-25.1-3.5-33.2-9c4.9-7.5,13.3-12.5,22.9-12.5h26
					C128.6,136.5,136.1,140.3,141.1,146.3z"/>
			</g>
			<g>
				<path class="st17" d="M147.5,163.8v6.3h-13.4v15.5H80.3v-15.5H66.8v-6.3c0-5.5,1.6-10.6,4.4-14.9c4.9-7.5,13.3-12.5,22.9-12.5
					h26c8.4,0,15.9,3.8,20.9,9.8C145.1,151,147.5,157.1,147.5,163.8z"/>
				<path class="st11" d="M134.1,186.2H80.3c-0.4,0-0.7-0.3-0.7-0.7v-14.8H66.8c-0.4,0-0.7-0.3-0.7-0.7v-6.3
					c0-5.4,1.6-10.7,4.5-15.2c5.2-8,14-12.8,23.5-12.8h26c8.3,0,16.1,3.7,21.4,10.1c4.2,5,6.6,11.4,6.6,18v6.3
					c0,0.4-0.3,0.7-0.7,0.7h-12.8v14.8C134.7,185.9,134.4,186.2,134.1,186.2z M81,184.9h52.4v-14.8c0-0.4,0.3-0.7,0.7-0.7h12.8v-5.6
					c0-6.2-2.2-12.3-6.2-17.1c-5.1-6.1-12.5-9.6-20.4-9.6h-26c-9,0-17.4,4.5-22.3,12.2c-2.8,4.3-4.3,9.3-4.3,14.5v5.6h12.8
					c0.4,0,0.7,0.3,0.7,0.7V184.9z"/>
			</g>
			<g>
				<path class="st11" d="M80.3,185.5c-0.4,0-0.7-0.3-0.7-0.7v-21.5c0-0.4,0.3-0.7,0.7-0.7s0.7,0.3,0.7,0.7v21.5
					C81,185.2,80.7,185.5,80.3,185.5z"/>
			</g>
		</g>
		<g class="st13">
			<circle class="st17" cx="132" cy="86" r="6"/>
		</g>
		<g class="st13">
			<circle class="st17" cx="78.9" cy="86.7" r="6"/>
		</g>
		<g>
			<g class="st18">
				<path d="M152.2,46.4v32.3c0,7.9-2,15.3-5.5,21.8c0.1-1,0.1-2,0.1-3V65.2c0-10.3-3.4-19.8-9.1-27.6c-4.3-5.8-10-10.6-16.5-13.9
					c0.1,0.8,0.1,1.6,0.1,2.5c0,20.4-16.5,37-37,37c-1.6,0-3.2-0.1-4.7-0.3v30.6c0,8.6,2.4,16.6,6.5,23.5c1.5,2.5,3.3,4.9,5.2,7.1
					c-11.4-2.3-21.3-8.9-28.1-17.9c-4.1-6.9-6.4-15-6.4-23.5V50.4c0-5,0.8-9.8,2.3-14.3c6.1-18.6,23.6-32,44.1-32h5.4
					c1.9,0,3.8,0.1,5.6,0.3c9.4,1.1,17.9,5.1,24.7,11c2.6,2.2,4.9,4.7,6.9,7.4C149.9,29.8,152.2,37.8,152.2,46.4z"/>
			</g>
			<g>
				<path class="st11" d="M152.2,46.4v32.3c0,7.9-2,15.3-5.5,21.8c-1.4,2.6-3,5.1-4.9,7.3c1.5-4.5,2.3-9.3,2.3-14.3V61.2
					c0-8.6-2.4-16.6-6.5-23.5c-4.5-7.6-11.2-13.9-19.2-17.9c0.1,0.8,0.1,1.6,0.1,2.5c0,20.4-16.5,37-37,37c-1.6,0-3.2-0.1-4.7-0.3
					v30.6c0,10.3,3.4,19.9,9.1,27.6c2,2.7,4.3,5.2,6.9,7.4c-0.6-0.1-1.1-0.2-1.7-0.3c-11.4-2.3-21.3-8.9-28.1-17.9
					c-5.7-7.7-9.1-17.3-9.1-27.6V46.4c0-5,0.8-9.8,2.3-14.3c6.1-18.6,23.6-32,44.1-32h5.4c1.9,0,3.8,0.1,5.6,0.3
					c9.4,1.1,17.9,5.1,24.7,11c3.8,3.3,7,7.2,9.6,11.5C149.9,29.8,152.2,37.8,152.2,46.4z"/>
			</g>
			<g class="st18">
				<path d="M141.8,17.1c-6.6-5.4-14.7-9-23.6-10.1c-1.8-0.2-3.7-0.3-5.6-0.3h-5.4c-20.5,0-38,13.5-44.1,32
					c-1.5,4.5-2.3,9.3-2.3,14.3v32.3c0,10.3,3.4,19.8,9.1,27.6c0.4,0.6,0.8,1.1,1.3,1.6c-3-2.4-5.7-5.3-8-8.3
					c-5.7-7.7-9.1-17.3-9.1-27.6V46.4c0-5,0.8-9.8,2.3-14.3c6.1-18.6,23.6-32,44.1-32h5.4c1.9,0,3.8,0.1,5.6,0.3
					c9.4,1.1,17.9,5.1,24.7,11C138.2,13.1,140.1,15.1,141.8,17.1z"/>
			</g>
		</g>
		<g>
			<g>
				<path class="st19" d="M122,183.5H97.8c-3.7,0-6.7-3-6.7-6.7V127c0-3.7,3-6.7,6.7-6.7H122c3.7,0,6.7,3,6.7,6.7v49.7
					C128.7,180.5,125.7,183.5,122,183.5z"/>
			</g>
			<g>
				<circle class="st11" cx="98.8" cy="126.7" r="2"/>
			</g>
			<g class="st13">
				<path d="M128.7,138.5v33.9c0,6.2-3.3,11.2-7.4,11.2H94.6c0,0-0.1,0-0.1,0C109.8,183,123,164.6,128.7,138.5z"/>
			</g>
			<g>
				<path class="st11" d="M122,184.2H97.8c-4.1,0-7.4-3.3-7.4-7.4V127c0-4.1,3.3-7.4,7.4-7.4H122c4.1,0,7.4,3.3,7.4,7.4v49.7
					C129.4,180.9,126,184.2,122,184.2z M97.8,121c-3.3,0-6,2.7-6,6v49.7c0,3.3,2.7,6,6,6H122c3.3,0,6.1-2.7,6.1-6V127
					c0-3.3-2.7-6-6.1-6H97.8z"/>
			</g>
		</g>
		<g>
			<line class="st11" x1="33.9" y1="185.5" x2="176.4" y2="185.5"/>
			<path class="st11" d="M176.4,186.9H33.9c-0.7,0-1.3-0.6-1.3-1.3s0.6-1.3,1.3-1.3h142.5c0.7,0,1.3,0.6,1.3,1.3
				S177.2,186.9,176.4,186.9z"/>
		</g>
		<g>
			<line class="st17" x1="106.5" y1="196.3" x2="156.2" y2="196.3"/>
			<path class="st17" d="M156.2,197.6h-49.7c-0.7,0-1.3-0.6-1.3-1.3s0.6-1.3,1.3-1.3h49.7c0.7,0,1.3,0.6,1.3,1.3
				S157,197.6,156.2,197.6z"/>
		</g>
		<g>
			<line class="st11" x1="52.7" y1="190.9" x2="87.7" y2="190.9"/>
			<path class="st17" d="M87.7,192.3h-35c-0.7,0-1.3-0.6-1.3-1.3s0.6-1.3,1.3-1.3h35c0.7,0,1.3,0.6,1.3,1.3S88.4,192.3,87.7,192.3z"
				/>
		</g>
		<g>
			<circle class="st12" cx="130" cy="175.4" r="12.8"/>
			<path class="st11" d="M130,188.9c-7.4,0-13.4-6-13.4-13.4s6-13.4,13.4-13.4c7.4,0,13.4,6,13.4,13.4S137.4,188.9,130,188.9z
				 M130,163.3c-6.7,0-12.1,5.4-12.1,12.1s5.4,12.1,12.1,12.1c6.7,0,12.1-5.4,12.1-12.1S136.7,163.3,130,163.3z"/>
		</g>
		<g class="st13">
			<path d="M142.8,175.4c0,7.1-5.7,12.8-12.8,12.8c-3.8,0-7.2-1.7-9.6-4.3c1.5,0.6,3.1,1,4.9,1c7.1,0,12.8-5.7,12.8-12.8
				c0-3.2-1.2-6.2-3.2-8.5C139.5,165.5,142.8,170.1,142.8,175.4z"/>
		</g>
		<g>
			<path class="st11" d="M130,188.9c-7.4,0-13.4-6-13.4-13.4s6-13.4,13.4-13.4c7.4,0,13.4,6,13.4,13.4S137.4,188.9,130,188.9z
				 M130,163.3c-6.7,0-12.1,5.4-12.1,12.1s5.4,12.1,12.1,12.1c6.7,0,12.1-5.4,12.1-12.1S136.7,163.3,130,163.3z"/>
		</g>
		<g class="st18">
			<path class="st15" d="M101.7,43.1c-8,8-18.6,10.5-23.6,5.5c0,0,0,0,0,0c6-1.1,12.8-4.7,18.6-10.5c5.8-5.8,9.4-12.5,10.5-18.6
				c0,0,0,0,0,0C112.2,24.5,109.7,35,101.7,43.1z"/>
		</g>
		<g>
			<circle class="st20" cx="90.1" cy="66.1" r="1.6"/>
		</g>
		<g>
			<circle class="st20" cx="123.6" cy="66.1" r="1.6"/>
		</g>
	</g>
	<g>
		<g>
			<g>
				<path class="st21" d="M160.4,112.9h-12.3c-1.3,0-2.3,1-2.3,2.3v23c0,1.3,1,2.3,2.3,2.3h16.6c1.3,0,2.3-1,2.3-2.3v-18.7
					L160.4,112.9z"/>
			</g>
			<g class="st18">
				<path d="M160.4,117.2c0,1.3,1,2.3,2.3,2.3h4.3l-6.6-6.6V117.2z"/>
			</g>
		</g>
		<g>
			<g>
				<line class="st21" x1="148.7" y1="126.9" x2="163.7" y2="126.9"/>
				<path class="st11" d="M163.7,127.6h-15c-0.4,0-0.7-0.3-0.7-0.7s0.3-0.7,0.7-0.7h15c0.4,0,0.7,0.3,0.7,0.7
					S164.1,127.6,163.7,127.6z"/>
			</g>
			<g>
				<line class="st21" x1="148.7" y1="123.7" x2="154.4" y2="123.7"/>
				<path class="st11" d="M154.4,124.3h-5.7c-0.4,0-0.7-0.3-0.7-0.7s0.3-0.7,0.7-0.7h5.7c0.4,0,0.7,0.3,0.7,0.7
					S154.8,124.3,154.4,124.3z"/>
			</g>
			<g>
				<line class="st21" x1="148.7" y1="130.1" x2="156.2" y2="130.1"/>
				<path class="st11" d="M156.2,130.7h-7.5c-0.4,0-0.7-0.3-0.7-0.7s0.3-0.7,0.7-0.7h7.5c0.4,0,0.7,0.3,0.7,0.7
					S156.6,130.7,156.2,130.7z"/>
			</g>
			<g>
				<line class="st21" x1="158.5" y1="130.1" x2="164.2" y2="130.1"/>
				<path class="st11" d="M164.2,130.7h-5.7c-0.4,0-0.7-0.3-0.7-0.7s0.3-0.7,0.7-0.7h5.7c0.4,0,0.7,0.3,0.7,0.7
					S164.6,130.7,164.2,130.7z"/>
			</g>
			<g>
				<line class="st21" x1="157" y1="123.7" x2="164.2" y2="123.7"/>
				<path class="st11" d="M164.2,124.3H157c-0.4,0-0.7-0.3-0.7-0.7s0.3-0.7,0.7-0.7h7.2c0.4,0,0.7,0.3,0.7,0.7
					S164.6,124.3,164.2,124.3z"/>
			</g>
			<g>
				<line class="st21" x1="154.4" y1="133.2" x2="164.2" y2="133.2"/>
				<path class="st11" d="M164.2,133.9h-9.8c-0.4,0-0.7-0.3-0.7-0.7s0.3-0.7,0.7-0.7h9.8c0.4,0,0.7,0.3,0.7,0.7
					S164.6,133.9,164.2,133.9z"/>
			</g>
			<g>
				<line class="st21" x1="148.7" y1="133.2" x2="152.5" y2="133.2"/>
				<path class="st11" d="M152.5,133.9h-3.8c-0.4,0-0.7-0.3-0.7-0.7s0.3-0.7,0.7-0.7h3.8c0.4,0,0.7,0.3,0.7,0.7
					S152.8,133.9,152.5,133.9z"/>
			</g>
		</g>
		<g class="st13">
			<path d="M166.9,122.5v15.6c0,1.3-1,2.2-2.2,2.2h-16.8c-0.9,0-1.7-0.4-2.1-1.2C156.2,138.7,164.9,131.7,166.9,122.5z"/>
		</g>
	</g>
	<g>
		<g>
			<g>
				<path class="st21" d="M29.1,79.7H15c-1.5,0-2.6,1.2-2.6,2.6v26.3c0,1.5,1.2,2.6,2.6,2.6h19c1.5,0,2.6-1.2,2.6-2.6V87.2
					L29.1,79.7z"/>
			</g>
			<g class="st18">
				<path d="M29.1,84.5c0,1.5,1.2,2.6,2.6,2.6h4.9l-7.5-7.5V84.5z"/>
			</g>
		</g>
		<g>
			<g>
				<line class="st21" x1="15.6" y1="95.7" x2="32.8" y2="95.7"/>
				<path class="st11" d="M32.8,96.3H15.6c-0.4,0-0.7-0.3-0.7-0.7s0.3-0.7,0.7-0.7h17.2c0.4,0,0.7,0.3,0.7,0.7S33.2,96.3,32.8,96.3z
					"/>
			</g>
			<g>
				<line class="st21" x1="15.6" y1="92" x2="22.2" y2="92"/>
				<path class="st11" d="M22.2,92.6h-6.5c-0.4,0-0.7-0.3-0.7-0.7s0.3-0.7,0.7-0.7h6.5c0.4,0,0.7,0.3,0.7,0.7S22.5,92.6,22.2,92.6z"
					/>
			</g>
			<g>
				<line class="st21" x1="15.6" y1="99.3" x2="24.2" y2="99.3"/>
				<path class="st11" d="M24.2,100h-8.6c-0.4,0-0.7-0.3-0.7-0.7s0.3-0.7,0.7-0.7h8.6c0.4,0,0.7,0.3,0.7,0.7S24.6,100,24.2,100z"/>
			</g>
			<g>
				<line class="st21" x1="26.8" y1="99.3" x2="33.4" y2="99.3"/>
				<path class="st11" d="M33.4,100h-6.6c-0.4,0-0.7-0.3-0.7-0.7s0.3-0.7,0.7-0.7h6.6c0.4,0,0.7,0.3,0.7,0.7S33.7,100,33.4,100z"/>
			</g>
			<g>
				<line class="st21" x1="25.1" y1="92" x2="33.4" y2="92"/>
				<path class="st11" d="M33.4,92.6h-8.2c-0.4,0-0.7-0.3-0.7-0.7s0.3-0.7,0.7-0.7h8.2c0.4,0,0.7,0.3,0.7,0.7S33.7,92.6,33.4,92.6z"
					/>
			</g>
			<g>
				<line class="st21" x1="22.2" y1="102.9" x2="33.4" y2="102.9"/>
				<path class="st11" d="M33.4,103.6H22.2c-0.4,0-0.7-0.3-0.7-0.7s0.3-0.7,0.7-0.7h11.2c0.4,0,0.7,0.3,0.7,0.7
					S33.7,103.6,33.4,103.6z"/>
			</g>
			<g>
				<line class="st21" x1="15.6" y1="102.9" x2="19.9" y2="102.9"/>
				<path class="st11" d="M19.9,103.6h-4.3c-0.4,0-0.7-0.3-0.7-0.7s0.3-0.7,0.7-0.7h4.3c0.4,0,0.7,0.3,0.7,0.7
					S20.3,103.6,19.9,103.6z"/>
			</g>
		</g>
		<g class="st13">
			<path d="M36.5,90.6v17.9c0,1.5-1.1,2.6-2.6,2.6H14.7c-1,0-2-0.5-2.4-1.4C24.2,109.1,34.2,101.2,36.5,90.6z"/>
		</g>
	</g>
	<g>
		<g>
			<g>
				<path class="st21" d="M67.9,137.1h-9.3c-1,0-1.7,0.8-1.7,1.7v17.4c0,1,0.8,1.7,1.7,1.7h12.5c1,0,1.7-0.8,1.7-1.7v-14.1
					L67.9,137.1z"/>
			</g>
			<g class="st18">
				<path d="M67.9,140.4c0,1,0.8,1.7,1.7,1.7h3.2l-5-5V140.4z"/>
			</g>
		</g>
		<g>
			<g>
				<line class="st21" x1="59.1" y1="147.7" x2="70.4" y2="147.7"/>
				<path class="st11" d="M70.4,148.4H59.1c-0.4,0-0.7-0.3-0.7-0.7s0.3-0.7,0.7-0.7h11.4c0.4,0,0.7,0.3,0.7,0.7
					S70.8,148.4,70.4,148.4z"/>
			</g>
			<g>
				<line class="st21" x1="59.1" y1="145.3" x2="63.4" y2="145.3"/>
				<path class="st11" d="M63.4,145.9h-4.3c-0.4,0-0.7-0.3-0.7-0.7s0.3-0.7,0.7-0.7h4.3c0.4,0,0.7,0.3,0.7,0.7
					S63.7,145.9,63.4,145.9z"/>
			</g>
			<g>
				<line class="st21" x1="59.1" y1="150.1" x2="64.7" y2="150.1"/>
				<path class="st11" d="M64.7,150.8h-5.7c-0.4,0-0.7-0.3-0.7-0.7s0.3-0.7,0.7-0.7h5.7c0.4,0,0.7,0.3,0.7,0.7
					S65.1,150.8,64.7,150.8z"/>
			</g>
			<g>
				<line class="st21" x1="66.4" y1="150.1" x2="70.8" y2="150.1"/>
				<path class="st11" d="M70.8,150.8h-4.3c-0.4,0-0.7-0.3-0.7-0.7s0.3-0.7,0.7-0.7h4.3c0.4,0,0.7,0.3,0.7,0.7
					S71.1,150.8,70.8,150.8z"/>
			</g>
			<g>
				<line class="st21" x1="65.3" y1="145.3" x2="70.8" y2="145.3"/>
				<path class="st11" d="M70.8,145.9h-5.4c-0.4,0-0.7-0.3-0.7-0.7s0.3-0.7,0.7-0.7h5.4c0.4,0,0.7,0.3,0.7,0.7
					S71.1,145.9,70.8,145.9z"/>
			</g>
			<g>
				<line class="st21" x1="63.4" y1="152.5" x2="70.8" y2="152.5"/>
				<path class="st11" d="M70.8,153.1h-7.4c-0.4,0-0.7-0.3-0.7-0.7s0.3-0.7,0.7-0.7h7.4c0.4,0,0.7,0.3,0.7,0.7
					S71.1,153.1,70.8,153.1z"/>
			</g>
			<g>
				<line class="st21" x1="59.1" y1="152.5" x2="61.9" y2="152.5"/>
				<path class="st11" d="M61.9,153.1h-2.8c-0.4,0-0.7-0.3-0.7-0.7s0.3-0.7,0.7-0.7h2.8c0.4,0,0.7,0.3,0.7,0.7
					S62.3,153.1,61.9,153.1z"/>
			</g>
		</g>
		<g class="st13">
			<path d="M72.8,144.4v11.8c0,1-0.7,1.7-1.7,1.7H58.5c-0.7,0-1.3-0.3-1.6-0.9C64.7,156.6,71.3,151.3,72.8,144.4z"/>
		</g>
	</g>
	<g class="st22">
		<g>
			<path class="st11" d="M208.6,63.7h-2.7v7h-1.6v-7h-2.7v-1.4h7V63.7z"/>
		</g>
		<g>
			<path class="st11" d="M210.5,62.3l2.1,3.1l2.1-3.1h1.8l-3,4.3l2.9,4.1h-1.8l-2-3l-2,3h-1.8l2.9-4.1l-3-4.3H210.5z"/>
		</g>
		<g>
			<path class="st11" d="M223.5,63.7h-2.7v7h-1.6v-7h-2.7v-1.4h7V63.7z"/>
		</g>
	</g>
	<g>
		<g>
			<path class="st19" d="M157.9,158.2v-8.6h3.1c0.7,0,1.3,0.1,1.8,0.3c0.5,0.2,1,0.5,1.3,0.9c0.4,0.4,0.6,0.8,0.8,1.4
				c0.2,0.5,0.3,1.1,0.3,1.7c0,0.7-0.1,1.2-0.3,1.8c-0.2,0.5-0.5,1-0.9,1.4c-0.4,0.4-0.8,0.7-1.3,0.9c-0.5,0.2-1.1,0.3-1.7,0.3
				H157.9z M163.6,153.9c0-0.4-0.1-0.8-0.2-1.1c-0.1-0.3-0.3-0.6-0.5-0.9c-0.2-0.2-0.5-0.4-0.8-0.6c-0.3-0.1-0.7-0.2-1.1-0.2h-1.5
				v5.7h1.5c0.4,0,0.8-0.1,1.1-0.2c0.3-0.1,0.6-0.3,0.8-0.6c0.2-0.3,0.4-0.6,0.5-0.9C163.5,154.7,163.6,154.3,163.6,153.9z"/>
		</g>
		<g>
			<path class="st19" d="M170.1,158.3c-0.6,0-1.2-0.1-1.7-0.4c-0.5-0.2-0.9-0.6-1.3-1c-0.4-0.4-0.6-0.9-0.8-1.4
				c-0.2-0.5-0.3-1.1-0.3-1.6c0-0.6,0.1-1.1,0.3-1.6c0.2-0.5,0.5-1,0.9-1.4c0.4-0.4,0.8-0.7,1.3-1c0.5-0.2,1-0.4,1.6-0.4
				c0.6,0,1.2,0.1,1.7,0.4c0.5,0.3,0.9,0.6,1.3,1c0.4,0.4,0.6,0.9,0.8,1.4c0.2,0.5,0.3,1.1,0.3,1.6c0,0.6-0.1,1.1-0.3,1.6
				c-0.2,0.5-0.5,1-0.9,1.4c-0.4,0.4-0.8,0.7-1.3,1C171.3,158.2,170.7,158.3,170.1,158.3z M167.8,153.9c0,0.4,0.1,0.7,0.2,1.1
				c0.1,0.3,0.3,0.7,0.5,0.9c0.2,0.3,0.5,0.5,0.8,0.6s0.6,0.2,1,0.2c0.4,0,0.7-0.1,1-0.2c0.3-0.2,0.5-0.4,0.7-0.7
				c0.2-0.3,0.4-0.6,0.5-0.9c0.1-0.3,0.2-0.7,0.2-1c0-0.4-0.1-0.7-0.2-1.1c-0.1-0.3-0.3-0.7-0.5-0.9c-0.2-0.3-0.5-0.5-0.7-0.6
				c-0.3-0.2-0.6-0.2-1-0.2c-0.4,0-0.7,0.1-1,0.2c-0.3,0.2-0.5,0.4-0.7,0.7c-0.2,0.3-0.4,0.6-0.5,0.9
				C167.8,153.2,167.8,153.6,167.8,153.9z"/>
		</g>
		<g>
			<path class="st19" d="M175,153.9c0-0.5,0.1-1,0.3-1.6c0.2-0.5,0.5-1,0.8-1.4c0.4-0.4,0.8-0.7,1.3-1c0.5-0.2,1.1-0.4,1.7-0.4
				c0.8,0,1.4,0.2,2,0.5c0.6,0.3,1,0.8,1.2,1.4l-1.3,0.9c-0.1-0.2-0.2-0.4-0.4-0.6c-0.2-0.2-0.3-0.3-0.5-0.4
				c-0.2-0.1-0.4-0.2-0.6-0.2c-0.2,0-0.4-0.1-0.6-0.1c-0.4,0-0.7,0.1-1,0.3c-0.3,0.2-0.5,0.4-0.7,0.7c-0.2,0.3-0.3,0.6-0.4,0.9
				c-0.1,0.3-0.2,0.7-0.2,1c0,0.4,0.1,0.7,0.2,1.1c0.1,0.4,0.3,0.7,0.5,0.9c0.2,0.3,0.5,0.5,0.8,0.6c0.3,0.2,0.6,0.2,1,0.2
				c0.2,0,0.4,0,0.6-0.1c0.2,0,0.4-0.1,0.6-0.2c0.2-0.1,0.3-0.2,0.5-0.4c0.2-0.2,0.3-0.4,0.4-0.6l1.4,0.8c-0.1,0.3-0.3,0.6-0.6,0.9
				c-0.2,0.2-0.5,0.5-0.8,0.6c-0.3,0.2-0.6,0.3-1,0.4c-0.3,0.1-0.7,0.1-1,0.1c-0.6,0-1.1-0.1-1.6-0.4c-0.5-0.3-0.9-0.6-1.3-1
				c-0.4-0.4-0.6-0.9-0.8-1.4C175.1,155,175,154.4,175,153.9z"/>
		</g>
		<g>
			<path class="st19" d="M184.4,149.6l2.1,3.2l2.1-3.2h1.8l-3.1,4.4l3,4.2h-1.8l-2-3.1l-2,3.1h-1.8l3-4.2l-3.1-4.4H184.4z"/>
		</g>
	</g>
	<g class="st22">
		<g>
			<path class="st23" d="M24.2,132.4v-9.9h3.6c0.8,0,1.5,0.1,2.1,0.4c0.6,0.3,1.1,0.6,1.5,1.1c0.4,0.4,0.7,1,0.9,1.6
				c0.2,0.6,0.3,1.2,0.3,1.9c0,0.8-0.1,1.4-0.3,2c-0.2,0.6-0.6,1.1-1,1.6c-0.4,0.4-0.9,0.8-1.5,1c-0.6,0.2-1.3,0.4-2,0.4H24.2z
				 M30.7,127.5c0-0.5-0.1-0.9-0.2-1.3c-0.1-0.4-0.3-0.7-0.6-1c-0.3-0.3-0.6-0.5-0.9-0.7c-0.4-0.2-0.8-0.2-1.2-0.2h-1.7v6.5h1.7
				c0.5,0,0.9-0.1,1.3-0.3c0.4-0.2,0.7-0.4,0.9-0.7c0.2-0.3,0.4-0.6,0.6-1C30.7,128.4,30.7,127.9,30.7,127.5z"/>
		</g>
		<g>
			<path class="st23" d="M38.3,132.5c-0.7,0-1.3-0.1-1.9-0.4c-0.6-0.3-1.1-0.7-1.5-1.1c-0.4-0.5-0.7-1-1-1.6
				c-0.2-0.6-0.3-1.2-0.3-1.9c0-0.7,0.1-1.3,0.4-1.9s0.6-1.1,1-1.6c0.4-0.5,0.9-0.8,1.5-1.1c0.6-0.3,1.2-0.4,1.9-0.4
				c0.7,0,1.3,0.1,1.9,0.4c0.6,0.3,1.1,0.7,1.5,1.2c0.4,0.5,0.7,1,0.9,1.6c0.2,0.6,0.3,1.2,0.3,1.8c0,0.7-0.1,1.3-0.4,1.9
				c-0.2,0.6-0.6,1.1-1,1.6c-0.4,0.5-0.9,0.8-1.5,1.1C39.6,132.4,39,132.5,38.3,132.5z M35.6,127.5c0,0.4,0.1,0.8,0.2,1.2
				c0.1,0.4,0.3,0.8,0.5,1.1c0.2,0.3,0.5,0.6,0.9,0.7c0.3,0.2,0.7,0.3,1.2,0.3c0.4,0,0.8-0.1,1.2-0.3c0.3-0.2,0.6-0.4,0.9-0.8
				c0.2-0.3,0.4-0.7,0.5-1.1s0.2-0.8,0.2-1.2c0-0.4-0.1-0.8-0.2-1.2c-0.1-0.4-0.3-0.8-0.6-1.1c-0.2-0.3-0.5-0.6-0.9-0.7
				c-0.3-0.2-0.7-0.3-1.2-0.3c-0.4,0-0.8,0.1-1.2,0.3c-0.3,0.2-0.6,0.4-0.9,0.8c-0.2,0.3-0.4,0.7-0.5,1.1S35.6,127.1,35.6,127.5z"/>
		</g>
		<g>
			<path class="st23" d="M43.9,127.4c0-0.6,0.1-1.2,0.3-1.8s0.5-1.1,0.9-1.6c0.4-0.5,0.9-0.8,1.5-1.1c0.6-0.3,1.3-0.4,2-0.4
				c0.9,0,1.7,0.2,2.3,0.6c0.6,0.4,1.1,0.9,1.4,1.6l-1.5,1c-0.1-0.3-0.3-0.5-0.4-0.7c-0.2-0.2-0.4-0.3-0.6-0.5
				c-0.2-0.1-0.4-0.2-0.6-0.2c-0.2-0.1-0.4-0.1-0.6-0.1c-0.5,0-0.9,0.1-1.2,0.3c-0.3,0.2-0.6,0.4-0.9,0.8c-0.2,0.3-0.4,0.7-0.5,1.1
				c-0.1,0.4-0.2,0.8-0.2,1.2c0,0.4,0.1,0.9,0.2,1.3c0.1,0.4,0.3,0.8,0.6,1.1c0.2,0.3,0.5,0.6,0.9,0.7c0.3,0.2,0.7,0.3,1.1,0.3
				c0.2,0,0.4,0,0.7-0.1c0.2-0.1,0.4-0.1,0.6-0.3c0.2-0.1,0.4-0.3,0.6-0.5c0.2-0.2,0.3-0.4,0.4-0.7l1.6,0.9c-0.1,0.4-0.4,0.7-0.6,1
				c-0.3,0.3-0.6,0.5-1,0.7c-0.4,0.2-0.7,0.3-1.1,0.4c-0.4,0.1-0.8,0.2-1.2,0.2c-0.7,0-1.3-0.1-1.9-0.4c-0.6-0.3-1.1-0.7-1.5-1.2
				c-0.4-0.5-0.7-1-1-1.6C44.1,128.7,43.9,128,43.9,127.4z"/>
		</g>
	</g>
	<g class="st24">
		<g>
			<path class="st17" d="M166.3,89.9v-9h3.8c0.4,0,0.8,0.1,1.2,0.3c0.4,0.2,0.7,0.4,0.9,0.7c0.3,0.3,0.5,0.6,0.6,1
				c0.1,0.4,0.2,0.7,0.2,1.1c0,0.4-0.1,0.8-0.2,1.1c-0.1,0.4-0.3,0.7-0.6,1c-0.2,0.3-0.5,0.5-0.9,0.7c-0.3,0.2-0.7,0.3-1.1,0.3h-2.1
				v3H166.3z M168.1,85.3h2c0.3,0,0.6-0.1,0.8-0.4c0.2-0.3,0.3-0.6,0.3-1.1c0-0.2,0-0.4-0.1-0.6c-0.1-0.2-0.2-0.3-0.3-0.5
				s-0.2-0.2-0.4-0.3c-0.1-0.1-0.3-0.1-0.5-0.1h-2V85.3z"/>
		</g>
		<g>
			<path class="st17" d="M174.2,89.9v-9h3.3c0.7,0,1.4,0.1,1.9,0.4c0.6,0.2,1,0.6,1.4,1c0.4,0.4,0.7,0.9,0.8,1.4
				c0.2,0.5,0.3,1.1,0.3,1.7c0,0.7-0.1,1.3-0.3,1.9c-0.2,0.6-0.5,1-0.9,1.4c-0.4,0.4-0.9,0.7-1.4,0.9c-0.5,0.2-1.2,0.3-1.8,0.3
				H174.2z M180.2,85.3c0-0.4-0.1-0.8-0.2-1.2c-0.1-0.4-0.3-0.7-0.5-0.9s-0.5-0.5-0.8-0.6c-0.3-0.1-0.7-0.2-1.1-0.2H176v6h1.5
				c0.4,0,0.8-0.1,1.2-0.2c0.3-0.2,0.6-0.4,0.8-0.6c0.2-0.3,0.4-0.6,0.5-0.9C180.1,86.1,180.2,85.7,180.2,85.3z"/>
		</g>
		<g>
			<path class="st17" d="M183.4,89.9v-9h6.1v1.5h-4.3v2.3h3.6v1.4h-3.6v3.7H183.4z"/>
		</g>
	</g>
	<g>
		<g>
			<path class="st21" d="M0,64.2l5.1-6.2h-5v-1.5h7v1.3L2.2,64h5v1.5H0V64.2z"/>
		</g>
		<g>
			<path class="st21" d="M8.5,65.6v-9h1.8v9H8.5z"/>
		</g>
		<g>
			<path class="st21" d="M12.2,65.6v-9H16c0.4,0,0.8,0.1,1.2,0.3c0.4,0.2,0.7,0.4,0.9,0.7c0.3,0.3,0.5,0.6,0.6,1
				c0.1,0.4,0.2,0.7,0.2,1.1c0,0.4-0.1,0.8-0.2,1.1c-0.1,0.4-0.3,0.7-0.6,1c-0.2,0.3-0.5,0.5-0.9,0.7c-0.3,0.2-0.7,0.3-1.1,0.3h-2.1
				v3H12.2z M13.9,61h2c0.3,0,0.6-0.1,0.8-0.4c0.2-0.3,0.3-0.6,0.3-1.1c0-0.2,0-0.4-0.1-0.6c-0.1-0.2-0.2-0.3-0.3-0.5
				c-0.1-0.1-0.2-0.2-0.4-0.3s-0.3-0.1-0.5-0.1h-2V61z"/>
		</g>
	</g>
	<g class="st25">
		<g>
			<path class="st20" d="M109.6,141.2c-0.1,0.1-0.2,0.1-0.3,0.2c-0.3,0.1-0.5-0.1-0.4-0.4c0-0.2,0.1-0.4,0.2-0.6
				c0.4-0.7,0.2-1.2-0.6-1.4c-0.6-0.2-1.2-0.2-1.7,0.1c-0.7,0.3-0.9,1-0.3,1.5c0.3,0.2,0.6,0.4,0.9,0.6c0.5,0.3,1,0.5,1.5,0.8
				c0.8,0.5,1.3,1.1,1.2,2.1c-0.1,0.9-0.7,1.5-1.5,1.8c-0.5,0.2-0.9,0.4-1.6,0.4c-0.6,0-1.4-0.2-2-0.6c-0.7-0.4-1-1.2-0.9-1.9
				c0.1-0.4,0.3-0.7,0.7-0.8c0.3-0.1,0.5,0,0.5,0.4c0,0.2,0,0.3-0.1,0.5c0,0.6,0.2,1,0.7,1.2c0.9,0.3,1.7,0.2,2.5-0.3
				c0.6-0.4,0.7-1.2,0.1-1.7c-0.5-0.4-1-0.6-1.6-1c-0.4-0.3-0.9-0.5-1.3-0.8c-0.9-0.7-0.9-1.9,0.1-2.7c1.2-0.9,3.1-0.8,4.1,0.1
				C110.5,139.4,110.4,140.6,109.6,141.2z M119.8,138.4c-0.9,1-1,2.2-1.2,3.5C119.2,140.7,119.8,139.7,119.8,138.4z M116.4,141.7
				c-0.1,0-0.3,0-0.4,0c-0.2,0.1-0.5,0.5-0.5,0.8c0,0.5-0.1,1,0,1.5c0,0.5,0.4,0.7,0.9,0.6c0.2-0.1,0.5-0.2,0.7-0.3
				c0.6-0.3,0.6-0.4,0.5-0.9c0-0.1,0-1.2,0.1-1.6C117.1,141.7,116.8,141.7,116.4,141.7z M116.3,138.8c-0.1,0-0.2,0-0.2,0.1
				c-0.3,0.6-0.5,1.2-0.6,1.9c0,0,0.1,0,0.1,0.1c0.1-0.1,0.2-0.1,0.2-0.2c0.2-0.4,0.4-0.8,0.6-1.2c0.1-0.1,0.1-0.3,0.1-0.5
				C116.5,139,116.4,138.8,116.3,138.8z M112.9,142.8c0.1-0.2,0.2-0.5-0.1-0.6c-0.1-0.1-0.4,0-0.6,0.1c-0.3,0.3-0.4,0.7-0.5,1.2
				C112.4,143.4,112.7,143.1,112.9,142.8z M123.1,144.3c-0.8,0.1-1.1-0.2-1.4-1.5c-0.2,0.6-0.4,1.2-0.6,1.7
				c-0.1,0.2-0.1,0.4-0.2,0.6c-0.1,0.2-0.1,0.5-0.4,0.5c-0.4,0-0.4-0.2-0.6-0.3c-0.3,0.1-0.7,0.3-1.2,0.3c-0.6,0.1-0.7-0.4-1-0.8
				c-0.3,0.2-0.6,0.3-0.9,0.5c-1.1,0.6-1.5,0.5-2.1-0.5c-0.5,0.3-1,0.6-1.6,0.8c-1.3,0.4-2.3-0.4-2.3-1.7c0-0.7,0.3-1.4,0.8-2
				c0.4-0.4,0.8-0.6,1.4-0.5c0.7,0.2,1,0.8,0.8,1.5c-0.3,0.6-0.7,1-1.3,1.3c-0.1,0.1-0.3,0.1-0.4,0.2c0.1,0.3,0.4,0.4,0.7,0.3
				c0.6-0.1,1.1-0.4,1.6-0.8c0.1,0,0.1-0.2,0.1-0.2c0-0.6,0-1.3,0-1.9c-0.3,0-0.5-0.1-0.8-0.2c-0.1,0-0.2-0.2-0.3-0.3
				c0.1-0.1,0.2-0.2,0.3-0.2c0.3,0,0.6,0,0.9,0c0.2-0.5,0.3-1.1,0.5-1.6c0.2-0.4,0.4-0.8,0.7-1.2c0.4-0.5,1-0.4,1.3,0.2
				c0.2,0.5,0.2,1.1,0,1.6c-0.1,0.3-0.3,0.6-0.5,1c0.4,0,0.8,0,1.2,0c0.1-0.3,0.2-0.7,0.3-1c0.3-0.7,0.7-1.3,1.1-2
				c0.1-0.2,0.4-0.4,0.6-0.5c0.6-0.3,1.1,0,1.1,0.7c0,0.5,0,0.9-0.2,1.3c-0.4,1-0.9,2-1.4,3c-0.2,0.4-0.4,0.9-0.6,1.3
				c0,0.1,0,0.2,0,0.2c0,0.6,0.2,0.7,0.7,0.5c0.4-0.2,0.7-0.5,0.7-1c0.1-0.6,0.2-1.2,0.4-1.8c0-0.1,0.2-0.3,0.3-0.3
				c0.2-0.1,0.4,0,0.4,0.3c0,0.3,0,0.6,0,1c0.1-0.2,0.1-0.3,0.2-0.4c0.2-0.3,0.4-0.6,0.6-0.8c0.1-0.1,0.4-0.1,0.6,0
				c0.1,0.1,0.2,0.3,0.2,0.5c0,0.3-0.1,0.6-0.1,1c0,0.4,0.2,0.6,0.6,0.4c0.3-0.1,0.6-0.3,0.9-0.4C124.3,143.7,124,144.1,123.1,144.3
				z"/>
		</g>
		<g id="icon_20_">
			<path class="st26" d="M97.9,144.1c0-0.3,0.9-1.4,1.2-1.6c0.3-0.1,1.7,0.1,2,0.3c0.3,0.2,0.8,1.6,0.7,1.8c0,0.2-1,1.5-1.2,1.6
				c-0.2,0-1.7-0.1-2-0.3c0,0,0,0,0,0l-1-0.1c0,0,0.3-0.4,0.6-0.7C98.1,144.8,97.9,144.3,97.9,144.1z M95.2,141.6
				c-0.3,0.3-0.8,0.2-1.1-0.1c-0.3-0.3-0.2-0.8,0.1-1.1c0.3-0.3,0.8-0.2,1.1,0.1C95.5,140.9,95.5,141.4,95.2,141.6z M97.8,143.3
				l-1.1,0.8l-0.1,0.8l-0.3-0.4l-0.1,0.1c-0.3,0.2-0.7,0.2-1-0.1l-0.8-1c-0.2-0.3-0.2-0.7,0.1-1l1.7-1.3c0.3-0.2,0.7-0.2,1,0.1
				l0.8,1C98.2,142.7,98.1,143.1,97.8,143.3z M99.4,138.6c-0.4,0-0.8-0.3-0.8-0.8c0-0.4,0.3-0.8,0.8-0.8c0.4,0,0.8,0.3,0.8,0.8
				C100.2,138.2,99.8,138.6,99.4,138.6z M100.1,139.9c0,0-0.1-0.3-0.2-0.3c-0.1,0-0.2,0.3-0.2,0.3c0,0-0.4,0-0.4,0.1
				c0,0.1,0.3,0.2,0.3,0.3c0,0.1-0.1,0.3,0,0.4c0,0,0.3-0.2,0.4-0.2c0,0,0.3,0.2,0.4,0.2s-0.1-0.3,0-0.4c0,0,0.3-0.2,0.3-0.3
				C100.5,139.9,100.2,139.9,100.1,139.9z M100.6,141.4l-0.8,0.6l0.1-0.6c0,0-1.9,0.1-2.1,0c-0.2-0.1-0.8-2.4-0.6-2.8
				c0.2-0.3,3.4,0.6,3.5,0.9c0.1,0.3,0.3,1.7,0.2,1.8C101,141.5,100.6,141.4,100.6,141.4z M102.2,142.5c-0.2,0.3-0.7,0.3-1,0.1
				c-0.3-0.2-0.3-0.7-0.1-1c0.2-0.3,0.7-0.3,1-0.1C102.4,141.7,102.5,142.2,102.2,142.5z"/>
		</g>
	</g>
</g>
</svg>
